G04 #@! TF.GenerationSoftware,KiCad,Pcbnew,9.0.4*
G04 #@! TF.CreationDate,2025-09-22T12:07:41+05:30*
G04 #@! TF.ProjectId,buck-converter-8A,6275636b-2d63-46f6-9e76-65727465722d,rev?*
G04 #@! TF.SameCoordinates,Original*
G04 #@! TF.FileFunction,Legend,Top*
G04 #@! TF.FilePolarity,Positive*
%FSLAX46Y46*%
G04 Gerber Fmt 4.6, Leading zero omitted, Abs format (unit mm)*
G04 Created by KiCad (PCBNEW 9.0.4) date 2025-09-22 12:07:41*
%MOMM*%
%LPD*%
G01*
G04 APERTURE LIST*
G04 Aperture macros list*
%AMRoundRect*
0 Rectangle with rounded corners*
0 $1 Rounding radius*
0 $2 $3 $4 $5 $6 $7 $8 $9 X,Y pos of 4 corners*
0 Add a 4 corners polygon primitive as box body*
4,1,4,$2,$3,$4,$5,$6,$7,$8,$9,$2,$3,0*
0 Add four circle primitives for the rounded corners*
1,1,$1+$1,$2,$3*
1,1,$1+$1,$4,$5*
1,1,$1+$1,$6,$7*
1,1,$1+$1,$8,$9*
0 Add four rect primitives between the rounded corners*
20,1,$1+$1,$2,$3,$4,$5,0*
20,1,$1+$1,$4,$5,$6,$7,0*
20,1,$1+$1,$6,$7,$8,$9,0*
20,1,$1+$1,$8,$9,$2,$3,0*%
G04 Aperture macros list end*
%ADD10C,0.200000*%
%ADD11C,0.160000*%
%ADD12C,0.180000*%
%ADD13C,0.120000*%
%ADD14C,0.100000*%
%ADD15RoundRect,0.225000X-0.250000X0.225000X-0.250000X-0.225000X0.250000X-0.225000X0.250000X0.225000X0*%
%ADD16RoundRect,0.250001X-0.799999X0.799999X-0.799999X-0.799999X0.799999X-0.799999X0.799999X0.799999X0*%
%ADD17C,2.100000*%
%ADD18RoundRect,0.225000X0.250000X-0.225000X0.250000X0.225000X-0.250000X0.225000X-0.250000X-0.225000X0*%
%ADD19RoundRect,0.200000X-0.200000X-0.275000X0.200000X-0.275000X0.200000X0.275000X-0.200000X0.275000X0*%
%ADD20RoundRect,0.200000X-0.275000X0.200000X-0.275000X-0.200000X0.275000X-0.200000X0.275000X0.200000X0*%
%ADD21RoundRect,0.483900X-1.992600X1.129100X-1.992600X-1.129100X1.992600X-1.129100X1.992600X1.129100X0*%
%ADD22RoundRect,0.225000X-0.225000X-0.250000X0.225000X-0.250000X0.225000X0.250000X-0.225000X0.250000X0*%
%ADD23RoundRect,0.050000X0.070000X-0.250000X0.070000X0.250000X-0.070000X0.250000X-0.070000X-0.250000X0*%
%ADD24RoundRect,0.050000X-0.250000X-0.070000X0.250000X-0.070000X0.250000X0.070000X-0.250000X0.070000X0*%
%ADD25RoundRect,0.050000X-0.070000X0.250000X-0.070000X-0.250000X0.070000X-0.250000X0.070000X0.250000X0*%
%ADD26C,0.700000*%
%ADD27RoundRect,0.050000X-0.050000X-1.900000X0.050000X-1.900000X0.050000X1.900000X-0.050000X1.900000X0*%
%ADD28R,0.550000X0.467500*%
%ADD29RoundRect,0.120000X-0.905000X-0.905000X0.905000X-0.905000X0.905000X0.905000X-0.905000X0.905000X0*%
%ADD30RoundRect,0.250001X0.799999X-0.799999X0.799999X0.799999X-0.799999X0.799999X-0.799999X-0.799999X0*%
%ADD31RoundRect,0.200000X0.275000X-0.200000X0.275000X0.200000X-0.275000X0.200000X-0.275000X-0.200000X0*%
G04 #@! TA.AperFunction,Profile*
%ADD32C,0.050000*%
G04 #@! TD*
G04 APERTURE END LIST*
D10*
G36*
X160871590Y-90880712D02*
G01*
X160954638Y-90902858D01*
X161028281Y-90938782D01*
X161094031Y-90988873D01*
X161150581Y-91051153D01*
X161189035Y-91115077D01*
X161211593Y-91181614D01*
X161219145Y-91252198D01*
X161211590Y-91322177D01*
X161188987Y-91388349D01*
X161150376Y-91452139D01*
X161093482Y-91514515D01*
X161027459Y-91564628D01*
X160953788Y-91600521D01*
X160870996Y-91622614D01*
X160777126Y-91630286D01*
X160683215Y-91622619D01*
X160600309Y-91600533D01*
X160526465Y-91564639D01*
X160460221Y-91514515D01*
X160403053Y-91452105D01*
X160364279Y-91388306D01*
X160341590Y-91322148D01*
X160334009Y-91252198D01*
X160341587Y-91181643D01*
X160364230Y-91115119D01*
X160402849Y-91051187D01*
X160459672Y-90988873D01*
X160525688Y-90938764D01*
X160599522Y-90902840D01*
X160682671Y-90880705D01*
X160777126Y-90873011D01*
X160871590Y-90880712D01*
G37*
G36*
X161596837Y-94482677D02*
G01*
X159956316Y-94482677D01*
X159956316Y-93769853D01*
X160199187Y-93769853D01*
X160207554Y-93812804D01*
X160232068Y-93846148D01*
X160271682Y-93866975D01*
X160340054Y-93875366D01*
X160691580Y-93875366D01*
X160691580Y-94175601D01*
X160699199Y-94244518D01*
X160719882Y-94283770D01*
X160753286Y-94307774D01*
X160796543Y-94316010D01*
X160839817Y-94307777D01*
X160873297Y-94283770D01*
X160894149Y-94244522D01*
X160902606Y-94175601D01*
X160902606Y-93875366D01*
X161254499Y-93875366D01*
X161323430Y-93866932D01*
X161362668Y-93846148D01*
X161386753Y-93812850D01*
X161395000Y-93769853D01*
X161386730Y-93726874D01*
X161362668Y-93694016D01*
X161323489Y-93673640D01*
X161254499Y-93665348D01*
X160902606Y-93665348D01*
X160902606Y-93365112D01*
X160894145Y-93296206D01*
X160873297Y-93257035D01*
X160839810Y-93232956D01*
X160796543Y-93224703D01*
X160753391Y-93232978D01*
X160720431Y-93257035D01*
X160699923Y-93296156D01*
X160691580Y-93365112D01*
X160691580Y-93665348D01*
X160340054Y-93664248D01*
X160270880Y-93672690D01*
X160231610Y-93693466D01*
X160207458Y-93726785D01*
X160199187Y-93769853D01*
X159956316Y-93769853D01*
X159956316Y-91252198D01*
X160122983Y-91252198D01*
X160132515Y-91353823D01*
X160160876Y-91449833D01*
X160208730Y-91541908D01*
X160278046Y-91631293D01*
X160359685Y-91706453D01*
X160449070Y-91764265D01*
X160547304Y-91805864D01*
X160655988Y-91831456D01*
X160777126Y-91840304D01*
X160898292Y-91831445D01*
X161006859Y-91805834D01*
X161104857Y-91764226D01*
X161193902Y-91706423D01*
X161275107Y-91631293D01*
X161344424Y-91541908D01*
X161392277Y-91449833D01*
X161420638Y-91353823D01*
X161430170Y-91252198D01*
X161422817Y-91161583D01*
X161401052Y-91076225D01*
X161364716Y-90994898D01*
X161312858Y-90916634D01*
X161243783Y-90840771D01*
X161165931Y-90777089D01*
X161081459Y-90727857D01*
X160989411Y-90692351D01*
X160888492Y-90670520D01*
X160777126Y-90662992D01*
X160665270Y-90670531D01*
X160564011Y-90692386D01*
X160471758Y-90727909D01*
X160387201Y-90777134D01*
X160309371Y-90840771D01*
X160240295Y-90916634D01*
X160188437Y-90994898D01*
X160152101Y-91076225D01*
X160130336Y-91161583D01*
X160122983Y-91252198D01*
X159956316Y-91252198D01*
X159956316Y-89524057D01*
X160152292Y-89524057D01*
X160152292Y-89799655D01*
X160160725Y-89868586D01*
X160181509Y-89907824D01*
X160214737Y-89931830D01*
X160257805Y-89940064D01*
X160300889Y-89931833D01*
X160334192Y-89907824D01*
X160354908Y-89868596D01*
X160363318Y-89799655D01*
X160363318Y-89723818D01*
X160979451Y-89723818D01*
X161036879Y-89730571D01*
X161082308Y-89749463D01*
X161141611Y-89796738D01*
X161184157Y-89854976D01*
X161210387Y-89921816D01*
X161219145Y-89993370D01*
X161210904Y-90064292D01*
X161186878Y-90126613D01*
X161146605Y-90182414D01*
X161094329Y-90226920D01*
X161039222Y-90252358D01*
X160979451Y-90260816D01*
X160363318Y-90260816D01*
X160363318Y-90184979D01*
X160354904Y-90116052D01*
X160334192Y-90076901D01*
X160300881Y-90052820D01*
X160257805Y-90044569D01*
X160214745Y-90052824D01*
X160181509Y-90076901D01*
X160160729Y-90116062D01*
X160152292Y-90184979D01*
X160152292Y-90460576D01*
X160160776Y-90530309D01*
X160181509Y-90569203D01*
X160214699Y-90592852D01*
X160257805Y-90600985D01*
X160300927Y-90592855D01*
X160334192Y-90569203D01*
X160355169Y-90531537D01*
X160363318Y-90470834D01*
X160961041Y-90470834D01*
X161041486Y-90465999D01*
X161105071Y-90452841D01*
X161154939Y-90432916D01*
X161224717Y-90388459D01*
X161294341Y-90326853D01*
X161353309Y-90254036D01*
X161395641Y-90173163D01*
X161421425Y-90085262D01*
X161430170Y-89990256D01*
X161421439Y-89894490D01*
X161395913Y-89807620D01*
X161353627Y-89727786D01*
X161293333Y-89653659D01*
X161220481Y-89591938D01*
X161141819Y-89548754D01*
X161055986Y-89522712D01*
X160961041Y-89513799D01*
X160363318Y-89513799D01*
X160355169Y-89453096D01*
X160334192Y-89415430D01*
X160300927Y-89391778D01*
X160257805Y-89383648D01*
X160214745Y-89391902D01*
X160181509Y-89415980D01*
X160160729Y-89455141D01*
X160152292Y-89524057D01*
X159956316Y-89524057D01*
X159956316Y-89280700D01*
X160152292Y-89280700D01*
X160562620Y-89280700D01*
X160631793Y-89272258D01*
X160671064Y-89251482D01*
X160695119Y-89218320D01*
X160703304Y-89176103D01*
X160695077Y-89133098D01*
X160671064Y-89099808D01*
X160631793Y-89079032D01*
X160562620Y-89070590D01*
X160363318Y-89070590D01*
X160363318Y-88843169D01*
X161183974Y-88843169D01*
X161183974Y-88983487D01*
X161192407Y-89052418D01*
X161213191Y-89091656D01*
X161246419Y-89115662D01*
X161289487Y-89123896D01*
X161332570Y-89115665D01*
X161365874Y-89091656D01*
X161386589Y-89052428D01*
X161395000Y-88983487D01*
X161395000Y-88491643D01*
X161386586Y-88422717D01*
X161365874Y-88383565D01*
X161332570Y-88359556D01*
X161289487Y-88351325D01*
X161246419Y-88359559D01*
X161213191Y-88383565D01*
X161192411Y-88422727D01*
X161183974Y-88491643D01*
X161183974Y-88633060D01*
X160363318Y-88633060D01*
X160363318Y-88402525D01*
X160562620Y-88402525D01*
X160631793Y-88394083D01*
X160671064Y-88373307D01*
X160695123Y-88340157D01*
X160703304Y-88298019D01*
X160695073Y-88254936D01*
X160671064Y-88221632D01*
X160631793Y-88200856D01*
X160562620Y-88192415D01*
X160152292Y-88192415D01*
X160152292Y-89280700D01*
X159956316Y-89280700D01*
X159956316Y-86654418D01*
X160703304Y-86654418D01*
X160896744Y-86654418D01*
X160896744Y-85777250D01*
X160703304Y-85777250D01*
X160703304Y-86654418D01*
X159956316Y-86654418D01*
X159956316Y-85610583D01*
X161596837Y-85610583D01*
X161596837Y-94482677D01*
G37*
G36*
X120486681Y-91261298D02*
G01*
X120479743Y-91340163D01*
X120460860Y-91400793D01*
X120431727Y-91447228D01*
X120391682Y-91484373D01*
X120349448Y-91505390D01*
X120303499Y-91512349D01*
X120249667Y-91503767D01*
X120200973Y-91477887D01*
X120155488Y-91431932D01*
X120122635Y-91375195D01*
X120101575Y-91303882D01*
X120093939Y-91214220D01*
X120093939Y-91019498D01*
X120486681Y-91019498D01*
X120486681Y-91261298D01*
G37*
G36*
X120864374Y-94370878D02*
G01*
X119288333Y-94370878D01*
X119288333Y-93659061D01*
X119455000Y-93659061D01*
X119463269Y-93702039D01*
X119487331Y-93734898D01*
X119526510Y-93755274D01*
X119595500Y-93763566D01*
X119947393Y-93763566D01*
X119947393Y-94063802D01*
X119955854Y-94132708D01*
X119976702Y-94171879D01*
X120010189Y-94195958D01*
X120053456Y-94204211D01*
X120096608Y-94195936D01*
X120129568Y-94171879D01*
X120150076Y-94132758D01*
X120158419Y-94063802D01*
X120158419Y-93763566D01*
X120509945Y-93764665D01*
X120579119Y-93756224D01*
X120618389Y-93735448D01*
X120642541Y-93702129D01*
X120650812Y-93659061D01*
X120642445Y-93616110D01*
X120617931Y-93582765D01*
X120578317Y-93561939D01*
X120509945Y-93553548D01*
X120158419Y-93553548D01*
X120158419Y-93253312D01*
X120150800Y-93184396D01*
X120130117Y-93145143D01*
X120096713Y-93121139D01*
X120053456Y-93112903D01*
X120010182Y-93121136D01*
X119976702Y-93145143D01*
X119955850Y-93184391D01*
X119947393Y-93253312D01*
X119947393Y-93553548D01*
X119595500Y-93553548D01*
X119526569Y-93561982D01*
X119487331Y-93582765D01*
X119463246Y-93616064D01*
X119455000Y-93659061D01*
X119288333Y-93659061D01*
X119288333Y-90776690D01*
X119455000Y-90776690D01*
X119455000Y-91231623D01*
X119463413Y-91300549D01*
X119484125Y-91339700D01*
X119517436Y-91363781D01*
X119560512Y-91372032D01*
X119603572Y-91363778D01*
X119636808Y-91339700D01*
X119657588Y-91300539D01*
X119666025Y-91231623D01*
X119666025Y-91019498D01*
X119882913Y-91019498D01*
X119882913Y-91214220D01*
X119882913Y-91218250D01*
X119891323Y-91338665D01*
X119913046Y-91422682D01*
X119949846Y-91497987D01*
X120003080Y-91574357D01*
X120065897Y-91640223D01*
X120124347Y-91680419D01*
X120208861Y-91711949D01*
X120298462Y-91722459D01*
X120379244Y-91714570D01*
X120452281Y-91691483D01*
X120519301Y-91653070D01*
X120581478Y-91597895D01*
X120630820Y-91532635D01*
X120666931Y-91456159D01*
X120689661Y-91366310D01*
X120697707Y-91260291D01*
X120697707Y-90776690D01*
X120689274Y-90707759D01*
X120668490Y-90668521D01*
X120635262Y-90644515D01*
X120592194Y-90636281D01*
X120549110Y-90644512D01*
X120515807Y-90668521D01*
X120495091Y-90707749D01*
X120486681Y-90776690D01*
X120486681Y-90809480D01*
X119666025Y-90809480D01*
X119666025Y-90776690D01*
X119657639Y-90708575D01*
X119636808Y-90669070D01*
X119603534Y-90644635D01*
X119560512Y-90636281D01*
X119517429Y-90644512D01*
X119484125Y-90668521D01*
X119463410Y-90707749D01*
X119455000Y-90776690D01*
X119288333Y-90776690D01*
X119288333Y-89419494D01*
X119455000Y-89419494D01*
X119455000Y-89695091D01*
X119463413Y-89764017D01*
X119484125Y-89803168D01*
X119517436Y-89827249D01*
X119560512Y-89835500D01*
X119603572Y-89827246D01*
X119636808Y-89803168D01*
X119657588Y-89764007D01*
X119666025Y-89695091D01*
X119666025Y-89619254D01*
X120300935Y-89619254D01*
X119455000Y-90159275D01*
X119455000Y-90367278D01*
X120486681Y-90367278D01*
X120494797Y-90427095D01*
X120515807Y-90464639D01*
X120549072Y-90488291D01*
X120592194Y-90496421D01*
X120635254Y-90488167D01*
X120668490Y-90464090D01*
X120689270Y-90424929D01*
X120697707Y-90356012D01*
X120697707Y-90080415D01*
X120689274Y-90011484D01*
X120668490Y-89972246D01*
X120635262Y-89948240D01*
X120592194Y-89940006D01*
X120549110Y-89948236D01*
X120515807Y-89972246D01*
X120495091Y-90011474D01*
X120486681Y-90080415D01*
X120486681Y-90156160D01*
X119854886Y-90156160D01*
X120697707Y-89619254D01*
X120697707Y-89376446D01*
X120689274Y-89307515D01*
X120668490Y-89268277D01*
X120635262Y-89244271D01*
X120592194Y-89236037D01*
X120549110Y-89244268D01*
X120515807Y-89268277D01*
X120495091Y-89307505D01*
X120486681Y-89376446D01*
X120486681Y-89409235D01*
X119666025Y-89409235D01*
X119657854Y-89348542D01*
X119636808Y-89310867D01*
X119603618Y-89287218D01*
X119560512Y-89279084D01*
X119517429Y-89287315D01*
X119484125Y-89311324D01*
X119463410Y-89350553D01*
X119455000Y-89419494D01*
X119288333Y-89419494D01*
X119288333Y-88306112D01*
X119455000Y-88306112D01*
X119455000Y-88940381D01*
X119463413Y-89009307D01*
X119484125Y-89048458D01*
X119517436Y-89072539D01*
X119560512Y-89080790D01*
X119603572Y-89072536D01*
X119636808Y-89048458D01*
X119657588Y-89009297D01*
X119666025Y-88940381D01*
X119666025Y-88728256D01*
X120486681Y-88728256D01*
X120486681Y-88940381D01*
X120495095Y-89009307D01*
X120515807Y-89048458D01*
X120549118Y-89072539D01*
X120592194Y-89080790D01*
X120635254Y-89072536D01*
X120668490Y-89048458D01*
X120689270Y-89009297D01*
X120697707Y-88940381D01*
X120697707Y-88306112D01*
X120689270Y-88237196D01*
X120668490Y-88198035D01*
X120635262Y-88174029D01*
X120592194Y-88165795D01*
X120549110Y-88174026D01*
X120515807Y-88198035D01*
X120495095Y-88237186D01*
X120486681Y-88306112D01*
X120486681Y-88518237D01*
X119666025Y-88518237D01*
X119666025Y-88306112D01*
X119657588Y-88237196D01*
X119636808Y-88198035D01*
X119603580Y-88174029D01*
X119560512Y-88165795D01*
X119517429Y-88174026D01*
X119484125Y-88198035D01*
X119463413Y-88237186D01*
X119455000Y-88306112D01*
X119288333Y-88306112D01*
X119288333Y-86545732D01*
X119953255Y-86545732D01*
X120146695Y-86545732D01*
X120146695Y-85668565D01*
X119953255Y-85668565D01*
X119953255Y-86545732D01*
X119288333Y-86545732D01*
X119288333Y-85501898D01*
X120864374Y-85501898D01*
X120864374Y-94370878D01*
G37*
D11*
X133983333Y-97948846D02*
X133950000Y-97982180D01*
X133950000Y-97982180D02*
X133850000Y-98015513D01*
X133850000Y-98015513D02*
X133783333Y-98015513D01*
X133783333Y-98015513D02*
X133683333Y-97982180D01*
X133683333Y-97982180D02*
X133616667Y-97915513D01*
X133616667Y-97915513D02*
X133583333Y-97848846D01*
X133583333Y-97848846D02*
X133550000Y-97715513D01*
X133550000Y-97715513D02*
X133550000Y-97615513D01*
X133550000Y-97615513D02*
X133583333Y-97482180D01*
X133583333Y-97482180D02*
X133616667Y-97415513D01*
X133616667Y-97415513D02*
X133683333Y-97348846D01*
X133683333Y-97348846D02*
X133783333Y-97315513D01*
X133783333Y-97315513D02*
X133850000Y-97315513D01*
X133850000Y-97315513D02*
X133950000Y-97348846D01*
X133950000Y-97348846D02*
X133983333Y-97382180D01*
X134616667Y-97315513D02*
X134283333Y-97315513D01*
X134283333Y-97315513D02*
X134250000Y-97648846D01*
X134250000Y-97648846D02*
X134283333Y-97615513D01*
X134283333Y-97615513D02*
X134350000Y-97582180D01*
X134350000Y-97582180D02*
X134516667Y-97582180D01*
X134516667Y-97582180D02*
X134583333Y-97615513D01*
X134583333Y-97615513D02*
X134616667Y-97648846D01*
X134616667Y-97648846D02*
X134650000Y-97715513D01*
X134650000Y-97715513D02*
X134650000Y-97882180D01*
X134650000Y-97882180D02*
X134616667Y-97948846D01*
X134616667Y-97948846D02*
X134583333Y-97982180D01*
X134583333Y-97982180D02*
X134516667Y-98015513D01*
X134516667Y-98015513D02*
X134350000Y-98015513D01*
X134350000Y-98015513D02*
X134283333Y-97982180D01*
X134283333Y-97982180D02*
X134250000Y-97948846D01*
D12*
X114366666Y-88403259D02*
X114366666Y-89117544D01*
X114366666Y-89117544D02*
X114319047Y-89260401D01*
X114319047Y-89260401D02*
X114223809Y-89355640D01*
X114223809Y-89355640D02*
X114080952Y-89403259D01*
X114080952Y-89403259D02*
X113985714Y-89403259D01*
X115366666Y-89403259D02*
X114795238Y-89403259D01*
X115080952Y-89403259D02*
X115080952Y-88403259D01*
X115080952Y-88403259D02*
X114985714Y-88546116D01*
X114985714Y-88546116D02*
X114890476Y-88641354D01*
X114890476Y-88641354D02*
X114795238Y-88688973D01*
D11*
X130333333Y-92254299D02*
X130000000Y-91778108D01*
X129761905Y-92254299D02*
X129761905Y-91254299D01*
X129761905Y-91254299D02*
X130142857Y-91254299D01*
X130142857Y-91254299D02*
X130238095Y-91301918D01*
X130238095Y-91301918D02*
X130285714Y-91349537D01*
X130285714Y-91349537D02*
X130333333Y-91444775D01*
X130333333Y-91444775D02*
X130333333Y-91587632D01*
X130333333Y-91587632D02*
X130285714Y-91682870D01*
X130285714Y-91682870D02*
X130238095Y-91730489D01*
X130238095Y-91730489D02*
X130142857Y-91778108D01*
X130142857Y-91778108D02*
X129761905Y-91778108D01*
X131190476Y-91587632D02*
X131190476Y-92254299D01*
X130952381Y-91206680D02*
X130714286Y-91920965D01*
X130714286Y-91920965D02*
X131333333Y-91920965D01*
X132333333Y-84404299D02*
X132000000Y-83928108D01*
X131761905Y-84404299D02*
X131761905Y-83404299D01*
X131761905Y-83404299D02*
X132142857Y-83404299D01*
X132142857Y-83404299D02*
X132238095Y-83451918D01*
X132238095Y-83451918D02*
X132285714Y-83499537D01*
X132285714Y-83499537D02*
X132333333Y-83594775D01*
X132333333Y-83594775D02*
X132333333Y-83737632D01*
X132333333Y-83737632D02*
X132285714Y-83832870D01*
X132285714Y-83832870D02*
X132238095Y-83880489D01*
X132238095Y-83880489D02*
X132142857Y-83928108D01*
X132142857Y-83928108D02*
X131761905Y-83928108D01*
X132666667Y-83404299D02*
X133285714Y-83404299D01*
X133285714Y-83404299D02*
X132952381Y-83785251D01*
X132952381Y-83785251D02*
X133095238Y-83785251D01*
X133095238Y-83785251D02*
X133190476Y-83832870D01*
X133190476Y-83832870D02*
X133238095Y-83880489D01*
X133238095Y-83880489D02*
X133285714Y-83975727D01*
X133285714Y-83975727D02*
X133285714Y-84213822D01*
X133285714Y-84213822D02*
X133238095Y-84309060D01*
X133238095Y-84309060D02*
X133190476Y-84356680D01*
X133190476Y-84356680D02*
X133095238Y-84404299D01*
X133095238Y-84404299D02*
X132809524Y-84404299D01*
X132809524Y-84404299D02*
X132714286Y-84356680D01*
X132714286Y-84356680D02*
X132666667Y-84309060D01*
X135783333Y-98015513D02*
X135550000Y-97682180D01*
X135383333Y-98015513D02*
X135383333Y-97315513D01*
X135383333Y-97315513D02*
X135650000Y-97315513D01*
X135650000Y-97315513D02*
X135716667Y-97348846D01*
X135716667Y-97348846D02*
X135750000Y-97382180D01*
X135750000Y-97382180D02*
X135783333Y-97448846D01*
X135783333Y-97448846D02*
X135783333Y-97548846D01*
X135783333Y-97548846D02*
X135750000Y-97615513D01*
X135750000Y-97615513D02*
X135716667Y-97648846D01*
X135716667Y-97648846D02*
X135650000Y-97682180D01*
X135650000Y-97682180D02*
X135383333Y-97682180D01*
X136050000Y-97382180D02*
X136083333Y-97348846D01*
X136083333Y-97348846D02*
X136150000Y-97315513D01*
X136150000Y-97315513D02*
X136316667Y-97315513D01*
X136316667Y-97315513D02*
X136383333Y-97348846D01*
X136383333Y-97348846D02*
X136416667Y-97382180D01*
X136416667Y-97382180D02*
X136450000Y-97448846D01*
X136450000Y-97448846D02*
X136450000Y-97515513D01*
X136450000Y-97515513D02*
X136416667Y-97615513D01*
X136416667Y-97615513D02*
X136016667Y-98015513D01*
X136016667Y-98015513D02*
X136450000Y-98015513D01*
D12*
X145583333Y-89403259D02*
X145107143Y-89403259D01*
X145107143Y-89403259D02*
X145107143Y-88403259D01*
X146440476Y-89403259D02*
X145869048Y-89403259D01*
X146154762Y-89403259D02*
X146154762Y-88403259D01*
X146154762Y-88403259D02*
X146059524Y-88546116D01*
X146059524Y-88546116D02*
X145964286Y-88641354D01*
X145964286Y-88641354D02*
X145869048Y-88688973D01*
D11*
X136333333Y-92109060D02*
X136285714Y-92156680D01*
X136285714Y-92156680D02*
X136142857Y-92204299D01*
X136142857Y-92204299D02*
X136047619Y-92204299D01*
X136047619Y-92204299D02*
X135904762Y-92156680D01*
X135904762Y-92156680D02*
X135809524Y-92061441D01*
X135809524Y-92061441D02*
X135761905Y-91966203D01*
X135761905Y-91966203D02*
X135714286Y-91775727D01*
X135714286Y-91775727D02*
X135714286Y-91632870D01*
X135714286Y-91632870D02*
X135761905Y-91442394D01*
X135761905Y-91442394D02*
X135809524Y-91347156D01*
X135809524Y-91347156D02*
X135904762Y-91251918D01*
X135904762Y-91251918D02*
X136047619Y-91204299D01*
X136047619Y-91204299D02*
X136142857Y-91204299D01*
X136142857Y-91204299D02*
X136285714Y-91251918D01*
X136285714Y-91251918D02*
X136333333Y-91299537D01*
X136666667Y-91204299D02*
X137285714Y-91204299D01*
X137285714Y-91204299D02*
X136952381Y-91585251D01*
X136952381Y-91585251D02*
X137095238Y-91585251D01*
X137095238Y-91585251D02*
X137190476Y-91632870D01*
X137190476Y-91632870D02*
X137238095Y-91680489D01*
X137238095Y-91680489D02*
X137285714Y-91775727D01*
X137285714Y-91775727D02*
X137285714Y-92013822D01*
X137285714Y-92013822D02*
X137238095Y-92109060D01*
X137238095Y-92109060D02*
X137190476Y-92156680D01*
X137190476Y-92156680D02*
X137095238Y-92204299D01*
X137095238Y-92204299D02*
X136809524Y-92204299D01*
X136809524Y-92204299D02*
X136714286Y-92156680D01*
X136714286Y-92156680D02*
X136666667Y-92109060D01*
X135738095Y-88504299D02*
X135738095Y-89313822D01*
X135738095Y-89313822D02*
X135785714Y-89409060D01*
X135785714Y-89409060D02*
X135833333Y-89456680D01*
X135833333Y-89456680D02*
X135928571Y-89504299D01*
X135928571Y-89504299D02*
X136119047Y-89504299D01*
X136119047Y-89504299D02*
X136214285Y-89456680D01*
X136214285Y-89456680D02*
X136261904Y-89409060D01*
X136261904Y-89409060D02*
X136309523Y-89313822D01*
X136309523Y-89313822D02*
X136309523Y-88504299D01*
X137309523Y-89504299D02*
X136738095Y-89504299D01*
X137023809Y-89504299D02*
X137023809Y-88504299D01*
X137023809Y-88504299D02*
X136928571Y-88647156D01*
X136928571Y-88647156D02*
X136833333Y-88742394D01*
X136833333Y-88742394D02*
X136738095Y-88790013D01*
D12*
X165766666Y-88503259D02*
X165766666Y-89217544D01*
X165766666Y-89217544D02*
X165719047Y-89360401D01*
X165719047Y-89360401D02*
X165623809Y-89455640D01*
X165623809Y-89455640D02*
X165480952Y-89503259D01*
X165480952Y-89503259D02*
X165385714Y-89503259D01*
X166195238Y-88598497D02*
X166242857Y-88550878D01*
X166242857Y-88550878D02*
X166338095Y-88503259D01*
X166338095Y-88503259D02*
X166576190Y-88503259D01*
X166576190Y-88503259D02*
X166671428Y-88550878D01*
X166671428Y-88550878D02*
X166719047Y-88598497D01*
X166719047Y-88598497D02*
X166766666Y-88693735D01*
X166766666Y-88693735D02*
X166766666Y-88788973D01*
X166766666Y-88788973D02*
X166719047Y-88931830D01*
X166719047Y-88931830D02*
X166147619Y-89503259D01*
X166147619Y-89503259D02*
X166766666Y-89503259D01*
D11*
X137583333Y-97948846D02*
X137550000Y-97982180D01*
X137550000Y-97982180D02*
X137450000Y-98015513D01*
X137450000Y-98015513D02*
X137383333Y-98015513D01*
X137383333Y-98015513D02*
X137283333Y-97982180D01*
X137283333Y-97982180D02*
X137216667Y-97915513D01*
X137216667Y-97915513D02*
X137183333Y-97848846D01*
X137183333Y-97848846D02*
X137150000Y-97715513D01*
X137150000Y-97715513D02*
X137150000Y-97615513D01*
X137150000Y-97615513D02*
X137183333Y-97482180D01*
X137183333Y-97482180D02*
X137216667Y-97415513D01*
X137216667Y-97415513D02*
X137283333Y-97348846D01*
X137283333Y-97348846D02*
X137383333Y-97315513D01*
X137383333Y-97315513D02*
X137450000Y-97315513D01*
X137450000Y-97315513D02*
X137550000Y-97348846D01*
X137550000Y-97348846D02*
X137583333Y-97382180D01*
X138183333Y-97548846D02*
X138183333Y-98015513D01*
X138016667Y-97282180D02*
X137850000Y-97782180D01*
X137850000Y-97782180D02*
X138283333Y-97782180D01*
X132183333Y-97948846D02*
X132150000Y-97982180D01*
X132150000Y-97982180D02*
X132050000Y-98015513D01*
X132050000Y-98015513D02*
X131983333Y-98015513D01*
X131983333Y-98015513D02*
X131883333Y-97982180D01*
X131883333Y-97982180D02*
X131816667Y-97915513D01*
X131816667Y-97915513D02*
X131783333Y-97848846D01*
X131783333Y-97848846D02*
X131750000Y-97715513D01*
X131750000Y-97715513D02*
X131750000Y-97615513D01*
X131750000Y-97615513D02*
X131783333Y-97482180D01*
X131783333Y-97482180D02*
X131816667Y-97415513D01*
X131816667Y-97415513D02*
X131883333Y-97348846D01*
X131883333Y-97348846D02*
X131983333Y-97315513D01*
X131983333Y-97315513D02*
X132050000Y-97315513D01*
X132050000Y-97315513D02*
X132150000Y-97348846D01*
X132150000Y-97348846D02*
X132183333Y-97382180D01*
X132450000Y-97382180D02*
X132483333Y-97348846D01*
X132483333Y-97348846D02*
X132550000Y-97315513D01*
X132550000Y-97315513D02*
X132716667Y-97315513D01*
X132716667Y-97315513D02*
X132783333Y-97348846D01*
X132783333Y-97348846D02*
X132816667Y-97382180D01*
X132816667Y-97382180D02*
X132850000Y-97448846D01*
X132850000Y-97448846D02*
X132850000Y-97515513D01*
X132850000Y-97515513D02*
X132816667Y-97615513D01*
X132816667Y-97615513D02*
X132416667Y-98015513D01*
X132416667Y-98015513D02*
X132850000Y-98015513D01*
X135633333Y-84209060D02*
X135585714Y-84256680D01*
X135585714Y-84256680D02*
X135442857Y-84304299D01*
X135442857Y-84304299D02*
X135347619Y-84304299D01*
X135347619Y-84304299D02*
X135204762Y-84256680D01*
X135204762Y-84256680D02*
X135109524Y-84161441D01*
X135109524Y-84161441D02*
X135061905Y-84066203D01*
X135061905Y-84066203D02*
X135014286Y-83875727D01*
X135014286Y-83875727D02*
X135014286Y-83732870D01*
X135014286Y-83732870D02*
X135061905Y-83542394D01*
X135061905Y-83542394D02*
X135109524Y-83447156D01*
X135109524Y-83447156D02*
X135204762Y-83351918D01*
X135204762Y-83351918D02*
X135347619Y-83304299D01*
X135347619Y-83304299D02*
X135442857Y-83304299D01*
X135442857Y-83304299D02*
X135585714Y-83351918D01*
X135585714Y-83351918D02*
X135633333Y-83399537D01*
X136585714Y-84304299D02*
X136014286Y-84304299D01*
X136300000Y-84304299D02*
X136300000Y-83304299D01*
X136300000Y-83304299D02*
X136204762Y-83447156D01*
X136204762Y-83447156D02*
X136109524Y-83542394D01*
X136109524Y-83542394D02*
X136014286Y-83590013D01*
X130383333Y-98015513D02*
X130150000Y-97682180D01*
X129983333Y-98015513D02*
X129983333Y-97315513D01*
X129983333Y-97315513D02*
X130250000Y-97315513D01*
X130250000Y-97315513D02*
X130316667Y-97348846D01*
X130316667Y-97348846D02*
X130350000Y-97382180D01*
X130350000Y-97382180D02*
X130383333Y-97448846D01*
X130383333Y-97448846D02*
X130383333Y-97548846D01*
X130383333Y-97548846D02*
X130350000Y-97615513D01*
X130350000Y-97615513D02*
X130316667Y-97648846D01*
X130316667Y-97648846D02*
X130250000Y-97682180D01*
X130250000Y-97682180D02*
X129983333Y-97682180D01*
X131050000Y-98015513D02*
X130650000Y-98015513D01*
X130850000Y-98015513D02*
X130850000Y-97315513D01*
X130850000Y-97315513D02*
X130783333Y-97415513D01*
X130783333Y-97415513D02*
X130716667Y-97482180D01*
X130716667Y-97482180D02*
X130650000Y-97515513D01*
D13*
X121090000Y-87159420D02*
X121090000Y-87440580D01*
X122110000Y-87159420D02*
X122110000Y-87440580D01*
X133590000Y-95559420D02*
X133590000Y-95840580D01*
X134610000Y-95559420D02*
X134610000Y-95840580D01*
X110562500Y-83930000D02*
X110562500Y-86250000D01*
X110562500Y-86850000D02*
X110562500Y-94170000D01*
X111282500Y-83930000D02*
X111282500Y-94170000D01*
X111882500Y-83930000D02*
X111882500Y-94170000D01*
X116782500Y-83930000D02*
X116782500Y-94170000D01*
X117782500Y-85300000D02*
X117782500Y-87800000D01*
X117782500Y-90300000D02*
X117782500Y-92800000D01*
X118782500Y-85300000D02*
X117782500Y-85300000D01*
X118782500Y-85300000D02*
X118782500Y-87800000D01*
X118782500Y-87800000D02*
X117782500Y-87800000D01*
X118782500Y-90300000D02*
X117782500Y-90300000D01*
X118782500Y-90300000D02*
X118782500Y-92800000D01*
X118782500Y-92800000D02*
X117782500Y-92800000D01*
X118902500Y-83930000D02*
X110562500Y-83930000D01*
X118902500Y-83930000D02*
X118902500Y-94170000D01*
X118902500Y-94170000D02*
X110562500Y-94170000D01*
X110562500Y-86550000D02*
X109952500Y-86990000D01*
X109952500Y-86110000D01*
X110562500Y-86550000D01*
G36*
X110562500Y-86550000D02*
G01*
X109952500Y-86990000D01*
X109952500Y-86110000D01*
X110562500Y-86550000D01*
G37*
X124690000Y-87159420D02*
X124690000Y-87440580D01*
X125710000Y-87159420D02*
X125710000Y-87440580D01*
X122890000Y-87159420D02*
X122890000Y-87440580D01*
X123910000Y-87159420D02*
X123910000Y-87440580D01*
X156740000Y-93440580D02*
X156740000Y-93159420D01*
X157760000Y-93440580D02*
X157760000Y-93159420D01*
X131312742Y-92627500D02*
X131787258Y-92627500D01*
X131312742Y-93672500D02*
X131787258Y-93672500D01*
X156740000Y-87159420D02*
X156740000Y-87440580D01*
X157760000Y-87159420D02*
X157760000Y-87440580D01*
X158540000Y-87159420D02*
X158540000Y-87440580D01*
X159560000Y-87159420D02*
X159560000Y-87440580D01*
X128290000Y-87159420D02*
X128290000Y-87440580D01*
X129310000Y-87159420D02*
X129310000Y-87440580D01*
X132262742Y-84727500D02*
X132737258Y-84727500D01*
X132262742Y-85772500D02*
X132737258Y-85772500D01*
X135377500Y-95462742D02*
X135377500Y-95937258D01*
X136422500Y-95462742D02*
X136422500Y-95937258D01*
D14*
X139250000Y-82450000D02*
X142150000Y-82450000D01*
X139250000Y-95450000D02*
X139250000Y-82450000D01*
X139250000Y-95450000D02*
X142150000Y-95450000D01*
X149350000Y-82450000D02*
X152250000Y-82450000D01*
X149350000Y-95450000D02*
X152250000Y-95450000D01*
X152250000Y-82450000D02*
X152250000Y-95450000D01*
D13*
X134709420Y-92640000D02*
X134990580Y-92640000D01*
X134709420Y-93660000D02*
X134990580Y-93660000D01*
D14*
X131500000Y-87300000D02*
X132100000Y-87300000D01*
X131500000Y-87650000D02*
X131500000Y-87300000D01*
X131500000Y-90550000D02*
X131500000Y-90900000D01*
X131500000Y-90900000D02*
X132100000Y-90900000D01*
X135100000Y-87300000D02*
X134500000Y-87300000D01*
X135100000Y-87650000D02*
X135100000Y-87300000D01*
X135100000Y-90550000D02*
X135100000Y-90900000D01*
X135100000Y-90900000D02*
X134500000Y-90900000D01*
X132557715Y-86937687D02*
X132407715Y-86687687D01*
X132707715Y-86687687D01*
X132557715Y-86937687D01*
G36*
X132557715Y-86937687D02*
G01*
X132407715Y-86687687D01*
X132707715Y-86687687D01*
X132557715Y-86937687D01*
G37*
D13*
X154940000Y-87159420D02*
X154940000Y-87440580D01*
X155960000Y-87159420D02*
X155960000Y-87440580D01*
X121090000Y-93040580D02*
X121090000Y-92759420D01*
X122110000Y-93040580D02*
X122110000Y-92759420D01*
X126490000Y-93040580D02*
X126490000Y-92759420D01*
X127510000Y-93040580D02*
X127510000Y-92759420D01*
X126490000Y-87159420D02*
X126490000Y-87440580D01*
X127510000Y-87159420D02*
X127510000Y-87440580D01*
X161947500Y-83930000D02*
X170287500Y-83930000D01*
X161947500Y-94170000D02*
X161947500Y-83930000D01*
X161947500Y-94170000D02*
X170287500Y-94170000D01*
X162067500Y-85300000D02*
X163067500Y-85300000D01*
X162067500Y-87800000D02*
X162067500Y-85300000D01*
X162067500Y-87800000D02*
X163067500Y-87800000D01*
X162067500Y-90300000D02*
X163067500Y-90300000D01*
X162067500Y-92800000D02*
X162067500Y-90300000D01*
X162067500Y-92800000D02*
X163067500Y-92800000D01*
X163067500Y-87800000D02*
X163067500Y-85300000D01*
X163067500Y-92800000D02*
X163067500Y-90300000D01*
X164067500Y-94170000D02*
X164067500Y-83930000D01*
X168967500Y-94170000D02*
X168967500Y-83930000D01*
X169567500Y-94170000D02*
X169567500Y-83930000D01*
X170287500Y-91250000D02*
X170287500Y-83930000D01*
X170287500Y-94170000D02*
X170287500Y-91850000D01*
X170897500Y-91990000D02*
X170287500Y-91550000D01*
X170897500Y-91110000D01*
X170897500Y-91990000D01*
G36*
X170897500Y-91990000D02*
G01*
X170287500Y-91550000D01*
X170897500Y-91110000D01*
X170897500Y-91990000D01*
G37*
X122890000Y-93040580D02*
X122890000Y-92759420D01*
X123910000Y-93040580D02*
X123910000Y-92759420D01*
X158540000Y-93440580D02*
X158540000Y-93159420D01*
X159560000Y-93440580D02*
X159560000Y-93159420D01*
X124690000Y-93040580D02*
X124690000Y-92759420D01*
X125710000Y-93040580D02*
X125710000Y-92759420D01*
X128290000Y-93040580D02*
X128290000Y-92759420D01*
X129310000Y-93040580D02*
X129310000Y-92759420D01*
X154940000Y-93440580D02*
X154940000Y-93159420D01*
X155960000Y-93440580D02*
X155960000Y-93159420D01*
X137190000Y-95840580D02*
X137190000Y-95559420D01*
X138210000Y-95840580D02*
X138210000Y-95559420D01*
X153140000Y-87159420D02*
X153140000Y-87440580D01*
X154160000Y-87159420D02*
X154160000Y-87440580D01*
X131790000Y-95559420D02*
X131790000Y-95840580D01*
X132810000Y-95559420D02*
X132810000Y-95840580D01*
X135659420Y-84740000D02*
X135940580Y-84740000D01*
X135659420Y-85760000D02*
X135940580Y-85760000D01*
X129977500Y-95937258D02*
X129977500Y-95462742D01*
X131022500Y-95937258D02*
X131022500Y-95462742D01*
%LPC*%
D14*
X109025000Y-94799742D02*
X120425000Y-94799742D01*
X120425000Y-99250000D01*
X109025000Y-99250000D01*
X109025000Y-94799742D01*
G36*
X109025000Y-94799742D02*
G01*
X120425000Y-94799742D01*
X120425000Y-99250000D01*
X109025000Y-99250000D01*
X109025000Y-94799742D01*
G37*
X160175000Y-94899742D02*
X172175000Y-94899742D01*
X172175000Y-98950000D01*
X160175000Y-98950000D01*
X160175000Y-94899742D01*
G36*
X160175000Y-94899742D02*
G01*
X172175000Y-94899742D01*
X172175000Y-98950000D01*
X160175000Y-98950000D01*
X160175000Y-94899742D01*
G37*
X109025000Y-80549742D02*
X121375000Y-80549742D01*
X121375000Y-83300000D01*
X109025000Y-83300000D01*
X109025000Y-80549742D01*
G36*
X109025000Y-80549742D02*
G01*
X121375000Y-80549742D01*
X121375000Y-83300000D01*
X109025000Y-83300000D01*
X109025000Y-80549742D01*
G37*
X160470937Y-80449740D02*
X172370937Y-80449740D01*
X172370937Y-83199998D01*
X160470937Y-83199998D01*
X160470937Y-80449740D01*
G36*
X160470937Y-80449740D02*
G01*
X172370937Y-80449740D01*
X172370937Y-83199998D01*
X160470937Y-83199998D01*
X160470937Y-80449740D01*
G37*
X120700000Y-80549740D02*
X128600000Y-80549740D01*
X128600000Y-85350000D01*
X120700000Y-85350000D01*
X120700000Y-80549740D01*
G36*
X120700000Y-80549740D02*
G01*
X128600000Y-80549740D01*
X128600000Y-85350000D01*
X120700000Y-85350000D01*
X120700000Y-80549740D01*
G37*
X153550000Y-80449870D02*
X161450000Y-80449870D01*
X161450000Y-85250130D01*
X153550000Y-85250130D01*
X153550000Y-80449870D01*
G36*
X153550000Y-80449870D02*
G01*
X161450000Y-80449870D01*
X161450000Y-85250130D01*
X153550000Y-85250130D01*
X153550000Y-80449870D01*
G37*
D15*
X121600000Y-86525000D03*
X121600000Y-88075000D03*
X134100000Y-94925000D03*
X134100000Y-96475000D03*
D16*
X114732500Y-86550000D03*
D17*
X114732500Y-91550000D03*
D15*
X125200000Y-86525000D03*
X125200000Y-88075000D03*
X123400000Y-86525000D03*
X123400000Y-88075000D03*
D18*
X157250000Y-94075000D03*
X157250000Y-92525000D03*
D19*
X130725000Y-93150000D03*
X132375000Y-93150000D03*
D15*
X157250000Y-86525000D03*
X157250000Y-88075000D03*
X159050000Y-86525000D03*
X159050000Y-88075000D03*
X128800000Y-86525000D03*
X128800000Y-88075000D03*
D19*
X131675000Y-85250000D03*
X133325000Y-85250000D03*
D20*
X135900000Y-94875000D03*
X135900000Y-96525000D03*
D21*
X145750000Y-83197000D03*
X145750000Y-94703000D03*
D22*
X134075000Y-93150000D03*
X135625000Y-93150000D03*
D23*
X132550000Y-87450000D03*
D24*
X131650000Y-88100000D03*
X131650000Y-88600000D03*
X131650000Y-89100000D03*
X131650000Y-89600000D03*
X131650000Y-90100000D03*
D25*
X132550000Y-90750000D03*
X134050000Y-90750000D03*
D24*
X134950000Y-90100000D03*
X134950000Y-89600000D03*
X134950000Y-89100000D03*
X134950000Y-88600000D03*
X134950000Y-88100000D03*
D23*
X134050000Y-87450000D03*
D26*
X132787500Y-88587500D03*
X132787500Y-89612500D03*
D27*
X133025000Y-89100000D03*
D28*
X133300000Y-87896200D03*
D29*
X133300000Y-89100000D03*
D28*
X133300000Y-90303800D03*
D27*
X133575000Y-89100000D03*
D26*
X133812500Y-88587500D03*
X133812500Y-89612500D03*
D15*
X155450000Y-86525000D03*
X155450000Y-88075000D03*
D18*
X121600000Y-93675000D03*
X121600000Y-92125000D03*
X127000000Y-93675000D03*
X127000000Y-92125000D03*
D15*
X127000000Y-86525000D03*
X127000000Y-88075000D03*
D30*
X166117500Y-91550000D03*
D17*
X166117500Y-86550000D03*
D18*
X123400000Y-93675000D03*
X123400000Y-92125000D03*
X159050000Y-94075000D03*
X159050000Y-92525000D03*
X125200000Y-93675000D03*
X125200000Y-92125000D03*
X128800000Y-93675000D03*
X128800000Y-92125000D03*
X155450000Y-94075000D03*
X155450000Y-92525000D03*
X137700000Y-96475000D03*
X137700000Y-94925000D03*
D15*
X153650000Y-86525000D03*
X153650000Y-88075000D03*
X132300000Y-94925000D03*
X132300000Y-96475000D03*
D22*
X135025000Y-85250000D03*
X136575000Y-85250000D03*
D31*
X130500000Y-96525000D03*
X130500000Y-94875000D03*
%LPD*%
D32*
X110400000Y-98550000D02*
G75*
G02*
X109400000Y-97550000I0J1000000D01*
G01*
X171400000Y-97550000D02*
G75*
G02*
X170400000Y-98550000I-1000000J0D01*
G01*
X170400000Y-98550000D02*
X110400000Y-98550000D01*
X110400000Y-80550000D02*
X170400000Y-80550000D01*
X171400000Y-81550000D02*
X171400000Y-97550000D01*
X170400000Y-80550000D02*
G75*
G02*
X171400000Y-81550000I0J-1000000D01*
G01*
X109400000Y-81550000D02*
G75*
G02*
X110400000Y-80550000I1000000J0D01*
G01*
X109400000Y-97550000D02*
X109400000Y-81550000D01*
M02*
