G04 #@! TF.GenerationSoftware,KiCad,Pcbnew,9.0.4*
G04 #@! TF.CreationDate,2025-09-22T12:07:41+05:30*
G04 #@! TF.ProjectId,buck-converter-8A,6275636b-2d63-46f6-9e76-65727465722d,rev?*
G04 #@! TF.SameCoordinates,Original*
G04 #@! TF.FileFunction,Copper,L1,Top*
G04 #@! TF.FilePolarity,Positive*
%FSLAX46Y46*%
G04 Gerber Fmt 4.6, Leading zero omitted, Abs format (unit mm)*
G04 Created by KiCad (PCBNEW 9.0.4) date 2025-09-22 12:07:41*
%MOMM*%
%LPD*%
G01*
G04 APERTURE LIST*
G04 Aperture macros list*
%AMRoundRect*
0 Rectangle with rounded corners*
0 $1 Rounding radius*
0 $2 $3 $4 $5 $6 $7 $8 $9 X,Y pos of 4 corners*
0 Add a 4 corners polygon primitive as box body*
4,1,4,$2,$3,$4,$5,$6,$7,$8,$9,$2,$3,0*
0 Add four circle primitives for the rounded corners*
1,1,$1+$1,$2,$3*
1,1,$1+$1,$4,$5*
1,1,$1+$1,$6,$7*
1,1,$1+$1,$8,$9*
0 Add four rect primitives between the rounded corners*
20,1,$1+$1,$2,$3,$4,$5,0*
20,1,$1+$1,$4,$5,$6,$7,0*
20,1,$1+$1,$6,$7,$8,$9,0*
20,1,$1+$1,$8,$9,$2,$3,0*%
G04 Aperture macros list end*
G04 #@! TA.AperFunction,SMDPad,CuDef*
%ADD10RoundRect,0.225000X-0.250000X0.225000X-0.250000X-0.225000X0.250000X-0.225000X0.250000X0.225000X0*%
G04 #@! TD*
G04 #@! TA.AperFunction,ComponentPad*
%ADD11RoundRect,0.250001X-0.799999X0.799999X-0.799999X-0.799999X0.799999X-0.799999X0.799999X0.799999X0*%
G04 #@! TD*
G04 #@! TA.AperFunction,ComponentPad*
%ADD12C,2.100000*%
G04 #@! TD*
G04 #@! TA.AperFunction,SMDPad,CuDef*
%ADD13RoundRect,0.225000X0.250000X-0.225000X0.250000X0.225000X-0.250000X0.225000X-0.250000X-0.225000X0*%
G04 #@! TD*
G04 #@! TA.AperFunction,SMDPad,CuDef*
%ADD14RoundRect,0.200000X-0.200000X-0.275000X0.200000X-0.275000X0.200000X0.275000X-0.200000X0.275000X0*%
G04 #@! TD*
G04 #@! TA.AperFunction,SMDPad,CuDef*
%ADD15RoundRect,0.200000X-0.275000X0.200000X-0.275000X-0.200000X0.275000X-0.200000X0.275000X0.200000X0*%
G04 #@! TD*
G04 #@! TA.AperFunction,SMDPad,CuDef*
%ADD16RoundRect,0.483900X-1.992600X1.129100X-1.992600X-1.129100X1.992600X-1.129100X1.992600X1.129100X0*%
G04 #@! TD*
G04 #@! TA.AperFunction,SMDPad,CuDef*
%ADD17RoundRect,0.225000X-0.225000X-0.250000X0.225000X-0.250000X0.225000X0.250000X-0.225000X0.250000X0*%
G04 #@! TD*
G04 #@! TA.AperFunction,SMDPad,CuDef*
%ADD18RoundRect,0.050000X0.070000X-0.250000X0.070000X0.250000X-0.070000X0.250000X-0.070000X-0.250000X0*%
G04 #@! TD*
G04 #@! TA.AperFunction,SMDPad,CuDef*
%ADD19RoundRect,0.050000X-0.250000X-0.070000X0.250000X-0.070000X0.250000X0.070000X-0.250000X0.070000X0*%
G04 #@! TD*
G04 #@! TA.AperFunction,SMDPad,CuDef*
%ADD20RoundRect,0.050000X-0.070000X0.250000X-0.070000X-0.250000X0.070000X-0.250000X0.070000X0.250000X0*%
G04 #@! TD*
G04 #@! TA.AperFunction,ComponentPad*
%ADD21C,0.700000*%
G04 #@! TD*
G04 #@! TA.AperFunction,SMDPad,CuDef*
%ADD22RoundRect,0.050000X-0.050000X-1.900000X0.050000X-1.900000X0.050000X1.900000X-0.050000X1.900000X0*%
G04 #@! TD*
G04 #@! TA.AperFunction,SMDPad,CuDef*
%ADD23R,0.550000X0.467500*%
G04 #@! TD*
G04 #@! TA.AperFunction,SMDPad,CuDef*
%ADD24RoundRect,0.120000X-0.905000X-0.905000X0.905000X-0.905000X0.905000X0.905000X-0.905000X0.905000X0*%
G04 #@! TD*
G04 #@! TA.AperFunction,ComponentPad*
%ADD25RoundRect,0.250001X0.799999X-0.799999X0.799999X0.799999X-0.799999X0.799999X-0.799999X-0.799999X0*%
G04 #@! TD*
G04 #@! TA.AperFunction,SMDPad,CuDef*
%ADD26RoundRect,0.200000X0.275000X-0.200000X0.275000X0.200000X-0.275000X0.200000X-0.275000X-0.200000X0*%
G04 #@! TD*
G04 #@! TA.AperFunction,ViaPad*
%ADD27C,0.700000*%
G04 #@! TD*
G04 #@! TA.AperFunction,Conductor*
%ADD28C,0.240000*%
G04 #@! TD*
G04 #@! TA.AperFunction,Profile*
%ADD29C,0.050000*%
G04 #@! TD*
G04 APERTURE END LIST*
D10*
X121600000Y-86525000D03*
X121600000Y-88075000D03*
X134100000Y-94925000D03*
X134100000Y-96475000D03*
D11*
X114732500Y-86550000D03*
D12*
X114732500Y-91550000D03*
D10*
X125200000Y-86525000D03*
X125200000Y-88075000D03*
X123400000Y-86525000D03*
X123400000Y-88075000D03*
D13*
X157250000Y-94075000D03*
X157250000Y-92525000D03*
D14*
X130725000Y-93150000D03*
X132375000Y-93150000D03*
D10*
X157250000Y-86525000D03*
X157250000Y-88075000D03*
X159050000Y-86525000D03*
X159050000Y-88075000D03*
X128800000Y-86525000D03*
X128800000Y-88075000D03*
D14*
X131675000Y-85250000D03*
X133325000Y-85250000D03*
D15*
X135900000Y-94875000D03*
X135900000Y-96525000D03*
D16*
X145750000Y-83197000D03*
X145750000Y-94703000D03*
D17*
X134075000Y-93150000D03*
X135625000Y-93150000D03*
D18*
X132550000Y-87450000D03*
D19*
X131650000Y-88100000D03*
X131650000Y-88600000D03*
X131650000Y-89100000D03*
X131650000Y-89600000D03*
X131650000Y-90100000D03*
D20*
X132550000Y-90750000D03*
X134050000Y-90750000D03*
D19*
X134950000Y-90100000D03*
X134950000Y-89600000D03*
X134950000Y-89100000D03*
X134950000Y-88600000D03*
X134950000Y-88100000D03*
D18*
X134050000Y-87450000D03*
D21*
X132787500Y-88587500D03*
X132787500Y-89612500D03*
D22*
X133025000Y-89100000D03*
D23*
X133300000Y-87896200D03*
D24*
X133300000Y-89100000D03*
D23*
X133300000Y-90303800D03*
D22*
X133575000Y-89100000D03*
D21*
X133812500Y-88587500D03*
X133812500Y-89612500D03*
D10*
X155450000Y-86525000D03*
X155450000Y-88075000D03*
D13*
X121600000Y-93675000D03*
X121600000Y-92125000D03*
X127000000Y-93675000D03*
X127000000Y-92125000D03*
D10*
X127000000Y-86525000D03*
X127000000Y-88075000D03*
D25*
X166117500Y-91550000D03*
D12*
X166117500Y-86550000D03*
D13*
X123400000Y-93675000D03*
X123400000Y-92125000D03*
X159050000Y-94075000D03*
X159050000Y-92525000D03*
X125200000Y-93675000D03*
X125200000Y-92125000D03*
X128800000Y-93675000D03*
X128800000Y-92125000D03*
X155450000Y-94075000D03*
X155450000Y-92525000D03*
X137700000Y-96475000D03*
X137700000Y-94925000D03*
D10*
X153650000Y-86525000D03*
X153650000Y-88075000D03*
X132300000Y-94925000D03*
X132300000Y-96475000D03*
D17*
X135025000Y-85250000D03*
X136575000Y-85250000D03*
D26*
X130500000Y-96525000D03*
X130500000Y-94875000D03*
D27*
X152000000Y-83676750D03*
X160000000Y-83676750D03*
X122000000Y-95676750D03*
X148250000Y-87750000D03*
X139000000Y-96950000D03*
X149250000Y-86800000D03*
X158000000Y-85100000D03*
X152000000Y-82000000D03*
X168000000Y-83676750D03*
X153200000Y-95400000D03*
X135000000Y-95700000D03*
X155200000Y-96800000D03*
X122000000Y-97150000D03*
X122000000Y-85050000D03*
X159200000Y-96800000D03*
X132000000Y-82000000D03*
X128000000Y-85050000D03*
X162000000Y-82000000D03*
X124000000Y-83676750D03*
X170000000Y-87676750D03*
X156000000Y-85100000D03*
X140000000Y-91676750D03*
X126000000Y-83676750D03*
X114000000Y-83676750D03*
X142800000Y-89800000D03*
X140000000Y-95676750D03*
X136800000Y-95700000D03*
X160000000Y-85100000D03*
X128000000Y-95676750D03*
X141600000Y-90950000D03*
X126000000Y-85050000D03*
X170000000Y-81900000D03*
X130800000Y-87050000D03*
X118000000Y-85676750D03*
X116000000Y-83676750D03*
X134000000Y-82000000D03*
X112000000Y-83676750D03*
X168000000Y-85676750D03*
X133200000Y-95700000D03*
X128000000Y-82000000D03*
X112000000Y-82050000D03*
X162000000Y-83676750D03*
X153200000Y-96800000D03*
X134150000Y-86000000D03*
X120000000Y-85676750D03*
X126000000Y-97150000D03*
X126000000Y-95676750D03*
X118000000Y-82050000D03*
X150200000Y-83700000D03*
X170000000Y-83676750D03*
X122000000Y-83676750D03*
X147200000Y-88750000D03*
X124000000Y-95676750D03*
X150200000Y-85800000D03*
X164000000Y-83676750D03*
X150200000Y-82000000D03*
X120000000Y-83676750D03*
X133200000Y-94050000D03*
X146150000Y-89800000D03*
X130000000Y-82000000D03*
X124000000Y-82050000D03*
X135000000Y-94100000D03*
X157200000Y-96800000D03*
X114000000Y-82050000D03*
X160000000Y-82000000D03*
X124000000Y-85050000D03*
X124000000Y-97150000D03*
X164000000Y-85676750D03*
X144450000Y-89800000D03*
X168000000Y-87676750D03*
X112000000Y-85676750D03*
X154000000Y-85100000D03*
X132000000Y-83676750D03*
X128000000Y-83676750D03*
X157200000Y-95400000D03*
X118000000Y-83676750D03*
X168000000Y-81900000D03*
X128000000Y-97150000D03*
X134000000Y-83676750D03*
X164000000Y-82000000D03*
X133200000Y-92450000D03*
X166000000Y-82000000D03*
X159200000Y-95400000D03*
X130000000Y-83676750D03*
X120000000Y-82050000D03*
X170000000Y-85676750D03*
X154000000Y-83676750D03*
X155200000Y-95400000D03*
X138650000Y-92650000D03*
X158000000Y-83676750D03*
X137650000Y-91050000D03*
X126000000Y-82050000D03*
X152000000Y-85676750D03*
X156000000Y-82000000D03*
X130000000Y-85676750D03*
X154000000Y-82000000D03*
X158000000Y-82000000D03*
X116000000Y-82050000D03*
X140000000Y-93676750D03*
X156000000Y-83676750D03*
X122000000Y-82050000D03*
X162000000Y-85676750D03*
X166000000Y-83676750D03*
D28*
X135025000Y-88025000D02*
X134950000Y-88100000D01*
X135025000Y-85250000D02*
X135025000Y-88025000D01*
X132250000Y-94875000D02*
X132300000Y-94925000D01*
X130500000Y-94875000D02*
X132250000Y-94875000D01*
X130500000Y-94875000D02*
X130700000Y-94675000D01*
X130700000Y-94675000D02*
X130700000Y-93175000D01*
X130725000Y-93150000D02*
X130725000Y-92575000D01*
X130725000Y-92575000D02*
X132550000Y-90750000D01*
X132300000Y-96475000D02*
X130550000Y-96475000D01*
X160850000Y-97850000D02*
X161000000Y-97700000D01*
X132300000Y-96475000D02*
X132300000Y-96950000D01*
X133200000Y-97850000D02*
X160850000Y-97850000D01*
X130550000Y-96475000D02*
X130500000Y-96525000D01*
X132300000Y-96950000D02*
X133200000Y-97850000D01*
X135625000Y-93150000D02*
X135625000Y-92325000D01*
X135625000Y-92325000D02*
X134050000Y-90750000D01*
X135900000Y-94875000D02*
X135900000Y-93425000D01*
X135900000Y-93425000D02*
X135625000Y-93150000D01*
X137700000Y-94925000D02*
X137700000Y-92850000D01*
X137700000Y-92850000D02*
X134950000Y-90100000D01*
X135900000Y-96525000D02*
X134150000Y-96525000D01*
X134150000Y-96525000D02*
X134100000Y-96475000D01*
X131675000Y-85250000D02*
X131675000Y-86575000D01*
X131675000Y-86575000D02*
X132550000Y-87450000D01*
G04 #@! TA.AperFunction,Conductor*
G36*
X149448897Y-81069407D02*
G01*
X149484861Y-81118907D01*
X149489701Y-81150471D01*
X149451386Y-85058571D01*
X149431909Y-85116573D01*
X149422395Y-85127604D01*
X145628996Y-88921004D01*
X145574479Y-88948781D01*
X145558992Y-88950000D01*
X142100000Y-88950000D01*
X140728996Y-90321004D01*
X140674479Y-90348781D01*
X140658992Y-90350000D01*
X136291008Y-90350000D01*
X136232817Y-90331093D01*
X136221004Y-90321004D01*
X135479496Y-89579496D01*
X135451719Y-89524979D01*
X135450500Y-89509492D01*
X135450500Y-89505327D01*
X135450498Y-89505315D01*
X135441879Y-89461985D01*
X135435966Y-89432260D01*
X135380601Y-89349399D01*
X135380599Y-89349397D01*
X135297742Y-89294035D01*
X135297740Y-89294034D01*
X135297737Y-89294033D01*
X135297736Y-89294033D01*
X135224684Y-89279501D01*
X135224674Y-89279500D01*
X134699000Y-89279500D01*
X134640809Y-89260593D01*
X134604845Y-89211093D01*
X134600000Y-89180500D01*
X134600000Y-88519500D01*
X134618907Y-88461309D01*
X134668407Y-88425345D01*
X134699000Y-88420500D01*
X135224673Y-88420500D01*
X135224674Y-88420500D01*
X135297740Y-88405966D01*
X135380601Y-88350601D01*
X135435966Y-88267740D01*
X135443443Y-88230151D01*
X135470534Y-88179465D01*
X135800000Y-87850000D01*
X135800000Y-81149500D01*
X135818907Y-81091309D01*
X135868407Y-81055345D01*
X135899000Y-81050500D01*
X149390706Y-81050500D01*
X149448897Y-81069407D01*
G37*
G04 #@! TD.AperFunction*
G04 #@! TA.AperFunction,Conductor*
G36*
X163817183Y-87418907D02*
G01*
X163828996Y-87428996D01*
X166000000Y-89600000D01*
X170751000Y-89600000D01*
X170809191Y-89618907D01*
X170845155Y-89668407D01*
X170850000Y-89699000D01*
X170850000Y-97738257D01*
X170834825Y-97790929D01*
X170796459Y-97851987D01*
X170782638Y-97869319D01*
X170719319Y-97932638D01*
X170701987Y-97946459D01*
X170626171Y-97994098D01*
X170606196Y-98003718D01*
X170521673Y-98033293D01*
X170500061Y-98038225D01*
X170405529Y-98048877D01*
X170394444Y-98049500D01*
X159999000Y-98049500D01*
X159940809Y-98030593D01*
X159904845Y-97981093D01*
X159900000Y-97950500D01*
X159900000Y-93604612D01*
X159602257Y-93300000D01*
X154400000Y-93300000D01*
X152200000Y-95500000D01*
X152200000Y-95500001D01*
X152200000Y-96901000D01*
X152181093Y-96959191D01*
X152131593Y-96995155D01*
X152101000Y-97000000D01*
X140799000Y-97000000D01*
X140740809Y-96981093D01*
X140704845Y-96931593D01*
X140700000Y-96901000D01*
X140700000Y-93541008D01*
X140718907Y-93482817D01*
X140728996Y-93471004D01*
X143471004Y-90728996D01*
X143525521Y-90701219D01*
X143541008Y-90700000D01*
X146787404Y-90700000D01*
X150063856Y-87428939D01*
X150118396Y-87401206D01*
X150133802Y-87400000D01*
X163758992Y-87400000D01*
X163817183Y-87418907D01*
G37*
G04 #@! TD.AperFunction*
G04 #@! TA.AperFunction,Conductor*
G36*
X129566589Y-87302468D02*
G01*
X129574479Y-87301219D01*
X129595133Y-87311742D01*
X129617183Y-87318907D01*
X129628996Y-87328996D01*
X129750000Y-87450000D01*
X131241918Y-88950000D01*
X131901000Y-88950000D01*
X131959191Y-88968907D01*
X131995155Y-89018407D01*
X132000000Y-89049000D01*
X132000000Y-90805737D01*
X131997531Y-90813334D01*
X131998781Y-90821223D01*
X131988257Y-90841876D01*
X131981093Y-90863928D01*
X131971004Y-90875740D01*
X131925742Y-90921003D01*
X131871226Y-90948781D01*
X131855738Y-90950000D01*
X131599994Y-90950000D01*
X130643688Y-91906307D01*
X129730844Y-92819152D01*
X129676327Y-92846929D01*
X129661429Y-92848146D01*
X120950001Y-92899999D01*
X120950000Y-92899999D01*
X120950000Y-92900000D01*
X120600000Y-93250000D01*
X120600000Y-93250001D01*
X120600000Y-97950500D01*
X120581093Y-98008691D01*
X120531593Y-98044655D01*
X120501000Y-98049500D01*
X110405556Y-98049500D01*
X110394471Y-98048877D01*
X110299938Y-98038225D01*
X110278326Y-98033293D01*
X110230296Y-98016487D01*
X110193801Y-98003717D01*
X110173828Y-97994098D01*
X110098012Y-97946459D01*
X110080680Y-97932638D01*
X110017361Y-97869319D01*
X110003540Y-97851987D01*
X109955901Y-97776171D01*
X109946283Y-97756202D01*
X109916705Y-97671669D01*
X109911775Y-97650073D01*
X109901121Y-97555512D01*
X109900500Y-97544444D01*
X109900500Y-88249000D01*
X109919407Y-88190809D01*
X109968907Y-88154845D01*
X109999500Y-88150000D01*
X119725758Y-88150000D01*
X120520830Y-87330082D01*
X120574913Y-87301469D01*
X120591902Y-87300000D01*
X129558992Y-87300000D01*
X129566589Y-87302468D01*
G37*
G04 #@! TD.AperFunction*
G04 #@! TA.AperFunction,Conductor*
G36*
X130025218Y-92935100D02*
G01*
X130088787Y-92978777D01*
X130122001Y-93048387D01*
X130124500Y-93075560D01*
X130124500Y-93456518D01*
X130139354Y-93550304D01*
X130139355Y-93550306D01*
X130196950Y-93663342D01*
X130294950Y-93761342D01*
X130293980Y-93762311D01*
X130296084Y-93764908D01*
X130309228Y-93773416D01*
X130319948Y-93794378D01*
X130334767Y-93812678D01*
X130344346Y-93842085D01*
X130367397Y-93949738D01*
X130370359Y-93970861D01*
X130374433Y-94030980D01*
X130372296Y-94068117D01*
X130365112Y-94107012D01*
X130355859Y-94137899D01*
X130353562Y-94143340D01*
X130343693Y-94162657D01*
X130332018Y-94181907D01*
X130319097Y-94200011D01*
X130309040Y-94212083D01*
X130292198Y-94229264D01*
X130282999Y-94237244D01*
X130252000Y-94252323D01*
X130246017Y-94256545D01*
X130242702Y-94256846D01*
X130213642Y-94270984D01*
X130206611Y-94272169D01*
X130176825Y-94276461D01*
X130176822Y-94276461D01*
X130176814Y-94276463D01*
X130171987Y-94277489D01*
X130171955Y-94277338D01*
X130162651Y-94279382D01*
X130099700Y-94289353D01*
X130099697Y-94289353D01*
X130099696Y-94289354D01*
X130099695Y-94289354D01*
X130099693Y-94289355D01*
X129986657Y-94346950D01*
X129896950Y-94436657D01*
X129839354Y-94549694D01*
X129836633Y-94566874D01*
X129824500Y-94643481D01*
X129824500Y-94643482D01*
X129824500Y-94643485D01*
X129824500Y-95106518D01*
X129836690Y-95183483D01*
X129839354Y-95200304D01*
X129896950Y-95313342D01*
X129986658Y-95403050D01*
X130099696Y-95460646D01*
X130193481Y-95475500D01*
X130806518Y-95475499D01*
X130900304Y-95460646D01*
X131013342Y-95403050D01*
X131103050Y-95313342D01*
X131104483Y-95310528D01*
X131107645Y-95307016D01*
X131109941Y-95303857D01*
X131110273Y-95304098D01*
X131120883Y-95292313D01*
X131133452Y-95271268D01*
X131146270Y-95264117D01*
X131156090Y-95253211D01*
X131200806Y-95233694D01*
X131294606Y-95210040D01*
X131318393Y-95206057D01*
X131352978Y-95203115D01*
X131386031Y-95203985D01*
X131462999Y-95214640D01*
X131486267Y-95219786D01*
X131530922Y-95233490D01*
X131546489Y-95239235D01*
X131571154Y-95249935D01*
X131589044Y-95257696D01*
X131649445Y-95305659D01*
X131662505Y-95326743D01*
X131701472Y-95403220D01*
X131796780Y-95498528D01*
X131881076Y-95541479D01*
X131927323Y-95565043D01*
X131926217Y-95567211D01*
X131977170Y-95600303D01*
X132012184Y-95669025D01*
X132008145Y-95746048D01*
X131966136Y-95810731D01*
X131926607Y-95833553D01*
X131927323Y-95834957D01*
X131796779Y-95901472D01*
X131701472Y-95996779D01*
X131687510Y-96024181D01*
X131673843Y-96039358D01*
X131664371Y-96057452D01*
X131648486Y-96067520D01*
X131635900Y-96081498D01*
X131599225Y-96098742D01*
X131496449Y-96130884D01*
X131469782Y-96136608D01*
X131381686Y-96147211D01*
X131355352Y-96148035D01*
X131308837Y-96145368D01*
X131294081Y-96143781D01*
X131214565Y-96131200D01*
X131198765Y-96127813D01*
X131162085Y-96117842D01*
X131095811Y-96079419D01*
X131013342Y-95996950D01*
X130900305Y-95939354D01*
X130884673Y-95936878D01*
X130806519Y-95924500D01*
X130806514Y-95924500D01*
X130193481Y-95924500D01*
X130099695Y-95939354D01*
X130099693Y-95939355D01*
X129986657Y-95996950D01*
X129896950Y-96086657D01*
X129839354Y-96199694D01*
X129836690Y-96216516D01*
X129824500Y-96293481D01*
X129824500Y-96293482D01*
X129824500Y-96293485D01*
X129824500Y-96756518D01*
X129836634Y-96833128D01*
X129839354Y-96850304D01*
X129896950Y-96963342D01*
X129986658Y-97053050D01*
X130099696Y-97110646D01*
X130193481Y-97125500D01*
X130806518Y-97125499D01*
X130900304Y-97110646D01*
X131013342Y-97053050D01*
X131103050Y-96963342D01*
X131128725Y-96912950D01*
X131141823Y-96898402D01*
X131150703Y-96880953D01*
X131167180Y-96870239D01*
X131180331Y-96855634D01*
X131215360Y-96838913D01*
X131288698Y-96815041D01*
X131317294Y-96808759D01*
X131356066Y-96804172D01*
X131392255Y-96804316D01*
X131484724Y-96816010D01*
X131506297Y-96820378D01*
X131561024Y-96835743D01*
X131576762Y-96841126D01*
X131610468Y-96854801D01*
X131671995Y-96901308D01*
X131687207Y-96925224D01*
X131700366Y-96951051D01*
X131701472Y-96953220D01*
X131796780Y-97048528D01*
X131916874Y-97109719D01*
X131937762Y-97113027D01*
X131953868Y-97116501D01*
X131960220Y-97118244D01*
X132000156Y-97135830D01*
X132044373Y-97163663D01*
X132064159Y-97178549D01*
X132163763Y-97267363D01*
X132169959Y-97273214D01*
X132249741Y-97352996D01*
X132252423Y-97355749D01*
X132336580Y-97444364D01*
X132336586Y-97444369D01*
X132341184Y-97449211D01*
X132356105Y-97465446D01*
X132359006Y-97468537D01*
X132359347Y-97468893D01*
X132376311Y-97480495D01*
X132383938Y-97487430D01*
X132384809Y-97488786D01*
X132389051Y-97492306D01*
X132691886Y-97795141D01*
X132730450Y-97861936D01*
X132730450Y-97939064D01*
X132691886Y-98005859D01*
X132625091Y-98044423D01*
X132586527Y-98049500D01*
X120954500Y-98049500D01*
X120880000Y-98029538D01*
X120825462Y-97975000D01*
X120805500Y-97900500D01*
X120805500Y-93396837D01*
X120810577Y-93377889D01*
X120810577Y-93358273D01*
X120820384Y-93341285D01*
X120825462Y-93322337D01*
X120849138Y-93291481D01*
X120992355Y-93148263D01*
X121059147Y-93109701D01*
X121096819Y-93104627D01*
X129662652Y-93053642D01*
X129678160Y-93052964D01*
X129693058Y-93051747D01*
X129769620Y-93030032D01*
X129824137Y-93002255D01*
X129876155Y-92964462D01*
X129876161Y-92964455D01*
X129878717Y-92962273D01*
X129880033Y-92961645D01*
X129880892Y-92961021D01*
X129881007Y-92961180D01*
X129948327Y-92929059D01*
X130025218Y-92935100D01*
G37*
G04 #@! TD.AperFunction*
G04 #@! TA.AperFunction,Conductor*
G36*
X135520000Y-81070462D02*
G01*
X135574538Y-81125000D01*
X135594500Y-81199500D01*
X135594500Y-84454835D01*
X135574538Y-84529335D01*
X135520000Y-84583873D01*
X135445500Y-84603835D01*
X135394993Y-84591710D01*
X135394280Y-84593905D01*
X135383128Y-84590281D01*
X135354658Y-84585772D01*
X135283488Y-84574500D01*
X134766512Y-84574500D01*
X134695342Y-84585772D01*
X134666872Y-84590281D01*
X134546779Y-84651472D01*
X134451472Y-84746779D01*
X134390281Y-84866872D01*
X134390281Y-84866874D01*
X134374500Y-84966512D01*
X134374500Y-85533488D01*
X134378148Y-85556518D01*
X134390281Y-85633127D01*
X134451472Y-85753220D01*
X134546780Y-85848528D01*
X134574180Y-85862489D01*
X134589358Y-85876155D01*
X134607453Y-85885629D01*
X134617520Y-85901513D01*
X134631496Y-85914097D01*
X134648742Y-85950774D01*
X134680883Y-86053547D01*
X134686607Y-86080214D01*
X134699732Y-86189252D01*
X134700984Y-86195334D01*
X134699977Y-86195541D01*
X134704500Y-86226924D01*
X134704500Y-87652126D01*
X134703315Y-87656547D01*
X134704234Y-87661034D01*
X134693403Y-87693537D01*
X134684538Y-87726626D01*
X134681300Y-87729863D01*
X134679853Y-87734207D01*
X134663263Y-87747900D01*
X134630000Y-87781164D01*
X134622153Y-87785387D01*
X134606584Y-87793173D01*
X134602260Y-87794034D01*
X134594505Y-87799215D01*
X134586153Y-87803393D01*
X134557210Y-87809319D01*
X134529242Y-87818813D01*
X134519913Y-87816957D01*
X134510592Y-87818866D01*
X134482561Y-87809526D01*
X134453596Y-87803764D01*
X134446444Y-87797492D01*
X134437419Y-87794485D01*
X134417815Y-87772384D01*
X134395609Y-87752909D01*
X134392551Y-87743901D01*
X134386239Y-87736785D01*
X134380312Y-87707842D01*
X134370819Y-87679874D01*
X134370500Y-87670132D01*
X134370500Y-87175330D01*
X134370499Y-87175322D01*
X134365151Y-87148438D01*
X134355966Y-87102260D01*
X134300601Y-87019399D01*
X134217740Y-86964034D01*
X134217739Y-86964033D01*
X134144677Y-86949500D01*
X134144674Y-86949500D01*
X133955326Y-86949500D01*
X133955322Y-86949500D01*
X133882260Y-86964033D01*
X133799399Y-87019398D01*
X133799398Y-87019399D01*
X133744033Y-87102260D01*
X133729500Y-87175322D01*
X133729500Y-87724677D01*
X133744033Y-87797739D01*
X133792316Y-87870000D01*
X133799399Y-87880601D01*
X133882260Y-87935966D01*
X133955326Y-87950500D01*
X133955330Y-87950500D01*
X134144670Y-87950500D01*
X134144674Y-87950500D01*
X134217740Y-87935966D01*
X134217741Y-87935964D01*
X134231295Y-87930351D01*
X134231665Y-87931245D01*
X134253903Y-87923695D01*
X134290374Y-87911211D01*
X134290565Y-87911248D01*
X134290750Y-87911186D01*
X134328407Y-87918675D01*
X134366059Y-87926065D01*
X134366205Y-87926192D01*
X134366397Y-87926231D01*
X134395193Y-87951483D01*
X134424177Y-87976770D01*
X134424230Y-87976947D01*
X134424386Y-87977083D01*
X134449156Y-88049741D01*
X134449500Y-88054791D01*
X134449500Y-88194674D01*
X134463989Y-88267516D01*
X134464640Y-88277066D01*
X134458994Y-88305832D01*
X134457077Y-88335086D01*
X134450430Y-88349468D01*
X134449786Y-88352751D01*
X134447930Y-88354878D01*
X134443893Y-88363614D01*
X134423465Y-88397803D01*
X134423464Y-88397805D01*
X134404557Y-88455996D01*
X134404556Y-88455999D01*
X134398128Y-88496588D01*
X134394500Y-88519500D01*
X134394500Y-89180500D01*
X134397030Y-89212644D01*
X134401875Y-89243237D01*
X134402648Y-89247787D01*
X134402649Y-89247789D01*
X134402648Y-89247789D01*
X134438592Y-89331883D01*
X134442721Y-89339159D01*
X134440593Y-89340365D01*
X134463572Y-89400229D01*
X134461525Y-89444869D01*
X134449501Y-89505319D01*
X134449500Y-89505330D01*
X134449500Y-89694677D01*
X134464034Y-89767740D01*
X134469650Y-89781299D01*
X134468611Y-89781728D01*
X134488478Y-89840258D01*
X134487449Y-89869999D01*
X134482825Y-89904136D01*
X134464034Y-89932260D01*
X134449500Y-90005326D01*
X134449500Y-90150178D01*
X134448152Y-90160131D01*
X134437007Y-90186754D01*
X134429538Y-90214632D01*
X134422314Y-90221855D01*
X134418371Y-90231277D01*
X134395409Y-90248760D01*
X134375000Y-90269170D01*
X134365133Y-90271813D01*
X134357006Y-90278002D01*
X134328376Y-90281662D01*
X134300500Y-90289132D01*
X134290633Y-90286488D01*
X134280501Y-90287784D01*
X134253877Y-90276639D01*
X134226000Y-90269170D01*
X134217742Y-90264034D01*
X134217739Y-90264033D01*
X134144677Y-90249500D01*
X134144674Y-90249500D01*
X133955326Y-90249500D01*
X133955322Y-90249500D01*
X133882260Y-90264033D01*
X133799399Y-90319398D01*
X133799398Y-90319399D01*
X133744033Y-90402260D01*
X133729500Y-90475322D01*
X133729500Y-91024677D01*
X133744033Y-91097739D01*
X133744034Y-91097740D01*
X133799399Y-91180601D01*
X133882260Y-91235966D01*
X133955326Y-91250500D01*
X134035527Y-91250500D01*
X134110027Y-91270462D01*
X134140886Y-91294141D01*
X135169050Y-92322306D01*
X135207614Y-92389101D01*
X135207614Y-92466229D01*
X135169050Y-92533024D01*
X135151273Y-92548207D01*
X135146781Y-92551470D01*
X135051472Y-92646779D01*
X134990281Y-92766872D01*
X134990281Y-92766874D01*
X134974500Y-92866512D01*
X134974500Y-93433488D01*
X134981472Y-93477506D01*
X134990281Y-93533127D01*
X135007629Y-93567174D01*
X135051472Y-93653220D01*
X135146780Y-93748528D01*
X135266874Y-93809719D01*
X135366512Y-93825500D01*
X135366521Y-93825500D01*
X135367752Y-93825695D01*
X135370394Y-93826871D01*
X135373279Y-93826678D01*
X135405443Y-93842475D01*
X135438213Y-93857065D01*
X135442508Y-93860680D01*
X135478756Y-93892366D01*
X135503433Y-93920073D01*
X135541643Y-93975592D01*
X135555715Y-94001046D01*
X135558519Y-94007546D01*
X135559479Y-94009770D01*
X135570659Y-94086083D01*
X135570113Y-94090242D01*
X135568213Y-94103295D01*
X135560150Y-94158665D01*
X135554182Y-94183942D01*
X135544432Y-94213450D01*
X135536351Y-94233084D01*
X135533207Y-94239402D01*
X135510572Y-94265025D01*
X135502104Y-94277925D01*
X135496835Y-94280576D01*
X135482145Y-94297207D01*
X135467457Y-94305780D01*
X135386658Y-94346949D01*
X135296950Y-94436657D01*
X135239354Y-94549694D01*
X135236633Y-94566874D01*
X135224500Y-94643481D01*
X135224500Y-94643482D01*
X135224500Y-94643485D01*
X135224500Y-95106518D01*
X135236690Y-95183483D01*
X135239354Y-95200304D01*
X135296950Y-95313342D01*
X135386658Y-95403050D01*
X135499696Y-95460646D01*
X135593481Y-95475500D01*
X136206518Y-95475499D01*
X136300304Y-95460646D01*
X136413342Y-95403050D01*
X136503050Y-95313342D01*
X136560646Y-95200304D01*
X136575500Y-95106519D01*
X136575499Y-94643482D01*
X136560646Y-94549696D01*
X136503050Y-94436658D01*
X136413342Y-94346950D01*
X136413341Y-94346949D01*
X136334382Y-94306717D01*
X136319756Y-94293547D01*
X136302227Y-94284596D01*
X136291594Y-94268190D01*
X136277065Y-94255108D01*
X136260279Y-94219873D01*
X136239105Y-94154504D01*
X136232866Y-94125919D01*
X136232768Y-94125086D01*
X136226328Y-94070082D01*
X136225352Y-94055929D01*
X136225167Y-94047255D01*
X136223091Y-93949723D01*
X136223058Y-93946553D01*
X136223059Y-93913709D01*
X136223068Y-93659110D01*
X136224234Y-93640525D01*
X136227296Y-93616205D01*
X136242367Y-93567180D01*
X136259719Y-93533126D01*
X136275500Y-93433488D01*
X136275500Y-92866512D01*
X136259719Y-92766874D01*
X136198528Y-92646780D01*
X136103220Y-92551472D01*
X136039734Y-92519124D01*
X135983314Y-92468879D01*
X135970434Y-92449513D01*
X135945798Y-92376425D01*
X135945500Y-92366999D01*
X135945500Y-92282806D01*
X135945499Y-92282799D01*
X135923660Y-92201293D01*
X135923659Y-92201291D01*
X135881464Y-92128208D01*
X135821792Y-92068536D01*
X135821791Y-92068535D01*
X134414141Y-90660885D01*
X134404333Y-90643897D01*
X134390462Y-90630026D01*
X134385384Y-90611077D01*
X134375577Y-90594090D01*
X134370500Y-90555526D01*
X134370500Y-90529867D01*
X134390462Y-90455367D01*
X134445000Y-90400829D01*
X134519500Y-90380867D01*
X134594000Y-90400829D01*
X134602251Y-90405960D01*
X134602260Y-90405966D01*
X134675326Y-90420500D01*
X134755527Y-90420500D01*
X134830027Y-90440462D01*
X134860886Y-90464141D01*
X137335859Y-92939114D01*
X137374423Y-93005909D01*
X137379500Y-93044473D01*
X137379500Y-93971453D01*
X137378059Y-93992127D01*
X137376426Y-94003780D01*
X137374935Y-94008161D01*
X137359555Y-94124188D01*
X137359485Y-94124695D01*
X137359318Y-94125086D01*
X137354886Y-94146014D01*
X137340385Y-94195381D01*
X137334734Y-94211243D01*
X137318355Y-94250116D01*
X137271032Y-94311019D01*
X137248693Y-94325020D01*
X137196779Y-94351472D01*
X137101472Y-94446779D01*
X137040281Y-94566872D01*
X137040281Y-94566874D01*
X137024500Y-94666512D01*
X137024500Y-95183488D01*
X137032419Y-95233487D01*
X137040281Y-95283127D01*
X137062505Y-95326743D01*
X137101472Y-95403220D01*
X137196780Y-95498528D01*
X137316874Y-95559719D01*
X137416512Y-95575500D01*
X137416517Y-95575500D01*
X137983483Y-95575500D01*
X137983488Y-95575500D01*
X138083126Y-95559719D01*
X138203220Y-95498528D01*
X138298528Y-95403220D01*
X138359719Y-95283126D01*
X138375500Y-95183488D01*
X138375500Y-94666512D01*
X138359719Y-94566874D01*
X138298528Y-94446780D01*
X138203220Y-94351472D01*
X138203217Y-94351469D01*
X138152370Y-94325561D01*
X138138785Y-94313329D01*
X138122349Y-94305328D01*
X138110620Y-94287968D01*
X138095053Y-94273951D01*
X138079171Y-94241419D01*
X138046998Y-94148213D01*
X138040193Y-94119603D01*
X138025012Y-94007541D01*
X138025008Y-94007528D01*
X138023961Y-94002752D01*
X138020500Y-93970822D01*
X138020500Y-92807806D01*
X138020499Y-92807799D01*
X137998660Y-92726293D01*
X137998659Y-92726291D01*
X137956464Y-92653208D01*
X137896792Y-92593536D01*
X137896791Y-92593535D01*
X136101672Y-90798416D01*
X136063108Y-90731621D01*
X136063108Y-90654493D01*
X136101672Y-90587698D01*
X136168467Y-90549134D01*
X136230335Y-90545891D01*
X136291008Y-90555500D01*
X136291012Y-90555500D01*
X140658991Y-90555500D01*
X140658992Y-90555500D01*
X140675117Y-90554866D01*
X140690604Y-90553647D01*
X140767772Y-90531884D01*
X140822289Y-90504107D01*
X140874306Y-90466314D01*
X142141479Y-89199141D01*
X142208274Y-89160577D01*
X142246838Y-89155500D01*
X145558991Y-89155500D01*
X145558992Y-89155500D01*
X145575117Y-89154866D01*
X145590604Y-89153647D01*
X145667772Y-89131884D01*
X145722289Y-89104107D01*
X145774306Y-89066314D01*
X149567705Y-85272914D01*
X149578011Y-85261820D01*
X149587525Y-85250789D01*
X149626719Y-85181990D01*
X149646196Y-85123988D01*
X149656876Y-85060586D01*
X149694744Y-81198037D01*
X149715436Y-81123739D01*
X149770506Y-81069738D01*
X149843737Y-81050500D01*
X170334108Y-81050500D01*
X170391633Y-81050500D01*
X170408315Y-81051436D01*
X170494465Y-81061144D01*
X170526993Y-81068568D01*
X170600878Y-81094421D01*
X170630939Y-81108898D01*
X170697217Y-81150543D01*
X170723304Y-81171346D01*
X170778653Y-81226695D01*
X170799456Y-81252782D01*
X170841101Y-81319060D01*
X170855578Y-81349121D01*
X170881431Y-81423006D01*
X170888855Y-81455532D01*
X170898563Y-81541682D01*
X170899500Y-81558367D01*
X170899500Y-89245500D01*
X170879538Y-89320000D01*
X170825000Y-89374538D01*
X170750500Y-89394500D01*
X166146838Y-89394500D01*
X166072338Y-89374538D01*
X166041479Y-89350859D01*
X163974304Y-87283684D01*
X163962464Y-87272738D01*
X163950639Y-87262639D01*
X163880687Y-87223465D01*
X163880685Y-87223464D01*
X163822496Y-87204557D01*
X163822492Y-87204556D01*
X163785035Y-87198624D01*
X163758992Y-87194500D01*
X150133802Y-87194500D01*
X150133792Y-87194500D01*
X150117761Y-87195126D01*
X150102361Y-87196332D01*
X150102354Y-87196333D01*
X150025255Y-87218025D01*
X149970710Y-87245760D01*
X149918663Y-87283510D01*
X147759141Y-89439480D01*
X146796208Y-90400829D01*
X146746008Y-90450946D01*
X146679182Y-90489455D01*
X146640736Y-90494500D01*
X143541008Y-90494500D01*
X143539892Y-90494543D01*
X143524895Y-90495133D01*
X143509392Y-90496353D01*
X143432227Y-90518116D01*
X143432225Y-90518117D01*
X143377715Y-90545890D01*
X143325696Y-90583684D01*
X140583684Y-93325695D01*
X140572738Y-93337535D01*
X140562639Y-93349360D01*
X140523465Y-93419312D01*
X140523464Y-93419314D01*
X140504557Y-93477503D01*
X140504556Y-93477507D01*
X140499319Y-93510577D01*
X140494500Y-93541008D01*
X140494500Y-96901000D01*
X140495441Y-96912952D01*
X140497030Y-96933142D01*
X140497030Y-96933147D01*
X140499866Y-96951051D01*
X140501875Y-96963737D01*
X140502648Y-96968287D01*
X140502649Y-96968289D01*
X140502648Y-96968289D01*
X140523126Y-97016198D01*
X140538592Y-97052383D01*
X140574556Y-97101883D01*
X140598797Y-97129628D01*
X140677307Y-97176536D01*
X140735498Y-97195443D01*
X140799000Y-97205500D01*
X140799003Y-97205500D01*
X152100993Y-97205500D01*
X152101000Y-97205500D01*
X152133144Y-97202970D01*
X152163737Y-97198125D01*
X152168287Y-97197352D01*
X152252383Y-97161408D01*
X152301883Y-97125444D01*
X152329628Y-97101203D01*
X152376536Y-97022693D01*
X152395443Y-96964502D01*
X152405500Y-96901000D01*
X152405500Y-95646838D01*
X152425462Y-95572338D01*
X152449141Y-95541479D01*
X154441479Y-93549141D01*
X154508274Y-93510577D01*
X154546838Y-93505500D01*
X159453045Y-93505500D01*
X159472798Y-93510792D01*
X159493247Y-93511026D01*
X159509403Y-93520600D01*
X159527545Y-93525462D01*
X159559597Y-93550348D01*
X159652054Y-93644938D01*
X159689853Y-93712166D01*
X159694500Y-93749087D01*
X159694500Y-97380500D01*
X159674538Y-97455000D01*
X159620000Y-97509538D01*
X159545500Y-97529500D01*
X133394473Y-97529500D01*
X133319973Y-97509538D01*
X133289114Y-97485859D01*
X132927126Y-97123871D01*
X132888562Y-97057076D01*
X132888562Y-96979948D01*
X132899721Y-96950877D01*
X132959719Y-96833126D01*
X132975500Y-96733488D01*
X132975500Y-96216512D01*
X133424500Y-96216512D01*
X133424500Y-96733488D01*
X133428148Y-96756518D01*
X133440281Y-96833127D01*
X133480954Y-96912952D01*
X133501472Y-96953220D01*
X133596780Y-97048528D01*
X133716874Y-97109719D01*
X133816512Y-97125500D01*
X133816517Y-97125500D01*
X134383483Y-97125500D01*
X134383488Y-97125500D01*
X134483126Y-97109719D01*
X134603220Y-97048528D01*
X134698528Y-96953220D01*
X134698531Y-96953212D01*
X134700103Y-96951051D01*
X134703251Y-96948496D01*
X134706820Y-96944928D01*
X134707191Y-96945299D01*
X134759808Y-96902610D01*
X134762882Y-96901235D01*
X134788940Y-96892364D01*
X134913230Y-96862533D01*
X134935228Y-96858969D01*
X135005058Y-96852970D01*
X135036536Y-96853605D01*
X135140045Y-96866727D01*
X135162688Y-96871407D01*
X135203160Y-96883109D01*
X135269184Y-96922979D01*
X135294531Y-96958596D01*
X135296948Y-96963339D01*
X135296950Y-96963342D01*
X135386658Y-97053050D01*
X135499696Y-97110646D01*
X135593481Y-97125500D01*
X136206518Y-97125499D01*
X136300304Y-97110646D01*
X136413342Y-97053050D01*
X136503050Y-96963342D01*
X136560646Y-96850304D01*
X136575500Y-96756519D01*
X136575499Y-96293482D01*
X136560646Y-96199696D01*
X136503050Y-96086658D01*
X136413342Y-95996950D01*
X136413006Y-95996779D01*
X136300305Y-95939354D01*
X136284673Y-95936878D01*
X136206519Y-95924500D01*
X136206514Y-95924500D01*
X135593481Y-95924500D01*
X135499695Y-95939354D01*
X135499693Y-95939355D01*
X135386656Y-95996951D01*
X135386654Y-95996952D01*
X135296953Y-96086654D01*
X135296947Y-96086662D01*
X135295514Y-96089476D01*
X135292352Y-96092986D01*
X135290058Y-96096145D01*
X135289725Y-96095903D01*
X135279114Y-96107687D01*
X135266548Y-96128730D01*
X135253726Y-96135882D01*
X135243903Y-96146791D01*
X135199191Y-96166303D01*
X135105407Y-96189953D01*
X135081604Y-96193940D01*
X135047024Y-96196882D01*
X135013962Y-96196011D01*
X134936998Y-96185357D01*
X134913721Y-96180209D01*
X134869073Y-96166507D01*
X134853498Y-96160759D01*
X134810952Y-96142301D01*
X134750551Y-96094337D01*
X134737493Y-96073254D01*
X134734571Y-96067520D01*
X134698528Y-95996780D01*
X134603220Y-95901472D01*
X134483127Y-95840281D01*
X134466519Y-95837650D01*
X134383488Y-95824500D01*
X133816512Y-95824500D01*
X133750489Y-95834957D01*
X133716872Y-95840281D01*
X133596779Y-95901472D01*
X133501472Y-95996779D01*
X133440281Y-96116872D01*
X133437415Y-96134971D01*
X133424500Y-96216512D01*
X132975500Y-96216512D01*
X132959719Y-96116874D01*
X132898528Y-95996780D01*
X132803220Y-95901472D01*
X132683126Y-95840281D01*
X132683125Y-95840280D01*
X132672677Y-95834957D01*
X132673782Y-95832788D01*
X132622833Y-95799702D01*
X132587816Y-95730981D01*
X132591852Y-95653958D01*
X132633858Y-95589273D01*
X132673392Y-95566447D01*
X132672677Y-95565043D01*
X132683128Y-95559718D01*
X132803220Y-95498528D01*
X132898528Y-95403220D01*
X132959719Y-95283126D01*
X132975500Y-95183488D01*
X132975500Y-94666512D01*
X132959719Y-94566874D01*
X132898528Y-94446780D01*
X132803220Y-94351472D01*
X132752367Y-94325561D01*
X132683127Y-94290281D01*
X132662063Y-94286945D01*
X132583488Y-94274500D01*
X132016512Y-94274500D01*
X131952768Y-94284596D01*
X131916872Y-94290281D01*
X131796779Y-94351472D01*
X131701468Y-94446783D01*
X131699884Y-94448964D01*
X131696725Y-94451526D01*
X131693181Y-94455071D01*
X131692811Y-94454701D01*
X131640213Y-94497376D01*
X131637132Y-94498754D01*
X131611041Y-94507638D01*
X131486782Y-94537461D01*
X131464763Y-94541029D01*
X131394947Y-94547027D01*
X131363454Y-94546391D01*
X131259954Y-94533270D01*
X131237307Y-94528590D01*
X131196838Y-94516889D01*
X131130814Y-94477019D01*
X131105465Y-94441398D01*
X131103050Y-94436658D01*
X131091839Y-94425447D01*
X131089861Y-94422021D01*
X131086543Y-94419870D01*
X131070701Y-94388835D01*
X131053275Y-94358652D01*
X131051477Y-94351174D01*
X131050576Y-94346949D01*
X131040024Y-94297485D01*
X131037068Y-94276189D01*
X131036982Y-94274884D01*
X131025983Y-94107669D01*
X131025666Y-94098901D01*
X131025574Y-94085223D01*
X131025573Y-94085217D01*
X131024820Y-94078004D01*
X131026349Y-94077844D01*
X131025109Y-94041625D01*
X131027930Y-94020575D01*
X131040663Y-93925577D01*
X131045718Y-93902253D01*
X131058666Y-93859441D01*
X131065119Y-93842085D01*
X131066071Y-93839943D01*
X131086284Y-93814948D01*
X131099336Y-93793922D01*
X131106310Y-93790186D01*
X131114567Y-93779977D01*
X131134575Y-93767706D01*
X131163342Y-93753050D01*
X131253050Y-93663342D01*
X131310646Y-93550304D01*
X131325500Y-93456519D01*
X131325499Y-92843482D01*
X131310646Y-92749696D01*
X131256137Y-92642717D01*
X131240101Y-92567277D01*
X131263934Y-92493924D01*
X131283533Y-92469720D01*
X132459114Y-91294141D01*
X132525909Y-91255577D01*
X132564473Y-91250500D01*
X132644670Y-91250500D01*
X132644674Y-91250500D01*
X132717740Y-91235966D01*
X132800601Y-91180601D01*
X132855966Y-91097740D01*
X132870500Y-91024674D01*
X132870500Y-90792197D01*
X132870501Y-90792194D01*
X132870501Y-90707805D01*
X132870500Y-90707801D01*
X132870500Y-90475326D01*
X132855966Y-90402260D01*
X132800601Y-90319399D01*
X132755303Y-90289132D01*
X132717739Y-90264033D01*
X132644677Y-90249500D01*
X132644674Y-90249500D01*
X132455326Y-90249500D01*
X132455322Y-90249500D01*
X132455319Y-90249501D01*
X132383568Y-90263773D01*
X132306605Y-90258728D01*
X132242475Y-90215878D01*
X132208363Y-90146704D01*
X132205500Y-90117636D01*
X132205500Y-89049007D01*
X132205500Y-89049000D01*
X132202970Y-89016856D01*
X132198125Y-88986263D01*
X132197352Y-88981713D01*
X132161408Y-88897617D01*
X132125444Y-88848117D01*
X132101203Y-88820372D01*
X132052057Y-88791008D01*
X132022694Y-88773464D01*
X131964503Y-88754557D01*
X131964500Y-88754556D01*
X131927043Y-88748624D01*
X131901000Y-88744500D01*
X131900997Y-88744500D01*
X131389317Y-88744500D01*
X131314817Y-88724538D01*
X131283674Y-88700574D01*
X129895714Y-87305095D01*
X129895702Y-87305083D01*
X129895310Y-87304690D01*
X129774306Y-87183686D01*
X129762456Y-87172731D01*
X129750644Y-87162642D01*
X129681828Y-87124103D01*
X129681826Y-87124102D01*
X129680690Y-87123466D01*
X129674013Y-87121296D01*
X129667769Y-87118115D01*
X129633597Y-87104406D01*
X129612588Y-87102987D01*
X129597529Y-87100602D01*
X129597528Y-87100602D01*
X129558994Y-87094500D01*
X129558992Y-87094500D01*
X120591902Y-87094500D01*
X120591891Y-87094500D01*
X120574211Y-87095262D01*
X120557206Y-87096733D01*
X120478818Y-87119821D01*
X120478809Y-87119825D01*
X120424727Y-87148438D01*
X120373298Y-87187025D01*
X119682681Y-87899226D01*
X119616487Y-87938813D01*
X119575714Y-87944500D01*
X110049500Y-87944500D01*
X109975000Y-87924538D01*
X109920462Y-87870000D01*
X109900500Y-87795500D01*
X109900500Y-84943481D01*
X131074500Y-84943481D01*
X131074500Y-84943482D01*
X131074500Y-84943485D01*
X131074500Y-85556518D01*
X131089354Y-85650304D01*
X131089355Y-85650306D01*
X131146950Y-85763342D01*
X131236658Y-85853050D01*
X131239472Y-85854484D01*
X131242982Y-85857644D01*
X131246143Y-85859941D01*
X131245901Y-85860273D01*
X131257685Y-85870883D01*
X131278730Y-85883452D01*
X131285880Y-85896271D01*
X131296789Y-85906093D01*
X131316303Y-85950809D01*
X131339955Y-86044600D01*
X131343941Y-86068401D01*
X131349327Y-86131700D01*
X131349328Y-86131707D01*
X131349329Y-86131714D01*
X131349491Y-86132324D01*
X131349657Y-86133597D01*
X131350449Y-86138138D01*
X131350255Y-86138171D01*
X131354500Y-86170630D01*
X131354500Y-86617200D01*
X131376339Y-86698706D01*
X131418535Y-86771790D01*
X131418537Y-86771793D01*
X131486698Y-86839954D01*
X131486704Y-86839959D01*
X132185859Y-87539114D01*
X132224423Y-87605909D01*
X132229500Y-87644473D01*
X132229500Y-87724677D01*
X132244033Y-87797739D01*
X132292316Y-87870000D01*
X132299399Y-87880601D01*
X132382260Y-87935966D01*
X132455326Y-87950500D01*
X132455330Y-87950500D01*
X132644670Y-87950500D01*
X132644674Y-87950500D01*
X132717740Y-87935966D01*
X132800601Y-87880601D01*
X132855966Y-87797740D01*
X132870500Y-87724674D01*
X132870500Y-87175326D01*
X132855966Y-87102260D01*
X132800601Y-87019399D01*
X132717740Y-86964034D01*
X132717739Y-86964033D01*
X132644677Y-86949500D01*
X132644674Y-86949500D01*
X132564473Y-86949500D01*
X132489973Y-86929538D01*
X132459114Y-86905859D01*
X132039141Y-86485886D01*
X132029333Y-86468898D01*
X132015462Y-86455027D01*
X132010384Y-86436078D01*
X132000577Y-86419091D01*
X131995500Y-86380527D01*
X131995500Y-86177845D01*
X131999232Y-86144704D01*
X132000162Y-86140622D01*
X132000165Y-86140615D01*
X132016727Y-86009957D01*
X132021407Y-85987313D01*
X132033109Y-85946838D01*
X132072978Y-85880816D01*
X132108606Y-85855463D01*
X132113342Y-85853050D01*
X132203050Y-85763342D01*
X132260646Y-85650304D01*
X132275500Y-85556519D01*
X132275499Y-84943482D01*
X132260646Y-84849696D01*
X132203050Y-84736658D01*
X132113342Y-84646950D01*
X132000305Y-84589354D01*
X131984673Y-84586878D01*
X131906519Y-84574500D01*
X131906514Y-84574500D01*
X131443481Y-84574500D01*
X131349695Y-84589354D01*
X131349693Y-84589355D01*
X131236657Y-84646950D01*
X131146950Y-84736657D01*
X131089354Y-84849694D01*
X131086633Y-84866874D01*
X131074500Y-84943481D01*
X109900500Y-84943481D01*
X109900500Y-81558367D01*
X109901437Y-81541684D01*
X109901437Y-81541682D01*
X109911144Y-81455532D01*
X109918568Y-81423006D01*
X109944421Y-81349121D01*
X109958898Y-81319060D01*
X110000543Y-81252782D01*
X110021342Y-81226699D01*
X110076699Y-81171342D01*
X110102782Y-81150543D01*
X110169060Y-81108898D01*
X110199118Y-81094422D01*
X110273008Y-81068567D01*
X110305532Y-81061144D01*
X110391684Y-81051436D01*
X110408367Y-81050500D01*
X110465892Y-81050500D01*
X135445500Y-81050500D01*
X135520000Y-81070462D01*
G37*
G04 #@! TD.AperFunction*
G04 #@! TA.AperFunction,Conductor*
G36*
X135032187Y-85254597D02*
G01*
X135322549Y-85480719D01*
X135441706Y-85573514D01*
X135446128Y-85581301D01*
X135443748Y-85589934D01*
X135438813Y-85593628D01*
X135426585Y-85598455D01*
X135426584Y-85598455D01*
X135373871Y-85630709D01*
X135326911Y-85673678D01*
X135326903Y-85673686D01*
X135275750Y-85739855D01*
X135275742Y-85739867D01*
X135233340Y-85815537D01*
X135193249Y-85914348D01*
X135165431Y-86013434D01*
X135165429Y-86013444D01*
X135146294Y-86164768D01*
X135141856Y-86172546D01*
X135134686Y-86175000D01*
X134915376Y-86175000D01*
X134907103Y-86171573D01*
X134903760Y-86164698D01*
X134886741Y-86023309D01*
X134886741Y-86023306D01*
X134833295Y-85852408D01*
X134761276Y-85720830D01*
X134680146Y-85633821D01*
X134680145Y-85633820D01*
X134607853Y-85594629D01*
X134602213Y-85587673D01*
X134603143Y-85578767D01*
X134606236Y-85575116D01*
X135017811Y-85254597D01*
X135026444Y-85252218D01*
X135032187Y-85254597D01*
G37*
G04 #@! TD.AperFunction*
G04 #@! TA.AperFunction,Conductor*
G36*
X130856094Y-94502569D02*
G01*
X130858848Y-94506370D01*
X130872832Y-94537254D01*
X130903772Y-94579135D01*
X130903776Y-94579139D01*
X130956697Y-94626881D01*
X130956704Y-94626886D01*
X131019924Y-94666376D01*
X131019927Y-94666377D01*
X131019930Y-94666379D01*
X131111864Y-94706238D01*
X131206738Y-94733669D01*
X131364771Y-94753703D01*
X131372548Y-94758143D01*
X131375000Y-94765310D01*
X131375000Y-94984253D01*
X131371573Y-94992526D01*
X131364292Y-94995911D01*
X131272278Y-95003739D01*
X131107737Y-95045232D01*
X131107736Y-95045232D01*
X130980452Y-95106682D01*
X130980442Y-95106689D01*
X130896888Y-95178837D01*
X130896887Y-95178839D01*
X130859443Y-95245664D01*
X130852409Y-95251206D01*
X130843517Y-95250152D01*
X130840609Y-95247849D01*
X130777381Y-95178839D01*
X130506240Y-94882902D01*
X130503179Y-94874489D01*
X130506240Y-94867097D01*
X130839564Y-94503291D01*
X130847679Y-94499507D01*
X130856094Y-94502569D01*
G37*
G04 #@! TD.AperFunction*
G04 #@! TA.AperFunction,Conductor*
G36*
X131971151Y-94502622D02*
G01*
X131974211Y-94505373D01*
X132295392Y-94917799D01*
X132297772Y-94926432D01*
X132295381Y-94932191D01*
X131975631Y-95341516D01*
X131967838Y-95345926D01*
X131959208Y-95343533D01*
X131955580Y-95338738D01*
X131936629Y-95292354D01*
X131936625Y-95292347D01*
X131923786Y-95273069D01*
X131897864Y-95234145D01*
X131848981Y-95182257D01*
X131848979Y-95182255D01*
X131779276Y-95127794D01*
X131779274Y-95127793D01*
X131779273Y-95127792D01*
X131701897Y-95082649D01*
X131610135Y-95042842D01*
X131610127Y-95042839D01*
X131519364Y-95014984D01*
X131519357Y-95014982D01*
X131385096Y-94996397D01*
X131377371Y-94991869D01*
X131375000Y-94984808D01*
X131375000Y-94765737D01*
X131378427Y-94757464D01*
X131385695Y-94754080D01*
X131508862Y-94743498D01*
X131691005Y-94699783D01*
X131828227Y-94638393D01*
X131916486Y-94568494D01*
X131955041Y-94506390D01*
X131962315Y-94501170D01*
X131971151Y-94502622D01*
G37*
G04 #@! TD.AperFunction*
G04 #@! TA.AperFunction,Conductor*
G36*
X130732902Y-93156240D02*
G01*
X131095738Y-93488675D01*
X131099523Y-93496791D01*
X131096461Y-93505206D01*
X131092976Y-93507811D01*
X131045626Y-93530979D01*
X130999474Y-93566697D01*
X130949561Y-93623155D01*
X130908269Y-93689055D01*
X130868371Y-93778776D01*
X130840772Y-93870032D01*
X130840771Y-93870038D01*
X130821360Y-94014854D01*
X130816865Y-94022599D01*
X130809764Y-94025000D01*
X130590934Y-94025000D01*
X130582661Y-94021573D01*
X130579261Y-94014091D01*
X130573670Y-93931595D01*
X130573669Y-93931590D01*
X130573669Y-93931585D01*
X130537177Y-93761151D01*
X130481279Y-93630873D01*
X130415009Y-93546701D01*
X130415007Y-93546700D01*
X130415006Y-93546698D01*
X130353606Y-93509618D01*
X130348295Y-93502408D01*
X130349639Y-93493555D01*
X130351747Y-93490978D01*
X130717097Y-93156240D01*
X130725511Y-93153179D01*
X130732902Y-93156240D01*
G37*
G04 #@! TD.AperFunction*
G04 #@! TA.AperFunction,Conductor*
G36*
X130816652Y-94078427D02*
G01*
X130820079Y-94086620D01*
X130820243Y-94110745D01*
X130820243Y-94110751D01*
X130820244Y-94110757D01*
X130833696Y-94315273D01*
X130865569Y-94464687D01*
X130865570Y-94464689D01*
X130865571Y-94464692D01*
X130908620Y-94553772D01*
X130947705Y-94587918D01*
X130951680Y-94595942D01*
X130948818Y-94604427D01*
X130946053Y-94606746D01*
X130508783Y-94870697D01*
X130499930Y-94872038D01*
X130493595Y-94867982D01*
X130283074Y-94604427D01*
X130198656Y-94498742D01*
X130196172Y-94490140D01*
X130200497Y-94482299D01*
X130206129Y-94479861D01*
X130278496Y-94469435D01*
X130339504Y-94445984D01*
X130393835Y-94413148D01*
X130448555Y-94365674D01*
X130493970Y-94311161D01*
X130532808Y-94247120D01*
X130560183Y-94182307D01*
X130573397Y-94110757D01*
X130578232Y-94084575D01*
X130583104Y-94077062D01*
X130589737Y-94075000D01*
X130808379Y-94075000D01*
X130816652Y-94078427D01*
G37*
G04 #@! TD.AperFunction*
G04 #@! TA.AperFunction,Conductor*
G36*
X130860549Y-92286591D02*
G01*
X130862284Y-92288021D01*
X131016092Y-92441829D01*
X131019519Y-92450102D01*
X131018343Y-92455214D01*
X130992970Y-92507448D01*
X130992966Y-92507459D01*
X130974300Y-92606206D01*
X130974300Y-92606211D01*
X130974300Y-92606212D01*
X130986758Y-92685609D01*
X130987401Y-92689707D01*
X130987401Y-92689708D01*
X131030429Y-92753955D01*
X131055567Y-92772227D01*
X131065011Y-92779093D01*
X131093183Y-92791283D01*
X131099415Y-92797714D01*
X131099275Y-92806667D01*
X131096429Y-92810658D01*
X130734457Y-93141418D01*
X130726038Y-93144469D01*
X130717928Y-93140673D01*
X130716767Y-93139176D01*
X130439858Y-92714920D01*
X130438206Y-92706119D01*
X130443261Y-92698727D01*
X130446364Y-92697298D01*
X130486262Y-92685610D01*
X130543498Y-92650075D01*
X130658246Y-92539384D01*
X130762729Y-92406919D01*
X130844182Y-92289944D01*
X130844310Y-92289754D01*
X130851773Y-92284810D01*
X130860549Y-92286591D01*
G37*
G04 #@! TD.AperFunction*
G04 #@! TA.AperFunction,Conductor*
G36*
X131971232Y-96053143D02*
G01*
X131974887Y-96056240D01*
X132295401Y-96467811D01*
X132297781Y-96476444D01*
X132295401Y-96482189D01*
X131976485Y-96891706D01*
X131968698Y-96896128D01*
X131960065Y-96893748D01*
X131956372Y-96888814D01*
X131951544Y-96876584D01*
X131919289Y-96823870D01*
X131876316Y-96776906D01*
X131876313Y-96776903D01*
X131810144Y-96725750D01*
X131810132Y-96725742D01*
X131734462Y-96683340D01*
X131635651Y-96643249D01*
X131536565Y-96615431D01*
X131536555Y-96615429D01*
X131536548Y-96615428D01*
X131518591Y-96613157D01*
X131385232Y-96596293D01*
X131377454Y-96591855D01*
X131375000Y-96584685D01*
X131375000Y-96365375D01*
X131378427Y-96357102D01*
X131385299Y-96353760D01*
X131526694Y-96336741D01*
X131697592Y-96283295D01*
X131829170Y-96211276D01*
X131916179Y-96130146D01*
X131955371Y-96057852D01*
X131962326Y-96052213D01*
X131971232Y-96053143D01*
G37*
G04 #@! TD.AperFunction*
G04 #@! TA.AperFunction,Conductor*
G36*
X130857079Y-96151494D02*
G01*
X130859412Y-96154456D01*
X130877364Y-96186897D01*
X130919685Y-96229757D01*
X130973744Y-96265269D01*
X130973749Y-96265272D01*
X130973751Y-96265273D01*
X131026829Y-96288054D01*
X131064816Y-96304360D01*
X131095225Y-96312625D01*
X131163425Y-96331165D01*
X131163436Y-96331167D01*
X131163439Y-96331168D01*
X131163443Y-96331168D01*
X131163450Y-96331170D01*
X131216277Y-96339528D01*
X131279433Y-96349521D01*
X131363971Y-96354367D01*
X131372033Y-96358262D01*
X131375000Y-96366048D01*
X131375000Y-96584602D01*
X131371573Y-96592875D01*
X131364675Y-96596221D01*
X131258379Y-96608798D01*
X131104611Y-96658852D01*
X131104607Y-96658853D01*
X130983636Y-96730054D01*
X130983633Y-96730057D01*
X130902616Y-96812862D01*
X130902613Y-96812866D01*
X130865836Y-96889763D01*
X130859175Y-96895748D01*
X130850233Y-96895270D01*
X130846780Y-96892754D01*
X130843951Y-96889763D01*
X130625583Y-96658853D01*
X130506483Y-96532912D01*
X130503289Y-96524547D01*
X130506356Y-96516971D01*
X130840549Y-96152216D01*
X130848664Y-96148432D01*
X130857079Y-96151494D01*
G37*
G04 #@! TD.AperFunction*
G04 #@! TA.AperFunction,Conductor*
G36*
X132308140Y-96478490D02*
G01*
X132756464Y-96691205D01*
X132762470Y-96697848D01*
X132762020Y-96706791D01*
X132757993Y-96711475D01*
X132691002Y-96756677D01*
X132655556Y-96798557D01*
X132631220Y-96844019D01*
X132615048Y-96900950D01*
X132610888Y-96958703D01*
X132618442Y-97023774D01*
X132636264Y-97083173D01*
X132636265Y-97083176D01*
X132680716Y-97157845D01*
X132682004Y-97166707D01*
X132678936Y-97172103D01*
X132524296Y-97326743D01*
X132516023Y-97330170D01*
X132507750Y-97326743D01*
X132507409Y-97326387D01*
X132491362Y-97308927D01*
X132337725Y-97147150D01*
X132337717Y-97147142D01*
X132178862Y-97005496D01*
X132065200Y-96933952D01*
X132002771Y-96916824D01*
X131995701Y-96911331D01*
X131994585Y-96902446D01*
X131996343Y-96898748D01*
X132293603Y-96482264D01*
X132301198Y-96477522D01*
X132308140Y-96478490D01*
G37*
G04 #@! TD.AperFunction*
G04 #@! TA.AperFunction,Conductor*
G36*
X135641442Y-92183682D02*
G01*
X135644454Y-92188869D01*
X135680710Y-92321481D01*
X135767827Y-92515962D01*
X135865720Y-92663145D01*
X135960464Y-92755261D01*
X135960466Y-92755262D01*
X135960468Y-92755264D01*
X136033501Y-92792899D01*
X136039286Y-92799735D01*
X136038542Y-92808658D01*
X136035591Y-92812322D01*
X135632933Y-93144741D01*
X135624371Y-93147365D01*
X135618306Y-93144958D01*
X135208082Y-92826290D01*
X135203651Y-92818508D01*
X135206020Y-92809872D01*
X135210818Y-92806226D01*
X135240837Y-92793908D01*
X135295990Y-92759076D01*
X135343354Y-92715713D01*
X135389152Y-92656817D01*
X135424743Y-92592318D01*
X135452038Y-92520090D01*
X135468033Y-92449322D01*
X135469376Y-92343899D01*
X135472801Y-92335777D01*
X135624897Y-92183681D01*
X135633169Y-92180255D01*
X135641442Y-92183682D01*
G37*
G04 #@! TD.AperFunction*
G04 #@! TA.AperFunction,Conductor*
G36*
X135633841Y-93153931D02*
G01*
X135954931Y-93333028D01*
X136064734Y-93394274D01*
X136070290Y-93401297D01*
X136069253Y-93410191D01*
X136069226Y-93410239D01*
X136051917Y-93440935D01*
X136051914Y-93440941D01*
X136035288Y-93496178D01*
X136035287Y-93496181D01*
X136017571Y-93636884D01*
X136017570Y-93636892D01*
X136017558Y-93950288D01*
X136019746Y-94053105D01*
X136016496Y-94061449D01*
X136008298Y-94065051D01*
X136008049Y-94065054D01*
X135790671Y-94065054D01*
X135782398Y-94061627D01*
X135779020Y-94054428D01*
X135778898Y-94053105D01*
X135775474Y-94015967D01*
X135758907Y-93953261D01*
X135730638Y-93887727D01*
X135730636Y-93887724D01*
X135730634Y-93887720D01*
X135683466Y-93819186D01*
X135647498Y-93766925D01*
X135540802Y-93673657D01*
X135465890Y-93636890D01*
X135419772Y-93614255D01*
X135306484Y-93593745D01*
X135298953Y-93588899D01*
X135297055Y-93580148D01*
X135299271Y-93575129D01*
X135618851Y-93157043D01*
X135626595Y-93152553D01*
X135633841Y-93153931D01*
G37*
G04 #@! TD.AperFunction*
G04 #@! TA.AperFunction,Conductor*
G36*
X136017863Y-94078427D02*
G01*
X136021211Y-94085339D01*
X136032828Y-94184557D01*
X136078498Y-94325550D01*
X136078498Y-94325551D01*
X136142109Y-94429711D01*
X136142110Y-94429712D01*
X136142112Y-94429715D01*
X136215885Y-94494040D01*
X136280894Y-94516117D01*
X136287626Y-94522023D01*
X136288211Y-94530958D01*
X136284879Y-94535964D01*
X135907747Y-94869155D01*
X135899278Y-94872065D01*
X135892253Y-94869155D01*
X135517330Y-94537917D01*
X135513399Y-94529871D01*
X135516309Y-94521402D01*
X135521626Y-94517970D01*
X135541398Y-94511865D01*
X135561645Y-94505615D01*
X135605065Y-94480217D01*
X135652512Y-94436044D01*
X135691912Y-94381741D01*
X135731611Y-94301976D01*
X135759038Y-94218971D01*
X135778542Y-94085014D01*
X135783125Y-94077321D01*
X135790120Y-94075000D01*
X136009590Y-94075000D01*
X136017863Y-94078427D01*
G37*
G04 #@! TD.AperFunction*
G04 #@! TA.AperFunction,Conductor*
G36*
X137818051Y-94028427D02*
G01*
X137821372Y-94035129D01*
X137840688Y-94177709D01*
X137841273Y-94182028D01*
X137898054Y-94346529D01*
X137898055Y-94346531D01*
X137898056Y-94346533D01*
X137973448Y-94473169D01*
X137973453Y-94473176D01*
X138058128Y-94556891D01*
X138104498Y-94579715D01*
X138132513Y-94593505D01*
X138138422Y-94600233D01*
X138137843Y-94609169D01*
X138134181Y-94613498D01*
X137706835Y-94921080D01*
X137698118Y-94923132D01*
X137693165Y-94921080D01*
X137267701Y-94614853D01*
X137262988Y-94607239D01*
X137265040Y-94598522D01*
X137270399Y-94594413D01*
X137293645Y-94585641D01*
X137347970Y-94552380D01*
X137396400Y-94508588D01*
X137448601Y-94442512D01*
X137491890Y-94367512D01*
X137531903Y-94272546D01*
X137559760Y-94177703D01*
X137578653Y-94035163D01*
X137583138Y-94027411D01*
X137590252Y-94025000D01*
X137809778Y-94025000D01*
X137818051Y-94028427D01*
G37*
G04 #@! TD.AperFunction*
G04 #@! TA.AperFunction,Conductor*
G36*
X134440790Y-96056464D02*
G01*
X134444418Y-96061259D01*
X134463370Y-96107644D01*
X134463374Y-96107651D01*
X134489214Y-96146451D01*
X134502136Y-96165854D01*
X134551019Y-96217743D01*
X134551022Y-96217746D01*
X134620723Y-96272205D01*
X134620727Y-96272208D01*
X134698103Y-96317351D01*
X134789865Y-96357158D01*
X134880638Y-96385016D01*
X135014904Y-96403602D01*
X135022629Y-96408130D01*
X135025000Y-96415191D01*
X135025000Y-96634262D01*
X135021573Y-96642535D01*
X135014302Y-96645919D01*
X134891145Y-96656501D01*
X134891141Y-96656501D01*
X134891139Y-96656502D01*
X134708995Y-96700217D01*
X134708991Y-96700218D01*
X134571776Y-96761605D01*
X134571771Y-96761609D01*
X134483514Y-96831505D01*
X134483511Y-96831509D01*
X134444959Y-96893608D01*
X134437684Y-96898829D01*
X134428848Y-96897377D01*
X134425788Y-96894626D01*
X134104607Y-96482200D01*
X134102227Y-96473567D01*
X134104618Y-96467808D01*
X134169292Y-96385016D01*
X134424368Y-96058479D01*
X134432160Y-96054071D01*
X134440790Y-96056464D01*
G37*
G04 #@! TD.AperFunction*
G04 #@! TA.AperFunction,Conductor*
G36*
X135556482Y-96149847D02*
G01*
X135559389Y-96152149D01*
X135688727Y-96293315D01*
X135893758Y-96517096D01*
X135896820Y-96525511D01*
X135893758Y-96532904D01*
X135560436Y-96896707D01*
X135552320Y-96900492D01*
X135543905Y-96897430D01*
X135541152Y-96893630D01*
X135527167Y-96862745D01*
X135496228Y-96820863D01*
X135496224Y-96820859D01*
X135443302Y-96773118D01*
X135443300Y-96773117D01*
X135443299Y-96773116D01*
X135380071Y-96733621D01*
X135288136Y-96693762D01*
X135193263Y-96666331D01*
X135193262Y-96666330D01*
X135193259Y-96666330D01*
X135035229Y-96646296D01*
X135027452Y-96641856D01*
X135025000Y-96634689D01*
X135025000Y-96415746D01*
X135028427Y-96407473D01*
X135035705Y-96404089D01*
X135127724Y-96396259D01*
X135292266Y-96354766D01*
X135419553Y-96293315D01*
X135503113Y-96221159D01*
X135540556Y-96154334D01*
X135547590Y-96148793D01*
X135556482Y-96149847D01*
G37*
G04 #@! TD.AperFunction*
G04 #@! TA.AperFunction,Conductor*
G36*
X131682902Y-85256240D02*
G01*
X132046707Y-85589563D01*
X132050492Y-85597679D01*
X132047430Y-85606094D01*
X132043629Y-85608848D01*
X132012745Y-85622832D01*
X132012745Y-85622833D01*
X131970864Y-85653772D01*
X131970860Y-85653776D01*
X131923118Y-85706697D01*
X131923113Y-85706704D01*
X131883623Y-85769924D01*
X131857048Y-85831219D01*
X131845552Y-85857737D01*
X131843761Y-85861867D01*
X131816330Y-85956741D01*
X131808022Y-86022277D01*
X131796358Y-86114292D01*
X131796297Y-86114771D01*
X131791857Y-86122548D01*
X131784690Y-86125000D01*
X131565747Y-86125000D01*
X131557474Y-86121573D01*
X131554089Y-86114292D01*
X131546260Y-86022278D01*
X131529734Y-85956741D01*
X131504767Y-85857736D01*
X131443315Y-85730448D01*
X131422812Y-85706704D01*
X131371162Y-85646888D01*
X131371160Y-85646887D01*
X131304335Y-85609443D01*
X131298793Y-85602409D01*
X131299847Y-85593517D01*
X131302146Y-85590613D01*
X131667097Y-85256240D01*
X131675511Y-85253179D01*
X131682902Y-85256240D01*
G37*
G04 #@! TD.AperFunction*
D29*
X110400000Y-98550000D02*
G75*
G02*
X109400000Y-97550000I0J1000000D01*
G01*
X171400000Y-97550000D02*
G75*
G02*
X170400000Y-98550000I-1000000J0D01*
G01*
X170400000Y-98550000D02*
X110400000Y-98550000D01*
X110400000Y-80550000D02*
X170400000Y-80550000D01*
X171400000Y-81550000D02*
X171400000Y-97550000D01*
X170400000Y-80550000D02*
G75*
G02*
X171400000Y-81550000I0J-1000000D01*
G01*
X109400000Y-81550000D02*
G75*
G02*
X110400000Y-80550000I1000000J0D01*
G01*
X109400000Y-97550000D02*
X109400000Y-81550000D01*
M02*
