M48
; DRILL file {KiCad 9.0.4} date 2025-09-22T12:07:42+0530
; FORMAT={-:-/ absolute / metric / decimal}
; #@! TF.CreationDate,2025-09-22T12:07:42+05:30
; #@! TF.GenerationSoftware,Kicad,Pcbnew,9.0.4
; #@! TF.FileFunction,Plated,1,2,PTH
FMAT,2
METRIC
; #@! TA.AperFunction,Plated,PTH,ViaDrill
T1C0.300
; #@! TA.AperFunction,Plated,PTH,ComponentDrill
T2C0.300
; #@! TA.AperFunction,Plated,PTH,ComponentDrill
T3C1.100
%
G90
G05
T1
X112.0Y-82.05
X112.0Y-83.677
X112.0Y-85.677
X114.0Y-82.05
X114.0Y-83.677
X116.0Y-82.05
X116.0Y-83.677
X118.0Y-82.05
X118.0Y-83.677
X118.0Y-85.677
X120.0Y-82.05
X120.0Y-83.677
X120.0Y-85.677
X122.0Y-82.05
X122.0Y-83.677
X122.0Y-85.05
X122.0Y-95.677
X122.0Y-97.15
X124.0Y-82.05
X124.0Y-83.677
X124.0Y-85.05
X124.0Y-95.677
X124.0Y-97.15
X126.0Y-82.05
X126.0Y-83.677
X126.0Y-85.05
X126.0Y-95.677
X126.0Y-97.15
X128.0Y-82.0
X128.0Y-83.677
X128.0Y-85.05
X128.0Y-95.677
X128.0Y-97.15
X130.0Y-82.0
X130.0Y-83.677
X130.0Y-85.677
X130.8Y-87.05
X132.0Y-82.0
X132.0Y-83.677
X133.2Y-92.45
X133.2Y-94.05
X133.2Y-95.7
X134.0Y-82.0
X134.0Y-83.677
X134.15Y-86.0
X135.0Y-94.1
X135.0Y-95.7
X136.8Y-95.7
X137.65Y-91.05
X138.65Y-92.65
X139.0Y-96.95
X140.0Y-91.677
X140.0Y-93.677
X140.0Y-95.677
X141.6Y-90.95
X142.8Y-89.8
X144.45Y-89.8
X146.15Y-89.8
X147.2Y-88.75
X148.25Y-87.75
X149.25Y-86.8
X150.2Y-82.0
X150.2Y-83.7
X150.2Y-85.8
X152.0Y-82.0
X152.0Y-83.677
X152.0Y-85.677
X153.2Y-95.4
X153.2Y-96.8
X154.0Y-82.0
X154.0Y-83.677
X154.0Y-85.1
X155.2Y-95.4
X155.2Y-96.8
X156.0Y-82.0
X156.0Y-83.677
X156.0Y-85.1
X157.2Y-95.4
X157.2Y-96.8
X158.0Y-82.0
X158.0Y-83.677
X158.0Y-85.1
X159.2Y-95.4
X159.2Y-96.8
X160.0Y-82.0
X160.0Y-83.677
X160.0Y-85.1
X162.0Y-82.0
X162.0Y-83.677
X162.0Y-85.677
X164.0Y-82.0
X164.0Y-83.677
X164.0Y-85.677
X166.0Y-82.0
X166.0Y-83.677
X168.0Y-81.9
X168.0Y-83.677
X168.0Y-85.677
X168.0Y-87.677
X170.0Y-81.9
X170.0Y-83.677
X170.0Y-85.677
X170.0Y-87.677
T2
X132.787Y-88.587
X132.787Y-89.612
X133.812Y-88.587
X133.812Y-89.612
T3
X114.733Y-86.55
X114.733Y-91.55
X166.117Y-86.55
X166.117Y-91.55
M30
