%TF.GenerationSoftware,KiCad,Pcbnew,9.0.4*%
%TF.CreationDate,2025-09-22T12:07:42+05:30*%
%TF.ProjectId,buck-converter-8A,6275636b-2d63-46f6-9e76-65727465722d,rev?*%
%TF.SameCoordinates,Original*%
%TF.FileFunction,Drillmap*%
%TF.FilePolarity,Positive*%
%FSLAX45Y45*%
G04 Gerber Fmt 4.5, Leading zero omitted, Abs format (unit mm)*
G04 Created by KiCad (PCBNEW 9.0.4) date 2025-09-22 12:07:42*
%MOMM*%
%LPD*%
G01*
G04 APERTURE LIST*
%ADD10C,0.050000*%
%ADD11C,0.200000*%
%ADD12C,0.100000*%
%ADD13C,0.110000*%
G04 APERTURE END LIST*
D10*
X11040000Y-9855000D02*
G75*
G02*
X10940000Y-9755000I0J100000D01*
G01*
X17140000Y-9755000D02*
G75*
G02*
X17040000Y-9855000I-100000J0D01*
G01*
X17040000Y-9855000D02*
X11040000Y-9855000D01*
X11040000Y-8055000D02*
X17040000Y-8055000D01*
X17140000Y-8155000D02*
X17140000Y-9755000D01*
X17040000Y-8055000D02*
G75*
G02*
X17140000Y-8155000I0J-100000D01*
G01*
X10940000Y-8155000D02*
G75*
G02*
X11040000Y-8055000I100000J0D01*
G01*
X10940000Y-9755000D02*
X10940000Y-8155000D01*
D11*
D12*
X11185000Y-8190000D02*
X11215000Y-8220000D01*
X11215000Y-8190000D02*
X11185000Y-8220000D01*
X11185000Y-8352675D02*
X11215000Y-8382675D01*
X11215000Y-8352675D02*
X11185000Y-8382675D01*
X11185000Y-8552675D02*
X11215000Y-8582675D01*
X11215000Y-8552675D02*
X11185000Y-8582675D01*
X11385000Y-8190000D02*
X11415000Y-8220000D01*
X11415000Y-8190000D02*
X11385000Y-8220000D01*
X11385000Y-8352675D02*
X11415000Y-8382675D01*
X11415000Y-8352675D02*
X11385000Y-8382675D01*
X11585000Y-8190000D02*
X11615000Y-8220000D01*
X11615000Y-8190000D02*
X11585000Y-8220000D01*
X11585000Y-8352675D02*
X11615000Y-8382675D01*
X11615000Y-8352675D02*
X11585000Y-8382675D01*
X11785000Y-8190000D02*
X11815000Y-8220000D01*
X11815000Y-8190000D02*
X11785000Y-8220000D01*
X11785000Y-8352675D02*
X11815000Y-8382675D01*
X11815000Y-8352675D02*
X11785000Y-8382675D01*
X11785000Y-8552675D02*
X11815000Y-8582675D01*
X11815000Y-8552675D02*
X11785000Y-8582675D01*
X11985000Y-8190000D02*
X12015000Y-8220000D01*
X12015000Y-8190000D02*
X11985000Y-8220000D01*
X11985000Y-8352675D02*
X12015000Y-8382675D01*
X12015000Y-8352675D02*
X11985000Y-8382675D01*
X11985000Y-8552675D02*
X12015000Y-8582675D01*
X12015000Y-8552675D02*
X11985000Y-8582675D01*
X12185000Y-8190000D02*
X12215000Y-8220000D01*
X12215000Y-8190000D02*
X12185000Y-8220000D01*
X12185000Y-8352675D02*
X12215000Y-8382675D01*
X12215000Y-8352675D02*
X12185000Y-8382675D01*
X12185000Y-8490000D02*
X12215000Y-8520000D01*
X12215000Y-8490000D02*
X12185000Y-8520000D01*
X12185000Y-9552675D02*
X12215000Y-9582675D01*
X12215000Y-9552675D02*
X12185000Y-9582675D01*
X12185000Y-9700000D02*
X12215000Y-9730000D01*
X12215000Y-9700000D02*
X12185000Y-9730000D01*
X12385000Y-8190000D02*
X12415000Y-8220000D01*
X12415000Y-8190000D02*
X12385000Y-8220000D01*
X12385000Y-8352675D02*
X12415000Y-8382675D01*
X12415000Y-8352675D02*
X12385000Y-8382675D01*
X12385000Y-8490000D02*
X12415000Y-8520000D01*
X12415000Y-8490000D02*
X12385000Y-8520000D01*
X12385000Y-9552675D02*
X12415000Y-9582675D01*
X12415000Y-9552675D02*
X12385000Y-9582675D01*
X12385000Y-9700000D02*
X12415000Y-9730000D01*
X12415000Y-9700000D02*
X12385000Y-9730000D01*
X12585000Y-8190000D02*
X12615000Y-8220000D01*
X12615000Y-8190000D02*
X12585000Y-8220000D01*
X12585000Y-8352675D02*
X12615000Y-8382675D01*
X12615000Y-8352675D02*
X12585000Y-8382675D01*
X12585000Y-8490000D02*
X12615000Y-8520000D01*
X12615000Y-8490000D02*
X12585000Y-8520000D01*
X12585000Y-9552675D02*
X12615000Y-9582675D01*
X12615000Y-9552675D02*
X12585000Y-9582675D01*
X12585000Y-9700000D02*
X12615000Y-9730000D01*
X12615000Y-9700000D02*
X12585000Y-9730000D01*
X12785000Y-8185000D02*
X12815000Y-8215000D01*
X12815000Y-8185000D02*
X12785000Y-8215000D01*
X12785000Y-8352675D02*
X12815000Y-8382675D01*
X12815000Y-8352675D02*
X12785000Y-8382675D01*
X12785000Y-8490000D02*
X12815000Y-8520000D01*
X12815000Y-8490000D02*
X12785000Y-8520000D01*
X12785000Y-9552675D02*
X12815000Y-9582675D01*
X12815000Y-9552675D02*
X12785000Y-9582675D01*
X12785000Y-9700000D02*
X12815000Y-9730000D01*
X12815000Y-9700000D02*
X12785000Y-9730000D01*
X12985000Y-8185000D02*
X13015000Y-8215000D01*
X13015000Y-8185000D02*
X12985000Y-8215000D01*
X12985000Y-8352675D02*
X13015000Y-8382675D01*
X13015000Y-8352675D02*
X12985000Y-8382675D01*
X12985000Y-8552675D02*
X13015000Y-8582675D01*
X13015000Y-8552675D02*
X12985000Y-8582675D01*
X13065000Y-8690000D02*
X13095000Y-8720000D01*
X13095000Y-8690000D02*
X13065000Y-8720000D01*
X13185000Y-8185000D02*
X13215000Y-8215000D01*
X13215000Y-8185000D02*
X13185000Y-8215000D01*
X13185000Y-8352675D02*
X13215000Y-8382675D01*
X13215000Y-8352675D02*
X13185000Y-8382675D01*
X13305000Y-9230000D02*
X13335000Y-9260000D01*
X13335000Y-9230000D02*
X13305000Y-9260000D01*
X13305000Y-9390000D02*
X13335000Y-9420000D01*
X13335000Y-9390000D02*
X13305000Y-9420000D01*
X13305000Y-9555000D02*
X13335000Y-9585000D01*
X13335000Y-9555000D02*
X13305000Y-9585000D01*
X13385000Y-8185000D02*
X13415000Y-8215000D01*
X13415000Y-8185000D02*
X13385000Y-8215000D01*
X13385000Y-8352675D02*
X13415000Y-8382675D01*
X13415000Y-8352675D02*
X13385000Y-8382675D01*
X13400000Y-8585000D02*
X13430000Y-8615000D01*
X13430000Y-8585000D02*
X13400000Y-8615000D01*
X13485000Y-9395000D02*
X13515000Y-9425000D01*
X13515000Y-9395000D02*
X13485000Y-9425000D01*
X13485000Y-9555000D02*
X13515000Y-9585000D01*
X13515000Y-9555000D02*
X13485000Y-9585000D01*
X13665000Y-9555000D02*
X13695000Y-9585000D01*
X13695000Y-9555000D02*
X13665000Y-9585000D01*
X13750000Y-9090000D02*
X13780000Y-9120000D01*
X13780000Y-9090000D02*
X13750000Y-9120000D01*
X13850000Y-9250000D02*
X13880000Y-9280000D01*
X13880000Y-9250000D02*
X13850000Y-9280000D01*
X13885000Y-9680000D02*
X13915000Y-9710000D01*
X13915000Y-9680000D02*
X13885000Y-9710000D01*
X13985000Y-9152675D02*
X14015000Y-9182675D01*
X14015000Y-9152675D02*
X13985000Y-9182675D01*
X13985000Y-9352675D02*
X14015000Y-9382675D01*
X14015000Y-9352675D02*
X13985000Y-9382675D01*
X13985000Y-9552675D02*
X14015000Y-9582675D01*
X14015000Y-9552675D02*
X13985000Y-9582675D01*
X14145000Y-9080000D02*
X14175000Y-9110000D01*
X14175000Y-9080000D02*
X14145000Y-9110000D01*
X14265000Y-8965000D02*
X14295000Y-8995000D01*
X14295000Y-8965000D02*
X14265000Y-8995000D01*
X14430000Y-8965000D02*
X14460000Y-8995000D01*
X14460000Y-8965000D02*
X14430000Y-8995000D01*
X14600000Y-8965000D02*
X14630000Y-8995000D01*
X14630000Y-8965000D02*
X14600000Y-8995000D01*
X14705000Y-8860000D02*
X14735000Y-8890000D01*
X14735000Y-8860000D02*
X14705000Y-8890000D01*
X14810000Y-8760000D02*
X14840000Y-8790000D01*
X14840000Y-8760000D02*
X14810000Y-8790000D01*
X14910000Y-8665000D02*
X14940000Y-8695000D01*
X14940000Y-8665000D02*
X14910000Y-8695000D01*
X15005000Y-8185000D02*
X15035000Y-8215000D01*
X15035000Y-8185000D02*
X15005000Y-8215000D01*
X15005000Y-8355000D02*
X15035000Y-8385000D01*
X15035000Y-8355000D02*
X15005000Y-8385000D01*
X15005000Y-8565000D02*
X15035000Y-8595000D01*
X15035000Y-8565000D02*
X15005000Y-8595000D01*
X15185000Y-8185000D02*
X15215000Y-8215000D01*
X15215000Y-8185000D02*
X15185000Y-8215000D01*
X15185000Y-8352675D02*
X15215000Y-8382675D01*
X15215000Y-8352675D02*
X15185000Y-8382675D01*
X15185000Y-8552675D02*
X15215000Y-8582675D01*
X15215000Y-8552675D02*
X15185000Y-8582675D01*
X15305000Y-9525000D02*
X15335000Y-9555000D01*
X15335000Y-9525000D02*
X15305000Y-9555000D01*
X15305000Y-9665000D02*
X15335000Y-9695000D01*
X15335000Y-9665000D02*
X15305000Y-9695000D01*
X15385000Y-8185000D02*
X15415000Y-8215000D01*
X15415000Y-8185000D02*
X15385000Y-8215000D01*
X15385000Y-8352675D02*
X15415000Y-8382675D01*
X15415000Y-8352675D02*
X15385000Y-8382675D01*
X15385000Y-8495000D02*
X15415000Y-8525000D01*
X15415000Y-8495000D02*
X15385000Y-8525000D01*
X15505000Y-9525000D02*
X15535000Y-9555000D01*
X15535000Y-9525000D02*
X15505000Y-9555000D01*
X15505000Y-9665000D02*
X15535000Y-9695000D01*
X15535000Y-9665000D02*
X15505000Y-9695000D01*
X15585000Y-8185000D02*
X15615000Y-8215000D01*
X15615000Y-8185000D02*
X15585000Y-8215000D01*
X15585000Y-8352675D02*
X15615000Y-8382675D01*
X15615000Y-8352675D02*
X15585000Y-8382675D01*
X15585000Y-8495000D02*
X15615000Y-8525000D01*
X15615000Y-8495000D02*
X15585000Y-8525000D01*
X15705000Y-9525000D02*
X15735000Y-9555000D01*
X15735000Y-9525000D02*
X15705000Y-9555000D01*
X15705000Y-9665000D02*
X15735000Y-9695000D01*
X15735000Y-9665000D02*
X15705000Y-9695000D01*
X15785000Y-8185000D02*
X15815000Y-8215000D01*
X15815000Y-8185000D02*
X15785000Y-8215000D01*
X15785000Y-8352675D02*
X15815000Y-8382675D01*
X15815000Y-8352675D02*
X15785000Y-8382675D01*
X15785000Y-8495000D02*
X15815000Y-8525000D01*
X15815000Y-8495000D02*
X15785000Y-8525000D01*
X15905000Y-9525000D02*
X15935000Y-9555000D01*
X15935000Y-9525000D02*
X15905000Y-9555000D01*
X15905000Y-9665000D02*
X15935000Y-9695000D01*
X15935000Y-9665000D02*
X15905000Y-9695000D01*
X15985000Y-8185000D02*
X16015000Y-8215000D01*
X16015000Y-8185000D02*
X15985000Y-8215000D01*
X15985000Y-8352675D02*
X16015000Y-8382675D01*
X16015000Y-8352675D02*
X15985000Y-8382675D01*
X15985000Y-8495000D02*
X16015000Y-8525000D01*
X16015000Y-8495000D02*
X15985000Y-8525000D01*
X16185000Y-8185000D02*
X16215000Y-8215000D01*
X16215000Y-8185000D02*
X16185000Y-8215000D01*
X16185000Y-8352675D02*
X16215000Y-8382675D01*
X16215000Y-8352675D02*
X16185000Y-8382675D01*
X16185000Y-8552675D02*
X16215000Y-8582675D01*
X16215000Y-8552675D02*
X16185000Y-8582675D01*
X16385000Y-8185000D02*
X16415000Y-8215000D01*
X16415000Y-8185000D02*
X16385000Y-8215000D01*
X16385000Y-8352675D02*
X16415000Y-8382675D01*
X16415000Y-8352675D02*
X16385000Y-8382675D01*
X16385000Y-8552675D02*
X16415000Y-8582675D01*
X16415000Y-8552675D02*
X16385000Y-8582675D01*
X16585000Y-8185000D02*
X16615000Y-8215000D01*
X16615000Y-8185000D02*
X16585000Y-8215000D01*
X16585000Y-8352675D02*
X16615000Y-8382675D01*
X16615000Y-8352675D02*
X16585000Y-8382675D01*
X16785000Y-8175000D02*
X16815000Y-8205000D01*
X16815000Y-8175000D02*
X16785000Y-8205000D01*
X16785000Y-8352675D02*
X16815000Y-8382675D01*
X16815000Y-8352675D02*
X16785000Y-8382675D01*
X16785000Y-8552675D02*
X16815000Y-8582675D01*
X16815000Y-8552675D02*
X16785000Y-8582675D01*
X16785000Y-8752675D02*
X16815000Y-8782675D01*
X16815000Y-8752675D02*
X16785000Y-8782675D01*
X16985000Y-8175000D02*
X17015000Y-8205000D01*
X17015000Y-8175000D02*
X16985000Y-8205000D01*
X16985000Y-8352675D02*
X17015000Y-8382675D01*
X17015000Y-8352675D02*
X16985000Y-8382675D01*
X16985000Y-8552675D02*
X17015000Y-8582675D01*
X17015000Y-8552675D02*
X16985000Y-8582675D01*
X16985000Y-8752675D02*
X17015000Y-8782675D01*
X17015000Y-8752675D02*
X16985000Y-8782675D01*
X13293750Y-8858750D02*
G75*
G02*
X13263750Y-8858750I-15000J0D01*
G01*
X13263750Y-8858750D02*
G75*
G02*
X13293750Y-8858750I15000J0D01*
G01*
X13293750Y-8961250D02*
G75*
G02*
X13263750Y-8961250I-15000J0D01*
G01*
X13263750Y-8961250D02*
G75*
G02*
X13293750Y-8961250I15000J0D01*
G01*
X13396250Y-8858750D02*
G75*
G02*
X13366250Y-8858750I-15000J0D01*
G01*
X13366250Y-8858750D02*
G75*
G02*
X13396250Y-8858750I15000J0D01*
G01*
X13396250Y-8961250D02*
G75*
G02*
X13366250Y-8961250I-15000J0D01*
G01*
X13366250Y-8961250D02*
G75*
G02*
X13396250Y-8961250I15000J0D01*
G01*
D13*
X11473250Y-8600000D02*
X11473250Y-8710000D01*
X11418250Y-8655000D02*
X11528250Y-8655000D01*
X11473250Y-9100000D02*
X11473250Y-9210000D01*
X11418250Y-9155000D02*
X11528250Y-9155000D01*
X16611750Y-8600000D02*
X16611750Y-8710000D01*
X16556750Y-8655000D02*
X16666750Y-8655000D01*
X16611750Y-9100000D02*
X16611750Y-9210000D01*
X16556750Y-9155000D02*
X16666750Y-9155000D01*
D11*
X11198277Y-10168984D02*
X11198277Y-9968984D01*
X11198277Y-9968984D02*
X11245896Y-9968984D01*
X11245896Y-9968984D02*
X11274467Y-9978508D01*
X11274467Y-9978508D02*
X11293515Y-9997555D01*
X11293515Y-9997555D02*
X11303039Y-10016603D01*
X11303039Y-10016603D02*
X11312562Y-10054698D01*
X11312562Y-10054698D02*
X11312562Y-10083270D01*
X11312562Y-10083270D02*
X11303039Y-10121365D01*
X11303039Y-10121365D02*
X11293515Y-10140412D01*
X11293515Y-10140412D02*
X11274467Y-10159460D01*
X11274467Y-10159460D02*
X11245896Y-10168984D01*
X11245896Y-10168984D02*
X11198277Y-10168984D01*
X11398277Y-10168984D02*
X11398277Y-10035650D01*
X11398277Y-10073746D02*
X11407801Y-10054698D01*
X11407801Y-10054698D02*
X11417324Y-10045174D01*
X11417324Y-10045174D02*
X11436372Y-10035650D01*
X11436372Y-10035650D02*
X11455420Y-10035650D01*
X11522086Y-10168984D02*
X11522086Y-10035650D01*
X11522086Y-9968984D02*
X11512562Y-9978508D01*
X11512562Y-9978508D02*
X11522086Y-9988031D01*
X11522086Y-9988031D02*
X11531610Y-9978508D01*
X11531610Y-9978508D02*
X11522086Y-9968984D01*
X11522086Y-9968984D02*
X11522086Y-9988031D01*
X11645896Y-10168984D02*
X11626848Y-10159460D01*
X11626848Y-10159460D02*
X11617324Y-10140412D01*
X11617324Y-10140412D02*
X11617324Y-9968984D01*
X11750658Y-10168984D02*
X11731610Y-10159460D01*
X11731610Y-10159460D02*
X11722086Y-10140412D01*
X11722086Y-10140412D02*
X11722086Y-9968984D01*
X11979229Y-10168984D02*
X11979229Y-9968984D01*
X11979229Y-9968984D02*
X12045896Y-10111841D01*
X12045896Y-10111841D02*
X12112562Y-9968984D01*
X12112562Y-9968984D02*
X12112562Y-10168984D01*
X12293515Y-10168984D02*
X12293515Y-10064222D01*
X12293515Y-10064222D02*
X12283991Y-10045174D01*
X12283991Y-10045174D02*
X12264943Y-10035650D01*
X12264943Y-10035650D02*
X12226848Y-10035650D01*
X12226848Y-10035650D02*
X12207801Y-10045174D01*
X12293515Y-10159460D02*
X12274467Y-10168984D01*
X12274467Y-10168984D02*
X12226848Y-10168984D01*
X12226848Y-10168984D02*
X12207801Y-10159460D01*
X12207801Y-10159460D02*
X12198277Y-10140412D01*
X12198277Y-10140412D02*
X12198277Y-10121365D01*
X12198277Y-10121365D02*
X12207801Y-10102317D01*
X12207801Y-10102317D02*
X12226848Y-10092793D01*
X12226848Y-10092793D02*
X12274467Y-10092793D01*
X12274467Y-10092793D02*
X12293515Y-10083270D01*
X12388753Y-10035650D02*
X12388753Y-10235650D01*
X12388753Y-10045174D02*
X12407801Y-10035650D01*
X12407801Y-10035650D02*
X12445896Y-10035650D01*
X12445896Y-10035650D02*
X12464943Y-10045174D01*
X12464943Y-10045174D02*
X12474467Y-10054698D01*
X12474467Y-10054698D02*
X12483991Y-10073746D01*
X12483991Y-10073746D02*
X12483991Y-10130889D01*
X12483991Y-10130889D02*
X12474467Y-10149936D01*
X12474467Y-10149936D02*
X12464943Y-10159460D01*
X12464943Y-10159460D02*
X12445896Y-10168984D01*
X12445896Y-10168984D02*
X12407801Y-10168984D01*
X12407801Y-10168984D02*
X12388753Y-10159460D01*
X12569705Y-10149936D02*
X12579229Y-10159460D01*
X12579229Y-10159460D02*
X12569705Y-10168984D01*
X12569705Y-10168984D02*
X12560182Y-10159460D01*
X12560182Y-10159460D02*
X12569705Y-10149936D01*
X12569705Y-10149936D02*
X12569705Y-10168984D01*
X12569705Y-10045174D02*
X12579229Y-10054698D01*
X12579229Y-10054698D02*
X12569705Y-10064222D01*
X12569705Y-10064222D02*
X12560182Y-10054698D01*
X12560182Y-10054698D02*
X12569705Y-10045174D01*
X12569705Y-10045174D02*
X12569705Y-10064222D01*
D12*
X10907500Y-10482500D02*
X10937500Y-10512500D01*
X10937500Y-10482500D02*
X10907500Y-10512500D01*
D11*
X11236372Y-10388984D02*
X11255420Y-10388984D01*
X11255420Y-10388984D02*
X11274467Y-10398508D01*
X11274467Y-10398508D02*
X11283991Y-10408031D01*
X11283991Y-10408031D02*
X11293515Y-10427079D01*
X11293515Y-10427079D02*
X11303039Y-10465174D01*
X11303039Y-10465174D02*
X11303039Y-10512793D01*
X11303039Y-10512793D02*
X11293515Y-10550889D01*
X11293515Y-10550889D02*
X11283991Y-10569936D01*
X11283991Y-10569936D02*
X11274467Y-10579460D01*
X11274467Y-10579460D02*
X11255420Y-10588984D01*
X11255420Y-10588984D02*
X11236372Y-10588984D01*
X11236372Y-10588984D02*
X11217324Y-10579460D01*
X11217324Y-10579460D02*
X11207801Y-10569936D01*
X11207801Y-10569936D02*
X11198277Y-10550889D01*
X11198277Y-10550889D02*
X11188753Y-10512793D01*
X11188753Y-10512793D02*
X11188753Y-10465174D01*
X11188753Y-10465174D02*
X11198277Y-10427079D01*
X11198277Y-10427079D02*
X11207801Y-10408031D01*
X11207801Y-10408031D02*
X11217324Y-10398508D01*
X11217324Y-10398508D02*
X11236372Y-10388984D01*
X11388753Y-10569936D02*
X11398277Y-10579460D01*
X11398277Y-10579460D02*
X11388753Y-10588984D01*
X11388753Y-10588984D02*
X11379229Y-10579460D01*
X11379229Y-10579460D02*
X11388753Y-10569936D01*
X11388753Y-10569936D02*
X11388753Y-10588984D01*
X11464943Y-10388984D02*
X11588753Y-10388984D01*
X11588753Y-10388984D02*
X11522086Y-10465174D01*
X11522086Y-10465174D02*
X11550658Y-10465174D01*
X11550658Y-10465174D02*
X11569705Y-10474698D01*
X11569705Y-10474698D02*
X11579229Y-10484222D01*
X11579229Y-10484222D02*
X11588753Y-10503270D01*
X11588753Y-10503270D02*
X11588753Y-10550889D01*
X11588753Y-10550889D02*
X11579229Y-10569936D01*
X11579229Y-10569936D02*
X11569705Y-10579460D01*
X11569705Y-10579460D02*
X11550658Y-10588984D01*
X11550658Y-10588984D02*
X11493515Y-10588984D01*
X11493515Y-10588984D02*
X11474467Y-10579460D01*
X11474467Y-10579460D02*
X11464943Y-10569936D01*
X11712562Y-10388984D02*
X11731610Y-10388984D01*
X11731610Y-10388984D02*
X11750658Y-10398508D01*
X11750658Y-10398508D02*
X11760182Y-10408031D01*
X11760182Y-10408031D02*
X11769705Y-10427079D01*
X11769705Y-10427079D02*
X11779229Y-10465174D01*
X11779229Y-10465174D02*
X11779229Y-10512793D01*
X11779229Y-10512793D02*
X11769705Y-10550889D01*
X11769705Y-10550889D02*
X11760182Y-10569936D01*
X11760182Y-10569936D02*
X11750658Y-10579460D01*
X11750658Y-10579460D02*
X11731610Y-10588984D01*
X11731610Y-10588984D02*
X11712562Y-10588984D01*
X11712562Y-10588984D02*
X11693515Y-10579460D01*
X11693515Y-10579460D02*
X11683991Y-10569936D01*
X11683991Y-10569936D02*
X11674467Y-10550889D01*
X11674467Y-10550889D02*
X11664943Y-10512793D01*
X11664943Y-10512793D02*
X11664943Y-10465174D01*
X11664943Y-10465174D02*
X11674467Y-10427079D01*
X11674467Y-10427079D02*
X11683991Y-10408031D01*
X11683991Y-10408031D02*
X11693515Y-10398508D01*
X11693515Y-10398508D02*
X11712562Y-10388984D01*
X11903039Y-10388984D02*
X11922086Y-10388984D01*
X11922086Y-10388984D02*
X11941134Y-10398508D01*
X11941134Y-10398508D02*
X11950658Y-10408031D01*
X11950658Y-10408031D02*
X11960182Y-10427079D01*
X11960182Y-10427079D02*
X11969705Y-10465174D01*
X11969705Y-10465174D02*
X11969705Y-10512793D01*
X11969705Y-10512793D02*
X11960182Y-10550889D01*
X11960182Y-10550889D02*
X11950658Y-10569936D01*
X11950658Y-10569936D02*
X11941134Y-10579460D01*
X11941134Y-10579460D02*
X11922086Y-10588984D01*
X11922086Y-10588984D02*
X11903039Y-10588984D01*
X11903039Y-10588984D02*
X11883991Y-10579460D01*
X11883991Y-10579460D02*
X11874467Y-10569936D01*
X11874467Y-10569936D02*
X11864943Y-10550889D01*
X11864943Y-10550889D02*
X11855420Y-10512793D01*
X11855420Y-10512793D02*
X11855420Y-10465174D01*
X11855420Y-10465174D02*
X11864943Y-10427079D01*
X11864943Y-10427079D02*
X11874467Y-10408031D01*
X11874467Y-10408031D02*
X11883991Y-10398508D01*
X11883991Y-10398508D02*
X11903039Y-10388984D01*
X12055420Y-10588984D02*
X12055420Y-10455650D01*
X12055420Y-10474698D02*
X12064943Y-10465174D01*
X12064943Y-10465174D02*
X12083991Y-10455650D01*
X12083991Y-10455650D02*
X12112563Y-10455650D01*
X12112563Y-10455650D02*
X12131610Y-10465174D01*
X12131610Y-10465174D02*
X12141134Y-10484222D01*
X12141134Y-10484222D02*
X12141134Y-10588984D01*
X12141134Y-10484222D02*
X12150658Y-10465174D01*
X12150658Y-10465174D02*
X12169705Y-10455650D01*
X12169705Y-10455650D02*
X12198277Y-10455650D01*
X12198277Y-10455650D02*
X12217324Y-10465174D01*
X12217324Y-10465174D02*
X12226848Y-10484222D01*
X12226848Y-10484222D02*
X12226848Y-10588984D01*
X12322086Y-10588984D02*
X12322086Y-10455650D01*
X12322086Y-10474698D02*
X12331610Y-10465174D01*
X12331610Y-10465174D02*
X12350658Y-10455650D01*
X12350658Y-10455650D02*
X12379229Y-10455650D01*
X12379229Y-10455650D02*
X12398277Y-10465174D01*
X12398277Y-10465174D02*
X12407801Y-10484222D01*
X12407801Y-10484222D02*
X12407801Y-10588984D01*
X12407801Y-10484222D02*
X12417324Y-10465174D01*
X12417324Y-10465174D02*
X12436372Y-10455650D01*
X12436372Y-10455650D02*
X12464943Y-10455650D01*
X12464943Y-10455650D02*
X12483991Y-10465174D01*
X12483991Y-10465174D02*
X12493515Y-10484222D01*
X12493515Y-10484222D02*
X12493515Y-10588984D01*
X12883991Y-10379460D02*
X12712563Y-10636603D01*
X13141134Y-10388984D02*
X13160182Y-10388984D01*
X13160182Y-10388984D02*
X13179229Y-10398508D01*
X13179229Y-10398508D02*
X13188753Y-10408031D01*
X13188753Y-10408031D02*
X13198277Y-10427079D01*
X13198277Y-10427079D02*
X13207801Y-10465174D01*
X13207801Y-10465174D02*
X13207801Y-10512793D01*
X13207801Y-10512793D02*
X13198277Y-10550889D01*
X13198277Y-10550889D02*
X13188753Y-10569936D01*
X13188753Y-10569936D02*
X13179229Y-10579460D01*
X13179229Y-10579460D02*
X13160182Y-10588984D01*
X13160182Y-10588984D02*
X13141134Y-10588984D01*
X13141134Y-10588984D02*
X13122086Y-10579460D01*
X13122086Y-10579460D02*
X13112563Y-10569936D01*
X13112563Y-10569936D02*
X13103039Y-10550889D01*
X13103039Y-10550889D02*
X13093515Y-10512793D01*
X13093515Y-10512793D02*
X13093515Y-10465174D01*
X13093515Y-10465174D02*
X13103039Y-10427079D01*
X13103039Y-10427079D02*
X13112563Y-10408031D01*
X13112563Y-10408031D02*
X13122086Y-10398508D01*
X13122086Y-10398508D02*
X13141134Y-10388984D01*
X13293515Y-10569936D02*
X13303039Y-10579460D01*
X13303039Y-10579460D02*
X13293515Y-10588984D01*
X13293515Y-10588984D02*
X13283991Y-10579460D01*
X13283991Y-10579460D02*
X13293515Y-10569936D01*
X13293515Y-10569936D02*
X13293515Y-10588984D01*
X13426848Y-10388984D02*
X13445896Y-10388984D01*
X13445896Y-10388984D02*
X13464944Y-10398508D01*
X13464944Y-10398508D02*
X13474467Y-10408031D01*
X13474467Y-10408031D02*
X13483991Y-10427079D01*
X13483991Y-10427079D02*
X13493515Y-10465174D01*
X13493515Y-10465174D02*
X13493515Y-10512793D01*
X13493515Y-10512793D02*
X13483991Y-10550889D01*
X13483991Y-10550889D02*
X13474467Y-10569936D01*
X13474467Y-10569936D02*
X13464944Y-10579460D01*
X13464944Y-10579460D02*
X13445896Y-10588984D01*
X13445896Y-10588984D02*
X13426848Y-10588984D01*
X13426848Y-10588984D02*
X13407801Y-10579460D01*
X13407801Y-10579460D02*
X13398277Y-10569936D01*
X13398277Y-10569936D02*
X13388753Y-10550889D01*
X13388753Y-10550889D02*
X13379229Y-10512793D01*
X13379229Y-10512793D02*
X13379229Y-10465174D01*
X13379229Y-10465174D02*
X13388753Y-10427079D01*
X13388753Y-10427079D02*
X13398277Y-10408031D01*
X13398277Y-10408031D02*
X13407801Y-10398508D01*
X13407801Y-10398508D02*
X13426848Y-10388984D01*
X13683991Y-10588984D02*
X13569706Y-10588984D01*
X13626848Y-10588984D02*
X13626848Y-10388984D01*
X13626848Y-10388984D02*
X13607801Y-10417555D01*
X13607801Y-10417555D02*
X13588753Y-10436603D01*
X13588753Y-10436603D02*
X13569706Y-10446127D01*
X13874467Y-10588984D02*
X13760182Y-10588984D01*
X13817325Y-10588984D02*
X13817325Y-10388984D01*
X13817325Y-10388984D02*
X13798277Y-10417555D01*
X13798277Y-10417555D02*
X13779229Y-10436603D01*
X13779229Y-10436603D02*
X13760182Y-10446127D01*
X13988753Y-10474698D02*
X13969706Y-10465174D01*
X13969706Y-10465174D02*
X13960182Y-10455650D01*
X13960182Y-10455650D02*
X13950658Y-10436603D01*
X13950658Y-10436603D02*
X13950658Y-10427079D01*
X13950658Y-10427079D02*
X13960182Y-10408031D01*
X13960182Y-10408031D02*
X13969706Y-10398508D01*
X13969706Y-10398508D02*
X13988753Y-10388984D01*
X13988753Y-10388984D02*
X14026848Y-10388984D01*
X14026848Y-10388984D02*
X14045896Y-10398508D01*
X14045896Y-10398508D02*
X14055420Y-10408031D01*
X14055420Y-10408031D02*
X14064944Y-10427079D01*
X14064944Y-10427079D02*
X14064944Y-10436603D01*
X14064944Y-10436603D02*
X14055420Y-10455650D01*
X14055420Y-10455650D02*
X14045896Y-10465174D01*
X14045896Y-10465174D02*
X14026848Y-10474698D01*
X14026848Y-10474698D02*
X13988753Y-10474698D01*
X13988753Y-10474698D02*
X13969706Y-10484222D01*
X13969706Y-10484222D02*
X13960182Y-10493746D01*
X13960182Y-10493746D02*
X13950658Y-10512793D01*
X13950658Y-10512793D02*
X13950658Y-10550889D01*
X13950658Y-10550889D02*
X13960182Y-10569936D01*
X13960182Y-10569936D02*
X13969706Y-10579460D01*
X13969706Y-10579460D02*
X13988753Y-10588984D01*
X13988753Y-10588984D02*
X14026848Y-10588984D01*
X14026848Y-10588984D02*
X14045896Y-10579460D01*
X14045896Y-10579460D02*
X14055420Y-10569936D01*
X14055420Y-10569936D02*
X14064944Y-10550889D01*
X14064944Y-10550889D02*
X14064944Y-10512793D01*
X14064944Y-10512793D02*
X14055420Y-10493746D01*
X14055420Y-10493746D02*
X14045896Y-10484222D01*
X14045896Y-10484222D02*
X14026848Y-10474698D01*
X14141134Y-10388984D02*
X14141134Y-10427079D01*
X14217325Y-10388984D02*
X14217325Y-10427079D01*
X14512563Y-10665174D02*
X14503039Y-10655650D01*
X14503039Y-10655650D02*
X14483991Y-10627079D01*
X14483991Y-10627079D02*
X14474468Y-10608031D01*
X14474468Y-10608031D02*
X14464944Y-10579460D01*
X14464944Y-10579460D02*
X14455420Y-10531841D01*
X14455420Y-10531841D02*
X14455420Y-10493746D01*
X14455420Y-10493746D02*
X14464944Y-10446127D01*
X14464944Y-10446127D02*
X14474468Y-10417555D01*
X14474468Y-10417555D02*
X14483991Y-10398508D01*
X14483991Y-10398508D02*
X14503039Y-10369936D01*
X14503039Y-10369936D02*
X14512563Y-10360412D01*
X14693515Y-10588984D02*
X14579229Y-10588984D01*
X14636372Y-10588984D02*
X14636372Y-10388984D01*
X14636372Y-10388984D02*
X14617325Y-10417555D01*
X14617325Y-10417555D02*
X14598277Y-10436603D01*
X14598277Y-10436603D02*
X14579229Y-10446127D01*
X14817325Y-10388984D02*
X14836372Y-10388984D01*
X14836372Y-10388984D02*
X14855420Y-10398508D01*
X14855420Y-10398508D02*
X14864944Y-10408031D01*
X14864944Y-10408031D02*
X14874468Y-10427079D01*
X14874468Y-10427079D02*
X14883991Y-10465174D01*
X14883991Y-10465174D02*
X14883991Y-10512793D01*
X14883991Y-10512793D02*
X14874468Y-10550889D01*
X14874468Y-10550889D02*
X14864944Y-10569936D01*
X14864944Y-10569936D02*
X14855420Y-10579460D01*
X14855420Y-10579460D02*
X14836372Y-10588984D01*
X14836372Y-10588984D02*
X14817325Y-10588984D01*
X14817325Y-10588984D02*
X14798277Y-10579460D01*
X14798277Y-10579460D02*
X14788753Y-10569936D01*
X14788753Y-10569936D02*
X14779229Y-10550889D01*
X14779229Y-10550889D02*
X14769706Y-10512793D01*
X14769706Y-10512793D02*
X14769706Y-10465174D01*
X14769706Y-10465174D02*
X14779229Y-10427079D01*
X14779229Y-10427079D02*
X14788753Y-10408031D01*
X14788753Y-10408031D02*
X14798277Y-10398508D01*
X14798277Y-10398508D02*
X14817325Y-10388984D01*
X14950658Y-10388984D02*
X15074468Y-10388984D01*
X15074468Y-10388984D02*
X15007801Y-10465174D01*
X15007801Y-10465174D02*
X15036372Y-10465174D01*
X15036372Y-10465174D02*
X15055420Y-10474698D01*
X15055420Y-10474698D02*
X15064944Y-10484222D01*
X15064944Y-10484222D02*
X15074468Y-10503270D01*
X15074468Y-10503270D02*
X15074468Y-10550889D01*
X15074468Y-10550889D02*
X15064944Y-10569936D01*
X15064944Y-10569936D02*
X15055420Y-10579460D01*
X15055420Y-10579460D02*
X15036372Y-10588984D01*
X15036372Y-10588984D02*
X14979229Y-10588984D01*
X14979229Y-10588984D02*
X14960182Y-10579460D01*
X14960182Y-10579460D02*
X14950658Y-10569936D01*
X15312563Y-10588984D02*
X15312563Y-10388984D01*
X15398277Y-10588984D02*
X15398277Y-10484222D01*
X15398277Y-10484222D02*
X15388753Y-10465174D01*
X15388753Y-10465174D02*
X15369706Y-10455650D01*
X15369706Y-10455650D02*
X15341134Y-10455650D01*
X15341134Y-10455650D02*
X15322087Y-10465174D01*
X15322087Y-10465174D02*
X15312563Y-10474698D01*
X15522087Y-10588984D02*
X15503039Y-10579460D01*
X15503039Y-10579460D02*
X15493515Y-10569936D01*
X15493515Y-10569936D02*
X15483991Y-10550889D01*
X15483991Y-10550889D02*
X15483991Y-10493746D01*
X15483991Y-10493746D02*
X15493515Y-10474698D01*
X15493515Y-10474698D02*
X15503039Y-10465174D01*
X15503039Y-10465174D02*
X15522087Y-10455650D01*
X15522087Y-10455650D02*
X15550658Y-10455650D01*
X15550658Y-10455650D02*
X15569706Y-10465174D01*
X15569706Y-10465174D02*
X15579230Y-10474698D01*
X15579230Y-10474698D02*
X15588753Y-10493746D01*
X15588753Y-10493746D02*
X15588753Y-10550889D01*
X15588753Y-10550889D02*
X15579230Y-10569936D01*
X15579230Y-10569936D02*
X15569706Y-10579460D01*
X15569706Y-10579460D02*
X15550658Y-10588984D01*
X15550658Y-10588984D02*
X15522087Y-10588984D01*
X15703039Y-10588984D02*
X15683991Y-10579460D01*
X15683991Y-10579460D02*
X15674468Y-10560412D01*
X15674468Y-10560412D02*
X15674468Y-10388984D01*
X15855420Y-10579460D02*
X15836372Y-10588984D01*
X15836372Y-10588984D02*
X15798277Y-10588984D01*
X15798277Y-10588984D02*
X15779230Y-10579460D01*
X15779230Y-10579460D02*
X15769706Y-10560412D01*
X15769706Y-10560412D02*
X15769706Y-10484222D01*
X15769706Y-10484222D02*
X15779230Y-10465174D01*
X15779230Y-10465174D02*
X15798277Y-10455650D01*
X15798277Y-10455650D02*
X15836372Y-10455650D01*
X15836372Y-10455650D02*
X15855420Y-10465174D01*
X15855420Y-10465174D02*
X15864944Y-10484222D01*
X15864944Y-10484222D02*
X15864944Y-10503270D01*
X15864944Y-10503270D02*
X15769706Y-10522317D01*
X15941134Y-10579460D02*
X15960182Y-10588984D01*
X15960182Y-10588984D02*
X15998277Y-10588984D01*
X15998277Y-10588984D02*
X16017325Y-10579460D01*
X16017325Y-10579460D02*
X16026849Y-10560412D01*
X16026849Y-10560412D02*
X16026849Y-10550889D01*
X16026849Y-10550889D02*
X16017325Y-10531841D01*
X16017325Y-10531841D02*
X15998277Y-10522317D01*
X15998277Y-10522317D02*
X15969706Y-10522317D01*
X15969706Y-10522317D02*
X15950658Y-10512793D01*
X15950658Y-10512793D02*
X15941134Y-10493746D01*
X15941134Y-10493746D02*
X15941134Y-10484222D01*
X15941134Y-10484222D02*
X15950658Y-10465174D01*
X15950658Y-10465174D02*
X15969706Y-10455650D01*
X15969706Y-10455650D02*
X15998277Y-10455650D01*
X15998277Y-10455650D02*
X16017325Y-10465174D01*
X16093515Y-10665174D02*
X16103039Y-10655650D01*
X16103039Y-10655650D02*
X16122087Y-10627079D01*
X16122087Y-10627079D02*
X16131611Y-10608031D01*
X16131611Y-10608031D02*
X16141134Y-10579460D01*
X16141134Y-10579460D02*
X16150658Y-10531841D01*
X16150658Y-10531841D02*
X16150658Y-10493746D01*
X16150658Y-10493746D02*
X16141134Y-10446127D01*
X16141134Y-10446127D02*
X16131611Y-10417555D01*
X16131611Y-10417555D02*
X16122087Y-10398508D01*
X16122087Y-10398508D02*
X16103039Y-10369936D01*
X16103039Y-10369936D02*
X16093515Y-10360412D01*
D12*
X10937500Y-10761500D02*
G75*
G02*
X10907500Y-10761500I-15000J0D01*
G01*
X10907500Y-10761500D02*
G75*
G02*
X10937500Y-10761500I15000J0D01*
G01*
D11*
X11236372Y-10652984D02*
X11255420Y-10652984D01*
X11255420Y-10652984D02*
X11274467Y-10662508D01*
X11274467Y-10662508D02*
X11283991Y-10672031D01*
X11283991Y-10672031D02*
X11293515Y-10691079D01*
X11293515Y-10691079D02*
X11303039Y-10729174D01*
X11303039Y-10729174D02*
X11303039Y-10776793D01*
X11303039Y-10776793D02*
X11293515Y-10814889D01*
X11293515Y-10814889D02*
X11283991Y-10833936D01*
X11283991Y-10833936D02*
X11274467Y-10843460D01*
X11274467Y-10843460D02*
X11255420Y-10852984D01*
X11255420Y-10852984D02*
X11236372Y-10852984D01*
X11236372Y-10852984D02*
X11217324Y-10843460D01*
X11217324Y-10843460D02*
X11207801Y-10833936D01*
X11207801Y-10833936D02*
X11198277Y-10814889D01*
X11198277Y-10814889D02*
X11188753Y-10776793D01*
X11188753Y-10776793D02*
X11188753Y-10729174D01*
X11188753Y-10729174D02*
X11198277Y-10691079D01*
X11198277Y-10691079D02*
X11207801Y-10672031D01*
X11207801Y-10672031D02*
X11217324Y-10662508D01*
X11217324Y-10662508D02*
X11236372Y-10652984D01*
X11388753Y-10833936D02*
X11398277Y-10843460D01*
X11398277Y-10843460D02*
X11388753Y-10852984D01*
X11388753Y-10852984D02*
X11379229Y-10843460D01*
X11379229Y-10843460D02*
X11388753Y-10833936D01*
X11388753Y-10833936D02*
X11388753Y-10852984D01*
X11464943Y-10652984D02*
X11588753Y-10652984D01*
X11588753Y-10652984D02*
X11522086Y-10729174D01*
X11522086Y-10729174D02*
X11550658Y-10729174D01*
X11550658Y-10729174D02*
X11569705Y-10738698D01*
X11569705Y-10738698D02*
X11579229Y-10748222D01*
X11579229Y-10748222D02*
X11588753Y-10767270D01*
X11588753Y-10767270D02*
X11588753Y-10814889D01*
X11588753Y-10814889D02*
X11579229Y-10833936D01*
X11579229Y-10833936D02*
X11569705Y-10843460D01*
X11569705Y-10843460D02*
X11550658Y-10852984D01*
X11550658Y-10852984D02*
X11493515Y-10852984D01*
X11493515Y-10852984D02*
X11474467Y-10843460D01*
X11474467Y-10843460D02*
X11464943Y-10833936D01*
X11712562Y-10652984D02*
X11731610Y-10652984D01*
X11731610Y-10652984D02*
X11750658Y-10662508D01*
X11750658Y-10662508D02*
X11760182Y-10672031D01*
X11760182Y-10672031D02*
X11769705Y-10691079D01*
X11769705Y-10691079D02*
X11779229Y-10729174D01*
X11779229Y-10729174D02*
X11779229Y-10776793D01*
X11779229Y-10776793D02*
X11769705Y-10814889D01*
X11769705Y-10814889D02*
X11760182Y-10833936D01*
X11760182Y-10833936D02*
X11750658Y-10843460D01*
X11750658Y-10843460D02*
X11731610Y-10852984D01*
X11731610Y-10852984D02*
X11712562Y-10852984D01*
X11712562Y-10852984D02*
X11693515Y-10843460D01*
X11693515Y-10843460D02*
X11683991Y-10833936D01*
X11683991Y-10833936D02*
X11674467Y-10814889D01*
X11674467Y-10814889D02*
X11664943Y-10776793D01*
X11664943Y-10776793D02*
X11664943Y-10729174D01*
X11664943Y-10729174D02*
X11674467Y-10691079D01*
X11674467Y-10691079D02*
X11683991Y-10672031D01*
X11683991Y-10672031D02*
X11693515Y-10662508D01*
X11693515Y-10662508D02*
X11712562Y-10652984D01*
X11903039Y-10652984D02*
X11922086Y-10652984D01*
X11922086Y-10652984D02*
X11941134Y-10662508D01*
X11941134Y-10662508D02*
X11950658Y-10672031D01*
X11950658Y-10672031D02*
X11960182Y-10691079D01*
X11960182Y-10691079D02*
X11969705Y-10729174D01*
X11969705Y-10729174D02*
X11969705Y-10776793D01*
X11969705Y-10776793D02*
X11960182Y-10814889D01*
X11960182Y-10814889D02*
X11950658Y-10833936D01*
X11950658Y-10833936D02*
X11941134Y-10843460D01*
X11941134Y-10843460D02*
X11922086Y-10852984D01*
X11922086Y-10852984D02*
X11903039Y-10852984D01*
X11903039Y-10852984D02*
X11883991Y-10843460D01*
X11883991Y-10843460D02*
X11874467Y-10833936D01*
X11874467Y-10833936D02*
X11864943Y-10814889D01*
X11864943Y-10814889D02*
X11855420Y-10776793D01*
X11855420Y-10776793D02*
X11855420Y-10729174D01*
X11855420Y-10729174D02*
X11864943Y-10691079D01*
X11864943Y-10691079D02*
X11874467Y-10672031D01*
X11874467Y-10672031D02*
X11883991Y-10662508D01*
X11883991Y-10662508D02*
X11903039Y-10652984D01*
X12055420Y-10852984D02*
X12055420Y-10719650D01*
X12055420Y-10738698D02*
X12064943Y-10729174D01*
X12064943Y-10729174D02*
X12083991Y-10719650D01*
X12083991Y-10719650D02*
X12112563Y-10719650D01*
X12112563Y-10719650D02*
X12131610Y-10729174D01*
X12131610Y-10729174D02*
X12141134Y-10748222D01*
X12141134Y-10748222D02*
X12141134Y-10852984D01*
X12141134Y-10748222D02*
X12150658Y-10729174D01*
X12150658Y-10729174D02*
X12169705Y-10719650D01*
X12169705Y-10719650D02*
X12198277Y-10719650D01*
X12198277Y-10719650D02*
X12217324Y-10729174D01*
X12217324Y-10729174D02*
X12226848Y-10748222D01*
X12226848Y-10748222D02*
X12226848Y-10852984D01*
X12322086Y-10852984D02*
X12322086Y-10719650D01*
X12322086Y-10738698D02*
X12331610Y-10729174D01*
X12331610Y-10729174D02*
X12350658Y-10719650D01*
X12350658Y-10719650D02*
X12379229Y-10719650D01*
X12379229Y-10719650D02*
X12398277Y-10729174D01*
X12398277Y-10729174D02*
X12407801Y-10748222D01*
X12407801Y-10748222D02*
X12407801Y-10852984D01*
X12407801Y-10748222D02*
X12417324Y-10729174D01*
X12417324Y-10729174D02*
X12436372Y-10719650D01*
X12436372Y-10719650D02*
X12464943Y-10719650D01*
X12464943Y-10719650D02*
X12483991Y-10729174D01*
X12483991Y-10729174D02*
X12493515Y-10748222D01*
X12493515Y-10748222D02*
X12493515Y-10852984D01*
X12883991Y-10643460D02*
X12712563Y-10900603D01*
X13141134Y-10652984D02*
X13160182Y-10652984D01*
X13160182Y-10652984D02*
X13179229Y-10662508D01*
X13179229Y-10662508D02*
X13188753Y-10672031D01*
X13188753Y-10672031D02*
X13198277Y-10691079D01*
X13198277Y-10691079D02*
X13207801Y-10729174D01*
X13207801Y-10729174D02*
X13207801Y-10776793D01*
X13207801Y-10776793D02*
X13198277Y-10814889D01*
X13198277Y-10814889D02*
X13188753Y-10833936D01*
X13188753Y-10833936D02*
X13179229Y-10843460D01*
X13179229Y-10843460D02*
X13160182Y-10852984D01*
X13160182Y-10852984D02*
X13141134Y-10852984D01*
X13141134Y-10852984D02*
X13122086Y-10843460D01*
X13122086Y-10843460D02*
X13112563Y-10833936D01*
X13112563Y-10833936D02*
X13103039Y-10814889D01*
X13103039Y-10814889D02*
X13093515Y-10776793D01*
X13093515Y-10776793D02*
X13093515Y-10729174D01*
X13093515Y-10729174D02*
X13103039Y-10691079D01*
X13103039Y-10691079D02*
X13112563Y-10672031D01*
X13112563Y-10672031D02*
X13122086Y-10662508D01*
X13122086Y-10662508D02*
X13141134Y-10652984D01*
X13293515Y-10833936D02*
X13303039Y-10843460D01*
X13303039Y-10843460D02*
X13293515Y-10852984D01*
X13293515Y-10852984D02*
X13283991Y-10843460D01*
X13283991Y-10843460D02*
X13293515Y-10833936D01*
X13293515Y-10833936D02*
X13293515Y-10852984D01*
X13426848Y-10652984D02*
X13445896Y-10652984D01*
X13445896Y-10652984D02*
X13464944Y-10662508D01*
X13464944Y-10662508D02*
X13474467Y-10672031D01*
X13474467Y-10672031D02*
X13483991Y-10691079D01*
X13483991Y-10691079D02*
X13493515Y-10729174D01*
X13493515Y-10729174D02*
X13493515Y-10776793D01*
X13493515Y-10776793D02*
X13483991Y-10814889D01*
X13483991Y-10814889D02*
X13474467Y-10833936D01*
X13474467Y-10833936D02*
X13464944Y-10843460D01*
X13464944Y-10843460D02*
X13445896Y-10852984D01*
X13445896Y-10852984D02*
X13426848Y-10852984D01*
X13426848Y-10852984D02*
X13407801Y-10843460D01*
X13407801Y-10843460D02*
X13398277Y-10833936D01*
X13398277Y-10833936D02*
X13388753Y-10814889D01*
X13388753Y-10814889D02*
X13379229Y-10776793D01*
X13379229Y-10776793D02*
X13379229Y-10729174D01*
X13379229Y-10729174D02*
X13388753Y-10691079D01*
X13388753Y-10691079D02*
X13398277Y-10672031D01*
X13398277Y-10672031D02*
X13407801Y-10662508D01*
X13407801Y-10662508D02*
X13426848Y-10652984D01*
X13683991Y-10852984D02*
X13569706Y-10852984D01*
X13626848Y-10852984D02*
X13626848Y-10652984D01*
X13626848Y-10652984D02*
X13607801Y-10681555D01*
X13607801Y-10681555D02*
X13588753Y-10700603D01*
X13588753Y-10700603D02*
X13569706Y-10710127D01*
X13874467Y-10852984D02*
X13760182Y-10852984D01*
X13817325Y-10852984D02*
X13817325Y-10652984D01*
X13817325Y-10652984D02*
X13798277Y-10681555D01*
X13798277Y-10681555D02*
X13779229Y-10700603D01*
X13779229Y-10700603D02*
X13760182Y-10710127D01*
X13988753Y-10738698D02*
X13969706Y-10729174D01*
X13969706Y-10729174D02*
X13960182Y-10719650D01*
X13960182Y-10719650D02*
X13950658Y-10700603D01*
X13950658Y-10700603D02*
X13950658Y-10691079D01*
X13950658Y-10691079D02*
X13960182Y-10672031D01*
X13960182Y-10672031D02*
X13969706Y-10662508D01*
X13969706Y-10662508D02*
X13988753Y-10652984D01*
X13988753Y-10652984D02*
X14026848Y-10652984D01*
X14026848Y-10652984D02*
X14045896Y-10662508D01*
X14045896Y-10662508D02*
X14055420Y-10672031D01*
X14055420Y-10672031D02*
X14064944Y-10691079D01*
X14064944Y-10691079D02*
X14064944Y-10700603D01*
X14064944Y-10700603D02*
X14055420Y-10719650D01*
X14055420Y-10719650D02*
X14045896Y-10729174D01*
X14045896Y-10729174D02*
X14026848Y-10738698D01*
X14026848Y-10738698D02*
X13988753Y-10738698D01*
X13988753Y-10738698D02*
X13969706Y-10748222D01*
X13969706Y-10748222D02*
X13960182Y-10757746D01*
X13960182Y-10757746D02*
X13950658Y-10776793D01*
X13950658Y-10776793D02*
X13950658Y-10814889D01*
X13950658Y-10814889D02*
X13960182Y-10833936D01*
X13960182Y-10833936D02*
X13969706Y-10843460D01*
X13969706Y-10843460D02*
X13988753Y-10852984D01*
X13988753Y-10852984D02*
X14026848Y-10852984D01*
X14026848Y-10852984D02*
X14045896Y-10843460D01*
X14045896Y-10843460D02*
X14055420Y-10833936D01*
X14055420Y-10833936D02*
X14064944Y-10814889D01*
X14064944Y-10814889D02*
X14064944Y-10776793D01*
X14064944Y-10776793D02*
X14055420Y-10757746D01*
X14055420Y-10757746D02*
X14045896Y-10748222D01*
X14045896Y-10748222D02*
X14026848Y-10738698D01*
X14141134Y-10652984D02*
X14141134Y-10691079D01*
X14217325Y-10652984D02*
X14217325Y-10691079D01*
X14512563Y-10929174D02*
X14503039Y-10919650D01*
X14503039Y-10919650D02*
X14483991Y-10891079D01*
X14483991Y-10891079D02*
X14474468Y-10872031D01*
X14474468Y-10872031D02*
X14464944Y-10843460D01*
X14464944Y-10843460D02*
X14455420Y-10795841D01*
X14455420Y-10795841D02*
X14455420Y-10757746D01*
X14455420Y-10757746D02*
X14464944Y-10710127D01*
X14464944Y-10710127D02*
X14474468Y-10681555D01*
X14474468Y-10681555D02*
X14483991Y-10662508D01*
X14483991Y-10662508D02*
X14503039Y-10633936D01*
X14503039Y-10633936D02*
X14512563Y-10624412D01*
X14674468Y-10719650D02*
X14674468Y-10852984D01*
X14626848Y-10643460D02*
X14579229Y-10786317D01*
X14579229Y-10786317D02*
X14703039Y-10786317D01*
X14931610Y-10852984D02*
X14931610Y-10652984D01*
X15017325Y-10852984D02*
X15017325Y-10748222D01*
X15017325Y-10748222D02*
X15007801Y-10729174D01*
X15007801Y-10729174D02*
X14988753Y-10719650D01*
X14988753Y-10719650D02*
X14960182Y-10719650D01*
X14960182Y-10719650D02*
X14941134Y-10729174D01*
X14941134Y-10729174D02*
X14931610Y-10738698D01*
X15141134Y-10852984D02*
X15122087Y-10843460D01*
X15122087Y-10843460D02*
X15112563Y-10833936D01*
X15112563Y-10833936D02*
X15103039Y-10814889D01*
X15103039Y-10814889D02*
X15103039Y-10757746D01*
X15103039Y-10757746D02*
X15112563Y-10738698D01*
X15112563Y-10738698D02*
X15122087Y-10729174D01*
X15122087Y-10729174D02*
X15141134Y-10719650D01*
X15141134Y-10719650D02*
X15169706Y-10719650D01*
X15169706Y-10719650D02*
X15188753Y-10729174D01*
X15188753Y-10729174D02*
X15198277Y-10738698D01*
X15198277Y-10738698D02*
X15207801Y-10757746D01*
X15207801Y-10757746D02*
X15207801Y-10814889D01*
X15207801Y-10814889D02*
X15198277Y-10833936D01*
X15198277Y-10833936D02*
X15188753Y-10843460D01*
X15188753Y-10843460D02*
X15169706Y-10852984D01*
X15169706Y-10852984D02*
X15141134Y-10852984D01*
X15322087Y-10852984D02*
X15303039Y-10843460D01*
X15303039Y-10843460D02*
X15293515Y-10824412D01*
X15293515Y-10824412D02*
X15293515Y-10652984D01*
X15474468Y-10843460D02*
X15455420Y-10852984D01*
X15455420Y-10852984D02*
X15417325Y-10852984D01*
X15417325Y-10852984D02*
X15398277Y-10843460D01*
X15398277Y-10843460D02*
X15388753Y-10824412D01*
X15388753Y-10824412D02*
X15388753Y-10748222D01*
X15388753Y-10748222D02*
X15398277Y-10729174D01*
X15398277Y-10729174D02*
X15417325Y-10719650D01*
X15417325Y-10719650D02*
X15455420Y-10719650D01*
X15455420Y-10719650D02*
X15474468Y-10729174D01*
X15474468Y-10729174D02*
X15483991Y-10748222D01*
X15483991Y-10748222D02*
X15483991Y-10767270D01*
X15483991Y-10767270D02*
X15388753Y-10786317D01*
X15560182Y-10843460D02*
X15579230Y-10852984D01*
X15579230Y-10852984D02*
X15617325Y-10852984D01*
X15617325Y-10852984D02*
X15636372Y-10843460D01*
X15636372Y-10843460D02*
X15645896Y-10824412D01*
X15645896Y-10824412D02*
X15645896Y-10814889D01*
X15645896Y-10814889D02*
X15636372Y-10795841D01*
X15636372Y-10795841D02*
X15617325Y-10786317D01*
X15617325Y-10786317D02*
X15588753Y-10786317D01*
X15588753Y-10786317D02*
X15569706Y-10776793D01*
X15569706Y-10776793D02*
X15560182Y-10757746D01*
X15560182Y-10757746D02*
X15560182Y-10748222D01*
X15560182Y-10748222D02*
X15569706Y-10729174D01*
X15569706Y-10729174D02*
X15588753Y-10719650D01*
X15588753Y-10719650D02*
X15617325Y-10719650D01*
X15617325Y-10719650D02*
X15636372Y-10729174D01*
X15712563Y-10929174D02*
X15722087Y-10919650D01*
X15722087Y-10919650D02*
X15741134Y-10891079D01*
X15741134Y-10891079D02*
X15750658Y-10872031D01*
X15750658Y-10872031D02*
X15760182Y-10843460D01*
X15760182Y-10843460D02*
X15769706Y-10795841D01*
X15769706Y-10795841D02*
X15769706Y-10757746D01*
X15769706Y-10757746D02*
X15760182Y-10710127D01*
X15760182Y-10710127D02*
X15750658Y-10681555D01*
X15750658Y-10681555D02*
X15741134Y-10662508D01*
X15741134Y-10662508D02*
X15722087Y-10633936D01*
X15722087Y-10633936D02*
X15712563Y-10624412D01*
D13*
X10882500Y-10970500D02*
X10882500Y-11080500D01*
X10827500Y-11025500D02*
X10937500Y-11025500D01*
D11*
X11303039Y-11116984D02*
X11188753Y-11116984D01*
X11245896Y-11116984D02*
X11245896Y-10916984D01*
X11245896Y-10916984D02*
X11226848Y-10945555D01*
X11226848Y-10945555D02*
X11207801Y-10964603D01*
X11207801Y-10964603D02*
X11188753Y-10974127D01*
X11388753Y-11097936D02*
X11398277Y-11107460D01*
X11398277Y-11107460D02*
X11388753Y-11116984D01*
X11388753Y-11116984D02*
X11379229Y-11107460D01*
X11379229Y-11107460D02*
X11388753Y-11097936D01*
X11388753Y-11097936D02*
X11388753Y-11116984D01*
X11588753Y-11116984D02*
X11474467Y-11116984D01*
X11531610Y-11116984D02*
X11531610Y-10916984D01*
X11531610Y-10916984D02*
X11512562Y-10945555D01*
X11512562Y-10945555D02*
X11493515Y-10964603D01*
X11493515Y-10964603D02*
X11474467Y-10974127D01*
X11712562Y-10916984D02*
X11731610Y-10916984D01*
X11731610Y-10916984D02*
X11750658Y-10926508D01*
X11750658Y-10926508D02*
X11760182Y-10936031D01*
X11760182Y-10936031D02*
X11769705Y-10955079D01*
X11769705Y-10955079D02*
X11779229Y-10993174D01*
X11779229Y-10993174D02*
X11779229Y-11040793D01*
X11779229Y-11040793D02*
X11769705Y-11078889D01*
X11769705Y-11078889D02*
X11760182Y-11097936D01*
X11760182Y-11097936D02*
X11750658Y-11107460D01*
X11750658Y-11107460D02*
X11731610Y-11116984D01*
X11731610Y-11116984D02*
X11712562Y-11116984D01*
X11712562Y-11116984D02*
X11693515Y-11107460D01*
X11693515Y-11107460D02*
X11683991Y-11097936D01*
X11683991Y-11097936D02*
X11674467Y-11078889D01*
X11674467Y-11078889D02*
X11664943Y-11040793D01*
X11664943Y-11040793D02*
X11664943Y-10993174D01*
X11664943Y-10993174D02*
X11674467Y-10955079D01*
X11674467Y-10955079D02*
X11683991Y-10936031D01*
X11683991Y-10936031D02*
X11693515Y-10926508D01*
X11693515Y-10926508D02*
X11712562Y-10916984D01*
X11903039Y-10916984D02*
X11922086Y-10916984D01*
X11922086Y-10916984D02*
X11941134Y-10926508D01*
X11941134Y-10926508D02*
X11950658Y-10936031D01*
X11950658Y-10936031D02*
X11960182Y-10955079D01*
X11960182Y-10955079D02*
X11969705Y-10993174D01*
X11969705Y-10993174D02*
X11969705Y-11040793D01*
X11969705Y-11040793D02*
X11960182Y-11078889D01*
X11960182Y-11078889D02*
X11950658Y-11097936D01*
X11950658Y-11097936D02*
X11941134Y-11107460D01*
X11941134Y-11107460D02*
X11922086Y-11116984D01*
X11922086Y-11116984D02*
X11903039Y-11116984D01*
X11903039Y-11116984D02*
X11883991Y-11107460D01*
X11883991Y-11107460D02*
X11874467Y-11097936D01*
X11874467Y-11097936D02*
X11864943Y-11078889D01*
X11864943Y-11078889D02*
X11855420Y-11040793D01*
X11855420Y-11040793D02*
X11855420Y-10993174D01*
X11855420Y-10993174D02*
X11864943Y-10955079D01*
X11864943Y-10955079D02*
X11874467Y-10936031D01*
X11874467Y-10936031D02*
X11883991Y-10926508D01*
X11883991Y-10926508D02*
X11903039Y-10916984D01*
X12055420Y-11116984D02*
X12055420Y-10983650D01*
X12055420Y-11002698D02*
X12064943Y-10993174D01*
X12064943Y-10993174D02*
X12083991Y-10983650D01*
X12083991Y-10983650D02*
X12112563Y-10983650D01*
X12112563Y-10983650D02*
X12131610Y-10993174D01*
X12131610Y-10993174D02*
X12141134Y-11012222D01*
X12141134Y-11012222D02*
X12141134Y-11116984D01*
X12141134Y-11012222D02*
X12150658Y-10993174D01*
X12150658Y-10993174D02*
X12169705Y-10983650D01*
X12169705Y-10983650D02*
X12198277Y-10983650D01*
X12198277Y-10983650D02*
X12217324Y-10993174D01*
X12217324Y-10993174D02*
X12226848Y-11012222D01*
X12226848Y-11012222D02*
X12226848Y-11116984D01*
X12322086Y-11116984D02*
X12322086Y-10983650D01*
X12322086Y-11002698D02*
X12331610Y-10993174D01*
X12331610Y-10993174D02*
X12350658Y-10983650D01*
X12350658Y-10983650D02*
X12379229Y-10983650D01*
X12379229Y-10983650D02*
X12398277Y-10993174D01*
X12398277Y-10993174D02*
X12407801Y-11012222D01*
X12407801Y-11012222D02*
X12407801Y-11116984D01*
X12407801Y-11012222D02*
X12417324Y-10993174D01*
X12417324Y-10993174D02*
X12436372Y-10983650D01*
X12436372Y-10983650D02*
X12464943Y-10983650D01*
X12464943Y-10983650D02*
X12483991Y-10993174D01*
X12483991Y-10993174D02*
X12493515Y-11012222D01*
X12493515Y-11012222D02*
X12493515Y-11116984D01*
X12883991Y-10907460D02*
X12712563Y-11164603D01*
X13141134Y-10916984D02*
X13160182Y-10916984D01*
X13160182Y-10916984D02*
X13179229Y-10926508D01*
X13179229Y-10926508D02*
X13188753Y-10936031D01*
X13188753Y-10936031D02*
X13198277Y-10955079D01*
X13198277Y-10955079D02*
X13207801Y-10993174D01*
X13207801Y-10993174D02*
X13207801Y-11040793D01*
X13207801Y-11040793D02*
X13198277Y-11078889D01*
X13198277Y-11078889D02*
X13188753Y-11097936D01*
X13188753Y-11097936D02*
X13179229Y-11107460D01*
X13179229Y-11107460D02*
X13160182Y-11116984D01*
X13160182Y-11116984D02*
X13141134Y-11116984D01*
X13141134Y-11116984D02*
X13122086Y-11107460D01*
X13122086Y-11107460D02*
X13112563Y-11097936D01*
X13112563Y-11097936D02*
X13103039Y-11078889D01*
X13103039Y-11078889D02*
X13093515Y-11040793D01*
X13093515Y-11040793D02*
X13093515Y-10993174D01*
X13093515Y-10993174D02*
X13103039Y-10955079D01*
X13103039Y-10955079D02*
X13112563Y-10936031D01*
X13112563Y-10936031D02*
X13122086Y-10926508D01*
X13122086Y-10926508D02*
X13141134Y-10916984D01*
X13293515Y-11097936D02*
X13303039Y-11107460D01*
X13303039Y-11107460D02*
X13293515Y-11116984D01*
X13293515Y-11116984D02*
X13283991Y-11107460D01*
X13283991Y-11107460D02*
X13293515Y-11097936D01*
X13293515Y-11097936D02*
X13293515Y-11116984D01*
X13426848Y-10916984D02*
X13445896Y-10916984D01*
X13445896Y-10916984D02*
X13464944Y-10926508D01*
X13464944Y-10926508D02*
X13474467Y-10936031D01*
X13474467Y-10936031D02*
X13483991Y-10955079D01*
X13483991Y-10955079D02*
X13493515Y-10993174D01*
X13493515Y-10993174D02*
X13493515Y-11040793D01*
X13493515Y-11040793D02*
X13483991Y-11078889D01*
X13483991Y-11078889D02*
X13474467Y-11097936D01*
X13474467Y-11097936D02*
X13464944Y-11107460D01*
X13464944Y-11107460D02*
X13445896Y-11116984D01*
X13445896Y-11116984D02*
X13426848Y-11116984D01*
X13426848Y-11116984D02*
X13407801Y-11107460D01*
X13407801Y-11107460D02*
X13398277Y-11097936D01*
X13398277Y-11097936D02*
X13388753Y-11078889D01*
X13388753Y-11078889D02*
X13379229Y-11040793D01*
X13379229Y-11040793D02*
X13379229Y-10993174D01*
X13379229Y-10993174D02*
X13388753Y-10955079D01*
X13388753Y-10955079D02*
X13398277Y-10936031D01*
X13398277Y-10936031D02*
X13407801Y-10926508D01*
X13407801Y-10926508D02*
X13426848Y-10916984D01*
X13664944Y-10983650D02*
X13664944Y-11116984D01*
X13617325Y-10907460D02*
X13569706Y-11050317D01*
X13569706Y-11050317D02*
X13693515Y-11050317D01*
X13750658Y-10916984D02*
X13874467Y-10916984D01*
X13874467Y-10916984D02*
X13807801Y-10993174D01*
X13807801Y-10993174D02*
X13836372Y-10993174D01*
X13836372Y-10993174D02*
X13855420Y-11002698D01*
X13855420Y-11002698D02*
X13864944Y-11012222D01*
X13864944Y-11012222D02*
X13874467Y-11031270D01*
X13874467Y-11031270D02*
X13874467Y-11078889D01*
X13874467Y-11078889D02*
X13864944Y-11097936D01*
X13864944Y-11097936D02*
X13855420Y-11107460D01*
X13855420Y-11107460D02*
X13836372Y-11116984D01*
X13836372Y-11116984D02*
X13779229Y-11116984D01*
X13779229Y-11116984D02*
X13760182Y-11107460D01*
X13760182Y-11107460D02*
X13750658Y-11097936D01*
X13941134Y-10916984D02*
X14064944Y-10916984D01*
X14064944Y-10916984D02*
X13998277Y-10993174D01*
X13998277Y-10993174D02*
X14026848Y-10993174D01*
X14026848Y-10993174D02*
X14045896Y-11002698D01*
X14045896Y-11002698D02*
X14055420Y-11012222D01*
X14055420Y-11012222D02*
X14064944Y-11031270D01*
X14064944Y-11031270D02*
X14064944Y-11078889D01*
X14064944Y-11078889D02*
X14055420Y-11097936D01*
X14055420Y-11097936D02*
X14045896Y-11107460D01*
X14045896Y-11107460D02*
X14026848Y-11116984D01*
X14026848Y-11116984D02*
X13969706Y-11116984D01*
X13969706Y-11116984D02*
X13950658Y-11107460D01*
X13950658Y-11107460D02*
X13941134Y-11097936D01*
X14141134Y-10916984D02*
X14141134Y-10955079D01*
X14217325Y-10916984D02*
X14217325Y-10955079D01*
X14512563Y-11193174D02*
X14503039Y-11183650D01*
X14503039Y-11183650D02*
X14483991Y-11155079D01*
X14483991Y-11155079D02*
X14474468Y-11136031D01*
X14474468Y-11136031D02*
X14464944Y-11107460D01*
X14464944Y-11107460D02*
X14455420Y-11059841D01*
X14455420Y-11059841D02*
X14455420Y-11021746D01*
X14455420Y-11021746D02*
X14464944Y-10974127D01*
X14464944Y-10974127D02*
X14474468Y-10945555D01*
X14474468Y-10945555D02*
X14483991Y-10926508D01*
X14483991Y-10926508D02*
X14503039Y-10897936D01*
X14503039Y-10897936D02*
X14512563Y-10888412D01*
X14674468Y-10983650D02*
X14674468Y-11116984D01*
X14626848Y-10907460D02*
X14579229Y-11050317D01*
X14579229Y-11050317D02*
X14703039Y-11050317D01*
X14931610Y-11116984D02*
X14931610Y-10916984D01*
X15017325Y-11116984D02*
X15017325Y-11012222D01*
X15017325Y-11012222D02*
X15007801Y-10993174D01*
X15007801Y-10993174D02*
X14988753Y-10983650D01*
X14988753Y-10983650D02*
X14960182Y-10983650D01*
X14960182Y-10983650D02*
X14941134Y-10993174D01*
X14941134Y-10993174D02*
X14931610Y-11002698D01*
X15141134Y-11116984D02*
X15122087Y-11107460D01*
X15122087Y-11107460D02*
X15112563Y-11097936D01*
X15112563Y-11097936D02*
X15103039Y-11078889D01*
X15103039Y-11078889D02*
X15103039Y-11021746D01*
X15103039Y-11021746D02*
X15112563Y-11002698D01*
X15112563Y-11002698D02*
X15122087Y-10993174D01*
X15122087Y-10993174D02*
X15141134Y-10983650D01*
X15141134Y-10983650D02*
X15169706Y-10983650D01*
X15169706Y-10983650D02*
X15188753Y-10993174D01*
X15188753Y-10993174D02*
X15198277Y-11002698D01*
X15198277Y-11002698D02*
X15207801Y-11021746D01*
X15207801Y-11021746D02*
X15207801Y-11078889D01*
X15207801Y-11078889D02*
X15198277Y-11097936D01*
X15198277Y-11097936D02*
X15188753Y-11107460D01*
X15188753Y-11107460D02*
X15169706Y-11116984D01*
X15169706Y-11116984D02*
X15141134Y-11116984D01*
X15322087Y-11116984D02*
X15303039Y-11107460D01*
X15303039Y-11107460D02*
X15293515Y-11088412D01*
X15293515Y-11088412D02*
X15293515Y-10916984D01*
X15474468Y-11107460D02*
X15455420Y-11116984D01*
X15455420Y-11116984D02*
X15417325Y-11116984D01*
X15417325Y-11116984D02*
X15398277Y-11107460D01*
X15398277Y-11107460D02*
X15388753Y-11088412D01*
X15388753Y-11088412D02*
X15388753Y-11012222D01*
X15388753Y-11012222D02*
X15398277Y-10993174D01*
X15398277Y-10993174D02*
X15417325Y-10983650D01*
X15417325Y-10983650D02*
X15455420Y-10983650D01*
X15455420Y-10983650D02*
X15474468Y-10993174D01*
X15474468Y-10993174D02*
X15483991Y-11012222D01*
X15483991Y-11012222D02*
X15483991Y-11031270D01*
X15483991Y-11031270D02*
X15388753Y-11050317D01*
X15560182Y-11107460D02*
X15579230Y-11116984D01*
X15579230Y-11116984D02*
X15617325Y-11116984D01*
X15617325Y-11116984D02*
X15636372Y-11107460D01*
X15636372Y-11107460D02*
X15645896Y-11088412D01*
X15645896Y-11088412D02*
X15645896Y-11078889D01*
X15645896Y-11078889D02*
X15636372Y-11059841D01*
X15636372Y-11059841D02*
X15617325Y-11050317D01*
X15617325Y-11050317D02*
X15588753Y-11050317D01*
X15588753Y-11050317D02*
X15569706Y-11040793D01*
X15569706Y-11040793D02*
X15560182Y-11021746D01*
X15560182Y-11021746D02*
X15560182Y-11012222D01*
X15560182Y-11012222D02*
X15569706Y-10993174D01*
X15569706Y-10993174D02*
X15588753Y-10983650D01*
X15588753Y-10983650D02*
X15617325Y-10983650D01*
X15617325Y-10983650D02*
X15636372Y-10993174D01*
X15712563Y-11193174D02*
X15722087Y-11183650D01*
X15722087Y-11183650D02*
X15741134Y-11155079D01*
X15741134Y-11155079D02*
X15750658Y-11136031D01*
X15750658Y-11136031D02*
X15760182Y-11107460D01*
X15760182Y-11107460D02*
X15769706Y-11059841D01*
X15769706Y-11059841D02*
X15769706Y-11021746D01*
X15769706Y-11021746D02*
X15760182Y-10974127D01*
X15760182Y-10974127D02*
X15750658Y-10945555D01*
X15750658Y-10945555D02*
X15741134Y-10926508D01*
X15741134Y-10926508D02*
X15722087Y-10897936D01*
X15722087Y-10897936D02*
X15712563Y-10888412D01*
M02*
