G04 #@! TF.GenerationSoftware,KiCad,Pcbnew,9.0.4*
G04 #@! TF.CreationDate,2025-09-22T12:07:41+05:30*
G04 #@! TF.ProjectId,buck-converter-8A,6275636b-2d63-46f6-9e76-65727465722d,rev?*
G04 #@! TF.SameCoordinates,Original*
G04 #@! TF.FileFunction,Copper,L2,Bot*
G04 #@! TF.FilePolarity,Positive*
%FSLAX46Y46*%
G04 Gerber Fmt 4.6, Leading zero omitted, Abs format (unit mm)*
G04 Created by KiCad (PCBNEW 9.0.4) date 2025-09-22 12:07:41*
%MOMM*%
%LPD*%
G01*
G04 APERTURE LIST*
G04 Aperture macros list*
%AMRoundRect*
0 Rectangle with rounded corners*
0 $1 Rounding radius*
0 $2 $3 $4 $5 $6 $7 $8 $9 X,Y pos of 4 corners*
0 Add a 4 corners polygon primitive as box body*
4,1,4,$2,$3,$4,$5,$6,$7,$8,$9,$2,$3,0*
0 Add four circle primitives for the rounded corners*
1,1,$1+$1,$2,$3*
1,1,$1+$1,$4,$5*
1,1,$1+$1,$6,$7*
1,1,$1+$1,$8,$9*
0 Add four rect primitives between the rounded corners*
20,1,$1+$1,$2,$3,$4,$5,0*
20,1,$1+$1,$4,$5,$6,$7,0*
20,1,$1+$1,$6,$7,$8,$9,0*
20,1,$1+$1,$8,$9,$2,$3,0*%
G04 Aperture macros list end*
G04 #@! TA.AperFunction,ComponentPad*
%ADD10RoundRect,0.250001X-0.799999X0.799999X-0.799999X-0.799999X0.799999X-0.799999X0.799999X0.799999X0*%
G04 #@! TD*
G04 #@! TA.AperFunction,ComponentPad*
%ADD11C,2.100000*%
G04 #@! TD*
G04 #@! TA.AperFunction,ComponentPad*
%ADD12C,0.700000*%
G04 #@! TD*
G04 #@! TA.AperFunction,ComponentPad*
%ADD13RoundRect,0.250001X0.799999X-0.799999X0.799999X0.799999X-0.799999X0.799999X-0.799999X-0.799999X0*%
G04 #@! TD*
G04 #@! TA.AperFunction,ViaPad*
%ADD14C,0.700000*%
G04 #@! TD*
G04 #@! TA.AperFunction,Profile*
%ADD15C,0.050000*%
G04 #@! TD*
G04 APERTURE END LIST*
D10*
X114732500Y-86550000D03*
D11*
X114732500Y-91550000D03*
D12*
X132787500Y-88587500D03*
X132787500Y-89612500D03*
X133812500Y-88587500D03*
X133812500Y-89612500D03*
D13*
X166117500Y-91550000D03*
D11*
X166117500Y-86550000D03*
D14*
X152000000Y-83676750D03*
X160000000Y-83676750D03*
X122000000Y-95676750D03*
X148250000Y-87750000D03*
X139000000Y-96950000D03*
X149250000Y-86800000D03*
X158000000Y-85100000D03*
X152000000Y-82000000D03*
X168000000Y-83676750D03*
X153200000Y-95400000D03*
X135000000Y-95700000D03*
X155200000Y-96800000D03*
X122000000Y-97150000D03*
X122000000Y-85050000D03*
X159200000Y-96800000D03*
X132000000Y-82000000D03*
X128000000Y-85050000D03*
X162000000Y-82000000D03*
X124000000Y-83676750D03*
X170000000Y-87676750D03*
X156000000Y-85100000D03*
X140000000Y-91676750D03*
X126000000Y-83676750D03*
X114000000Y-83676750D03*
X142800000Y-89800000D03*
X140000000Y-95676750D03*
X136800000Y-95700000D03*
X160000000Y-85100000D03*
X128000000Y-95676750D03*
X141600000Y-90950000D03*
X126000000Y-85050000D03*
X170000000Y-81900000D03*
X130800000Y-87050000D03*
X118000000Y-85676750D03*
X116000000Y-83676750D03*
X134000000Y-82000000D03*
X112000000Y-83676750D03*
X168000000Y-85676750D03*
X133200000Y-95700000D03*
X128000000Y-82000000D03*
X112000000Y-82050000D03*
X162000000Y-83676750D03*
X153200000Y-96800000D03*
X134150000Y-86000000D03*
X120000000Y-85676750D03*
X126000000Y-97150000D03*
X126000000Y-95676750D03*
X118000000Y-82050000D03*
X150200000Y-83700000D03*
X170000000Y-83676750D03*
X122000000Y-83676750D03*
X147200000Y-88750000D03*
X124000000Y-95676750D03*
X150200000Y-85800000D03*
X164000000Y-83676750D03*
X150200000Y-82000000D03*
X120000000Y-83676750D03*
X133200000Y-94050000D03*
X146150000Y-89800000D03*
X130000000Y-82000000D03*
X124000000Y-82050000D03*
X135000000Y-94100000D03*
X157200000Y-96800000D03*
X114000000Y-82050000D03*
X160000000Y-82000000D03*
X124000000Y-85050000D03*
X124000000Y-97150000D03*
X164000000Y-85676750D03*
X144450000Y-89800000D03*
X168000000Y-87676750D03*
X112000000Y-85676750D03*
X154000000Y-85100000D03*
X132000000Y-83676750D03*
X128000000Y-83676750D03*
X157200000Y-95400000D03*
X118000000Y-83676750D03*
X168000000Y-81900000D03*
X128000000Y-97150000D03*
X134000000Y-83676750D03*
X164000000Y-82000000D03*
X133200000Y-92450000D03*
X166000000Y-82000000D03*
X159200000Y-95400000D03*
X130000000Y-83676750D03*
X120000000Y-82050000D03*
X170000000Y-85676750D03*
X154000000Y-83676750D03*
X155200000Y-95400000D03*
X138650000Y-92650000D03*
X158000000Y-83676750D03*
X137650000Y-91050000D03*
X126000000Y-82050000D03*
X152000000Y-85676750D03*
X156000000Y-82000000D03*
X130000000Y-85676750D03*
X154000000Y-82000000D03*
X158000000Y-82000000D03*
X116000000Y-82050000D03*
X140000000Y-93676750D03*
X156000000Y-83676750D03*
X122000000Y-82050000D03*
X162000000Y-85676750D03*
X166000000Y-83676750D03*
G04 #@! TA.AperFunction,Conductor*
G36*
X170408315Y-81051436D02*
G01*
X170494465Y-81061144D01*
X170526993Y-81068568D01*
X170600878Y-81094421D01*
X170630939Y-81108898D01*
X170697217Y-81150543D01*
X170723304Y-81171346D01*
X170778653Y-81226695D01*
X170799456Y-81252782D01*
X170841101Y-81319060D01*
X170855578Y-81349121D01*
X170881431Y-81423006D01*
X170888855Y-81455532D01*
X170898563Y-81541682D01*
X170899500Y-81558367D01*
X170899500Y-97541632D01*
X170898563Y-97558315D01*
X170898563Y-97558317D01*
X170888855Y-97644467D01*
X170881431Y-97676993D01*
X170855578Y-97750878D01*
X170841101Y-97780939D01*
X170799456Y-97847217D01*
X170778653Y-97873304D01*
X170723304Y-97928653D01*
X170697217Y-97949456D01*
X170630939Y-97991101D01*
X170600878Y-98005578D01*
X170526993Y-98031431D01*
X170494467Y-98038855D01*
X170431435Y-98045957D01*
X170408313Y-98048563D01*
X170391633Y-98049500D01*
X110408367Y-98049500D01*
X110391686Y-98048563D01*
X110365413Y-98045602D01*
X110305532Y-98038855D01*
X110273006Y-98031431D01*
X110199121Y-98005578D01*
X110169060Y-97991101D01*
X110102782Y-97949456D01*
X110076695Y-97928653D01*
X110021346Y-97873304D01*
X110000543Y-97847217D01*
X109958898Y-97780939D01*
X109944421Y-97750878D01*
X109918568Y-97676993D01*
X109911144Y-97644465D01*
X109901437Y-97558315D01*
X109900500Y-97541632D01*
X109900500Y-91451583D01*
X113482000Y-91451583D01*
X113482000Y-91648417D01*
X113512791Y-91842826D01*
X113573616Y-92030025D01*
X113573619Y-92030030D01*
X113573621Y-92030036D01*
X113657679Y-92195010D01*
X113662976Y-92205405D01*
X113778672Y-92364646D01*
X113917854Y-92503828D01*
X114077095Y-92619524D01*
X114252475Y-92708884D01*
X114439674Y-92769709D01*
X114634083Y-92800500D01*
X114634088Y-92800500D01*
X114830912Y-92800500D01*
X114830917Y-92800500D01*
X115025326Y-92769709D01*
X115212525Y-92708884D01*
X115387905Y-92619524D01*
X115547146Y-92503828D01*
X115686328Y-92364646D01*
X115802024Y-92205405D01*
X115891384Y-92030025D01*
X115952209Y-91842826D01*
X115983000Y-91648417D01*
X115983000Y-91451583D01*
X115952209Y-91257174D01*
X115891384Y-91069975D01*
X115802024Y-90894595D01*
X115802022Y-90894592D01*
X115718645Y-90779833D01*
X115718643Y-90779832D01*
X115686328Y-90735354D01*
X115646699Y-90695725D01*
X164867000Y-90695725D01*
X164867000Y-92404262D01*
X164867001Y-92404281D01*
X164869853Y-92434697D01*
X164914707Y-92562883D01*
X164995348Y-92672148D01*
X164995351Y-92672151D01*
X165104616Y-92752792D01*
X165104617Y-92752792D01*
X165104618Y-92752793D01*
X165232802Y-92797646D01*
X165263235Y-92800500D01*
X166971764Y-92800499D01*
X166971766Y-92800498D01*
X166971781Y-92800498D01*
X166998048Y-92798034D01*
X167002198Y-92797646D01*
X167130382Y-92752793D01*
X167239650Y-92672150D01*
X167320293Y-92562882D01*
X167365146Y-92434698D01*
X167368000Y-92404265D01*
X167367999Y-90695736D01*
X167367998Y-90695725D01*
X167367998Y-90695718D01*
X167365146Y-90665302D01*
X167340957Y-90596174D01*
X167320293Y-90537118D01*
X167278490Y-90480477D01*
X167239651Y-90427851D01*
X167239648Y-90427848D01*
X167130383Y-90347207D01*
X167070541Y-90326268D01*
X167002198Y-90302354D01*
X167002196Y-90302353D01*
X167002194Y-90302353D01*
X166971766Y-90299500D01*
X165263237Y-90299500D01*
X165263218Y-90299501D01*
X165232802Y-90302353D01*
X165104616Y-90347207D01*
X164995351Y-90427848D01*
X164995348Y-90427851D01*
X164914707Y-90537116D01*
X164869853Y-90665305D01*
X164867000Y-90695725D01*
X115646699Y-90695725D01*
X115547146Y-90596172D01*
X115387905Y-90480476D01*
X115377510Y-90475179D01*
X115212536Y-90391121D01*
X115212530Y-90391119D01*
X115212525Y-90391116D01*
X115025326Y-90330291D01*
X114830917Y-90299500D01*
X114634083Y-90299500D01*
X114439674Y-90330291D01*
X114252475Y-90391116D01*
X114252472Y-90391117D01*
X114252463Y-90391121D01*
X114077098Y-90480474D01*
X114077093Y-90480477D01*
X113917863Y-90596165D01*
X113917852Y-90596174D01*
X113778674Y-90735352D01*
X113778665Y-90735363D01*
X113662977Y-90894593D01*
X113662974Y-90894598D01*
X113573621Y-91069963D01*
X113573617Y-91069972D01*
X113573616Y-91069975D01*
X113512791Y-91257174D01*
X113482000Y-91451583D01*
X109900500Y-91451583D01*
X109900500Y-81558367D01*
X109901437Y-81541684D01*
X109901437Y-81541682D01*
X109911144Y-81455532D01*
X109918568Y-81423006D01*
X109944421Y-81349121D01*
X109958898Y-81319060D01*
X110000543Y-81252782D01*
X110021342Y-81226699D01*
X110076699Y-81171342D01*
X110102782Y-81150543D01*
X110169060Y-81108898D01*
X110199118Y-81094422D01*
X110273008Y-81068567D01*
X110305532Y-81061144D01*
X110391684Y-81051436D01*
X110408367Y-81050500D01*
X110465892Y-81050500D01*
X170334108Y-81050500D01*
X170391633Y-81050500D01*
X170408315Y-81051436D01*
G37*
G04 #@! TD.AperFunction*
D15*
X110400000Y-98550000D02*
G75*
G02*
X109400000Y-97550000I0J1000000D01*
G01*
X171400000Y-97550000D02*
G75*
G02*
X170400000Y-98550000I-1000000J0D01*
G01*
X170400000Y-98550000D02*
X110400000Y-98550000D01*
X110400000Y-80550000D02*
X170400000Y-80550000D01*
X171400000Y-81550000D02*
X171400000Y-97550000D01*
X170400000Y-80550000D02*
G75*
G02*
X171400000Y-81550000I0J-1000000D01*
G01*
X109400000Y-81550000D02*
G75*
G02*
X110400000Y-80550000I1000000J0D01*
G01*
X109400000Y-97550000D02*
X109400000Y-81550000D01*
M02*
