G04 #@! TF.GenerationSoftware,KiCad,Pcbnew,9.0.4*
G04 #@! TF.CreationDate,2025-09-22T12:07:41+05:30*
G04 #@! TF.ProjectId,buck-converter-8A,6275636b-2d63-46f6-9e76-65727465722d,rev?*
G04 #@! TF.SameCoordinates,Original*
G04 #@! TF.FileFunction,Paste,Top*
G04 #@! TF.FilePolarity,Positive*
%FSLAX46Y46*%
G04 Gerber Fmt 4.6, Leading zero omitted, Abs format (unit mm)*
G04 Created by KiCad (PCBNEW 9.0.4) date 2025-09-22 12:07:41*
%MOMM*%
%LPD*%
G01*
G04 APERTURE LIST*
G04 Aperture macros list*
%AMRoundRect*
0 Rectangle with rounded corners*
0 $1 Rounding radius*
0 $2 $3 $4 $5 $6 $7 $8 $9 X,Y pos of 4 corners*
0 Add a 4 corners polygon primitive as box body*
4,1,4,$2,$3,$4,$5,$6,$7,$8,$9,$2,$3,0*
0 Add four circle primitives for the rounded corners*
1,1,$1+$1,$2,$3*
1,1,$1+$1,$4,$5*
1,1,$1+$1,$6,$7*
1,1,$1+$1,$8,$9*
0 Add four rect primitives between the rounded corners*
20,1,$1+$1,$2,$3,$4,$5,0*
20,1,$1+$1,$4,$5,$6,$7,0*
20,1,$1+$1,$6,$7,$8,$9,0*
20,1,$1+$1,$8,$9,$2,$3,0*%
G04 Aperture macros list end*
%ADD10RoundRect,0.225000X-0.250000X0.225000X-0.250000X-0.225000X0.250000X-0.225000X0.250000X0.225000X0*%
%ADD11RoundRect,0.225000X0.250000X-0.225000X0.250000X0.225000X-0.250000X0.225000X-0.250000X-0.225000X0*%
%ADD12RoundRect,0.200000X-0.200000X-0.275000X0.200000X-0.275000X0.200000X0.275000X-0.200000X0.275000X0*%
%ADD13RoundRect,0.200000X-0.275000X0.200000X-0.275000X-0.200000X0.275000X-0.200000X0.275000X0.200000X0*%
%ADD14RoundRect,0.483900X-1.992600X1.129100X-1.992600X-1.129100X1.992600X-1.129100X1.992600X1.129100X0*%
%ADD15RoundRect,0.225000X-0.225000X-0.250000X0.225000X-0.250000X0.225000X0.250000X-0.225000X0.250000X0*%
%ADD16RoundRect,0.050000X0.070000X-0.250000X0.070000X0.250000X-0.070000X0.250000X-0.070000X-0.250000X0*%
%ADD17RoundRect,0.050000X-0.250000X-0.070000X0.250000X-0.070000X0.250000X0.070000X-0.250000X0.070000X0*%
%ADD18RoundRect,0.050000X-0.070000X0.250000X-0.070000X-0.250000X0.070000X-0.250000X0.070000X0.250000X0*%
%ADD19RoundRect,0.050000X-0.050000X-1.900000X0.050000X-1.900000X0.050000X1.900000X-0.050000X1.900000X0*%
%ADD20R,0.550000X0.467500*%
%ADD21RoundRect,0.120000X-0.905000X-0.905000X0.905000X-0.905000X0.905000X0.905000X-0.905000X0.905000X0*%
%ADD22RoundRect,0.200000X0.275000X-0.200000X0.275000X0.200000X-0.275000X0.200000X-0.275000X-0.200000X0*%
G04 #@! TA.AperFunction,Profile*
%ADD23C,0.050000*%
G04 #@! TD*
G04 APERTURE END LIST*
D10*
X121600000Y-86525000D03*
X121600000Y-88075000D03*
X134100000Y-94925000D03*
X134100000Y-96475000D03*
X125200000Y-86525000D03*
X125200000Y-88075000D03*
X123400000Y-86525000D03*
X123400000Y-88075000D03*
D11*
X157250000Y-94075000D03*
X157250000Y-92525000D03*
D12*
X130725000Y-93150000D03*
X132375000Y-93150000D03*
D10*
X157250000Y-86525000D03*
X157250000Y-88075000D03*
X159050000Y-86525000D03*
X159050000Y-88075000D03*
X128800000Y-86525000D03*
X128800000Y-88075000D03*
D12*
X131675000Y-85250000D03*
X133325000Y-85250000D03*
D13*
X135900000Y-94875000D03*
X135900000Y-96525000D03*
D14*
X145750000Y-83197000D03*
X145750000Y-94703000D03*
D15*
X134075000Y-93150000D03*
X135625000Y-93150000D03*
D16*
X132550000Y-87450000D03*
D17*
X131650000Y-88100000D03*
X131650000Y-88600000D03*
X131650000Y-89100000D03*
X131650000Y-89600000D03*
X131650000Y-90100000D03*
D18*
X132550000Y-90750000D03*
X134050000Y-90750000D03*
D17*
X134950000Y-90100000D03*
X134950000Y-89600000D03*
X134950000Y-89100000D03*
X134950000Y-88600000D03*
X134950000Y-88100000D03*
D16*
X134050000Y-87450000D03*
D19*
X133025000Y-89100000D03*
D20*
X133300000Y-87896200D03*
D21*
X133300000Y-89100000D03*
D20*
X133300000Y-90303800D03*
D19*
X133575000Y-89100000D03*
D10*
X155450000Y-86525000D03*
X155450000Y-88075000D03*
D11*
X121600000Y-93675000D03*
X121600000Y-92125000D03*
X127000000Y-93675000D03*
X127000000Y-92125000D03*
D10*
X127000000Y-86525000D03*
X127000000Y-88075000D03*
D11*
X123400000Y-93675000D03*
X123400000Y-92125000D03*
X159050000Y-94075000D03*
X159050000Y-92525000D03*
X125200000Y-93675000D03*
X125200000Y-92125000D03*
X128800000Y-93675000D03*
X128800000Y-92125000D03*
X155450000Y-94075000D03*
X155450000Y-92525000D03*
X137700000Y-96475000D03*
X137700000Y-94925000D03*
D10*
X153650000Y-86525000D03*
X153650000Y-88075000D03*
X132300000Y-94925000D03*
X132300000Y-96475000D03*
D15*
X135025000Y-85250000D03*
X136575000Y-85250000D03*
D22*
X130500000Y-96525000D03*
X130500000Y-94875000D03*
D23*
X110400000Y-98550000D02*
G75*
G02*
X109400000Y-97550000I0J1000000D01*
G01*
X171400000Y-97550000D02*
G75*
G02*
X170400000Y-98550000I-1000000J0D01*
G01*
X170400000Y-98550000D02*
X110400000Y-98550000D01*
X110400000Y-80550000D02*
X170400000Y-80550000D01*
X171400000Y-81550000D02*
X171400000Y-97550000D01*
X170400000Y-80550000D02*
G75*
G02*
X171400000Y-81550000I0J-1000000D01*
G01*
X109400000Y-81550000D02*
G75*
G02*
X110400000Y-80550000I1000000J0D01*
G01*
X109400000Y-97550000D02*
X109400000Y-81550000D01*
M02*
