G04 #@! TF.GenerationSoftware,KiCad,Pcbnew,9.0.4*
G04 #@! TF.CreationDate,2025-09-22T12:07:41+05:30*
G04 #@! TF.ProjectId,buck-converter-8A,6275636b-2d63-46f6-9e76-65727465722d,rev?*
G04 #@! TF.SameCoordinates,Original*
G04 #@! TF.FileFunction,Legend,Bot*
G04 #@! TF.FilePolarity,Positive*
%FSLAX46Y46*%
G04 Gerber Fmt 4.6, Leading zero omitted, Abs format (unit mm)*
G04 Created by KiCad (PCBNEW 9.0.4) date 2025-09-22 12:07:41*
%MOMM*%
%LPD*%
G01*
G04 APERTURE LIST*
G04 Aperture macros list*
%AMRoundRect*
0 Rectangle with rounded corners*
0 $1 Rounding radius*
0 $2 $3 $4 $5 $6 $7 $8 $9 X,Y pos of 4 corners*
0 Add a 4 corners polygon primitive as box body*
4,1,4,$2,$3,$4,$5,$6,$7,$8,$9,$2,$3,0*
0 Add four circle primitives for the rounded corners*
1,1,$1+$1,$2,$3*
1,1,$1+$1,$4,$5*
1,1,$1+$1,$6,$7*
1,1,$1+$1,$8,$9*
0 Add four rect primitives between the rounded corners*
20,1,$1+$1,$2,$3,$4,$5,0*
20,1,$1+$1,$4,$5,$6,$7,0*
20,1,$1+$1,$6,$7,$8,$9,0*
20,1,$1+$1,$8,$9,$2,$3,0*%
G04 Aperture macros list end*
%ADD10C,0.200000*%
%ADD11C,0.160000*%
%ADD12C,0.000000*%
%ADD13C,0.010000*%
%ADD14RoundRect,0.250001X-0.799999X0.799999X-0.799999X-0.799999X0.799999X-0.799999X0.799999X0.799999X0*%
%ADD15C,2.100000*%
%ADD16C,0.700000*%
%ADD17RoundRect,0.250001X0.799999X-0.799999X0.799999X0.799999X-0.799999X0.799999X-0.799999X-0.799999X0*%
G04 #@! TA.AperFunction,Profile*
%ADD18C,0.050000*%
G04 #@! TD*
G04 APERTURE END LIST*
D10*
G36*
X134056191Y-81745154D02*
G01*
X133839817Y-81745154D01*
X133893086Y-82148740D01*
X133900206Y-82176862D01*
X133910745Y-82192411D01*
X133925840Y-82201519D01*
X133945549Y-82204721D01*
X133965897Y-82201476D01*
X133980794Y-82192411D01*
X133991030Y-82177011D01*
X133998013Y-82149546D01*
X134056191Y-81745154D01*
G37*
G36*
X133706167Y-81745154D02*
G01*
X133489792Y-81745154D01*
X133543062Y-82148740D01*
X133550076Y-82176913D01*
X133560281Y-82192411D01*
X133575178Y-82201476D01*
X133595525Y-82204721D01*
X133615872Y-82201476D01*
X133630769Y-82192411D01*
X133641006Y-82177011D01*
X133647988Y-82149546D01*
X133706167Y-81745154D01*
G37*
G36*
X132877011Y-82345405D02*
G01*
X132877011Y-82589257D01*
X132704894Y-82589257D01*
X132649760Y-82596007D01*
X132618432Y-82612631D01*
X132599169Y-82639219D01*
X132592566Y-82673667D01*
X132599167Y-82708128D01*
X132618432Y-82734777D01*
X132649753Y-82751347D01*
X132704894Y-82758078D01*
X133071331Y-82758078D01*
X133126419Y-82751352D01*
X133157793Y-82734777D01*
X133177000Y-82708134D01*
X133183585Y-82673667D01*
X133176902Y-82639250D01*
X133157353Y-82612631D01*
X133125758Y-82595964D01*
X133071331Y-82589257D01*
X133045099Y-82589257D01*
X133045099Y-81932732D01*
X133071331Y-81932732D01*
X133126419Y-81926006D01*
X133157793Y-81909431D01*
X133177000Y-81882789D01*
X133183585Y-81848322D01*
X133176998Y-81813868D01*
X133157793Y-81787285D01*
X133126411Y-81770656D01*
X133071331Y-81763911D01*
X132280277Y-81764717D01*
X132280277Y-82021832D01*
X132287031Y-82077171D01*
X132303651Y-82108587D01*
X132330234Y-82127792D01*
X132364688Y-82134379D01*
X132398398Y-82127834D01*
X132424918Y-82108587D01*
X132441539Y-82077171D01*
X132448292Y-82021832D01*
X132448292Y-81932732D01*
X132877011Y-81932732D01*
X132877011Y-82176584D01*
X132729440Y-82176584D01*
X132725421Y-82121496D01*
X132717130Y-82099208D01*
X132697956Y-82079744D01*
X132674397Y-82068119D01*
X132645030Y-82064037D01*
X132611325Y-82070598D01*
X132584799Y-82089902D01*
X132568181Y-82121257D01*
X132561425Y-82176584D01*
X132561425Y-82345405D01*
X132568178Y-82400744D01*
X132584799Y-82432160D01*
X132611432Y-82451370D01*
X132645836Y-82457952D01*
X132674667Y-82453895D01*
X132697978Y-82442293D01*
X132717130Y-82422781D01*
X132725421Y-82400493D01*
X132729440Y-82345405D01*
X132877011Y-82345405D01*
G37*
G36*
X131835698Y-81748090D02*
G01*
X131912507Y-81770779D01*
X131986166Y-81809062D01*
X132057674Y-81864515D01*
X132117802Y-81929826D01*
X132164052Y-82001334D01*
X132197331Y-82079921D01*
X132217805Y-82166868D01*
X132224883Y-82263779D01*
X132217796Y-82360711D01*
X132197307Y-82447565D01*
X132164021Y-82525963D01*
X132117778Y-82597199D01*
X132057674Y-82662163D01*
X131986166Y-82717617D01*
X131912507Y-82755900D01*
X131835698Y-82778589D01*
X131754398Y-82786214D01*
X131681906Y-82780331D01*
X131613620Y-82762919D01*
X131548559Y-82733851D01*
X131485947Y-82692364D01*
X131425256Y-82637104D01*
X131374311Y-82574822D01*
X131334926Y-82507245D01*
X131306521Y-82433607D01*
X131289056Y-82352872D01*
X131283034Y-82263779D01*
X131451048Y-82263779D01*
X131457210Y-82339350D01*
X131474926Y-82405788D01*
X131503666Y-82464703D01*
X131543739Y-82517303D01*
X131593562Y-82562542D01*
X131644701Y-82593306D01*
X131697931Y-82611352D01*
X131754398Y-82617394D01*
X131810381Y-82611350D01*
X131863319Y-82593267D01*
X131914351Y-82562379D01*
X131964252Y-82516863D01*
X132004343Y-82464045D01*
X132033057Y-82405108D01*
X132050731Y-82338875D01*
X132056868Y-82263779D01*
X132050735Y-82188650D01*
X132033066Y-82122325D01*
X132004351Y-82063250D01*
X131964252Y-82010255D01*
X131914324Y-81964520D01*
X131863285Y-81933501D01*
X131810358Y-81915350D01*
X131754398Y-81909285D01*
X131697955Y-81915348D01*
X131644735Y-81933462D01*
X131593589Y-81964357D01*
X131543739Y-82009815D01*
X131503651Y-82062628D01*
X131474912Y-82121696D01*
X131457204Y-82188215D01*
X131451048Y-82263779D01*
X131283034Y-82263779D01*
X131289065Y-82174294D01*
X131306549Y-82093287D01*
X131334967Y-82019485D01*
X131374347Y-81951838D01*
X131425256Y-81889574D01*
X131485947Y-81834314D01*
X131548559Y-81792827D01*
X131613620Y-81763759D01*
X131681906Y-81746347D01*
X131754398Y-81740464D01*
X131835698Y-81748090D01*
G37*
G36*
X130817824Y-81932732D02*
G01*
X130817824Y-82589257D01*
X130455490Y-82589257D01*
X130455490Y-82429815D01*
X130448734Y-82374488D01*
X130432116Y-82343133D01*
X130405478Y-82323865D01*
X130371080Y-82317268D01*
X130337313Y-82323832D01*
X130310776Y-82343133D01*
X130294158Y-82374488D01*
X130287402Y-82429815D01*
X130287402Y-82758078D01*
X131083439Y-82758078D01*
X131138526Y-82751352D01*
X131169900Y-82734777D01*
X131189108Y-82708134D01*
X131195693Y-82673667D01*
X131189105Y-82639213D01*
X131169900Y-82612631D01*
X131138519Y-82596002D01*
X131083439Y-82589257D01*
X130985839Y-82589257D01*
X130985839Y-81932732D01*
X131083439Y-81932732D01*
X131138526Y-81926006D01*
X131169900Y-81909431D01*
X131189108Y-81882789D01*
X131195693Y-81848322D01*
X131189105Y-81813868D01*
X131169900Y-81787285D01*
X131138519Y-81770656D01*
X131083439Y-81763911D01*
X130719419Y-81763911D01*
X130664286Y-81770661D01*
X130632957Y-81787285D01*
X130613752Y-81813868D01*
X130607165Y-81848322D01*
X130613750Y-81882789D01*
X130632957Y-81909431D01*
X130664278Y-81926001D01*
X130719419Y-81932732D01*
X130817824Y-81932732D01*
G37*
G36*
X129810762Y-81932732D02*
G01*
X129810762Y-82589257D01*
X129448428Y-82589257D01*
X129448428Y-82429815D01*
X129441672Y-82374488D01*
X129425054Y-82343133D01*
X129398415Y-82323865D01*
X129364018Y-82317268D01*
X129330251Y-82323832D01*
X129303714Y-82343133D01*
X129287096Y-82374488D01*
X129280340Y-82429815D01*
X129280340Y-82758078D01*
X130076376Y-82758078D01*
X130131464Y-82751352D01*
X130162838Y-82734777D01*
X130182046Y-82708134D01*
X130188630Y-82673667D01*
X130182043Y-82639213D01*
X130162838Y-82612631D01*
X130131456Y-82596002D01*
X130076376Y-82589257D01*
X129978777Y-82589257D01*
X129978777Y-81932732D01*
X130076376Y-81932732D01*
X130131464Y-81926006D01*
X130162838Y-81909431D01*
X130182046Y-81882789D01*
X130188630Y-81848322D01*
X130182043Y-81813868D01*
X130162838Y-81787285D01*
X130131456Y-81770656D01*
X130076376Y-81763911D01*
X129712357Y-81763911D01*
X129657224Y-81770661D01*
X129625895Y-81787285D01*
X129606690Y-81813868D01*
X129600103Y-81848322D01*
X129606688Y-81882789D01*
X129625895Y-81909431D01*
X129657216Y-81926001D01*
X129712357Y-81932732D01*
X129810762Y-81932732D01*
G37*
G36*
X128814512Y-81748090D02*
G01*
X128891320Y-81770779D01*
X128964980Y-81809062D01*
X129036488Y-81864515D01*
X129096616Y-81929826D01*
X129142866Y-82001334D01*
X129176145Y-82079921D01*
X129196619Y-82166868D01*
X129203697Y-82263779D01*
X129196610Y-82360711D01*
X129176121Y-82447565D01*
X129142834Y-82525963D01*
X129096592Y-82597199D01*
X129036488Y-82662163D01*
X128964980Y-82717617D01*
X128891320Y-82755900D01*
X128814512Y-82778589D01*
X128733212Y-82786214D01*
X128660720Y-82780331D01*
X128592434Y-82762919D01*
X128527372Y-82733851D01*
X128464760Y-82692364D01*
X128404070Y-82637104D01*
X128353124Y-82574822D01*
X128313739Y-82507245D01*
X128285334Y-82433607D01*
X128267869Y-82352872D01*
X128261847Y-82263779D01*
X128429862Y-82263779D01*
X128436023Y-82339350D01*
X128453740Y-82405788D01*
X128482479Y-82464703D01*
X128522552Y-82517303D01*
X128572376Y-82562542D01*
X128623515Y-82593306D01*
X128676745Y-82611352D01*
X128733212Y-82617394D01*
X128789195Y-82611350D01*
X128842133Y-82593267D01*
X128893165Y-82562379D01*
X128943065Y-82516863D01*
X128983156Y-82464045D01*
X129011870Y-82405108D01*
X129029544Y-82338875D01*
X129035682Y-82263779D01*
X129029548Y-82188650D01*
X129011880Y-82122325D01*
X128983165Y-82063250D01*
X128943065Y-82010255D01*
X128893138Y-81964520D01*
X128842099Y-81933501D01*
X128789172Y-81915350D01*
X128733212Y-81909285D01*
X128676768Y-81915348D01*
X128623549Y-81933462D01*
X128572403Y-81964357D01*
X128522552Y-82009815D01*
X128482465Y-82062628D01*
X128453725Y-82121696D01*
X128436017Y-82188215D01*
X128429862Y-82263779D01*
X128261847Y-82263779D01*
X128267879Y-82174294D01*
X128285362Y-82093287D01*
X128313781Y-82019485D01*
X128353161Y-81951838D01*
X128404070Y-81889574D01*
X128464760Y-81834314D01*
X128527372Y-81792827D01*
X128592434Y-81763759D01*
X128660720Y-81746347D01*
X128733212Y-81740464D01*
X128814512Y-81748090D01*
G37*
G36*
X127726150Y-82278726D02*
G01*
X127881854Y-82758078D01*
X128070385Y-82758078D01*
X128170403Y-81932732D01*
X128205245Y-81926808D01*
X128228655Y-81910604D01*
X128243070Y-81885453D01*
X128248292Y-81850666D01*
X128241744Y-81816006D01*
X128222500Y-81788458D01*
X128190983Y-81770957D01*
X128135965Y-81763911D01*
X127912189Y-81763911D01*
X127857056Y-81770661D01*
X127825727Y-81787285D01*
X127806523Y-81813868D01*
X127799935Y-81848322D01*
X127806520Y-81882789D01*
X127825727Y-81909431D01*
X127857048Y-81926001D01*
X127912189Y-81932732D01*
X127999897Y-81932732D01*
X127944210Y-82400653D01*
X127812172Y-82007763D01*
X127637563Y-82007763D01*
X127506404Y-82400653D01*
X127450717Y-81932732D01*
X127538425Y-81932732D01*
X127593566Y-81926001D01*
X127624887Y-81909431D01*
X127644094Y-81882789D01*
X127650679Y-81848322D01*
X127644091Y-81813868D01*
X127624887Y-81787285D01*
X127593558Y-81770661D01*
X127538425Y-81763911D01*
X127315455Y-81763911D01*
X127260322Y-81770661D01*
X127228993Y-81787285D01*
X127209731Y-81813874D01*
X127203128Y-81848322D01*
X127208516Y-81883226D01*
X127223644Y-81909431D01*
X127247767Y-81926567D01*
X127282629Y-81932732D01*
X127379349Y-82758078D01*
X127564656Y-82758078D01*
X127726150Y-82278726D01*
G37*
G36*
X125630839Y-81932732D02*
G01*
X125630839Y-82589257D01*
X125517706Y-82589257D01*
X125462573Y-82596007D01*
X125431244Y-82612631D01*
X125412039Y-82639213D01*
X125405452Y-82673667D01*
X125412037Y-82708134D01*
X125431244Y-82734777D01*
X125462565Y-82751347D01*
X125517706Y-82758078D01*
X125911181Y-82758078D01*
X125966334Y-82751349D01*
X125997716Y-82734777D01*
X126016924Y-82708134D01*
X126023508Y-82673667D01*
X126016921Y-82639213D01*
X125997716Y-82612631D01*
X125966326Y-82596004D01*
X125911181Y-82589257D01*
X125798927Y-82589257D01*
X125798927Y-81932732D01*
X125980864Y-81932732D01*
X125980864Y-82092174D01*
X125987617Y-82147513D01*
X126004238Y-82178929D01*
X126030870Y-82198139D01*
X126065274Y-82204721D01*
X126099047Y-82198173D01*
X126125577Y-82178929D01*
X126142198Y-82147513D01*
X126148951Y-82092174D01*
X126148951Y-81763911D01*
X125278323Y-81763911D01*
X125278323Y-82092174D01*
X125285077Y-82147513D01*
X125301697Y-82178929D01*
X125328340Y-82198136D01*
X125362807Y-82204721D01*
X125396517Y-82198176D01*
X125423037Y-82178929D01*
X125439658Y-82147513D01*
X125446411Y-82092174D01*
X125446411Y-81932732D01*
X125630839Y-81932732D01*
G37*
G36*
X124521342Y-82345405D02*
G01*
X124880379Y-82345405D01*
X124880379Y-82589257D01*
X124854147Y-82589257D01*
X124799014Y-82596007D01*
X124767685Y-82612631D01*
X124748423Y-82639219D01*
X124741820Y-82673667D01*
X124748420Y-82708128D01*
X124767685Y-82734777D01*
X124799006Y-82751347D01*
X124854147Y-82758078D01*
X125059897Y-82758078D01*
X125115050Y-82751349D01*
X125146432Y-82734777D01*
X125165640Y-82708134D01*
X125172224Y-82673667D01*
X125168149Y-82650331D01*
X125155443Y-82627787D01*
X125132071Y-82605157D01*
X125106316Y-82594279D01*
X125048393Y-82589257D01*
X125048393Y-81932732D01*
X125088591Y-81926419D01*
X125115218Y-81909431D01*
X125131924Y-81883057D01*
X125137786Y-81848322D01*
X125131199Y-81813868D01*
X125111994Y-81787285D01*
X125080604Y-81770658D01*
X125025459Y-81763911D01*
X124854147Y-81763911D01*
X124799014Y-81770661D01*
X124767685Y-81787285D01*
X124748423Y-81813874D01*
X124741820Y-81848322D01*
X124748420Y-81882783D01*
X124767685Y-81909431D01*
X124799006Y-81926001D01*
X124854147Y-81932732D01*
X124880379Y-81932732D01*
X124880379Y-82176584D01*
X124521342Y-82176584D01*
X124521342Y-81932732D01*
X124547573Y-81932732D01*
X124602714Y-81926001D01*
X124634035Y-81909431D01*
X124653242Y-81882789D01*
X124659827Y-81848322D01*
X124653240Y-81813868D01*
X124634035Y-81787285D01*
X124602706Y-81770661D01*
X124547573Y-81763911D01*
X124376188Y-81763911D01*
X124321120Y-81770659D01*
X124289799Y-81787285D01*
X124270537Y-81813874D01*
X124263934Y-81848322D01*
X124269797Y-81883057D01*
X124286502Y-81909431D01*
X124313068Y-81926416D01*
X124353254Y-81932732D01*
X124353254Y-82589257D01*
X124294680Y-82594132D01*
X124269649Y-82604498D01*
X124246257Y-82627537D01*
X124233558Y-82650300D01*
X124229496Y-82673667D01*
X124236097Y-82708128D01*
X124255361Y-82734777D01*
X124286682Y-82751347D01*
X124341823Y-82758078D01*
X124547573Y-82758078D01*
X124602714Y-82751347D01*
X124634035Y-82734777D01*
X124653242Y-82708134D01*
X124659827Y-82673667D01*
X124653144Y-82639250D01*
X124633596Y-82612631D01*
X124602000Y-82595964D01*
X124547573Y-82589257D01*
X124521342Y-82589257D01*
X124521342Y-82345405D01*
G37*
G36*
X123870825Y-82345405D02*
G01*
X123870825Y-82589257D01*
X123442106Y-82589257D01*
X123442106Y-82500157D01*
X123435350Y-82444830D01*
X123418732Y-82413475D01*
X123392093Y-82394207D01*
X123357695Y-82387610D01*
X123323941Y-82394176D01*
X123297465Y-82413475D01*
X123280847Y-82444830D01*
X123274091Y-82500157D01*
X123274091Y-82758078D01*
X124065145Y-82758078D01*
X124120286Y-82751347D01*
X124151607Y-82734777D01*
X124170814Y-82708134D01*
X124177399Y-82673667D01*
X124170715Y-82639250D01*
X124151167Y-82612631D01*
X124119572Y-82595964D01*
X124065145Y-82589257D01*
X124038913Y-82589257D01*
X124038913Y-81932732D01*
X124065145Y-81932732D01*
X124120286Y-81926001D01*
X124151607Y-81909431D01*
X124170814Y-81882789D01*
X124177399Y-81848322D01*
X124170812Y-81813868D01*
X124151607Y-81787285D01*
X124120278Y-81770661D01*
X124065145Y-81763911D01*
X123310947Y-81764717D01*
X123310947Y-82021832D01*
X123317606Y-82077210D01*
X123333955Y-82108587D01*
X123360226Y-82127783D01*
X123394552Y-82134379D01*
X123429019Y-82127794D01*
X123455661Y-82108587D01*
X123472282Y-82077171D01*
X123479035Y-82021832D01*
X123479035Y-81932732D01*
X123870825Y-81932732D01*
X123870825Y-82176584D01*
X123723254Y-82176584D01*
X123719234Y-82121496D01*
X123710944Y-82099208D01*
X123691769Y-82079744D01*
X123668211Y-82068119D01*
X123638843Y-82064037D01*
X123605139Y-82070598D01*
X123578613Y-82089902D01*
X123561995Y-82121257D01*
X123555239Y-82176584D01*
X123555239Y-82345405D01*
X123559485Y-82400488D01*
X123568355Y-82423294D01*
X123587951Y-82442624D01*
X123611054Y-82454013D01*
X123638843Y-82457952D01*
X123668211Y-82453870D01*
X123691769Y-82442245D01*
X123710944Y-82422781D01*
X123719234Y-82400493D01*
X123723254Y-82345405D01*
X123870825Y-82345405D01*
G37*
G36*
X132761460Y-84294726D02*
G01*
X132917165Y-84774078D01*
X133105696Y-84774078D01*
X133205713Y-83948732D01*
X133240556Y-83942808D01*
X133263965Y-83926604D01*
X133278381Y-83901453D01*
X133283603Y-83866666D01*
X133277054Y-83832006D01*
X133257810Y-83804458D01*
X133226293Y-83786957D01*
X133171275Y-83779911D01*
X132947500Y-83779911D01*
X132892367Y-83786661D01*
X132861038Y-83803285D01*
X132841833Y-83829868D01*
X132835246Y-83864322D01*
X132841831Y-83898789D01*
X132861038Y-83925431D01*
X132892359Y-83942001D01*
X132947500Y-83948732D01*
X133035208Y-83948732D01*
X132979520Y-84416653D01*
X132847482Y-84023763D01*
X132672873Y-84023763D01*
X132541715Y-84416653D01*
X132486027Y-83948732D01*
X132573735Y-83948732D01*
X132628876Y-83942001D01*
X132660197Y-83925431D01*
X132679404Y-83898789D01*
X132685989Y-83864322D01*
X132679402Y-83829868D01*
X132660197Y-83803285D01*
X132628868Y-83786661D01*
X132573735Y-83779911D01*
X132350766Y-83779911D01*
X132295633Y-83786661D01*
X132264304Y-83803285D01*
X132245042Y-83829874D01*
X132238439Y-83864322D01*
X132243826Y-83899226D01*
X132258955Y-83925431D01*
X132283077Y-83942567D01*
X132317940Y-83948732D01*
X132414660Y-84774078D01*
X132599967Y-84774078D01*
X132761460Y-84294726D01*
G37*
G36*
X131570776Y-84361405D02*
G01*
X131929813Y-84361405D01*
X131929813Y-84605257D01*
X131903582Y-84605257D01*
X131848448Y-84612007D01*
X131817120Y-84628631D01*
X131797858Y-84655219D01*
X131791254Y-84689667D01*
X131797855Y-84724128D01*
X131817120Y-84750777D01*
X131848441Y-84767347D01*
X131903582Y-84774078D01*
X132109332Y-84774078D01*
X132164484Y-84767349D01*
X132195867Y-84750777D01*
X132215074Y-84724134D01*
X132221659Y-84689667D01*
X132217584Y-84666331D01*
X132204878Y-84643787D01*
X132181506Y-84621157D01*
X132155750Y-84610279D01*
X132097828Y-84605257D01*
X132097828Y-83948732D01*
X132138026Y-83942419D01*
X132164653Y-83925431D01*
X132181358Y-83899057D01*
X132187221Y-83864322D01*
X132180634Y-83829868D01*
X132161429Y-83803285D01*
X132130038Y-83786658D01*
X132074894Y-83779911D01*
X131903582Y-83779911D01*
X131848448Y-83786661D01*
X131817120Y-83803285D01*
X131797858Y-83829874D01*
X131791254Y-83864322D01*
X131797855Y-83898783D01*
X131817120Y-83925431D01*
X131848441Y-83942001D01*
X131903582Y-83948732D01*
X131929813Y-83948732D01*
X131929813Y-84192584D01*
X131570776Y-84192584D01*
X131570776Y-83948732D01*
X131597008Y-83948732D01*
X131652149Y-83942001D01*
X131683470Y-83925431D01*
X131702677Y-83898789D01*
X131709262Y-83864322D01*
X131702675Y-83829868D01*
X131683470Y-83803285D01*
X131652141Y-83786661D01*
X131597008Y-83779911D01*
X131425623Y-83779911D01*
X131370554Y-83786659D01*
X131339234Y-83803285D01*
X131319972Y-83829874D01*
X131313369Y-83864322D01*
X131319231Y-83899057D01*
X131335937Y-83925431D01*
X131362503Y-83942416D01*
X131402688Y-83948732D01*
X131402688Y-84605257D01*
X131344114Y-84610132D01*
X131319084Y-84620498D01*
X131295691Y-84643537D01*
X131282993Y-84666300D01*
X131278930Y-84689667D01*
X131285531Y-84724128D01*
X131304796Y-84750777D01*
X131336117Y-84767347D01*
X131391258Y-84774078D01*
X131597008Y-84774078D01*
X131652149Y-84767347D01*
X131683470Y-84750777D01*
X131702677Y-84724134D01*
X131709262Y-84689667D01*
X131702579Y-84655250D01*
X131683030Y-84628631D01*
X131651435Y-84611964D01*
X131597008Y-84605257D01*
X131570776Y-84605257D01*
X131570776Y-84361405D01*
G37*
G36*
X130663732Y-83948732D02*
G01*
X130663732Y-84605257D01*
X130494032Y-84605257D01*
X130438899Y-84612007D01*
X130407570Y-84628631D01*
X130388308Y-84655219D01*
X130381704Y-84689667D01*
X130388305Y-84724128D01*
X130407570Y-84750777D01*
X130438891Y-84767347D01*
X130494032Y-84774078D01*
X131001446Y-84774078D01*
X131056587Y-84767347D01*
X131087908Y-84750777D01*
X131107115Y-84724134D01*
X131113700Y-84689667D01*
X131107113Y-84655213D01*
X131087908Y-84628631D01*
X131056579Y-84612007D01*
X131001446Y-84605257D01*
X130831746Y-84605257D01*
X130831746Y-83948732D01*
X131001446Y-83948732D01*
X131056587Y-83942001D01*
X131087908Y-83925431D01*
X131107115Y-83898789D01*
X131113700Y-83864322D01*
X131107113Y-83829868D01*
X131087908Y-83803285D01*
X131056579Y-83786661D01*
X131001446Y-83779911D01*
X130494032Y-83779911D01*
X130438899Y-83786661D01*
X130407570Y-83803285D01*
X130388308Y-83829874D01*
X130381704Y-83864322D01*
X130388305Y-83898783D01*
X130407570Y-83925431D01*
X130438891Y-83942001D01*
X130494032Y-83948732D01*
X130663732Y-83948732D01*
G37*
G36*
X129659088Y-83948732D02*
G01*
X129659088Y-84605257D01*
X129545954Y-84605257D01*
X129490821Y-84612007D01*
X129459492Y-84628631D01*
X129440287Y-84655213D01*
X129433700Y-84689667D01*
X129440285Y-84724134D01*
X129459492Y-84750777D01*
X129490813Y-84767347D01*
X129545954Y-84774078D01*
X129939429Y-84774078D01*
X129994582Y-84767349D01*
X130025965Y-84750777D01*
X130045172Y-84724134D01*
X130051757Y-84689667D01*
X130045170Y-84655213D01*
X130025965Y-84628631D01*
X129994574Y-84612004D01*
X129939429Y-84605257D01*
X129827175Y-84605257D01*
X129827175Y-83948732D01*
X130009112Y-83948732D01*
X130009112Y-84108174D01*
X130015865Y-84163513D01*
X130032486Y-84194929D01*
X130059118Y-84214139D01*
X130093522Y-84220721D01*
X130127296Y-84214173D01*
X130153826Y-84194929D01*
X130170447Y-84163513D01*
X130177200Y-84108174D01*
X130177200Y-83779911D01*
X129306572Y-83779911D01*
X129306572Y-84108174D01*
X129313325Y-84163513D01*
X129329946Y-84194929D01*
X129356588Y-84214136D01*
X129391055Y-84220721D01*
X129424766Y-84214176D01*
X129451286Y-84194929D01*
X129467907Y-84163513D01*
X129474660Y-84108174D01*
X129474660Y-83948732D01*
X129659088Y-83948732D01*
G37*
G36*
X128906136Y-84361405D02*
G01*
X128906136Y-84605257D01*
X128477416Y-84605257D01*
X128477416Y-84516157D01*
X128470660Y-84460830D01*
X128454042Y-84429475D01*
X128427404Y-84410207D01*
X128393006Y-84403610D01*
X128359252Y-84410176D01*
X128332776Y-84429475D01*
X128316158Y-84460830D01*
X128309402Y-84516157D01*
X128309402Y-84774078D01*
X129100455Y-84774078D01*
X129155596Y-84767347D01*
X129186917Y-84750777D01*
X129206125Y-84724134D01*
X129212709Y-84689667D01*
X129206026Y-84655250D01*
X129186478Y-84628631D01*
X129154882Y-84611964D01*
X129100455Y-84605257D01*
X129074224Y-84605257D01*
X129074224Y-83948732D01*
X129100455Y-83948732D01*
X129155596Y-83942001D01*
X129186917Y-83925431D01*
X129206125Y-83898789D01*
X129212709Y-83864322D01*
X129206122Y-83829868D01*
X129186917Y-83803285D01*
X129155588Y-83786661D01*
X129100455Y-83779911D01*
X128346258Y-83780717D01*
X128346258Y-84037832D01*
X128352917Y-84093210D01*
X128369265Y-84124587D01*
X128395536Y-84143783D01*
X128429862Y-84150379D01*
X128464329Y-84143794D01*
X128490972Y-84124587D01*
X128507592Y-84093171D01*
X128514346Y-84037832D01*
X128514346Y-83948732D01*
X128906136Y-83948732D01*
X128906136Y-84192584D01*
X128758564Y-84192584D01*
X128754545Y-84137496D01*
X128746254Y-84115208D01*
X128727080Y-84095744D01*
X128703521Y-84084119D01*
X128674154Y-84080037D01*
X128640450Y-84086598D01*
X128613924Y-84105902D01*
X128597306Y-84137257D01*
X128590549Y-84192584D01*
X128590549Y-84361405D01*
X128594796Y-84416488D01*
X128603665Y-84439294D01*
X128623262Y-84458624D01*
X128646364Y-84470013D01*
X128674154Y-84473952D01*
X128703521Y-84469870D01*
X128727080Y-84458245D01*
X128746254Y-84438781D01*
X128754545Y-84416493D01*
X128758564Y-84361405D01*
X128906136Y-84361405D01*
G37*
G36*
X127142282Y-83786658D02*
G01*
X127173672Y-83803285D01*
X127192877Y-83829868D01*
X127199464Y-83864322D01*
X127192880Y-83898789D01*
X127173672Y-83925431D01*
X127142290Y-83942004D01*
X127087137Y-83948732D01*
X127060905Y-83948732D01*
X127060905Y-84605257D01*
X127087137Y-84605257D01*
X127141629Y-84611966D01*
X127173233Y-84628631D01*
X127192781Y-84655250D01*
X127199464Y-84689667D01*
X127192880Y-84724134D01*
X127173672Y-84750777D01*
X127142290Y-84767349D01*
X127087137Y-84774078D01*
X126832221Y-84774078D01*
X126777080Y-84767347D01*
X126745759Y-84750777D01*
X126726494Y-84724128D01*
X126719894Y-84689667D01*
X126726497Y-84655219D01*
X126745759Y-84628631D01*
X126777088Y-84612007D01*
X126832221Y-84605257D01*
X126892817Y-84605257D01*
X126892817Y-84394231D01*
X126726415Y-84394231D01*
X126668201Y-84431170D01*
X126594974Y-84498915D01*
X126502895Y-84608763D01*
X126387894Y-84774078D01*
X126291980Y-84774078D01*
X126236897Y-84767332D01*
X126205884Y-84750777D01*
X126186963Y-84724165D01*
X126180459Y-84689667D01*
X126189106Y-84654777D01*
X126217388Y-84621157D01*
X126243821Y-84610248D01*
X126301799Y-84605257D01*
X126403501Y-84459444D01*
X126464507Y-84390808D01*
X126517441Y-84339863D01*
X126458221Y-84303029D01*
X126412736Y-84264903D01*
X126378882Y-84225484D01*
X126353271Y-84180803D01*
X126338072Y-84133458D01*
X126332940Y-84082455D01*
X126333503Y-84076886D01*
X126501027Y-84076886D01*
X126507215Y-84107725D01*
X126527699Y-84141366D01*
X126562364Y-84170377D01*
X126631380Y-84203355D01*
X126691244Y-84219658D01*
X126761659Y-84225410D01*
X126892817Y-84225410D01*
X126892817Y-83948732D01*
X126700183Y-83948732D01*
X126636244Y-83953934D01*
X126587986Y-83967932D01*
X126551879Y-83989179D01*
X126522198Y-84018702D01*
X126506142Y-84047564D01*
X126501027Y-84076886D01*
X126333503Y-84076886D01*
X126339096Y-84021550D01*
X126357157Y-83966332D01*
X126387333Y-83915464D01*
X126430905Y-83868059D01*
X126481960Y-83831154D01*
X126543473Y-83803712D01*
X126617536Y-83786186D01*
X126706778Y-83779911D01*
X127087137Y-83779911D01*
X127142282Y-83786658D01*
G37*
G36*
X126038488Y-83786661D02*
G01*
X126069817Y-83803285D01*
X126089022Y-83829868D01*
X126095609Y-83864322D01*
X126089024Y-83898789D01*
X126069817Y-83925431D01*
X126038496Y-83942001D01*
X125983355Y-83948732D01*
X125873519Y-83948732D01*
X126137448Y-84605257D01*
X126194200Y-84612005D01*
X126226767Y-84628631D01*
X126247004Y-84655324D01*
X126253878Y-84689667D01*
X126247277Y-84724128D01*
X126228013Y-84750777D01*
X126196692Y-84767347D01*
X126141551Y-84774078D01*
X125915284Y-84774078D01*
X125860143Y-84767347D01*
X125828822Y-84750777D01*
X125809558Y-84724128D01*
X125802957Y-84689667D01*
X125809560Y-84655219D01*
X125828822Y-84628631D01*
X125860151Y-84612007D01*
X125915284Y-84605257D01*
X125956317Y-84605257D01*
X125915284Y-84497399D01*
X125507081Y-84497399D01*
X125466928Y-84605257D01*
X125507887Y-84605257D01*
X125563032Y-84612004D01*
X125594422Y-84628631D01*
X125613627Y-84655213D01*
X125620215Y-84689667D01*
X125613630Y-84724134D01*
X125594422Y-84750777D01*
X125563040Y-84767349D01*
X125507887Y-84774078D01*
X125281621Y-84774078D01*
X125226550Y-84767329D01*
X125195598Y-84750777D01*
X125176677Y-84724165D01*
X125170173Y-84689667D01*
X125178955Y-84654724D01*
X125207908Y-84620498D01*
X125232276Y-84610031D01*
X125285724Y-84605257D01*
X125397854Y-84328579D01*
X125576764Y-84328579D01*
X125848093Y-84328579D01*
X125712025Y-84001855D01*
X125576764Y-84328579D01*
X125397854Y-84328579D01*
X125620215Y-83779911D01*
X125983355Y-83779911D01*
X126038488Y-83786661D01*
G37*
G36*
X125129770Y-83786658D02*
G01*
X125161160Y-83803285D01*
X125180365Y-83829868D01*
X125186952Y-83864322D01*
X125180367Y-83898789D01*
X125161160Y-83925431D01*
X125129777Y-83942004D01*
X125074625Y-83948732D01*
X125048393Y-83948732D01*
X125048393Y-84605257D01*
X125074625Y-84605257D01*
X125129117Y-84611966D01*
X125160720Y-84628631D01*
X125180269Y-84655250D01*
X125186952Y-84689667D01*
X125180367Y-84724134D01*
X125161160Y-84750777D01*
X125129777Y-84767349D01*
X125074625Y-84774078D01*
X124581132Y-84774078D01*
X124494342Y-84768152D01*
X124429531Y-84752389D01*
X124372465Y-84726840D01*
X124327095Y-84696188D01*
X124298912Y-84667962D01*
X124274632Y-84629803D01*
X124253142Y-84572832D01*
X124245909Y-84510955D01*
X124246004Y-84509856D01*
X124413924Y-84509856D01*
X124422078Y-84547712D01*
X124445870Y-84575068D01*
X124475685Y-84590201D01*
X124521769Y-84601002D01*
X124590145Y-84605257D01*
X124880379Y-84605257D01*
X124880379Y-84361405D01*
X124658215Y-84361405D01*
X124580826Y-84367663D01*
X124521795Y-84384576D01*
X124477085Y-84410351D01*
X124439498Y-84446166D01*
X124419932Y-84478821D01*
X124413924Y-84509856D01*
X124246004Y-84509856D01*
X124250458Y-84458523D01*
X124263746Y-84410870D01*
X124285696Y-84367047D01*
X124315411Y-84327776D01*
X124354664Y-84290781D01*
X124404911Y-84255965D01*
X124366506Y-84212482D01*
X124340138Y-84166646D01*
X124324195Y-84116892D01*
X124318815Y-84063404D01*
X124319243Y-84059228D01*
X124486903Y-84059228D01*
X124491715Y-84090356D01*
X124506044Y-84117791D01*
X124531160Y-84142685D01*
X124577211Y-84169793D01*
X124631472Y-84186640D01*
X124695951Y-84192584D01*
X124880379Y-84192584D01*
X124880379Y-83948732D01*
X124661512Y-83948732D01*
X124601421Y-83953190D01*
X124558592Y-83964849D01*
X124528742Y-83981925D01*
X124504740Y-84006246D01*
X124491317Y-84031694D01*
X124486903Y-84059228D01*
X124319243Y-84059228D01*
X124324514Y-84007789D01*
X124341328Y-83956711D01*
X124369593Y-83909002D01*
X124410626Y-83863882D01*
X124458711Y-83828044D01*
X124514188Y-83801963D01*
X124578450Y-83785652D01*
X124653306Y-83779911D01*
X125074625Y-83779911D01*
X125129770Y-83786658D01*
G37*
G36*
X124122707Y-83786658D02*
G01*
X124154098Y-83803285D01*
X124173303Y-83829868D01*
X124179890Y-83864322D01*
X124173305Y-83898789D01*
X124154098Y-83925431D01*
X124122715Y-83942004D01*
X124067563Y-83948732D01*
X124041331Y-83948732D01*
X124041331Y-84605257D01*
X124067563Y-84605257D01*
X124122054Y-84611966D01*
X124153658Y-84628631D01*
X124173207Y-84655250D01*
X124179890Y-84689667D01*
X124173305Y-84724134D01*
X124154098Y-84750777D01*
X124122715Y-84767349D01*
X124067563Y-84774078D01*
X123574070Y-84774078D01*
X123487280Y-84768152D01*
X123422469Y-84752389D01*
X123365403Y-84726840D01*
X123320033Y-84696188D01*
X123291850Y-84667962D01*
X123267570Y-84629803D01*
X123246080Y-84572832D01*
X123238847Y-84510955D01*
X123238942Y-84509856D01*
X123406861Y-84509856D01*
X123415016Y-84547712D01*
X123438808Y-84575068D01*
X123468622Y-84590201D01*
X123514706Y-84601002D01*
X123583083Y-84605257D01*
X123873316Y-84605257D01*
X123873316Y-84361405D01*
X123651153Y-84361405D01*
X123573764Y-84367663D01*
X123514733Y-84384576D01*
X123470023Y-84410351D01*
X123432436Y-84446166D01*
X123412870Y-84478821D01*
X123406861Y-84509856D01*
X123238942Y-84509856D01*
X123243396Y-84458523D01*
X123256684Y-84410870D01*
X123278634Y-84367047D01*
X123308349Y-84327776D01*
X123347602Y-84290781D01*
X123397849Y-84255965D01*
X123359444Y-84212482D01*
X123333076Y-84166646D01*
X123317133Y-84116892D01*
X123311753Y-84063404D01*
X123312181Y-84059228D01*
X123479841Y-84059228D01*
X123484652Y-84090356D01*
X123498982Y-84117791D01*
X123524098Y-84142685D01*
X123570149Y-84169793D01*
X123624410Y-84186640D01*
X123688889Y-84192584D01*
X123873316Y-84192584D01*
X123873316Y-83948732D01*
X123654450Y-83948732D01*
X123594358Y-83953190D01*
X123551530Y-83964849D01*
X123521680Y-83981925D01*
X123497678Y-84006246D01*
X123484255Y-84031694D01*
X123479841Y-84059228D01*
X123312181Y-84059228D01*
X123317452Y-84007789D01*
X123334265Y-83956711D01*
X123362531Y-83909002D01*
X123403564Y-83863882D01*
X123451649Y-83828044D01*
X123507126Y-83801963D01*
X123571388Y-83785652D01*
X123646244Y-83779911D01*
X124067563Y-83779911D01*
X124122707Y-83786658D01*
G37*
G36*
X122607235Y-83948732D02*
G01*
X122607235Y-84605257D01*
X122437535Y-84605257D01*
X122382402Y-84612007D01*
X122351073Y-84628631D01*
X122331811Y-84655219D01*
X122325208Y-84689667D01*
X122331808Y-84724128D01*
X122351073Y-84750777D01*
X122382394Y-84767347D01*
X122437535Y-84774078D01*
X122944949Y-84774078D01*
X123000090Y-84767347D01*
X123031411Y-84750777D01*
X123050619Y-84724134D01*
X123057203Y-84689667D01*
X123050616Y-84655213D01*
X123031411Y-84628631D01*
X123000082Y-84612007D01*
X122944949Y-84605257D01*
X122775249Y-84605257D01*
X122775249Y-83948732D01*
X122944949Y-83948732D01*
X123000090Y-83942001D01*
X123031411Y-83925431D01*
X123050619Y-83898789D01*
X123057203Y-83864322D01*
X123050616Y-83829868D01*
X123031411Y-83803285D01*
X123000082Y-83786661D01*
X122944949Y-83779911D01*
X122437535Y-83779911D01*
X122382402Y-83786661D01*
X122351073Y-83803285D01*
X122331811Y-83829874D01*
X122325208Y-83864322D01*
X122331808Y-83898783D01*
X122351073Y-83925431D01*
X122382394Y-83942001D01*
X122437535Y-83948732D01*
X122607235Y-83948732D01*
G37*
G36*
X121602591Y-83948732D02*
G01*
X121602591Y-84605257D01*
X121489457Y-84605257D01*
X121434324Y-84612007D01*
X121402995Y-84628631D01*
X121383791Y-84655213D01*
X121377203Y-84689667D01*
X121383788Y-84724134D01*
X121402995Y-84750777D01*
X121434316Y-84767347D01*
X121489457Y-84774078D01*
X121882933Y-84774078D01*
X121938085Y-84767349D01*
X121969468Y-84750777D01*
X121988675Y-84724134D01*
X121995260Y-84689667D01*
X121988673Y-84655213D01*
X121969468Y-84628631D01*
X121938077Y-84612004D01*
X121882933Y-84605257D01*
X121770679Y-84605257D01*
X121770679Y-83948732D01*
X121952615Y-83948732D01*
X121952615Y-84108174D01*
X121959368Y-84163513D01*
X121975989Y-84194929D01*
X122002622Y-84214139D01*
X122037025Y-84220721D01*
X122070799Y-84214173D01*
X122097329Y-84194929D01*
X122113950Y-84163513D01*
X122120703Y-84108174D01*
X122120703Y-83779911D01*
X121250075Y-83779911D01*
X121250075Y-84108174D01*
X121256828Y-84163513D01*
X121273449Y-84194929D01*
X121300092Y-84214136D01*
X121334559Y-84220721D01*
X121368269Y-84214176D01*
X121394789Y-84194929D01*
X121411410Y-84163513D01*
X121418163Y-84108174D01*
X121418163Y-83948732D01*
X121602591Y-83948732D01*
G37*
G36*
X120548780Y-84689667D02*
G01*
X120557251Y-84733890D01*
X120582413Y-84769974D01*
X120606620Y-84787369D01*
X120636917Y-84798288D01*
X120675030Y-84802214D01*
X120713144Y-84798290D01*
X120743467Y-84787372D01*
X120767720Y-84769974D01*
X120792824Y-84733895D01*
X120801279Y-84689667D01*
X120792822Y-84645452D01*
X120767720Y-84609433D01*
X120743462Y-84591994D01*
X120713138Y-84581052D01*
X120675030Y-84577120D01*
X120636922Y-84581054D01*
X120606626Y-84591996D01*
X120582413Y-84609433D01*
X120557253Y-84645458D01*
X120548780Y-84689667D01*
G37*
G36*
X119541718Y-84689667D02*
G01*
X119550189Y-84733890D01*
X119575351Y-84769974D01*
X119599558Y-84787369D01*
X119629855Y-84798288D01*
X119667967Y-84802214D01*
X119706082Y-84798290D01*
X119736405Y-84787372D01*
X119760658Y-84769974D01*
X119785762Y-84733895D01*
X119794217Y-84689667D01*
X119785760Y-84645452D01*
X119760658Y-84609433D01*
X119736400Y-84591994D01*
X119706076Y-84581052D01*
X119667967Y-84577120D01*
X119629860Y-84581054D01*
X119599564Y-84591996D01*
X119575351Y-84609433D01*
X119550191Y-84645458D01*
X119541718Y-84689667D01*
G37*
G36*
X118534656Y-84689667D02*
G01*
X118543127Y-84733890D01*
X118568288Y-84769974D01*
X118592496Y-84787369D01*
X118622792Y-84798288D01*
X118660905Y-84802214D01*
X118699020Y-84798290D01*
X118729343Y-84787372D01*
X118753596Y-84769974D01*
X118778700Y-84733895D01*
X118787155Y-84689667D01*
X118778698Y-84645452D01*
X118753596Y-84609433D01*
X118729337Y-84591994D01*
X118699014Y-84581052D01*
X118660905Y-84577120D01*
X118622798Y-84581054D01*
X118592502Y-84591996D01*
X118568288Y-84609433D01*
X118543129Y-84645458D01*
X118534656Y-84689667D01*
G37*
G36*
X117943198Y-83761154D02*
G01*
X117726823Y-83761154D01*
X117780092Y-84164740D01*
X117787212Y-84192862D01*
X117797751Y-84208411D01*
X117812846Y-84217519D01*
X117832556Y-84220721D01*
X117852903Y-84217476D01*
X117867800Y-84208411D01*
X117878037Y-84193011D01*
X117885019Y-84165546D01*
X117943198Y-83761154D01*
G37*
G36*
X117593173Y-83761154D02*
G01*
X117376799Y-83761154D01*
X117430068Y-84164740D01*
X117437083Y-84192913D01*
X117447287Y-84208411D01*
X117462184Y-84217476D01*
X117482531Y-84220721D01*
X117502879Y-84217476D01*
X117517776Y-84208411D01*
X117528012Y-84193011D01*
X117534995Y-84165546D01*
X117593173Y-83761154D01*
G37*
D11*
X156735213Y-94859355D02*
X156759022Y-95049831D01*
X156354260Y-94859355D02*
X156378070Y-95049831D01*
X155735212Y-94859355D02*
X155544736Y-94859355D01*
X155544736Y-94859355D02*
X155455451Y-94906974D01*
X155455451Y-94906974D02*
X155372117Y-95002212D01*
X155372117Y-95002212D02*
X155348308Y-95192688D01*
X155348308Y-95192688D02*
X155389974Y-95526021D01*
X155389974Y-95526021D02*
X155461403Y-95716497D01*
X155461403Y-95716497D02*
X155568546Y-95811736D01*
X155568546Y-95811736D02*
X155669736Y-95859355D01*
X155669736Y-95859355D02*
X155860212Y-95859355D01*
X155860212Y-95859355D02*
X155949498Y-95811736D01*
X155949498Y-95811736D02*
X156032832Y-95716497D01*
X156032832Y-95716497D02*
X156056641Y-95526021D01*
X156056641Y-95526021D02*
X156014974Y-95192688D01*
X156014974Y-95192688D02*
X155943546Y-95002212D01*
X155943546Y-95002212D02*
X155836403Y-94906974D01*
X155836403Y-94906974D02*
X155735212Y-94859355D01*
X155003070Y-95859355D02*
X154878070Y-94859355D01*
X154878070Y-94859355D02*
X154431641Y-95859355D01*
X154431641Y-95859355D02*
X154306641Y-94859355D01*
X153889974Y-95335545D02*
X153556641Y-95335545D01*
X153479260Y-95859355D02*
X153955451Y-95859355D01*
X153955451Y-95859355D02*
X153830451Y-94859355D01*
X153830451Y-94859355D02*
X153354260Y-94859355D01*
X152330450Y-95811736D02*
X152193546Y-95859355D01*
X152193546Y-95859355D02*
X151955450Y-95859355D01*
X151955450Y-95859355D02*
X151854260Y-95811736D01*
X151854260Y-95811736D02*
X151800688Y-95764116D01*
X151800688Y-95764116D02*
X151741165Y-95668878D01*
X151741165Y-95668878D02*
X151729260Y-95573640D01*
X151729260Y-95573640D02*
X151764974Y-95478402D01*
X151764974Y-95478402D02*
X151806641Y-95430783D01*
X151806641Y-95430783D02*
X151895927Y-95383164D01*
X151895927Y-95383164D02*
X152080450Y-95335545D01*
X152080450Y-95335545D02*
X152169736Y-95287926D01*
X152169736Y-95287926D02*
X152211403Y-95240307D01*
X152211403Y-95240307D02*
X152247117Y-95145069D01*
X152247117Y-95145069D02*
X152235212Y-95049831D01*
X152235212Y-95049831D02*
X152175688Y-94954593D01*
X152175688Y-94954593D02*
X152122117Y-94906974D01*
X152122117Y-94906974D02*
X152020927Y-94859355D01*
X152020927Y-94859355D02*
X151782831Y-94859355D01*
X151782831Y-94859355D02*
X151645927Y-94906974D01*
X151336403Y-95859355D02*
X151211403Y-94859355D01*
X151270926Y-95335545D02*
X150699498Y-95335545D01*
X150764974Y-95859355D02*
X150639974Y-94859355D01*
X150300688Y-95573640D02*
X149824498Y-95573640D01*
X150431641Y-95859355D02*
X149973307Y-94859355D01*
X149973307Y-94859355D02*
X149764974Y-95859355D01*
X148955450Y-95859355D02*
X149431641Y-95859355D01*
X149431641Y-95859355D02*
X149306641Y-94859355D01*
X148145926Y-95859355D02*
X148622117Y-95859355D01*
X148622117Y-95859355D02*
X148497117Y-94859355D01*
X147092354Y-95811736D02*
X146955450Y-95859355D01*
X146955450Y-95859355D02*
X146717354Y-95859355D01*
X146717354Y-95859355D02*
X146616164Y-95811736D01*
X146616164Y-95811736D02*
X146562592Y-95764116D01*
X146562592Y-95764116D02*
X146503069Y-95668878D01*
X146503069Y-95668878D02*
X146491164Y-95573640D01*
X146491164Y-95573640D02*
X146526878Y-95478402D01*
X146526878Y-95478402D02*
X146568545Y-95430783D01*
X146568545Y-95430783D02*
X146657831Y-95383164D01*
X146657831Y-95383164D02*
X146842354Y-95335545D01*
X146842354Y-95335545D02*
X146931640Y-95287926D01*
X146931640Y-95287926D02*
X146973307Y-95240307D01*
X146973307Y-95240307D02*
X147009021Y-95145069D01*
X147009021Y-95145069D02*
X146997116Y-95049831D01*
X146997116Y-95049831D02*
X146937592Y-94954593D01*
X146937592Y-94954593D02*
X146884021Y-94906974D01*
X146884021Y-94906974D02*
X146782831Y-94859355D01*
X146782831Y-94859355D02*
X146544735Y-94859355D01*
X146544735Y-94859355D02*
X146407831Y-94906974D01*
X146116164Y-94859355D02*
X145544735Y-94859355D01*
X145955450Y-95859355D02*
X145830450Y-94859355D01*
X145348306Y-95573640D02*
X144872116Y-95573640D01*
X145479259Y-95859355D02*
X145020925Y-94859355D01*
X145020925Y-94859355D02*
X144812592Y-95859355D01*
X144479259Y-95859355D02*
X144354259Y-94859355D01*
X144354259Y-94859355D02*
X143907830Y-95859355D01*
X143907830Y-95859355D02*
X143782830Y-94859355D01*
X143431640Y-95859355D02*
X143306640Y-94859355D01*
X143306640Y-94859355D02*
X143068544Y-94859355D01*
X143068544Y-94859355D02*
X142931640Y-94906974D01*
X142931640Y-94906974D02*
X142848306Y-95002212D01*
X142848306Y-95002212D02*
X142812592Y-95097450D01*
X142812592Y-95097450D02*
X142788783Y-95287926D01*
X142788783Y-95287926D02*
X142806640Y-95430783D01*
X142806640Y-95430783D02*
X142878068Y-95621259D01*
X142878068Y-95621259D02*
X142937592Y-95716497D01*
X142937592Y-95716497D02*
X143044735Y-95811736D01*
X143044735Y-95811736D02*
X143193544Y-95859355D01*
X143193544Y-95859355D02*
X143431640Y-95859355D01*
X142378068Y-95811736D02*
X142384021Y-95859355D01*
X142384021Y-95859355D02*
X142443544Y-95954593D01*
X142443544Y-95954593D02*
X142497116Y-96002212D01*
X155735212Y-96469299D02*
X155544736Y-96469299D01*
X155544736Y-96469299D02*
X155455451Y-96516918D01*
X155455451Y-96516918D02*
X155372117Y-96612156D01*
X155372117Y-96612156D02*
X155348308Y-96802632D01*
X155348308Y-96802632D02*
X155389974Y-97135965D01*
X155389974Y-97135965D02*
X155461403Y-97326441D01*
X155461403Y-97326441D02*
X155568546Y-97421680D01*
X155568546Y-97421680D02*
X155669736Y-97469299D01*
X155669736Y-97469299D02*
X155860212Y-97469299D01*
X155860212Y-97469299D02*
X155949498Y-97421680D01*
X155949498Y-97421680D02*
X156032832Y-97326441D01*
X156032832Y-97326441D02*
X156056641Y-97135965D01*
X156056641Y-97135965D02*
X156014974Y-96802632D01*
X156014974Y-96802632D02*
X155943546Y-96612156D01*
X155943546Y-96612156D02*
X155836403Y-96516918D01*
X155836403Y-96516918D02*
X155735212Y-96469299D01*
X155003070Y-97469299D02*
X154878070Y-96469299D01*
X154878070Y-96469299D02*
X154431641Y-97469299D01*
X154431641Y-97469299D02*
X154306641Y-96469299D01*
X153889974Y-96945489D02*
X153556641Y-96945489D01*
X153479260Y-97469299D02*
X153955451Y-97469299D01*
X153955451Y-97469299D02*
X153830451Y-96469299D01*
X153830451Y-96469299D02*
X153354260Y-96469299D01*
X152330450Y-97421680D02*
X152193546Y-97469299D01*
X152193546Y-97469299D02*
X151955450Y-97469299D01*
X151955450Y-97469299D02*
X151854260Y-97421680D01*
X151854260Y-97421680D02*
X151800688Y-97374060D01*
X151800688Y-97374060D02*
X151741165Y-97278822D01*
X151741165Y-97278822D02*
X151729260Y-97183584D01*
X151729260Y-97183584D02*
X151764974Y-97088346D01*
X151764974Y-97088346D02*
X151806641Y-97040727D01*
X151806641Y-97040727D02*
X151895927Y-96993108D01*
X151895927Y-96993108D02*
X152080450Y-96945489D01*
X152080450Y-96945489D02*
X152169736Y-96897870D01*
X152169736Y-96897870D02*
X152211403Y-96850251D01*
X152211403Y-96850251D02*
X152247117Y-96755013D01*
X152247117Y-96755013D02*
X152235212Y-96659775D01*
X152235212Y-96659775D02*
X152175688Y-96564537D01*
X152175688Y-96564537D02*
X152122117Y-96516918D01*
X152122117Y-96516918D02*
X152020927Y-96469299D01*
X152020927Y-96469299D02*
X151782831Y-96469299D01*
X151782831Y-96469299D02*
X151645927Y-96516918D01*
X151336403Y-97469299D02*
X151211403Y-96469299D01*
X151270926Y-96945489D02*
X150699498Y-96945489D01*
X150764974Y-97469299D02*
X150639974Y-96469299D01*
X150300688Y-97183584D02*
X149824498Y-97183584D01*
X150431641Y-97469299D02*
X149973307Y-96469299D01*
X149973307Y-96469299D02*
X149764974Y-97469299D01*
X148955450Y-97469299D02*
X149431641Y-97469299D01*
X149431641Y-97469299D02*
X149306641Y-96469299D01*
X148145926Y-97469299D02*
X148622117Y-97469299D01*
X148622117Y-97469299D02*
X148497117Y-96469299D01*
X146651878Y-96945489D02*
X146985211Y-96945489D01*
X147050688Y-97469299D02*
X146925688Y-96469299D01*
X146925688Y-96469299D02*
X146449497Y-96469299D01*
X146205449Y-97183584D02*
X145729259Y-97183584D01*
X146336402Y-97469299D02*
X145878068Y-96469299D01*
X145878068Y-96469299D02*
X145669735Y-97469299D01*
X144860211Y-97469299D02*
X145336402Y-97469299D01*
X145336402Y-97469299D02*
X145211402Y-96469299D01*
X144050687Y-97469299D02*
X144526878Y-97469299D01*
X144526878Y-97469299D02*
X144401878Y-96469299D01*
X143639973Y-96469299D02*
X143663782Y-96659775D01*
X143259020Y-96469299D02*
X143282830Y-96659775D01*
D12*
G36*
X136214350Y-81319071D02*
G01*
X136278983Y-81320577D01*
X136344691Y-81322712D01*
X136409347Y-81325869D01*
X136460824Y-81330165D01*
X136504361Y-81336196D01*
X136545198Y-81344560D01*
X136588574Y-81355854D01*
X136611400Y-81362403D01*
X136792899Y-81427414D01*
X136963967Y-81511931D01*
X137123327Y-81614795D01*
X137269699Y-81734844D01*
X137401804Y-81870920D01*
X137518364Y-82021862D01*
X137618101Y-82186512D01*
X137699736Y-82363708D01*
X137715910Y-82404807D01*
X137738892Y-82463295D01*
X137766926Y-82534695D01*
X137798392Y-82614886D01*
X137831675Y-82699749D01*
X137865157Y-82785162D01*
X137870627Y-82799114D01*
X137901893Y-82878639D01*
X137931022Y-82952367D01*
X137956793Y-83017233D01*
X137977985Y-83070174D01*
X137993379Y-83108125D01*
X138001752Y-83128023D01*
X138008656Y-83145622D01*
X138009423Y-83161828D01*
X137996593Y-83163411D01*
X137968998Y-83150282D01*
X137925473Y-83122356D01*
X137916241Y-83115977D01*
X137808648Y-83028360D01*
X137707151Y-82921040D01*
X137614119Y-82796497D01*
X137612744Y-82794429D01*
X137596928Y-82770474D01*
X137582892Y-82748582D01*
X137568831Y-82725615D01*
X137552943Y-82698435D01*
X137533424Y-82663902D01*
X137508472Y-82618879D01*
X137476282Y-82560226D01*
X137435053Y-82484805D01*
X137376637Y-82380545D01*
X137319004Y-82284663D01*
X137264327Y-82202308D01*
X137209827Y-82129551D01*
X137152728Y-82062465D01*
X137090251Y-81997119D01*
X137031864Y-81941378D01*
X136899939Y-81828679D01*
X136750071Y-81715847D01*
X136585254Y-81604951D01*
X136408479Y-81498062D01*
X136222742Y-81397250D01*
X136210474Y-81390942D01*
X136161518Y-81365485D01*
X136121019Y-81343980D01*
X136092894Y-81328530D01*
X136081065Y-81321237D01*
X136088818Y-81319558D01*
X136115836Y-81318573D01*
X136158824Y-81318406D01*
X136214350Y-81319071D01*
G37*
G36*
X137977524Y-83333293D02*
G01*
X138090484Y-83359326D01*
X138217135Y-83373822D01*
X138348655Y-83384731D01*
X138462930Y-83398767D01*
X138561835Y-83416986D01*
X138649003Y-83440564D01*
X138728068Y-83470677D01*
X138802663Y-83508501D01*
X138876422Y-83555212D01*
X138952979Y-83611986D01*
X139008741Y-83658618D01*
X139077310Y-83721110D01*
X139149871Y-83791452D01*
X139221246Y-83864479D01*
X139286259Y-83935026D01*
X139339733Y-83997925D01*
X139351565Y-84012836D01*
X139410310Y-84091165D01*
X139467745Y-84174333D01*
X139522028Y-84259125D01*
X139529118Y-84271094D01*
X139571316Y-84342325D01*
X139613769Y-84420718D01*
X139647544Y-84491089D01*
X139670801Y-84550222D01*
X139681696Y-84594904D01*
X139682751Y-84604935D01*
X139682938Y-84634274D01*
X139673757Y-84654455D01*
X139651288Y-84675925D01*
X139643677Y-84681977D01*
X139615865Y-84699335D01*
X139594301Y-84706314D01*
X139579696Y-84706836D01*
X139556736Y-84713877D01*
X139547114Y-84733018D01*
X139547171Y-84769136D01*
X139543939Y-84813764D01*
X139525110Y-84873286D01*
X139492526Y-84934791D01*
X139448801Y-84992345D01*
X139412131Y-85028596D01*
X139372511Y-85054588D01*
X139328875Y-85066780D01*
X139275695Y-85066619D01*
X139207442Y-85055554D01*
X139189889Y-85052003D01*
X139166677Y-85048387D01*
X139145011Y-85047878D01*
X139121139Y-85051402D01*
X139091315Y-85059884D01*
X139051787Y-85074247D01*
X138998808Y-85095418D01*
X138928627Y-85124320D01*
X138920278Y-85127761D01*
X138833866Y-85161809D01*
X138759434Y-85187343D01*
X138689629Y-85206393D01*
X138617100Y-85220990D01*
X138534494Y-85233165D01*
X138427021Y-85244459D01*
X138330267Y-85248274D01*
X138234167Y-85244574D01*
X138128341Y-85233364D01*
X138090952Y-85228031D01*
X137920077Y-85191835D01*
X137762006Y-85138275D01*
X137617551Y-85067960D01*
X137487522Y-84981494D01*
X137372733Y-84879484D01*
X137273995Y-84762537D01*
X137192120Y-84631259D01*
X137127920Y-84486256D01*
X137125637Y-84479918D01*
X137091876Y-84367786D01*
X137069567Y-84250714D01*
X137058358Y-84124857D01*
X137058053Y-84033734D01*
X138101667Y-84033734D01*
X138102045Y-84037206D01*
X138121224Y-84109294D01*
X138160318Y-84180169D01*
X138216750Y-84247231D01*
X138287941Y-84307880D01*
X138371312Y-84359513D01*
X138464287Y-84399532D01*
X138469190Y-84401177D01*
X138529890Y-84416519D01*
X138596438Y-84426071D01*
X138659877Y-84428940D01*
X138711250Y-84424229D01*
X138773254Y-84404019D01*
X138824592Y-84369695D01*
X138858245Y-84324689D01*
X138873996Y-84271094D01*
X138871631Y-84211001D01*
X138850933Y-84146503D01*
X138811687Y-84079691D01*
X138753677Y-84012657D01*
X138689953Y-83959634D01*
X138610328Y-83911382D01*
X138524119Y-83873920D01*
X138436421Y-83849046D01*
X138352329Y-83838561D01*
X138276938Y-83844262D01*
X138235587Y-83855385D01*
X138174317Y-83884878D01*
X138130677Y-83925404D01*
X138106012Y-83975507D01*
X138101667Y-84033734D01*
X137058053Y-84033734D01*
X137057895Y-83986368D01*
X137067826Y-83831402D01*
X137073029Y-83742462D01*
X137070634Y-83637873D01*
X137058329Y-83547098D01*
X137036416Y-83473563D01*
X137021818Y-83443031D01*
X136988316Y-83392249D01*
X136942945Y-83342838D01*
X136884247Y-83293854D01*
X136810769Y-83244356D01*
X136721054Y-83193401D01*
X136613648Y-83140045D01*
X136487095Y-83083346D01*
X136339941Y-83022362D01*
X136305301Y-83008432D01*
X136217235Y-82972763D01*
X136145542Y-82943128D01*
X136086690Y-82917886D01*
X136037144Y-82895399D01*
X135993373Y-82874025D01*
X135951844Y-82852124D01*
X135909023Y-82828056D01*
X135861377Y-82800180D01*
X135716828Y-82707060D01*
X135537708Y-82568125D01*
X135371947Y-82411240D01*
X135220094Y-82236991D01*
X135082699Y-82045967D01*
X134960314Y-81838755D01*
X134945233Y-81809889D01*
X134917494Y-81754395D01*
X134890382Y-81697785D01*
X135287238Y-81697785D01*
X135288071Y-81700867D01*
X135299612Y-81720395D01*
X135322937Y-81753283D01*
X135355765Y-81796709D01*
X135395815Y-81847851D01*
X135440804Y-81903888D01*
X135488450Y-81961997D01*
X135536470Y-82019356D01*
X135582584Y-82073144D01*
X135624509Y-82120537D01*
X135659963Y-82158714D01*
X135684071Y-82183500D01*
X135744736Y-82243627D01*
X135805282Y-82299849D01*
X135867747Y-82353567D01*
X135934171Y-82406188D01*
X136006595Y-82459113D01*
X136087057Y-82513748D01*
X136177599Y-82571496D01*
X136280259Y-82633762D01*
X136397077Y-82701948D01*
X136530093Y-82777460D01*
X136681348Y-82861700D01*
X136735860Y-82893394D01*
X136817096Y-82944311D01*
X136912741Y-83007528D01*
X137021076Y-83081905D01*
X137140384Y-83166302D01*
X137179001Y-83193966D01*
X137237537Y-83235808D01*
X137281055Y-83266706D01*
X137311744Y-83288157D01*
X137331799Y-83301656D01*
X137343409Y-83308700D01*
X137348768Y-83310783D01*
X137350067Y-83309404D01*
X137347640Y-83301442D01*
X137336807Y-83275199D01*
X137318756Y-83234467D01*
X137295098Y-83182672D01*
X137267443Y-83123244D01*
X137237401Y-83059610D01*
X137206584Y-82995198D01*
X137176601Y-82933436D01*
X137149063Y-82877752D01*
X137125581Y-82831575D01*
X137062471Y-82715182D01*
X136946924Y-82526954D01*
X136825552Y-82360018D01*
X136697892Y-82213866D01*
X136563483Y-82087992D01*
X136421861Y-81981888D01*
X136272566Y-81895047D01*
X136268954Y-81893230D01*
X136120801Y-81827867D01*
X135959871Y-81772803D01*
X135794478Y-81730526D01*
X135632932Y-81703526D01*
X135589420Y-81699360D01*
X135535711Y-81695859D01*
X135478165Y-81693327D01*
X135421192Y-81691839D01*
X135369202Y-81691468D01*
X135326607Y-81692286D01*
X135297815Y-81694367D01*
X135287238Y-81697785D01*
X134890382Y-81697785D01*
X134889071Y-81695047D01*
X134861769Y-81635866D01*
X134837394Y-81580872D01*
X134817748Y-81534087D01*
X134804638Y-81499532D01*
X134799866Y-81481228D01*
X134802974Y-81476930D01*
X134824696Y-81469877D01*
X134864818Y-81464207D01*
X134920578Y-81459914D01*
X134989213Y-81456994D01*
X135067962Y-81455443D01*
X135154062Y-81455258D01*
X135244750Y-81456432D01*
X135337265Y-81458963D01*
X135428844Y-81462847D01*
X135516725Y-81468078D01*
X135598147Y-81474652D01*
X135670345Y-81482566D01*
X135805729Y-81502650D01*
X135996795Y-81541865D01*
X136171900Y-81592481D01*
X136333829Y-81655639D01*
X136485367Y-81732479D01*
X136629299Y-81824139D01*
X136768411Y-81931758D01*
X136768693Y-81931996D01*
X136829111Y-81984833D01*
X136884924Y-82038187D01*
X136938008Y-82094510D01*
X136990241Y-82156255D01*
X137043498Y-82225874D01*
X137099657Y-82305821D01*
X137160594Y-82398547D01*
X137228186Y-82506506D01*
X137304309Y-82632150D01*
X137324104Y-82665081D01*
X137366662Y-82735070D01*
X137407506Y-82801232D01*
X137444183Y-82859646D01*
X137474241Y-82906387D01*
X137495225Y-82937531D01*
X137518641Y-82969967D01*
X137605767Y-83079444D01*
X137692376Y-83168799D01*
X137781311Y-83239747D01*
X137875413Y-83294006D01*
X137915434Y-83309404D01*
X137977524Y-83333293D01*
G37*
G36*
X133334245Y-87005418D02*
G01*
X133378178Y-87010476D01*
X133436877Y-87019097D01*
X133507475Y-87030883D01*
X133587104Y-87045435D01*
X133660777Y-87059428D01*
X133657162Y-87118001D01*
X133656887Y-87123124D01*
X133657011Y-87177541D01*
X133661046Y-87246940D01*
X133668308Y-87324879D01*
X133678111Y-87404919D01*
X133689771Y-87480619D01*
X133702603Y-87545537D01*
X133715391Y-87597275D01*
X133749384Y-87711504D01*
X133789320Y-87820862D01*
X133832093Y-87916450D01*
X133834914Y-87922088D01*
X133852929Y-87959880D01*
X133865644Y-87989619D01*
X133870460Y-88005287D01*
X133864157Y-88011279D01*
X133841395Y-88012377D01*
X133807175Y-88007182D01*
X133766941Y-87996590D01*
X133726137Y-87981499D01*
X133713846Y-87975896D01*
X133640273Y-87929691D01*
X133573429Y-87864314D01*
X133512759Y-87779003D01*
X133457708Y-87672998D01*
X133407720Y-87545537D01*
X133395544Y-87507738D01*
X133377985Y-87445883D01*
X133360566Y-87377147D01*
X133343993Y-87305129D01*
X133328973Y-87233431D01*
X133316210Y-87165650D01*
X133306410Y-87105387D01*
X133300281Y-87056242D01*
X133298527Y-87021815D01*
X133301855Y-87005706D01*
X133307946Y-87004324D01*
X133334245Y-87005418D01*
G37*
G36*
X138468498Y-86443826D02*
G01*
X138401338Y-86630570D01*
X138315989Y-86807714D01*
X138213428Y-86972150D01*
X138208113Y-86979587D01*
X138177200Y-87020461D01*
X138140183Y-87066488D01*
X138099956Y-87114399D01*
X138059407Y-87160927D01*
X138021430Y-87202803D01*
X137988913Y-87236761D01*
X137964749Y-87259532D01*
X137951829Y-87267849D01*
X137951184Y-87267812D01*
X137939580Y-87255916D01*
X137928013Y-87225224D01*
X137917204Y-87179390D01*
X137907873Y-87122066D01*
X137900742Y-87056907D01*
X137896531Y-86987566D01*
X137896023Y-86974439D01*
X137893086Y-86921223D01*
X137889343Y-86879163D01*
X137885207Y-86852096D01*
X137881090Y-86843857D01*
X137879842Y-86844721D01*
X137864770Y-86863975D01*
X137846381Y-86898716D01*
X137827188Y-86943182D01*
X137809700Y-86991608D01*
X137796428Y-87038229D01*
X137791521Y-87061456D01*
X137782384Y-87163055D01*
X137791756Y-87272656D01*
X137819849Y-87391212D01*
X137866871Y-87519675D01*
X137933032Y-87658996D01*
X137950073Y-87691453D01*
X138008273Y-87800057D01*
X138065482Y-87903529D01*
X138120398Y-87999702D01*
X138171721Y-88086410D01*
X138218151Y-88161488D01*
X138258386Y-88222768D01*
X138291127Y-88268084D01*
X138315071Y-88295271D01*
X138319084Y-88298635D01*
X138342141Y-88315806D01*
X138379833Y-88342416D01*
X138428953Y-88376251D01*
X138486298Y-88415094D01*
X138548661Y-88456730D01*
X138575215Y-88474379D01*
X138632883Y-88513057D01*
X138682461Y-88546789D01*
X138721235Y-88573701D01*
X138746490Y-88591918D01*
X138755511Y-88599566D01*
X138750854Y-88600469D01*
X138726664Y-88601769D01*
X138684178Y-88602921D01*
X138626049Y-88603885D01*
X138554928Y-88604622D01*
X138473466Y-88605090D01*
X138384315Y-88605248D01*
X138013119Y-88605209D01*
X137871441Y-88451126D01*
X137864193Y-88443262D01*
X137800732Y-88375757D01*
X137730171Y-88302705D01*
X137655726Y-88227276D01*
X137580611Y-88152636D01*
X137508042Y-88081954D01*
X137441234Y-88018396D01*
X137383402Y-87965132D01*
X137337761Y-87925328D01*
X137333338Y-87921688D01*
X137295976Y-87892597D01*
X137246542Y-87856028D01*
X137190951Y-87816291D01*
X137135121Y-87777699D01*
X137102650Y-87755394D01*
X137004209Y-87682643D01*
X136922405Y-87611887D01*
X136854124Y-87539031D01*
X136796253Y-87459980D01*
X136745680Y-87370639D01*
X136699292Y-87266912D01*
X136653975Y-87144705D01*
X136652056Y-87139145D01*
X136622843Y-87055466D01*
X136598751Y-86989164D01*
X136578048Y-86936273D01*
X136559001Y-86892828D01*
X136539880Y-86854863D01*
X136518953Y-86818413D01*
X136494487Y-86779513D01*
X136423483Y-86686317D01*
X136326270Y-86592590D01*
X136211197Y-86510218D01*
X136079718Y-86440230D01*
X135933289Y-86383652D01*
X135899750Y-86373158D01*
X135831235Y-86352999D01*
X135756899Y-86332335D01*
X135685868Y-86313675D01*
X135627265Y-86299528D01*
X135626593Y-86299377D01*
X135577454Y-86288363D01*
X135530115Y-86277741D01*
X135494736Y-86269793D01*
X135489035Y-86268523D01*
X135451515Y-86261129D01*
X135435131Y-86259842D01*
X135439428Y-86264088D01*
X135463954Y-86273294D01*
X135508255Y-86286887D01*
X135672253Y-86340200D01*
X135842458Y-86410576D01*
X135994244Y-86490808D01*
X136126741Y-86580428D01*
X136239076Y-86678969D01*
X136294323Y-86738692D01*
X136360899Y-86828065D01*
X136408159Y-86919096D01*
X136437864Y-87015443D01*
X136451773Y-87120761D01*
X136452625Y-87140139D01*
X136444794Y-87258384D01*
X136414816Y-87374967D01*
X136363126Y-87489208D01*
X136290157Y-87600428D01*
X136196344Y-87707947D01*
X136082120Y-87811087D01*
X135947920Y-87909168D01*
X135930010Y-87920810D01*
X135858972Y-87964077D01*
X135779006Y-88009249D01*
X135697014Y-88052638D01*
X135619899Y-88090559D01*
X135554560Y-88119323D01*
X135487522Y-88146251D01*
X135548893Y-88153904D01*
X135573970Y-88156724D01*
X135620456Y-88161441D01*
X135680292Y-88167184D01*
X135748462Y-88173473D01*
X135819947Y-88179828D01*
X135855899Y-88182961D01*
X135949176Y-88191089D01*
X136049622Y-88199841D01*
X136147318Y-88208354D01*
X136232349Y-88215762D01*
X136291823Y-88221156D01*
X136354194Y-88227703D01*
X136400572Y-88234107D01*
X136434753Y-88241026D01*
X136460531Y-88249118D01*
X136481702Y-88259043D01*
X136481919Y-88259162D01*
X136504462Y-88271463D01*
X136543764Y-88292826D01*
X136596698Y-88321553D01*
X136660137Y-88355949D01*
X136730955Y-88394317D01*
X136806024Y-88434962D01*
X136813583Y-88439055D01*
X136885884Y-88478368D01*
X136951573Y-88514372D01*
X137007979Y-88545581D01*
X137052432Y-88570511D01*
X137082261Y-88587676D01*
X137094796Y-88595590D01*
X137085869Y-88597169D01*
X137055287Y-88598602D01*
X137003997Y-88599849D01*
X136932990Y-88600902D01*
X136843256Y-88601756D01*
X136735785Y-88602405D01*
X136611567Y-88602843D01*
X136471594Y-88603065D01*
X136316855Y-88603064D01*
X136148340Y-88602834D01*
X135967041Y-88602369D01*
X135780232Y-88601817D01*
X135611884Y-88601332D01*
X135463348Y-88600832D01*
X135333187Y-88600231D01*
X135219963Y-88599440D01*
X135122240Y-88598372D01*
X135038579Y-88596938D01*
X134967542Y-88595050D01*
X134907692Y-88592620D01*
X134857592Y-88589560D01*
X134815804Y-88585782D01*
X134780890Y-88581199D01*
X134751412Y-88575721D01*
X134725934Y-88569261D01*
X134703017Y-88561731D01*
X134681224Y-88553043D01*
X134659117Y-88543109D01*
X134635258Y-88531840D01*
X134608211Y-88519149D01*
X134543737Y-88487407D01*
X134478723Y-88449343D01*
X134417407Y-88405372D01*
X134354098Y-88351362D01*
X134283104Y-88283181D01*
X134242513Y-88241315D01*
X134137624Y-88116863D01*
X134051795Y-87986477D01*
X133982335Y-87845680D01*
X133926553Y-87689996D01*
X133892811Y-87562820D01*
X133858670Y-87364042D01*
X133846582Y-87165086D01*
X133856223Y-86967057D01*
X133887274Y-86771062D01*
X133939412Y-86578207D01*
X134012316Y-86389597D01*
X134081675Y-86253435D01*
X135389246Y-86253435D01*
X135394913Y-86259103D01*
X135400580Y-86253435D01*
X135394913Y-86247768D01*
X135389246Y-86253435D01*
X134081675Y-86253435D01*
X134105664Y-86206340D01*
X134219134Y-86029541D01*
X134352405Y-85860307D01*
X134505156Y-85699744D01*
X134555694Y-85652579D01*
X134733561Y-85505896D01*
X134922640Y-85378078D01*
X135121597Y-85269795D01*
X135329095Y-85181714D01*
X135543801Y-85114505D01*
X135764378Y-85068838D01*
X135781991Y-85066168D01*
X135828898Y-85059893D01*
X135876477Y-85055044D01*
X135928391Y-85051452D01*
X135988307Y-85048947D01*
X136059891Y-85047360D01*
X136146808Y-85046521D01*
X136252724Y-85046261D01*
X136346069Y-85045956D01*
X136448674Y-85044533D01*
X136533814Y-85041609D01*
X136604413Y-85036815D01*
X136663394Y-85029782D01*
X136713680Y-85020140D01*
X136758195Y-85007520D01*
X136799862Y-84991553D01*
X136841605Y-84971869D01*
X136842729Y-84971296D01*
X136897864Y-84936803D01*
X136952964Y-84891693D01*
X137001041Y-84842346D01*
X137035105Y-84795148D01*
X137042107Y-84783178D01*
X137057312Y-84760608D01*
X137066645Y-84751651D01*
X137068119Y-84752389D01*
X137080052Y-84765734D01*
X137099838Y-84792370D01*
X137124062Y-84827774D01*
X137157007Y-84873156D01*
X137208847Y-84935813D01*
X137269287Y-85002354D01*
X137333199Y-85067387D01*
X137395453Y-85125521D01*
X137450922Y-85171364D01*
X137485889Y-85196715D01*
X137608806Y-85271512D01*
X137740610Y-85330014D01*
X137883083Y-85372675D01*
X138038010Y-85399947D01*
X138207172Y-85412281D01*
X138392354Y-85410130D01*
X138488234Y-85405557D01*
X138502867Y-85461134D01*
X138508356Y-85484839D01*
X138518577Y-85541982D01*
X138528534Y-85611972D01*
X138537514Y-85688487D01*
X138544808Y-85765203D01*
X138549705Y-85835798D01*
X138551495Y-85893951D01*
X138544358Y-86053977D01*
X138516497Y-86250592D01*
X138515791Y-86253435D01*
X138468498Y-86443826D01*
G37*
G36*
X160728039Y-96451329D02*
G01*
X160728223Y-96451885D01*
X160734076Y-96467469D01*
X160746784Y-96500338D01*
X160765307Y-96547854D01*
X160788607Y-96607381D01*
X160815645Y-96676283D01*
X160845382Y-96751923D01*
X160876780Y-96831665D01*
X160908799Y-96912872D01*
X160940401Y-96992908D01*
X160970548Y-97069136D01*
X160998200Y-97138919D01*
X161022319Y-97199622D01*
X161041865Y-97248608D01*
X161055802Y-97283240D01*
X161054089Y-97285347D01*
X161044087Y-97287658D01*
X161024249Y-97289659D01*
X160993386Y-97291367D01*
X160950305Y-97292804D01*
X160893816Y-97293987D01*
X160822727Y-97294936D01*
X160735847Y-97295669D01*
X160631986Y-97296206D01*
X160509952Y-97296566D01*
X160368554Y-97296769D01*
X160206601Y-97296832D01*
X160165560Y-97296823D01*
X160033128Y-97296677D01*
X159907664Y-97296361D01*
X159790812Y-97295889D01*
X159684213Y-97295276D01*
X159589510Y-97294535D01*
X159508343Y-97293680D01*
X159442355Y-97292727D01*
X159393188Y-97291690D01*
X159362484Y-97290582D01*
X159351884Y-97289417D01*
X159352577Y-97286508D01*
X159356572Y-97274800D01*
X159364514Y-97253309D01*
X159376856Y-97220875D01*
X159394050Y-97176339D01*
X159416547Y-97118542D01*
X159444798Y-97046325D01*
X159479256Y-96958528D01*
X159520372Y-96853992D01*
X159568598Y-96731559D01*
X159624386Y-96590068D01*
X159686572Y-96432405D01*
X160203479Y-96429582D01*
X160720386Y-96426759D01*
X160728039Y-96451329D01*
G37*
G36*
X159544360Y-94057747D02*
G01*
X159545277Y-94075109D01*
X159546020Y-94112043D01*
X159546586Y-94166911D01*
X159546972Y-94238076D01*
X159547177Y-94323900D01*
X159547197Y-94422745D01*
X159547030Y-94532974D01*
X159546674Y-94652948D01*
X159546124Y-94781030D01*
X159545380Y-94915582D01*
X159540108Y-95774571D01*
X160201690Y-95774571D01*
X160863271Y-95774571D01*
X160863271Y-94914676D01*
X160863283Y-94868651D01*
X160863460Y-94736159D01*
X160863832Y-94610762D01*
X160864384Y-94494091D01*
X160865100Y-94387771D01*
X160865962Y-94293431D01*
X160866955Y-94212700D01*
X160868062Y-94147203D01*
X160869266Y-94098570D01*
X160870552Y-94068428D01*
X160871903Y-94058404D01*
X160872368Y-94058618D01*
X160886179Y-94065574D01*
X160916835Y-94081257D01*
X160962172Y-94104554D01*
X161020025Y-94134349D01*
X161088229Y-94169527D01*
X161164619Y-94208974D01*
X161247032Y-94251575D01*
X161613528Y-94441121D01*
X161613528Y-95646406D01*
X161613528Y-96851691D01*
X161573287Y-96886697D01*
X161563828Y-96894970D01*
X161534914Y-96920448D01*
X161495690Y-96955159D01*
X161450087Y-96995622D01*
X161402033Y-97038357D01*
X161372383Y-97064631D01*
X161331364Y-97100525D01*
X161297998Y-97129165D01*
X161275124Y-97148125D01*
X161265583Y-97154977D01*
X161265236Y-97154755D01*
X161258580Y-97142424D01*
X161245355Y-97113410D01*
X161226885Y-97070764D01*
X161204493Y-97017535D01*
X161179506Y-96956774D01*
X161155179Y-96897119D01*
X161126361Y-96826730D01*
X161099037Y-96760265D01*
X161075434Y-96703133D01*
X161057774Y-96660744D01*
X161046163Y-96632993D01*
X161023707Y-96579037D01*
X160997026Y-96514695D01*
X160968523Y-96445764D01*
X160940601Y-96378039D01*
X160864519Y-96193193D01*
X160204291Y-96193193D01*
X159544063Y-96193193D01*
X159347396Y-96669470D01*
X159307901Y-96764564D01*
X159270362Y-96853874D01*
X159235911Y-96934771D01*
X159205402Y-97005300D01*
X159179689Y-97063508D01*
X159159624Y-97107441D01*
X159146062Y-97135144D01*
X159139855Y-97144664D01*
X159138282Y-97143986D01*
X159123399Y-97132753D01*
X159095927Y-97109436D01*
X159058385Y-97076252D01*
X159013291Y-97035418D01*
X158963164Y-96989149D01*
X158797347Y-96834717D01*
X158797347Y-95636748D01*
X158797347Y-94438778D01*
X159131700Y-94267604D01*
X159191903Y-94236757D01*
X159268754Y-94197299D01*
X159338894Y-94161198D01*
X159399792Y-94129762D01*
X159448917Y-94104298D01*
X159483737Y-94086111D01*
X159501723Y-94076511D01*
X159507444Y-94073363D01*
X159531050Y-94061425D01*
X159544022Y-94056592D01*
X159544360Y-94057747D01*
G37*
G36*
X157323766Y-93234555D02*
G01*
X157342520Y-93246858D01*
X157375687Y-93269635D01*
X157420987Y-93301287D01*
X157476141Y-93340217D01*
X157538870Y-93384825D01*
X157606893Y-93433514D01*
X157625777Y-93447072D01*
X157696745Y-93498016D01*
X157764540Y-93546666D01*
X157826263Y-93590945D01*
X157879018Y-93628773D01*
X157919905Y-93658072D01*
X157946027Y-93676764D01*
X158013500Y-93724957D01*
X158016703Y-93892485D01*
X158019906Y-94060013D01*
X158280865Y-94246329D01*
X158541824Y-94432645D01*
X158544594Y-95543976D01*
X158544835Y-95659069D01*
X158545010Y-95807972D01*
X158545019Y-95949527D01*
X158544872Y-96082295D01*
X158544575Y-96204836D01*
X158544136Y-96315709D01*
X158543561Y-96413476D01*
X158542859Y-96496696D01*
X158542037Y-96563929D01*
X158541102Y-96613735D01*
X158540061Y-96644675D01*
X158538922Y-96655308D01*
X158536259Y-96653954D01*
X158523708Y-96644662D01*
X158500646Y-96626130D01*
X158466484Y-96597854D01*
X158420631Y-96559332D01*
X158362497Y-96510061D01*
X158291491Y-96449539D01*
X158207023Y-96377264D01*
X158108503Y-96292733D01*
X157995340Y-96195444D01*
X157866945Y-96084894D01*
X157722727Y-95960580D01*
X157665622Y-95910917D01*
X157612980Y-95864305D01*
X157568283Y-95823868D01*
X157533688Y-95791583D01*
X157511350Y-95769428D01*
X157503425Y-95759381D01*
X157503174Y-95754725D01*
X157501478Y-95730364D01*
X157498294Y-95686929D01*
X157493752Y-95626100D01*
X157487981Y-95549561D01*
X157481112Y-95458991D01*
X157473274Y-95356073D01*
X157464597Y-95242490D01*
X157455211Y-95119922D01*
X157445245Y-94990051D01*
X157434830Y-94854560D01*
X157424095Y-94715130D01*
X157413170Y-94573442D01*
X157402185Y-94431180D01*
X157391269Y-94290023D01*
X157380553Y-94151655D01*
X157370167Y-94017756D01*
X157360239Y-93890010D01*
X157350901Y-93770096D01*
X157342281Y-93659698D01*
X157334509Y-93560497D01*
X157327716Y-93474175D01*
X157322031Y-93402414D01*
X157317584Y-93346895D01*
X157314505Y-93309300D01*
X157312924Y-93291311D01*
X157311702Y-93278831D01*
X157310098Y-93248158D01*
X157312953Y-93234092D01*
X157320767Y-93232907D01*
X157323766Y-93234555D01*
G37*
G36*
X163098875Y-93233419D02*
G01*
X163101445Y-93245798D01*
X163098489Y-93274928D01*
X163097886Y-93280380D01*
X163095428Y-93307314D01*
X163091498Y-93353662D01*
X163086218Y-93417871D01*
X163079712Y-93498389D01*
X163072103Y-93593664D01*
X163063513Y-93702141D01*
X163054067Y-93822269D01*
X163043887Y-93952494D01*
X163033096Y-94091264D01*
X163021818Y-94237026D01*
X163010176Y-94388227D01*
X163006310Y-94438542D01*
X162994524Y-94591794D01*
X162983027Y-94741090D01*
X162971954Y-94884658D01*
X162961444Y-95020723D01*
X162951635Y-95147515D01*
X162942662Y-95263260D01*
X162934665Y-95366185D01*
X162927779Y-95454518D01*
X162922143Y-95526486D01*
X162917894Y-95580317D01*
X162915169Y-95614237D01*
X162902013Y-95774664D01*
X162390968Y-96208656D01*
X162380493Y-96217550D01*
X162290401Y-96293942D01*
X162205340Y-96365884D01*
X162126750Y-96432170D01*
X162056071Y-96491594D01*
X161994745Y-96542948D01*
X161944211Y-96585026D01*
X161905910Y-96616622D01*
X161881282Y-96636529D01*
X161871769Y-96643541D01*
X161870952Y-96638066D01*
X161869864Y-96612769D01*
X161868835Y-96568207D01*
X161867877Y-96505821D01*
X161866998Y-96427054D01*
X161866210Y-96333345D01*
X161865523Y-96226139D01*
X161864946Y-96106874D01*
X161864490Y-95976995D01*
X161864165Y-95837941D01*
X161863982Y-95691155D01*
X161863950Y-95538077D01*
X161864287Y-94431720D01*
X162124909Y-94247283D01*
X162385531Y-94062846D01*
X162385531Y-93897660D01*
X162385531Y-93732475D01*
X162727233Y-93486753D01*
X162742310Y-93475917D01*
X162818025Y-93421679D01*
X162888295Y-93371630D01*
X162951091Y-93327197D01*
X163004384Y-93289803D01*
X163046143Y-93260876D01*
X163074340Y-93241840D01*
X163086944Y-93234122D01*
X163089483Y-93233211D01*
X163098875Y-93233419D01*
G37*
G36*
X159579287Y-92574328D02*
G01*
X159601069Y-92587398D01*
X159633623Y-92608736D01*
X159673195Y-92635948D01*
X159686810Y-92645494D01*
X159730839Y-92676307D01*
X159786874Y-92715468D01*
X159850771Y-92760082D01*
X159918386Y-92807256D01*
X159985576Y-92854096D01*
X160200647Y-93003961D01*
X160230225Y-92984912D01*
X160235029Y-92981738D01*
X160257984Y-92966159D01*
X160295308Y-92940569D01*
X160344551Y-92906655D01*
X160403266Y-92866105D01*
X160469005Y-92820605D01*
X160539320Y-92771844D01*
X160573083Y-92748464D01*
X160639865Y-92702562D01*
X160700045Y-92661649D01*
X160751382Y-92627222D01*
X160791633Y-92600777D01*
X160818556Y-92583813D01*
X160829908Y-92577825D01*
X160836089Y-92586154D01*
X160835571Y-92607726D01*
X160833977Y-92617516D01*
X160829230Y-92648058D01*
X160821795Y-92696588D01*
X160811981Y-92761074D01*
X160800095Y-92839487D01*
X160786445Y-92929795D01*
X160771337Y-93029968D01*
X160755081Y-93137975D01*
X160737984Y-93251786D01*
X160645805Y-93865943D01*
X160645805Y-94700651D01*
X160645805Y-95535359D01*
X160205437Y-95535359D01*
X159765069Y-95535359D01*
X159765069Y-94705078D01*
X159765069Y-93874798D01*
X159722104Y-93593285D01*
X159711800Y-93525731D01*
X159683591Y-93340332D01*
X159658691Y-93175918D01*
X159637045Y-93032118D01*
X159618600Y-92908559D01*
X159603299Y-92804871D01*
X159591089Y-92720682D01*
X159581915Y-92655620D01*
X159575723Y-92609315D01*
X159572457Y-92581394D01*
X159572064Y-92571486D01*
X159579287Y-92574328D01*
G37*
G36*
X163552483Y-91488332D02*
G01*
X163525490Y-91613616D01*
X163498008Y-91740918D01*
X163470419Y-91868463D01*
X163443106Y-91994477D01*
X163420302Y-92099469D01*
X163416453Y-92117189D01*
X163390842Y-92234824D01*
X163366656Y-92345609D01*
X163344278Y-92447771D01*
X163324092Y-92539536D01*
X163306478Y-92619131D01*
X163291822Y-92684782D01*
X163280505Y-92734717D01*
X163272911Y-92767162D01*
X163259952Y-92820583D01*
X162934193Y-93054488D01*
X162890151Y-93086118D01*
X162800855Y-93150274D01*
X162708794Y-93216450D01*
X162618055Y-93281704D01*
X162532725Y-93343099D01*
X162456890Y-93397695D01*
X162394637Y-93442553D01*
X162180841Y-93596712D01*
X161889030Y-93643546D01*
X161801783Y-93657593D01*
X161696679Y-93674591D01*
X161582558Y-93693109D01*
X161465737Y-93712121D01*
X161352536Y-93730599D01*
X161249273Y-93747517D01*
X161198792Y-93755792D01*
X161117646Y-93769035D01*
X161044682Y-93780869D01*
X160982554Y-93790866D01*
X160933917Y-93798601D01*
X160901426Y-93803648D01*
X160887736Y-93805580D01*
X160880003Y-93802392D01*
X160874144Y-93785733D01*
X160874467Y-93781739D01*
X160877536Y-93758207D01*
X160883556Y-93716615D01*
X160892163Y-93659338D01*
X160902994Y-93588752D01*
X160915686Y-93507234D01*
X160929875Y-93417158D01*
X160945199Y-93320900D01*
X160946456Y-93313044D01*
X160946874Y-93310430D01*
X161419731Y-93310430D01*
X161420058Y-93311202D01*
X161432283Y-93310044D01*
X161461414Y-93295387D01*
X161507361Y-93267282D01*
X161570035Y-93225778D01*
X161605143Y-93202007D01*
X161658616Y-93165892D01*
X161725297Y-93120922D01*
X161802649Y-93068804D01*
X161888138Y-93011246D01*
X161979228Y-92949955D01*
X162073382Y-92886639D01*
X162168066Y-92823007D01*
X162251508Y-92766921D01*
X162347289Y-92702482D01*
X162440900Y-92639443D01*
X162529693Y-92579590D01*
X162611019Y-92524710D01*
X162682231Y-92476589D01*
X162740680Y-92437012D01*
X162783719Y-92407765D01*
X162948131Y-92295682D01*
X162971283Y-92203371D01*
X162975593Y-92185984D01*
X162985231Y-92145406D01*
X162991927Y-92114704D01*
X162994436Y-92099469D01*
X162993853Y-92099524D01*
X162980738Y-92106999D01*
X162951569Y-92125248D01*
X162907949Y-92153205D01*
X162851479Y-92189809D01*
X162783762Y-92233995D01*
X162706400Y-92284700D01*
X162620996Y-92340862D01*
X162529151Y-92401416D01*
X162432467Y-92465300D01*
X162332548Y-92531450D01*
X162230995Y-92598802D01*
X162129411Y-92666293D01*
X162029397Y-92732861D01*
X161932556Y-92797441D01*
X161840491Y-92858971D01*
X161754803Y-92916386D01*
X161677094Y-92968625D01*
X161608967Y-93014622D01*
X161552025Y-93053316D01*
X161507869Y-93083642D01*
X161478101Y-93104538D01*
X161464325Y-93114939D01*
X161462842Y-93116668D01*
X161453890Y-93136247D01*
X161443500Y-93169832D01*
X161433627Y-93211283D01*
X161431808Y-93220256D01*
X161424482Y-93261019D01*
X161420162Y-93293179D01*
X161419731Y-93310430D01*
X160946874Y-93310430D01*
X160963410Y-93206942D01*
X160980594Y-93099170D01*
X160997394Y-92993584D01*
X161013200Y-92894042D01*
X161027397Y-92804400D01*
X161039375Y-92728517D01*
X161042291Y-92709935D01*
X161528337Y-92709935D01*
X161533338Y-92718587D01*
X161533690Y-92718488D01*
X161546308Y-92711061D01*
X161574908Y-92692683D01*
X161617723Y-92664532D01*
X161672987Y-92627786D01*
X161738935Y-92583624D01*
X161813801Y-92533225D01*
X161895817Y-92477765D01*
X161983220Y-92418424D01*
X162028994Y-92387296D01*
X162134610Y-92315544D01*
X162245199Y-92240499D01*
X162356938Y-92164750D01*
X162466002Y-92090888D01*
X162568569Y-92021503D01*
X162660814Y-91959186D01*
X162738913Y-91906526D01*
X162801901Y-91864078D01*
X162871032Y-91817408D01*
X162932678Y-91775701D01*
X162984728Y-91740389D01*
X163025069Y-91712908D01*
X163051587Y-91694690D01*
X163062169Y-91687170D01*
X163064249Y-91683129D01*
X163070659Y-91662308D01*
X163079157Y-91629049D01*
X163088511Y-91588938D01*
X163097484Y-91547564D01*
X163104842Y-91510513D01*
X163109351Y-91483373D01*
X163109775Y-91471732D01*
X163108135Y-91472101D01*
X163093204Y-91480577D01*
X163066333Y-91497830D01*
X163031803Y-91521147D01*
X163013238Y-91533859D01*
X162974540Y-91560187D01*
X162922532Y-91595456D01*
X162859924Y-91637829D01*
X162789428Y-91685473D01*
X162713755Y-91736553D01*
X162635617Y-91789234D01*
X162575716Y-91829612D01*
X162500209Y-91880561D01*
X162429681Y-91928205D01*
X162366746Y-91970776D01*
X162314015Y-92006507D01*
X162274101Y-92033631D01*
X162249615Y-92050380D01*
X162233411Y-92061490D01*
X162197391Y-92086025D01*
X162147890Y-92119635D01*
X162087542Y-92160536D01*
X162018982Y-92206941D01*
X161944847Y-92257066D01*
X161867771Y-92309123D01*
X161551167Y-92522844D01*
X161543459Y-92591109D01*
X161539570Y-92623320D01*
X161534232Y-92662282D01*
X161529788Y-92689276D01*
X161528337Y-92709935D01*
X161042291Y-92709935D01*
X161048519Y-92670248D01*
X161048663Y-92669329D01*
X161059114Y-92602934D01*
X161068807Y-92542305D01*
X161077102Y-92491373D01*
X161083358Y-92454070D01*
X161086935Y-92434327D01*
X161091086Y-92422983D01*
X161106651Y-92403187D01*
X161135758Y-92379215D01*
X161181393Y-92348353D01*
X161194825Y-92339681D01*
X161231812Y-92315585D01*
X161283212Y-92281931D01*
X161346632Y-92240291D01*
X161419681Y-92192240D01*
X161499965Y-92139349D01*
X161585093Y-92083192D01*
X161672672Y-92025342D01*
X161703228Y-92005146D01*
X161796754Y-91943355D01*
X161890992Y-91881124D01*
X161982803Y-91820526D01*
X162069043Y-91763633D01*
X162146571Y-91712519D01*
X162212245Y-91669257D01*
X162262922Y-91635919D01*
X162327872Y-91592608D01*
X162383761Y-91553596D01*
X162422969Y-91523758D01*
X162446643Y-91502215D01*
X162455932Y-91488086D01*
X162456601Y-91485071D01*
X162461386Y-91462401D01*
X162469727Y-91422191D01*
X162481029Y-91367322D01*
X162494701Y-91300675D01*
X162510151Y-91225129D01*
X162526786Y-91143564D01*
X162532787Y-91114145D01*
X162548792Y-91036173D01*
X162563265Y-90966350D01*
X162575651Y-90907308D01*
X162585395Y-90861683D01*
X162591941Y-90832106D01*
X162594735Y-90821212D01*
X162597455Y-90820645D01*
X162618009Y-90818374D01*
X162656593Y-90814824D01*
X162710724Y-90810184D01*
X162777923Y-90804642D01*
X162855706Y-90798387D01*
X162941593Y-90791608D01*
X163033101Y-90784493D01*
X163127749Y-90777231D01*
X163223055Y-90770009D01*
X163316538Y-90763018D01*
X163405716Y-90756445D01*
X163488106Y-90750479D01*
X163561229Y-90745309D01*
X163622601Y-90741123D01*
X163669741Y-90738110D01*
X163700167Y-90736458D01*
X163711398Y-90736356D01*
X163710221Y-90744128D01*
X163704862Y-90771461D01*
X163695569Y-90816771D01*
X163682722Y-90878284D01*
X163666706Y-90954228D01*
X163647904Y-91042828D01*
X163626697Y-91142312D01*
X163603470Y-91250906D01*
X163578604Y-91366837D01*
X163556052Y-91471732D01*
X163552483Y-91488332D01*
G37*
G36*
X159377400Y-92783368D02*
G01*
X159393908Y-92886794D01*
X159411408Y-92996883D01*
X159419251Y-93046298D01*
X159437123Y-93158729D01*
X159454273Y-93266402D01*
X159462058Y-93315174D01*
X159470320Y-93366929D01*
X159484881Y-93457919D01*
X159497573Y-93536985D01*
X159508013Y-93601738D01*
X159515820Y-93649790D01*
X159520610Y-93678750D01*
X159523629Y-93696867D01*
X159530331Y-93739545D01*
X159534986Y-93772823D01*
X159536730Y-93790694D01*
X159536057Y-93796164D01*
X159526411Y-93803258D01*
X159501392Y-93801236D01*
X159496079Y-93800333D01*
X159469750Y-93796006D01*
X159425038Y-93788742D01*
X159364070Y-93778885D01*
X159288969Y-93766777D01*
X159201864Y-93752760D01*
X159104878Y-93737177D01*
X159000138Y-93720371D01*
X158889769Y-93702683D01*
X158840159Y-93694737D01*
X158731681Y-93677360D01*
X158629586Y-93661002D01*
X158536028Y-93646009D01*
X158453165Y-93632726D01*
X158383151Y-93621499D01*
X158328143Y-93612673D01*
X158290296Y-93606595D01*
X158271766Y-93603609D01*
X158271395Y-93603547D01*
X158248729Y-93595986D01*
X158215689Y-93578784D01*
X158170641Y-93550931D01*
X158111953Y-93511420D01*
X158037990Y-93459240D01*
X158003862Y-93434793D01*
X157938559Y-93388019D01*
X157861736Y-93333001D01*
X157777146Y-93272424D01*
X157688541Y-93208978D01*
X157599675Y-93145348D01*
X157514299Y-93084222D01*
X157509160Y-93080543D01*
X157433827Y-93026486D01*
X157363688Y-92975947D01*
X157300828Y-92930444D01*
X157247331Y-92891494D01*
X157205285Y-92860615D01*
X157176774Y-92839326D01*
X157163883Y-92829145D01*
X157163820Y-92829084D01*
X157158805Y-92818804D01*
X157151126Y-92794853D01*
X157140608Y-92756469D01*
X157127071Y-92702890D01*
X157110339Y-92633353D01*
X157090234Y-92547099D01*
X157066578Y-92443364D01*
X157039194Y-92321387D01*
X157007905Y-92180406D01*
X156988380Y-92091680D01*
X157413990Y-92091680D01*
X157415449Y-92106621D01*
X157420980Y-92135059D01*
X157429286Y-92171669D01*
X157439067Y-92211128D01*
X157449024Y-92248109D01*
X157457858Y-92277289D01*
X157464271Y-92293343D01*
X157464298Y-92293384D01*
X157474820Y-92301847D01*
X157501600Y-92321147D01*
X157542846Y-92350054D01*
X157596768Y-92387335D01*
X157661577Y-92431758D01*
X157735480Y-92482091D01*
X157816689Y-92537101D01*
X157903412Y-92595557D01*
X157935665Y-92617246D01*
X158041051Y-92688133D01*
X158152770Y-92763306D01*
X158266761Y-92840027D01*
X158378958Y-92915562D01*
X158485297Y-92987174D01*
X158581716Y-93052127D01*
X158664149Y-93107687D01*
X158666751Y-93109441D01*
X158741415Y-93159381D01*
X158810037Y-93204558D01*
X158870634Y-93243720D01*
X158921220Y-93275615D01*
X158959810Y-93298990D01*
X158984420Y-93312594D01*
X158993064Y-93315174D01*
X158992896Y-93309903D01*
X158989324Y-93280254D01*
X158982181Y-93241234D01*
X158972899Y-93199006D01*
X158962909Y-93159734D01*
X158953642Y-93129583D01*
X158946529Y-93114717D01*
X158945614Y-93114000D01*
X158931065Y-93103859D01*
X158900438Y-93083008D01*
X158855357Y-93052534D01*
X158797449Y-93013523D01*
X158728339Y-92967064D01*
X158649652Y-92914241D01*
X158563015Y-92856144D01*
X158470053Y-92793857D01*
X158372391Y-92728469D01*
X158271656Y-92661065D01*
X158169473Y-92592734D01*
X158067468Y-92524561D01*
X157967265Y-92457633D01*
X157870492Y-92393039D01*
X157778773Y-92331863D01*
X157693735Y-92275194D01*
X157617003Y-92224117D01*
X157550202Y-92179721D01*
X157494958Y-92143091D01*
X157452898Y-92115315D01*
X157425646Y-92097479D01*
X157414828Y-92090671D01*
X157413990Y-92091680D01*
X156988380Y-92091680D01*
X156972531Y-92019661D01*
X156932897Y-91838388D01*
X156931630Y-91832580D01*
X156900363Y-91689283D01*
X156870174Y-91551070D01*
X156853505Y-91474840D01*
X157299901Y-91474840D01*
X157301573Y-91493672D01*
X157307003Y-91525714D01*
X157314955Y-91565315D01*
X157324193Y-91606819D01*
X157333483Y-91644574D01*
X157341587Y-91672926D01*
X157347272Y-91686222D01*
X157347440Y-91686375D01*
X157359537Y-91695225D01*
X157387120Y-91714457D01*
X157427762Y-91742407D01*
X157479037Y-91777413D01*
X157538520Y-91817814D01*
X157603784Y-91861947D01*
X157617432Y-91871158D01*
X157679601Y-91913129D01*
X157756218Y-91964876D01*
X157844467Y-92024493D01*
X157941526Y-92090075D01*
X158044577Y-92159717D01*
X158150801Y-92231514D01*
X158257377Y-92303560D01*
X158361488Y-92373951D01*
X158431541Y-92421275D01*
X158521966Y-92482223D01*
X158605796Y-92538569D01*
X158681401Y-92589228D01*
X158747153Y-92633113D01*
X158801423Y-92669136D01*
X158842582Y-92696213D01*
X158869001Y-92713255D01*
X158879052Y-92719178D01*
X158882200Y-92710744D01*
X158879969Y-92689276D01*
X158876177Y-92668923D01*
X158869834Y-92631684D01*
X158863168Y-92589977D01*
X158857579Y-92555998D01*
X158852478Y-92529311D01*
X158849367Y-92518211D01*
X158841724Y-92512792D01*
X158817216Y-92495923D01*
X158778437Y-92469463D01*
X158727563Y-92434883D01*
X158666767Y-92393659D01*
X158598223Y-92347264D01*
X158524107Y-92297172D01*
X158446592Y-92244857D01*
X158367852Y-92191793D01*
X158356122Y-92183893D01*
X158283152Y-92134697D01*
X158212361Y-92086892D01*
X158146924Y-92042625D01*
X158090014Y-92004046D01*
X158044805Y-91973302D01*
X158014470Y-91952542D01*
X158005822Y-91946602D01*
X157970441Y-91922466D01*
X157921111Y-91888974D01*
X157860855Y-91848171D01*
X157792699Y-91802104D01*
X157719665Y-91752820D01*
X157644778Y-91702364D01*
X157608708Y-91678063D01*
X157539255Y-91631165D01*
X157475830Y-91588200D01*
X157420837Y-91550804D01*
X157376682Y-91520617D01*
X157345772Y-91499275D01*
X157330511Y-91488416D01*
X157330162Y-91488150D01*
X157310794Y-91475376D01*
X157300523Y-91472308D01*
X157299901Y-91474840D01*
X156853505Y-91474840D01*
X156841416Y-91419559D01*
X156814446Y-91296364D01*
X156789617Y-91183103D01*
X156767285Y-91081392D01*
X156747805Y-90992848D01*
X156731532Y-90919087D01*
X156718820Y-90861726D01*
X156710024Y-90822380D01*
X156705500Y-90802667D01*
X156699471Y-90774377D01*
X156695913Y-90747859D01*
X156697274Y-90736082D01*
X156699986Y-90735956D01*
X156720565Y-90736852D01*
X156759197Y-90739207D01*
X156813399Y-90742832D01*
X156880687Y-90747539D01*
X156958577Y-90753138D01*
X157044584Y-90759441D01*
X157136225Y-90766258D01*
X157231016Y-90773401D01*
X157326473Y-90780680D01*
X157420111Y-90787908D01*
X157509447Y-90794894D01*
X157591997Y-90801450D01*
X157665277Y-90807388D01*
X157726802Y-90812517D01*
X157774089Y-90816650D01*
X157804654Y-90819597D01*
X157816012Y-90821169D01*
X157817068Y-90824901D01*
X157821936Y-90846770D01*
X157830198Y-90885972D01*
X157841330Y-90939962D01*
X157854809Y-91006192D01*
X157870112Y-91082115D01*
X157886714Y-91165184D01*
X157954718Y-91506806D01*
X158216018Y-91680779D01*
X158235622Y-91693824D01*
X158308020Y-91741924D01*
X158393782Y-91798808D01*
X158489266Y-91862065D01*
X158590829Y-91929285D01*
X158694830Y-91998055D01*
X158797625Y-92065967D01*
X158895573Y-92130607D01*
X158971064Y-92180403D01*
X159051375Y-92233391D01*
X159124350Y-92281555D01*
X159188186Y-92323702D01*
X159241080Y-92358643D01*
X159281229Y-92385185D01*
X159306829Y-92402139D01*
X159316077Y-92408313D01*
X159316899Y-92412128D01*
X159320811Y-92434552D01*
X159327613Y-92475360D01*
X159336990Y-92532600D01*
X159348624Y-92604317D01*
X159362200Y-92688557D01*
X159365757Y-92710744D01*
X159377400Y-92783368D01*
G37*
G36*
X162216995Y-91393686D02*
G01*
X161901670Y-91601986D01*
X161885275Y-91612816D01*
X161766234Y-91691469D01*
X161642544Y-91773215D01*
X161515832Y-91856977D01*
X161387727Y-91941679D01*
X161259856Y-92026243D01*
X161133848Y-92109591D01*
X161011330Y-92190647D01*
X160893931Y-92268333D01*
X160783280Y-92341571D01*
X160681003Y-92409285D01*
X160588729Y-92470396D01*
X160508087Y-92523828D01*
X160440703Y-92568504D01*
X160388207Y-92603345D01*
X160352227Y-92627276D01*
X160328795Y-92642794D01*
X160282994Y-92672521D01*
X160244874Y-92696458D01*
X160217875Y-92712469D01*
X160205437Y-92718417D01*
X160204469Y-92718149D01*
X160194875Y-92712960D01*
X160175062Y-92700897D01*
X160144505Y-92681614D01*
X160102680Y-92654767D01*
X160049060Y-92620009D01*
X159983120Y-92576996D01*
X159904335Y-92525380D01*
X159812180Y-92464818D01*
X159706129Y-92394963D01*
X159585657Y-92315470D01*
X159450239Y-92225994D01*
X159299350Y-92126188D01*
X159132463Y-92015707D01*
X158949054Y-91894207D01*
X158748597Y-91761340D01*
X158530568Y-91616762D01*
X158193113Y-91392950D01*
X158142321Y-91147988D01*
X159074615Y-91147988D01*
X159629153Y-91518351D01*
X159637118Y-91523670D01*
X159735442Y-91589323D01*
X159828386Y-91651358D01*
X159914364Y-91708718D01*
X159991787Y-91760344D01*
X160059067Y-91805178D01*
X160114618Y-91842162D01*
X160156850Y-91870239D01*
X160184177Y-91888349D01*
X160195010Y-91895435D01*
X160195641Y-91895462D01*
X160209429Y-91888747D01*
X160239416Y-91871073D01*
X160284037Y-91843446D01*
X160341723Y-91806874D01*
X160410907Y-91762362D01*
X160490024Y-91710919D01*
X160577505Y-91653552D01*
X160671785Y-91591267D01*
X160771295Y-91525072D01*
X161336259Y-91147988D01*
X160767299Y-91145172D01*
X160711629Y-91144921D01*
X160568195Y-91144451D01*
X160411708Y-91144150D01*
X160247969Y-91144017D01*
X160082776Y-91144053D01*
X159921930Y-91144258D01*
X159771230Y-91144630D01*
X159636477Y-91145172D01*
X159074615Y-91147988D01*
X158142321Y-91147988D01*
X158135470Y-91114945D01*
X158121506Y-91046363D01*
X158107942Y-90976973D01*
X158096804Y-90916944D01*
X158088623Y-90869252D01*
X158083931Y-90836873D01*
X158083260Y-90822782D01*
X158084335Y-90821014D01*
X158101147Y-90808815D01*
X158135246Y-90791132D01*
X158183841Y-90769040D01*
X158244144Y-90743612D01*
X158313366Y-90715920D01*
X158388718Y-90687040D01*
X158467411Y-90658044D01*
X158546656Y-90630006D01*
X158623664Y-90603999D01*
X158695646Y-90581096D01*
X158759813Y-90562372D01*
X158805059Y-90550099D01*
X159009973Y-90498497D01*
X159204931Y-90456691D01*
X159395091Y-90424001D01*
X159585609Y-90399745D01*
X159781642Y-90383243D01*
X159988344Y-90373815D01*
X160210874Y-90370778D01*
X160259435Y-90370896D01*
X160473116Y-90375065D01*
X160672503Y-90385737D01*
X160863113Y-90403647D01*
X161050462Y-90429531D01*
X161240069Y-90464124D01*
X161437449Y-90508163D01*
X161648121Y-90562381D01*
X161668690Y-90568126D01*
X161730721Y-90586816D01*
X161800967Y-90609564D01*
X161876543Y-90635284D01*
X161954560Y-90662891D01*
X162032133Y-90691297D01*
X162106373Y-90719415D01*
X162174395Y-90746160D01*
X162233310Y-90770446D01*
X162280232Y-90791185D01*
X162312274Y-90807291D01*
X162326548Y-90817679D01*
X162326130Y-90829874D01*
X162321780Y-90860615D01*
X162313959Y-90906942D01*
X162303178Y-90965966D01*
X162289948Y-91034798D01*
X162274779Y-91110547D01*
X162267138Y-91147988D01*
X162216995Y-91393686D01*
G37*
D13*
X113155406Y-96624949D02*
X113181127Y-96640647D01*
X113207778Y-96662227D01*
X113207778Y-97309684D01*
X113181127Y-97331264D01*
X113149767Y-97348739D01*
X113113966Y-97349575D01*
X113082528Y-97329082D01*
X113078652Y-97324416D01*
X113073186Y-97314949D01*
X113068979Y-97301267D01*
X113065867Y-97280748D01*
X113063687Y-97250768D01*
X113062276Y-97208704D01*
X113061471Y-97151932D01*
X113061107Y-97077830D01*
X113061022Y-96983773D01*
X113061022Y-96662227D01*
X113087673Y-96640647D01*
X113111386Y-96625877D01*
X113134400Y-96619067D01*
X113155406Y-96624949D01*
G36*
X113155406Y-96624949D02*
G01*
X113181127Y-96640647D01*
X113207778Y-96662227D01*
X113207778Y-97309684D01*
X113181127Y-97331264D01*
X113149767Y-97348739D01*
X113113966Y-97349575D01*
X113082528Y-97329082D01*
X113078652Y-97324416D01*
X113073186Y-97314949D01*
X113068979Y-97301267D01*
X113065867Y-97280748D01*
X113063687Y-97250768D01*
X113062276Y-97208704D01*
X113061471Y-97151932D01*
X113061107Y-97077830D01*
X113061022Y-96983773D01*
X113061022Y-96662227D01*
X113087673Y-96640647D01*
X113111386Y-96625877D01*
X113134400Y-96619067D01*
X113155406Y-96624949D01*
G37*
X120286137Y-96623463D02*
X120320291Y-96646776D01*
X120348000Y-96674485D01*
X120348000Y-96987537D01*
X120347959Y-97071567D01*
X120347701Y-97145789D01*
X120347030Y-97202541D01*
X120345752Y-97244512D01*
X120343673Y-97274389D01*
X120340599Y-97294861D01*
X120336334Y-97308614D01*
X120330684Y-97318337D01*
X120323455Y-97326717D01*
X120291991Y-97348181D01*
X120256826Y-97349947D01*
X120223822Y-97330267D01*
X120218516Y-97324398D01*
X120213066Y-97315314D01*
X120208900Y-97301973D01*
X120205846Y-97281757D01*
X120203732Y-97252049D01*
X120202386Y-97210232D01*
X120201638Y-97153689D01*
X120201314Y-97079802D01*
X120201245Y-96985956D01*
X120201284Y-96910294D01*
X120201539Y-96832385D01*
X120202183Y-96772375D01*
X120203387Y-96727648D01*
X120205324Y-96695585D01*
X120208164Y-96673571D01*
X120212079Y-96658987D01*
X120217242Y-96649218D01*
X120223822Y-96641645D01*
X120253006Y-96622623D01*
X120286137Y-96623463D01*
G36*
X120286137Y-96623463D02*
G01*
X120320291Y-96646776D01*
X120348000Y-96674485D01*
X120348000Y-96987537D01*
X120347959Y-97071567D01*
X120347701Y-97145789D01*
X120347030Y-97202541D01*
X120345752Y-97244512D01*
X120343673Y-97274389D01*
X120340599Y-97294861D01*
X120336334Y-97308614D01*
X120330684Y-97318337D01*
X120323455Y-97326717D01*
X120291991Y-97348181D01*
X120256826Y-97349947D01*
X120223822Y-97330267D01*
X120218516Y-97324398D01*
X120213066Y-97315314D01*
X120208900Y-97301973D01*
X120205846Y-97281757D01*
X120203732Y-97252049D01*
X120202386Y-97210232D01*
X120201638Y-97153689D01*
X120201314Y-97079802D01*
X120201245Y-96985956D01*
X120201284Y-96910294D01*
X120201539Y-96832385D01*
X120202183Y-96772375D01*
X120203387Y-96727648D01*
X120205324Y-96695585D01*
X120208164Y-96673571D01*
X120212079Y-96658987D01*
X120217242Y-96649218D01*
X120223822Y-96641645D01*
X120253006Y-96622623D01*
X120286137Y-96623463D01*
G37*
X119754562Y-91382850D02*
X119837313Y-91410053D01*
X119912406Y-91455484D01*
X119984298Y-91521302D01*
X120022846Y-91565567D01*
X120062256Y-91623961D01*
X120087446Y-91684586D01*
X120100861Y-91753865D01*
X120104948Y-91838222D01*
X120104669Y-91884307D01*
X120102460Y-91925450D01*
X120096894Y-91957582D01*
X120086586Y-91988122D01*
X120070148Y-92024489D01*
X120056200Y-92051728D01*
X119997665Y-92137429D01*
X119925619Y-92206617D01*
X119841947Y-92257741D01*
X119748531Y-92289250D01*
X119715434Y-92296225D01*
X119674960Y-92303094D01*
X119641999Y-92304919D01*
X119607698Y-92301947D01*
X119563200Y-92294426D01*
X119511934Y-92282002D01*
X119421434Y-92244112D01*
X119342345Y-92189836D01*
X119276528Y-92121770D01*
X119225840Y-92042511D01*
X119192140Y-91954654D01*
X119177286Y-91860795D01*
X119183136Y-91763530D01*
X119209399Y-91667220D01*
X119254418Y-91578494D01*
X119315373Y-91503419D01*
X119390184Y-91443641D01*
X119476768Y-91400809D01*
X119573043Y-91376571D01*
X119676928Y-91372576D01*
X119754562Y-91382850D01*
G36*
X119754562Y-91382850D02*
G01*
X119837313Y-91410053D01*
X119912406Y-91455484D01*
X119984298Y-91521302D01*
X120022846Y-91565567D01*
X120062256Y-91623961D01*
X120087446Y-91684586D01*
X120100861Y-91753865D01*
X120104948Y-91838222D01*
X120104669Y-91884307D01*
X120102460Y-91925450D01*
X120096894Y-91957582D01*
X120086586Y-91988122D01*
X120070148Y-92024489D01*
X120056200Y-92051728D01*
X119997665Y-92137429D01*
X119925619Y-92206617D01*
X119841947Y-92257741D01*
X119748531Y-92289250D01*
X119715434Y-92296225D01*
X119674960Y-92303094D01*
X119641999Y-92304919D01*
X119607698Y-92301947D01*
X119563200Y-92294426D01*
X119511934Y-92282002D01*
X119421434Y-92244112D01*
X119342345Y-92189836D01*
X119276528Y-92121770D01*
X119225840Y-92042511D01*
X119192140Y-91954654D01*
X119177286Y-91860795D01*
X119183136Y-91763530D01*
X119209399Y-91667220D01*
X119254418Y-91578494D01*
X119315373Y-91503419D01*
X119390184Y-91443641D01*
X119476768Y-91400809D01*
X119573043Y-91376571D01*
X119676928Y-91372576D01*
X119754562Y-91382850D01*
G37*
X112455767Y-96619068D02*
X112549890Y-96619158D01*
X112624405Y-96619498D01*
X112681811Y-96620239D01*
X112724611Y-96621535D01*
X112755304Y-96623537D01*
X112776391Y-96626396D01*
X112790373Y-96630266D01*
X112799750Y-96635298D01*
X112807022Y-96641645D01*
X112825828Y-96674362D01*
X112827275Y-96711939D01*
X112810917Y-96745178D01*
X112809557Y-96746631D01*
X112798354Y-96754992D01*
X112781252Y-96760547D01*
X112754082Y-96763840D01*
X112712678Y-96765418D01*
X112652873Y-96765822D01*
X112513511Y-96765822D01*
X112513511Y-97029589D01*
X112513436Y-97105417D01*
X112513028Y-97172083D01*
X112512046Y-97221867D01*
X112510250Y-97257784D01*
X112507399Y-97282850D01*
X112503253Y-97300081D01*
X112497571Y-97312492D01*
X112490114Y-97323100D01*
X112487824Y-97325906D01*
X112456646Y-97348548D01*
X112422266Y-97350112D01*
X112389334Y-97330267D01*
X112382355Y-97322191D01*
X112376883Y-97311593D01*
X112372863Y-97295749D01*
X112370072Y-97271773D01*
X112368288Y-97236774D01*
X112367289Y-97187864D01*
X112366852Y-97122154D01*
X112366756Y-97036756D01*
X112366756Y-96765822D01*
X112220820Y-96765822D01*
X112209720Y-96765821D01*
X112153202Y-96765596D01*
X112114358Y-96764457D01*
X112088965Y-96761657D01*
X112072804Y-96756450D01*
X112061652Y-96748089D01*
X112051289Y-96735826D01*
X112035441Y-96705138D01*
X112038543Y-96671358D01*
X112064187Y-96638822D01*
X112069129Y-96635105D01*
X112079338Y-96630269D01*
X112094764Y-96626506D01*
X112117886Y-96623683D01*
X112151183Y-96621670D01*
X112197137Y-96620333D01*
X112258228Y-96619542D01*
X112336935Y-96619163D01*
X112435740Y-96619067D01*
X112455767Y-96619068D01*
G36*
X112455767Y-96619068D02*
G01*
X112549890Y-96619158D01*
X112624405Y-96619498D01*
X112681811Y-96620239D01*
X112724611Y-96621535D01*
X112755304Y-96623537D01*
X112776391Y-96626396D01*
X112790373Y-96630266D01*
X112799750Y-96635298D01*
X112807022Y-96641645D01*
X112825828Y-96674362D01*
X112827275Y-96711939D01*
X112810917Y-96745178D01*
X112809557Y-96746631D01*
X112798354Y-96754992D01*
X112781252Y-96760547D01*
X112754082Y-96763840D01*
X112712678Y-96765418D01*
X112652873Y-96765822D01*
X112513511Y-96765822D01*
X112513511Y-97029589D01*
X112513436Y-97105417D01*
X112513028Y-97172083D01*
X112512046Y-97221867D01*
X112510250Y-97257784D01*
X112507399Y-97282850D01*
X112503253Y-97300081D01*
X112497571Y-97312492D01*
X112490114Y-97323100D01*
X112487824Y-97325906D01*
X112456646Y-97348548D01*
X112422266Y-97350112D01*
X112389334Y-97330267D01*
X112382355Y-97322191D01*
X112376883Y-97311593D01*
X112372863Y-97295749D01*
X112370072Y-97271773D01*
X112368288Y-97236774D01*
X112367289Y-97187864D01*
X112366852Y-97122154D01*
X112366756Y-97036756D01*
X112366756Y-96765822D01*
X112220820Y-96765822D01*
X112209720Y-96765821D01*
X112153202Y-96765596D01*
X112114358Y-96764457D01*
X112088965Y-96761657D01*
X112072804Y-96756450D01*
X112061652Y-96748089D01*
X112051289Y-96735826D01*
X112035441Y-96705138D01*
X112038543Y-96671358D01*
X112064187Y-96638822D01*
X112069129Y-96635105D01*
X112079338Y-96630269D01*
X112094764Y-96626506D01*
X112117886Y-96623683D01*
X112151183Y-96621670D01*
X112197137Y-96620333D01*
X112258228Y-96619542D01*
X112336935Y-96619163D01*
X112435740Y-96619067D01*
X112455767Y-96619068D01*
G37*
X111779734Y-96641645D02*
X111785366Y-96647835D01*
X111790456Y-96656041D01*
X111794543Y-96667817D01*
X111797721Y-96685276D01*
X111800087Y-96710530D01*
X111801738Y-96745690D01*
X111802769Y-96792869D01*
X111803277Y-96854177D01*
X111803359Y-96931727D01*
X111803109Y-97027631D01*
X111802625Y-97144000D01*
X111802557Y-97158175D01*
X111801971Y-97219937D01*
X111800648Y-97263620D01*
X111798103Y-97293001D01*
X111793848Y-97311855D01*
X111787396Y-97323959D01*
X111778262Y-97333089D01*
X111744804Y-97350506D01*
X111709856Y-97347604D01*
X111678953Y-97323100D01*
X111669944Y-97309897D01*
X111662492Y-97291361D01*
X111658124Y-97265333D01*
X111656069Y-97226787D01*
X111655556Y-97170700D01*
X111655556Y-97048045D01*
X111158845Y-97048045D01*
X111158845Y-97182871D01*
X111158772Y-97218662D01*
X111158009Y-97264992D01*
X111155833Y-97295526D01*
X111151536Y-97314557D01*
X111144412Y-97326374D01*
X111133755Y-97335271D01*
X111101504Y-97350341D01*
X111066217Y-97347673D01*
X111035486Y-97323100D01*
X111030831Y-97316845D01*
X111024895Y-97306321D01*
X111020364Y-97292391D01*
X111017048Y-97272317D01*
X111014759Y-97243360D01*
X111013308Y-97202780D01*
X111012505Y-97147840D01*
X111012162Y-97075799D01*
X111012089Y-96983920D01*
X111012089Y-96674485D01*
X111039798Y-96646776D01*
X111071177Y-96624533D01*
X111104406Y-96621844D01*
X111136267Y-96641645D01*
X111144553Y-96651415D01*
X111151965Y-96667307D01*
X111156302Y-96691275D01*
X111158338Y-96728148D01*
X111158845Y-96782756D01*
X111158845Y-96901289D01*
X111655556Y-96901289D01*
X111655556Y-96785776D01*
X111655994Y-96734078D01*
X111657958Y-96699554D01*
X111662474Y-96676978D01*
X111670567Y-96661126D01*
X111683265Y-96646776D01*
X111714643Y-96624533D01*
X111747872Y-96621844D01*
X111779734Y-96641645D01*
G36*
X111779734Y-96641645D02*
G01*
X111785366Y-96647835D01*
X111790456Y-96656041D01*
X111794543Y-96667817D01*
X111797721Y-96685276D01*
X111800087Y-96710530D01*
X111801738Y-96745690D01*
X111802769Y-96792869D01*
X111803277Y-96854177D01*
X111803359Y-96931727D01*
X111803109Y-97027631D01*
X111802625Y-97144000D01*
X111802557Y-97158175D01*
X111801971Y-97219937D01*
X111800648Y-97263620D01*
X111798103Y-97293001D01*
X111793848Y-97311855D01*
X111787396Y-97323959D01*
X111778262Y-97333089D01*
X111744804Y-97350506D01*
X111709856Y-97347604D01*
X111678953Y-97323100D01*
X111669944Y-97309897D01*
X111662492Y-97291361D01*
X111658124Y-97265333D01*
X111656069Y-97226787D01*
X111655556Y-97170700D01*
X111655556Y-97048045D01*
X111158845Y-97048045D01*
X111158845Y-97182871D01*
X111158772Y-97218662D01*
X111158009Y-97264992D01*
X111155833Y-97295526D01*
X111151536Y-97314557D01*
X111144412Y-97326374D01*
X111133755Y-97335271D01*
X111101504Y-97350341D01*
X111066217Y-97347673D01*
X111035486Y-97323100D01*
X111030831Y-97316845D01*
X111024895Y-97306321D01*
X111020364Y-97292391D01*
X111017048Y-97272317D01*
X111014759Y-97243360D01*
X111013308Y-97202780D01*
X111012505Y-97147840D01*
X111012162Y-97075799D01*
X111012089Y-96983920D01*
X111012089Y-96674485D01*
X111039798Y-96646776D01*
X111071177Y-96624533D01*
X111104406Y-96621844D01*
X111136267Y-96641645D01*
X111144553Y-96651415D01*
X111151965Y-96667307D01*
X111156302Y-96691275D01*
X111158338Y-96728148D01*
X111158845Y-96782756D01*
X111158845Y-96901289D01*
X111655556Y-96901289D01*
X111655556Y-96785776D01*
X111655994Y-96734078D01*
X111657958Y-96699554D01*
X111662474Y-96676978D01*
X111670567Y-96661126D01*
X111683265Y-96646776D01*
X111714643Y-96624533D01*
X111747872Y-96621844D01*
X111779734Y-96641645D01*
G37*
X116485133Y-97230396D02*
X116483163Y-97263175D01*
X116480235Y-97286095D01*
X116476158Y-97301897D01*
X116470743Y-97313319D01*
X116463803Y-97323100D01*
X116440406Y-97352845D01*
X116274714Y-97352251D01*
X116239918Y-97351953D01*
X116141435Y-97348522D01*
X116060473Y-97340839D01*
X115993379Y-97328282D01*
X115936496Y-97310227D01*
X115886169Y-97286052D01*
X115882810Y-97284135D01*
X115824998Y-97247417D01*
X115782644Y-97210451D01*
X115749828Y-97166966D01*
X115720628Y-97110689D01*
X115716346Y-97101073D01*
X115693769Y-97037887D01*
X115688034Y-96992333D01*
X115837279Y-96992333D01*
X115842892Y-97017061D01*
X115848618Y-97032939D01*
X115881548Y-97092847D01*
X115928886Y-97138600D01*
X115992652Y-97171736D01*
X116074861Y-97193790D01*
X116077655Y-97194292D01*
X116123940Y-97200255D01*
X116180336Y-97204483D01*
X116235274Y-97206089D01*
X116329156Y-97206089D01*
X116329156Y-96765822D01*
X116241667Y-96766270D01*
X116174747Y-96768746D01*
X116082349Y-96779998D01*
X116003034Y-96799537D01*
X115941060Y-96826511D01*
X115910120Y-96847240D01*
X115882000Y-96877006D01*
X115858660Y-96919434D01*
X115851533Y-96935400D01*
X115839709Y-96967902D01*
X115837279Y-96992333D01*
X115688034Y-96992333D01*
X115686797Y-96982509D01*
X115695399Y-96927483D01*
X115719541Y-96865351D01*
X115720337Y-96863658D01*
X115760788Y-96794236D01*
X115811473Y-96737638D01*
X115874198Y-96693070D01*
X115950774Y-96659741D01*
X116043009Y-96636861D01*
X116152712Y-96623636D01*
X116281691Y-96619275D01*
X116285263Y-96619270D01*
X116345283Y-96619410D01*
X116387214Y-96620446D01*
X116415328Y-96623040D01*
X116433897Y-96627853D01*
X116447194Y-96635544D01*
X116459491Y-96646776D01*
X116487200Y-96674485D01*
X116487200Y-96983920D01*
X116487175Y-97045526D01*
X116486950Y-97124311D01*
X116486332Y-97185021D01*
X116485775Y-97206089D01*
X116485133Y-97230396D01*
G36*
X116485133Y-97230396D02*
G01*
X116483163Y-97263175D01*
X116480235Y-97286095D01*
X116476158Y-97301897D01*
X116470743Y-97313319D01*
X116463803Y-97323100D01*
X116440406Y-97352845D01*
X116274714Y-97352251D01*
X116239918Y-97351953D01*
X116141435Y-97348522D01*
X116060473Y-97340839D01*
X115993379Y-97328282D01*
X115936496Y-97310227D01*
X115886169Y-97286052D01*
X115882810Y-97284135D01*
X115824998Y-97247417D01*
X115782644Y-97210451D01*
X115749828Y-97166966D01*
X115720628Y-97110689D01*
X115716346Y-97101073D01*
X115693769Y-97037887D01*
X115688034Y-96992333D01*
X115837279Y-96992333D01*
X115842892Y-97017061D01*
X115848618Y-97032939D01*
X115881548Y-97092847D01*
X115928886Y-97138600D01*
X115992652Y-97171736D01*
X116074861Y-97193790D01*
X116077655Y-97194292D01*
X116123940Y-97200255D01*
X116180336Y-97204483D01*
X116235274Y-97206089D01*
X116329156Y-97206089D01*
X116329156Y-96765822D01*
X116241667Y-96766270D01*
X116174747Y-96768746D01*
X116082349Y-96779998D01*
X116003034Y-96799537D01*
X115941060Y-96826511D01*
X115910120Y-96847240D01*
X115882000Y-96877006D01*
X115858660Y-96919434D01*
X115851533Y-96935400D01*
X115839709Y-96967902D01*
X115837279Y-96992333D01*
X115688034Y-96992333D01*
X115686797Y-96982509D01*
X115695399Y-96927483D01*
X115719541Y-96865351D01*
X115720337Y-96863658D01*
X115760788Y-96794236D01*
X115811473Y-96737638D01*
X115874198Y-96693070D01*
X115950774Y-96659741D01*
X116043009Y-96636861D01*
X116152712Y-96623636D01*
X116281691Y-96619275D01*
X116285263Y-96619270D01*
X116345283Y-96619410D01*
X116387214Y-96620446D01*
X116415328Y-96623040D01*
X116433897Y-96627853D01*
X116447194Y-96635544D01*
X116459491Y-96646776D01*
X116487200Y-96674485D01*
X116487200Y-96983920D01*
X116487175Y-97045526D01*
X116486950Y-97124311D01*
X116486332Y-97185021D01*
X116485775Y-97206089D01*
X116485133Y-97230396D01*
G37*
X123576817Y-96804427D02*
X123576870Y-96885041D01*
X123576622Y-96985956D01*
X123576583Y-97061617D01*
X123576328Y-97139526D01*
X123575684Y-97199536D01*
X123574480Y-97244264D01*
X123572543Y-97276326D01*
X123569703Y-97298340D01*
X123565788Y-97312924D01*
X123560626Y-97322694D01*
X123554045Y-97330267D01*
X123547077Y-97336501D01*
X123534079Y-97343801D01*
X123514931Y-97348554D01*
X123485528Y-97351292D01*
X123441762Y-97352545D01*
X123379528Y-97352845D01*
X123330582Y-97352469D01*
X123223722Y-97348041D01*
X123134494Y-97337953D01*
X123059696Y-97321365D01*
X122996125Y-97297435D01*
X122940579Y-97265321D01*
X122889854Y-97224182D01*
X122883866Y-97218330D01*
X122846999Y-97169821D01*
X122815899Y-97109013D01*
X122794417Y-97044769D01*
X122789136Y-97006026D01*
X122936353Y-97006026D01*
X122954635Y-97056961D01*
X122984305Y-97102878D01*
X123031002Y-97145287D01*
X123092392Y-97175090D01*
X123171538Y-97194226D01*
X123173028Y-97194464D01*
X123221999Y-97200256D01*
X123280693Y-97204396D01*
X123336734Y-97206004D01*
X123429867Y-97206089D01*
X123429867Y-96765822D01*
X123353667Y-96765808D01*
X123350639Y-96765817D01*
X123299519Y-96767782D01*
X123239416Y-96772507D01*
X123182708Y-96779035D01*
X123132750Y-96788331D01*
X123057998Y-96814600D01*
X123000489Y-96853899D01*
X122958988Y-96906933D01*
X122937771Y-96958200D01*
X122936353Y-97006026D01*
X122789136Y-97006026D01*
X122786400Y-96985956D01*
X122787679Y-96964739D01*
X122799991Y-96907323D01*
X122822520Y-96847413D01*
X122851750Y-96793363D01*
X122884167Y-96753532D01*
X122903708Y-96736510D01*
X122958420Y-96697322D01*
X123018723Y-96667193D01*
X123087919Y-96645232D01*
X123169311Y-96630550D01*
X123266200Y-96622259D01*
X123381889Y-96619467D01*
X123421371Y-96619066D01*
X123467082Y-96618653D01*
X123502883Y-96620457D01*
X123529974Y-96626739D01*
X123549556Y-96639759D01*
X123562830Y-96661778D01*
X123570998Y-96695055D01*
X123575260Y-96741851D01*
X123575857Y-96765822D01*
X123576817Y-96804427D01*
G36*
X123576817Y-96804427D02*
G01*
X123576870Y-96885041D01*
X123576622Y-96985956D01*
X123576583Y-97061617D01*
X123576328Y-97139526D01*
X123575684Y-97199536D01*
X123574480Y-97244264D01*
X123572543Y-97276326D01*
X123569703Y-97298340D01*
X123565788Y-97312924D01*
X123560626Y-97322694D01*
X123554045Y-97330267D01*
X123547077Y-97336501D01*
X123534079Y-97343801D01*
X123514931Y-97348554D01*
X123485528Y-97351292D01*
X123441762Y-97352545D01*
X123379528Y-97352845D01*
X123330582Y-97352469D01*
X123223722Y-97348041D01*
X123134494Y-97337953D01*
X123059696Y-97321365D01*
X122996125Y-97297435D01*
X122940579Y-97265321D01*
X122889854Y-97224182D01*
X122883866Y-97218330D01*
X122846999Y-97169821D01*
X122815899Y-97109013D01*
X122794417Y-97044769D01*
X122789136Y-97006026D01*
X122936353Y-97006026D01*
X122954635Y-97056961D01*
X122984305Y-97102878D01*
X123031002Y-97145287D01*
X123092392Y-97175090D01*
X123171538Y-97194226D01*
X123173028Y-97194464D01*
X123221999Y-97200256D01*
X123280693Y-97204396D01*
X123336734Y-97206004D01*
X123429867Y-97206089D01*
X123429867Y-96765822D01*
X123353667Y-96765808D01*
X123350639Y-96765817D01*
X123299519Y-96767782D01*
X123239416Y-96772507D01*
X123182708Y-96779035D01*
X123132750Y-96788331D01*
X123057998Y-96814600D01*
X123000489Y-96853899D01*
X122958988Y-96906933D01*
X122937771Y-96958200D01*
X122936353Y-97006026D01*
X122789136Y-97006026D01*
X122786400Y-96985956D01*
X122787679Y-96964739D01*
X122799991Y-96907323D01*
X122822520Y-96847413D01*
X122851750Y-96793363D01*
X122884167Y-96753532D01*
X122903708Y-96736510D01*
X122958420Y-96697322D01*
X123018723Y-96667193D01*
X123087919Y-96645232D01*
X123169311Y-96630550D01*
X123266200Y-96622259D01*
X123381889Y-96619467D01*
X123421371Y-96619066D01*
X123467082Y-96618653D01*
X123502883Y-96620457D01*
X123529974Y-96626739D01*
X123549556Y-96639759D01*
X123562830Y-96661778D01*
X123570998Y-96695055D01*
X123575260Y-96741851D01*
X123575857Y-96765822D01*
X123576817Y-96804427D01*
G37*
X118631893Y-96617892D02*
X118643301Y-96624029D01*
X118653850Y-96634691D01*
X118665136Y-96648811D01*
X118669589Y-96654772D01*
X118675588Y-96665268D01*
X118680167Y-96679093D01*
X118683519Y-96698998D01*
X118685833Y-96727732D01*
X118687301Y-96768045D01*
X118688113Y-96822687D01*
X118688460Y-96894407D01*
X118688534Y-96985956D01*
X118688511Y-97044486D01*
X118688292Y-97123573D01*
X118687683Y-97184516D01*
X118686492Y-97230062D01*
X118684529Y-97262963D01*
X118681603Y-97285968D01*
X118677523Y-97301826D01*
X118672097Y-97313286D01*
X118665136Y-97323100D01*
X118634708Y-97347493D01*
X118599765Y-97350372D01*
X118562784Y-97331282D01*
X118558600Y-97327807D01*
X118550424Y-97319279D01*
X118544364Y-97307728D01*
X118539981Y-97289896D01*
X118536839Y-97262524D01*
X118534502Y-97222354D01*
X118532531Y-97166128D01*
X118530489Y-97090589D01*
X118524845Y-96871458D01*
X118259556Y-97112099D01*
X118185722Y-97178875D01*
X118120542Y-97236991D01*
X118068348Y-97281949D01*
X118027273Y-97314871D01*
X117995455Y-97336879D01*
X117971026Y-97349094D01*
X117952124Y-97352639D01*
X117936883Y-97348636D01*
X117923439Y-97338207D01*
X117909927Y-97322474D01*
X117903682Y-97313991D01*
X117898050Y-97303413D01*
X117893839Y-97289255D01*
X117890887Y-97268803D01*
X117889032Y-97239342D01*
X117888113Y-97198161D01*
X117887968Y-97142544D01*
X117888435Y-97069779D01*
X117889352Y-96977151D01*
X117892667Y-96662199D01*
X117919318Y-96640633D01*
X117945383Y-96624441D01*
X117978241Y-96621670D01*
X118012772Y-96640623D01*
X118017084Y-96644208D01*
X118025216Y-96652737D01*
X118031245Y-96664329D01*
X118035606Y-96682235D01*
X118038734Y-96709706D01*
X118041063Y-96749994D01*
X118043029Y-96806351D01*
X118045067Y-96882029D01*
X118050711Y-97101878D01*
X118231334Y-96938084D01*
X118318072Y-96859451D01*
X118393843Y-96791058D01*
X118455980Y-96735708D01*
X118506078Y-96692338D01*
X118545735Y-96659881D01*
X118576548Y-96637273D01*
X118600114Y-96623448D01*
X118618030Y-96617343D01*
X118631893Y-96617892D01*
G36*
X118631893Y-96617892D02*
G01*
X118643301Y-96624029D01*
X118653850Y-96634691D01*
X118665136Y-96648811D01*
X118669589Y-96654772D01*
X118675588Y-96665268D01*
X118680167Y-96679093D01*
X118683519Y-96698998D01*
X118685833Y-96727732D01*
X118687301Y-96768045D01*
X118688113Y-96822687D01*
X118688460Y-96894407D01*
X118688534Y-96985956D01*
X118688511Y-97044486D01*
X118688292Y-97123573D01*
X118687683Y-97184516D01*
X118686492Y-97230062D01*
X118684529Y-97262963D01*
X118681603Y-97285968D01*
X118677523Y-97301826D01*
X118672097Y-97313286D01*
X118665136Y-97323100D01*
X118634708Y-97347493D01*
X118599765Y-97350372D01*
X118562784Y-97331282D01*
X118558600Y-97327807D01*
X118550424Y-97319279D01*
X118544364Y-97307728D01*
X118539981Y-97289896D01*
X118536839Y-97262524D01*
X118534502Y-97222354D01*
X118532531Y-97166128D01*
X118530489Y-97090589D01*
X118524845Y-96871458D01*
X118259556Y-97112099D01*
X118185722Y-97178875D01*
X118120542Y-97236991D01*
X118068348Y-97281949D01*
X118027273Y-97314871D01*
X117995455Y-97336879D01*
X117971026Y-97349094D01*
X117952124Y-97352639D01*
X117936883Y-97348636D01*
X117923439Y-97338207D01*
X117909927Y-97322474D01*
X117903682Y-97313991D01*
X117898050Y-97303413D01*
X117893839Y-97289255D01*
X117890887Y-97268803D01*
X117889032Y-97239342D01*
X117888113Y-97198161D01*
X117887968Y-97142544D01*
X117888435Y-97069779D01*
X117889352Y-96977151D01*
X117892667Y-96662199D01*
X117919318Y-96640633D01*
X117945383Y-96624441D01*
X117978241Y-96621670D01*
X118012772Y-96640623D01*
X118017084Y-96644208D01*
X118025216Y-96652737D01*
X118031245Y-96664329D01*
X118035606Y-96682235D01*
X118038734Y-96709706D01*
X118041063Y-96749994D01*
X118043029Y-96806351D01*
X118045067Y-96882029D01*
X118050711Y-97101878D01*
X118231334Y-96938084D01*
X118318072Y-96859451D01*
X118393843Y-96791058D01*
X118455980Y-96735708D01*
X118506078Y-96692338D01*
X118545735Y-96659881D01*
X118576548Y-96637273D01*
X118600114Y-96623448D01*
X118618030Y-96617343D01*
X118631893Y-96617892D01*
G37*
X119429150Y-96624179D02*
X119535157Y-96640494D01*
X119628969Y-96668545D01*
X119707765Y-96707452D01*
X119768719Y-96756334D01*
X119794789Y-96789195D01*
X119824297Y-96838394D01*
X119849568Y-96892252D01*
X119867218Y-96943419D01*
X119873858Y-96984544D01*
X119872298Y-97004259D01*
X119859357Y-97055592D01*
X119836194Y-97112118D01*
X119806302Y-97166035D01*
X119773173Y-97209539D01*
X119762977Y-97219887D01*
X119695892Y-97271662D01*
X119615766Y-97311554D01*
X119529556Y-97335956D01*
X119474592Y-97344068D01*
X119381139Y-97350673D01*
X119291358Y-97348586D01*
X119208869Y-97338340D01*
X119137286Y-97320470D01*
X119080228Y-97295508D01*
X119041311Y-97263988D01*
X119039936Y-97262012D01*
X119032848Y-97236786D01*
X119028609Y-97189535D01*
X119027200Y-97120071D01*
X119028060Y-97057838D01*
X119032780Y-97010456D01*
X119044470Y-96978353D01*
X119066239Y-96958800D01*
X119101198Y-96949070D01*
X119152456Y-96946433D01*
X119223123Y-96948161D01*
X119271743Y-96951173D01*
X119321939Y-96959366D01*
X119354433Y-96973419D01*
X119371892Y-96994654D01*
X119376983Y-97024394D01*
X119376877Y-97028936D01*
X119368175Y-97063730D01*
X119344165Y-97087147D01*
X119302900Y-97100347D01*
X119242431Y-97104489D01*
X119173956Y-97104489D01*
X119173956Y-97142841D01*
X119174006Y-97151976D01*
X119176227Y-97169227D01*
X119185494Y-97179521D01*
X119206875Y-97186459D01*
X119245436Y-97193641D01*
X119250910Y-97194575D01*
X119347860Y-97204478D01*
X119437852Y-97201559D01*
X119518760Y-97186829D01*
X119588459Y-97161299D01*
X119644824Y-97125978D01*
X119685729Y-97081879D01*
X119709051Y-97030012D01*
X119712663Y-96971388D01*
X119707145Y-96942494D01*
X119680461Y-96886604D01*
X119634273Y-96840945D01*
X119569291Y-96806108D01*
X119486229Y-96782690D01*
X119461555Y-96778241D01*
X119372226Y-96767742D01*
X119292419Y-96768971D01*
X119214326Y-96781906D01*
X119179183Y-96788696D01*
X119133745Y-96789713D01*
X119102430Y-96777182D01*
X119082277Y-96750395D01*
X119075893Y-96722148D01*
X119085379Y-96690924D01*
X119094708Y-96677499D01*
X119128943Y-96653967D01*
X119181565Y-96636095D01*
X119250081Y-96624599D01*
X119332000Y-96620192D01*
X119429150Y-96624179D01*
G36*
X119429150Y-96624179D02*
G01*
X119535157Y-96640494D01*
X119628969Y-96668545D01*
X119707765Y-96707452D01*
X119768719Y-96756334D01*
X119794789Y-96789195D01*
X119824297Y-96838394D01*
X119849568Y-96892252D01*
X119867218Y-96943419D01*
X119873858Y-96984544D01*
X119872298Y-97004259D01*
X119859357Y-97055592D01*
X119836194Y-97112118D01*
X119806302Y-97166035D01*
X119773173Y-97209539D01*
X119762977Y-97219887D01*
X119695892Y-97271662D01*
X119615766Y-97311554D01*
X119529556Y-97335956D01*
X119474592Y-97344068D01*
X119381139Y-97350673D01*
X119291358Y-97348586D01*
X119208869Y-97338340D01*
X119137286Y-97320470D01*
X119080228Y-97295508D01*
X119041311Y-97263988D01*
X119039936Y-97262012D01*
X119032848Y-97236786D01*
X119028609Y-97189535D01*
X119027200Y-97120071D01*
X119028060Y-97057838D01*
X119032780Y-97010456D01*
X119044470Y-96978353D01*
X119066239Y-96958800D01*
X119101198Y-96949070D01*
X119152456Y-96946433D01*
X119223123Y-96948161D01*
X119271743Y-96951173D01*
X119321939Y-96959366D01*
X119354433Y-96973419D01*
X119371892Y-96994654D01*
X119376983Y-97024394D01*
X119376877Y-97028936D01*
X119368175Y-97063730D01*
X119344165Y-97087147D01*
X119302900Y-97100347D01*
X119242431Y-97104489D01*
X119173956Y-97104489D01*
X119173956Y-97142841D01*
X119174006Y-97151976D01*
X119176227Y-97169227D01*
X119185494Y-97179521D01*
X119206875Y-97186459D01*
X119245436Y-97193641D01*
X119250910Y-97194575D01*
X119347860Y-97204478D01*
X119437852Y-97201559D01*
X119518760Y-97186829D01*
X119588459Y-97161299D01*
X119644824Y-97125978D01*
X119685729Y-97081879D01*
X119709051Y-97030012D01*
X119712663Y-96971388D01*
X119707145Y-96942494D01*
X119680461Y-96886604D01*
X119634273Y-96840945D01*
X119569291Y-96806108D01*
X119486229Y-96782690D01*
X119461555Y-96778241D01*
X119372226Y-96767742D01*
X119292419Y-96768971D01*
X119214326Y-96781906D01*
X119179183Y-96788696D01*
X119133745Y-96789713D01*
X119102430Y-96777182D01*
X119082277Y-96750395D01*
X119075893Y-96722148D01*
X119085379Y-96690924D01*
X119094708Y-96677499D01*
X119128943Y-96653967D01*
X119181565Y-96636095D01*
X119250081Y-96624599D01*
X119332000Y-96620192D01*
X119429150Y-96624179D01*
G37*
X117479803Y-96648811D02*
X117484752Y-96655495D01*
X117490596Y-96666066D01*
X117495057Y-96680153D01*
X117498321Y-96700478D01*
X117500574Y-96729765D01*
X117502002Y-96770737D01*
X117502792Y-96826117D01*
X117503129Y-96898628D01*
X117503200Y-96990994D01*
X117503171Y-97056911D01*
X117502939Y-97135228D01*
X117502319Y-97195496D01*
X117501126Y-97240393D01*
X117499179Y-97272602D01*
X117496294Y-97294800D01*
X117492288Y-97309669D01*
X117486979Y-97319889D01*
X117480183Y-97328138D01*
X117475668Y-97332795D01*
X117467438Y-97339282D01*
X117456078Y-97344194D01*
X117438810Y-97347749D01*
X117412855Y-97350167D01*
X117375436Y-97351667D01*
X117323773Y-97352467D01*
X117255089Y-97352787D01*
X117166606Y-97352845D01*
X117146931Y-97352838D01*
X117059906Y-97352572D01*
X116992254Y-97351806D01*
X116941299Y-97350392D01*
X116904367Y-97348180D01*
X116878783Y-97345022D01*
X116861871Y-97340769D01*
X116850957Y-97335271D01*
X116840464Y-97325285D01*
X116827203Y-97294168D01*
X116828386Y-97258280D01*
X116844550Y-97226733D01*
X116846739Y-97224457D01*
X116855427Y-97218189D01*
X116868769Y-97213523D01*
X116889752Y-97210227D01*
X116921363Y-97208068D01*
X116966590Y-97206814D01*
X117028420Y-97206231D01*
X117109839Y-97206089D01*
X117356445Y-97206089D01*
X117356445Y-97048045D01*
X117194006Y-97048045D01*
X117158338Y-97047964D01*
X117102568Y-97047167D01*
X117063430Y-97045162D01*
X117036976Y-97041521D01*
X117019259Y-97035812D01*
X117006329Y-97027607D01*
X117002686Y-97024423D01*
X116984278Y-96993448D01*
X116983644Y-96957112D01*
X117001183Y-96923493D01*
X117001245Y-96923424D01*
X117010916Y-96914798D01*
X117024209Y-96908742D01*
X117044917Y-96904811D01*
X117076828Y-96902556D01*
X117123734Y-96901531D01*
X117189424Y-96901289D01*
X117357571Y-96901289D01*
X117354186Y-96836378D01*
X117350800Y-96771467D01*
X117108723Y-96768414D01*
X117083707Y-96768086D01*
X117002087Y-96766606D01*
X116939768Y-96764222D01*
X116894154Y-96760227D01*
X116862652Y-96753913D01*
X116842667Y-96744574D01*
X116831604Y-96731503D01*
X116826869Y-96713992D01*
X116825867Y-96691335D01*
X116825873Y-96688970D01*
X116827027Y-96668939D01*
X116831824Y-96653146D01*
X116842632Y-96641090D01*
X116861817Y-96632267D01*
X116891745Y-96626175D01*
X116934783Y-96622311D01*
X116993299Y-96620174D01*
X117069657Y-96619260D01*
X117166226Y-96619067D01*
X117456406Y-96619067D01*
X117479803Y-96648811D01*
G36*
X117479803Y-96648811D02*
G01*
X117484752Y-96655495D01*
X117490596Y-96666066D01*
X117495057Y-96680153D01*
X117498321Y-96700478D01*
X117500574Y-96729765D01*
X117502002Y-96770737D01*
X117502792Y-96826117D01*
X117503129Y-96898628D01*
X117503200Y-96990994D01*
X117503171Y-97056911D01*
X117502939Y-97135228D01*
X117502319Y-97195496D01*
X117501126Y-97240393D01*
X117499179Y-97272602D01*
X117496294Y-97294800D01*
X117492288Y-97309669D01*
X117486979Y-97319889D01*
X117480183Y-97328138D01*
X117475668Y-97332795D01*
X117467438Y-97339282D01*
X117456078Y-97344194D01*
X117438810Y-97347749D01*
X117412855Y-97350167D01*
X117375436Y-97351667D01*
X117323773Y-97352467D01*
X117255089Y-97352787D01*
X117166606Y-97352845D01*
X117146931Y-97352838D01*
X117059906Y-97352572D01*
X116992254Y-97351806D01*
X116941299Y-97350392D01*
X116904367Y-97348180D01*
X116878783Y-97345022D01*
X116861871Y-97340769D01*
X116850957Y-97335271D01*
X116840464Y-97325285D01*
X116827203Y-97294168D01*
X116828386Y-97258280D01*
X116844550Y-97226733D01*
X116846739Y-97224457D01*
X116855427Y-97218189D01*
X116868769Y-97213523D01*
X116889752Y-97210227D01*
X116921363Y-97208068D01*
X116966590Y-97206814D01*
X117028420Y-97206231D01*
X117109839Y-97206089D01*
X117356445Y-97206089D01*
X117356445Y-97048045D01*
X117194006Y-97048045D01*
X117158338Y-97047964D01*
X117102568Y-97047167D01*
X117063430Y-97045162D01*
X117036976Y-97041521D01*
X117019259Y-97035812D01*
X117006329Y-97027607D01*
X117002686Y-97024423D01*
X116984278Y-96993448D01*
X116983644Y-96957112D01*
X117001183Y-96923493D01*
X117001245Y-96923424D01*
X117010916Y-96914798D01*
X117024209Y-96908742D01*
X117044917Y-96904811D01*
X117076828Y-96902556D01*
X117123734Y-96901531D01*
X117189424Y-96901289D01*
X117357571Y-96901289D01*
X117354186Y-96836378D01*
X117350800Y-96771467D01*
X117108723Y-96768414D01*
X117083707Y-96768086D01*
X117002087Y-96766606D01*
X116939768Y-96764222D01*
X116894154Y-96760227D01*
X116862652Y-96753913D01*
X116842667Y-96744574D01*
X116831604Y-96731503D01*
X116826869Y-96713992D01*
X116825867Y-96691335D01*
X116825873Y-96688970D01*
X116827027Y-96668939D01*
X116831824Y-96653146D01*
X116842632Y-96641090D01*
X116861817Y-96632267D01*
X116891745Y-96626175D01*
X116934783Y-96622311D01*
X116993299Y-96620174D01*
X117069657Y-96619260D01*
X117166226Y-96619067D01*
X117456406Y-96619067D01*
X117479803Y-96648811D01*
G37*
X122156734Y-96619083D02*
X122233831Y-96619275D01*
X122292777Y-96619860D01*
X122336364Y-96621051D01*
X122367383Y-96623064D01*
X122388625Y-96626112D01*
X122402882Y-96630409D01*
X122412945Y-96636172D01*
X122421606Y-96643612D01*
X122423391Y-96645293D01*
X122430635Y-96652832D01*
X122436277Y-96661850D01*
X122440517Y-96674984D01*
X122443556Y-96694872D01*
X122445594Y-96724151D01*
X122446830Y-96765458D01*
X122447465Y-96821431D01*
X122447700Y-96894707D01*
X122447734Y-96987923D01*
X122447697Y-97060713D01*
X122447448Y-97138889D01*
X122446812Y-97199103D01*
X122445615Y-97243982D01*
X122443684Y-97276152D01*
X122440846Y-97298239D01*
X122436927Y-97312870D01*
X122431755Y-97322670D01*
X122425156Y-97330267D01*
X122421822Y-97333444D01*
X122413300Y-97339554D01*
X122401298Y-97344229D01*
X122383087Y-97347659D01*
X122355940Y-97350036D01*
X122317129Y-97351552D01*
X122263924Y-97352398D01*
X122193598Y-97352765D01*
X122103422Y-97352845D01*
X122061314Y-97352833D01*
X121980167Y-97352651D01*
X121917675Y-97352098D01*
X121871109Y-97350982D01*
X121837741Y-97349113D01*
X121814844Y-97346298D01*
X121799688Y-97342346D01*
X121789546Y-97337066D01*
X121781689Y-97330267D01*
X121766963Y-97308667D01*
X121759111Y-97279467D01*
X121764610Y-97255560D01*
X121781689Y-97228667D01*
X121786668Y-97224059D01*
X121796443Y-97217772D01*
X121810559Y-97213146D01*
X121832054Y-97209930D01*
X121863968Y-97207870D01*
X121909342Y-97206712D01*
X121971213Y-97206202D01*
X122052622Y-97206089D01*
X122300978Y-97206089D01*
X122300978Y-97048045D01*
X122139801Y-97048045D01*
X122103983Y-97047899D01*
X122038359Y-97046176D01*
X121991118Y-97041741D01*
X121959383Y-97033637D01*
X121940277Y-97020906D01*
X121930923Y-97002592D01*
X121928445Y-96977738D01*
X121929242Y-96957482D01*
X121934494Y-96935656D01*
X121947288Y-96920304D01*
X121970628Y-96910309D01*
X122007517Y-96904553D01*
X122060959Y-96901919D01*
X122133958Y-96901289D01*
X122302105Y-96901289D01*
X122298719Y-96836378D01*
X122295334Y-96771467D01*
X122047617Y-96768418D01*
X121985026Y-96767539D01*
X121916565Y-96766095D01*
X121865661Y-96764164D01*
X121829408Y-96761514D01*
X121804901Y-96757910D01*
X121789235Y-96753121D01*
X121779506Y-96746913D01*
X121773491Y-96740510D01*
X121760482Y-96708828D01*
X121764043Y-96673142D01*
X121783818Y-96642084D01*
X121787069Y-96639161D01*
X121796049Y-96632810D01*
X121808153Y-96627957D01*
X121826159Y-96624403D01*
X121852847Y-96621946D01*
X121890997Y-96620385D01*
X121943386Y-96619518D01*
X122012794Y-96619146D01*
X122102001Y-96619067D01*
X122156734Y-96619083D01*
G36*
X122156734Y-96619083D02*
G01*
X122233831Y-96619275D01*
X122292777Y-96619860D01*
X122336364Y-96621051D01*
X122367383Y-96623064D01*
X122388625Y-96626112D01*
X122402882Y-96630409D01*
X122412945Y-96636172D01*
X122421606Y-96643612D01*
X122423391Y-96645293D01*
X122430635Y-96652832D01*
X122436277Y-96661850D01*
X122440517Y-96674984D01*
X122443556Y-96694872D01*
X122445594Y-96724151D01*
X122446830Y-96765458D01*
X122447465Y-96821431D01*
X122447700Y-96894707D01*
X122447734Y-96987923D01*
X122447697Y-97060713D01*
X122447448Y-97138889D01*
X122446812Y-97199103D01*
X122445615Y-97243982D01*
X122443684Y-97276152D01*
X122440846Y-97298239D01*
X122436927Y-97312870D01*
X122431755Y-97322670D01*
X122425156Y-97330267D01*
X122421822Y-97333444D01*
X122413300Y-97339554D01*
X122401298Y-97344229D01*
X122383087Y-97347659D01*
X122355940Y-97350036D01*
X122317129Y-97351552D01*
X122263924Y-97352398D01*
X122193598Y-97352765D01*
X122103422Y-97352845D01*
X122061314Y-97352833D01*
X121980167Y-97352651D01*
X121917675Y-97352098D01*
X121871109Y-97350982D01*
X121837741Y-97349113D01*
X121814844Y-97346298D01*
X121799688Y-97342346D01*
X121789546Y-97337066D01*
X121781689Y-97330267D01*
X121766963Y-97308667D01*
X121759111Y-97279467D01*
X121764610Y-97255560D01*
X121781689Y-97228667D01*
X121786668Y-97224059D01*
X121796443Y-97217772D01*
X121810559Y-97213146D01*
X121832054Y-97209930D01*
X121863968Y-97207870D01*
X121909342Y-97206712D01*
X121971213Y-97206202D01*
X122052622Y-97206089D01*
X122300978Y-97206089D01*
X122300978Y-97048045D01*
X122139801Y-97048045D01*
X122103983Y-97047899D01*
X122038359Y-97046176D01*
X121991118Y-97041741D01*
X121959383Y-97033637D01*
X121940277Y-97020906D01*
X121930923Y-97002592D01*
X121928445Y-96977738D01*
X121929242Y-96957482D01*
X121934494Y-96935656D01*
X121947288Y-96920304D01*
X121970628Y-96910309D01*
X122007517Y-96904553D01*
X122060959Y-96901919D01*
X122133958Y-96901289D01*
X122302105Y-96901289D01*
X122298719Y-96836378D01*
X122295334Y-96771467D01*
X122047617Y-96768418D01*
X121985026Y-96767539D01*
X121916565Y-96766095D01*
X121865661Y-96764164D01*
X121829408Y-96761514D01*
X121804901Y-96757910D01*
X121789235Y-96753121D01*
X121779506Y-96746913D01*
X121773491Y-96740510D01*
X121760482Y-96708828D01*
X121764043Y-96673142D01*
X121783818Y-96642084D01*
X121787069Y-96639161D01*
X121796049Y-96632810D01*
X121808153Y-96627957D01*
X121826159Y-96624403D01*
X121852847Y-96621946D01*
X121890997Y-96620385D01*
X121943386Y-96619518D01*
X122012794Y-96619146D01*
X122102001Y-96619067D01*
X122156734Y-96619083D01*
G37*
X113589702Y-96628478D02*
X113607663Y-96646989D01*
X113628263Y-96678071D01*
X113653095Y-96723756D01*
X113683750Y-96786078D01*
X113721820Y-96867071D01*
X113736454Y-96898454D01*
X113766203Y-96961638D01*
X113792297Y-97016244D01*
X113813292Y-97059290D01*
X113827739Y-97087793D01*
X113834191Y-97098770D01*
X113835550Y-97098189D01*
X113845542Y-97084242D01*
X113862833Y-97054704D01*
X113885430Y-97013087D01*
X113911338Y-96962903D01*
X113927311Y-96931414D01*
X113956261Y-96876061D01*
X113978749Y-96837044D01*
X113996965Y-96811566D01*
X114013096Y-96796831D01*
X114029330Y-96790042D01*
X114047857Y-96788400D01*
X114058360Y-96788875D01*
X114074476Y-96793082D01*
X114089790Y-96803946D01*
X114106388Y-96824219D01*
X114126357Y-96856654D01*
X114151783Y-96904004D01*
X114184752Y-96969022D01*
X114194485Y-96988277D01*
X114218943Y-97034946D01*
X114239178Y-97071109D01*
X114253311Y-97093497D01*
X114259460Y-97098845D01*
X114260827Y-97095573D01*
X114270202Y-97074664D01*
X114287062Y-97037725D01*
X114309979Y-96987874D01*
X114337520Y-96928226D01*
X114368255Y-96861898D01*
X114394970Y-96804677D01*
X114424593Y-96742688D01*
X114447664Y-96696949D01*
X114465643Y-96664908D01*
X114479990Y-96644014D01*
X114492166Y-96631718D01*
X114503632Y-96625466D01*
X114513042Y-96622574D01*
X114538147Y-96622425D01*
X114565290Y-96637768D01*
X114566590Y-96638753D01*
X114588674Y-96661388D01*
X114599723Y-96683613D01*
X114599769Y-96684253D01*
X114595228Y-96701915D01*
X114582364Y-96736481D01*
X114562605Y-96784826D01*
X114537381Y-96843825D01*
X114508119Y-96910355D01*
X114476250Y-96981291D01*
X114443201Y-97053507D01*
X114410401Y-97123880D01*
X114379280Y-97189285D01*
X114351265Y-97246597D01*
X114327786Y-97292692D01*
X114310272Y-97324446D01*
X114300151Y-97338733D01*
X114265743Y-97352102D01*
X114224046Y-97345741D01*
X114218681Y-97341044D01*
X114202852Y-97318893D01*
X114180650Y-97282132D01*
X114154233Y-97234415D01*
X114125760Y-97179393D01*
X114045986Y-97020150D01*
X113972799Y-97166742D01*
X113963103Y-97186032D01*
X113936125Y-97238380D01*
X113912096Y-97283170D01*
X113893332Y-97316154D01*
X113882146Y-97333089D01*
X113881000Y-97334332D01*
X113852879Y-97349619D01*
X113817817Y-97351302D01*
X113786776Y-97338733D01*
X113784350Y-97335884D01*
X113772090Y-97315259D01*
X113752352Y-97277708D01*
X113726448Y-97225880D01*
X113695685Y-97162423D01*
X113661375Y-97089985D01*
X113624825Y-97011216D01*
X113604585Y-96967093D01*
X113567812Y-96886365D01*
X113539355Y-96822687D01*
X113518331Y-96773752D01*
X113503854Y-96737257D01*
X113495039Y-96710895D01*
X113491004Y-96692361D01*
X113490862Y-96679352D01*
X113493730Y-96669561D01*
X113508387Y-96648678D01*
X113534990Y-96628377D01*
X113535745Y-96628035D01*
X113555335Y-96621034D01*
X113572790Y-96620504D01*
X113589702Y-96628478D01*
G36*
X113589702Y-96628478D02*
G01*
X113607663Y-96646989D01*
X113628263Y-96678071D01*
X113653095Y-96723756D01*
X113683750Y-96786078D01*
X113721820Y-96867071D01*
X113736454Y-96898454D01*
X113766203Y-96961638D01*
X113792297Y-97016244D01*
X113813292Y-97059290D01*
X113827739Y-97087793D01*
X113834191Y-97098770D01*
X113835550Y-97098189D01*
X113845542Y-97084242D01*
X113862833Y-97054704D01*
X113885430Y-97013087D01*
X113911338Y-96962903D01*
X113927311Y-96931414D01*
X113956261Y-96876061D01*
X113978749Y-96837044D01*
X113996965Y-96811566D01*
X114013096Y-96796831D01*
X114029330Y-96790042D01*
X114047857Y-96788400D01*
X114058360Y-96788875D01*
X114074476Y-96793082D01*
X114089790Y-96803946D01*
X114106388Y-96824219D01*
X114126357Y-96856654D01*
X114151783Y-96904004D01*
X114184752Y-96969022D01*
X114194485Y-96988277D01*
X114218943Y-97034946D01*
X114239178Y-97071109D01*
X114253311Y-97093497D01*
X114259460Y-97098845D01*
X114260827Y-97095573D01*
X114270202Y-97074664D01*
X114287062Y-97037725D01*
X114309979Y-96987874D01*
X114337520Y-96928226D01*
X114368255Y-96861898D01*
X114394970Y-96804677D01*
X114424593Y-96742688D01*
X114447664Y-96696949D01*
X114465643Y-96664908D01*
X114479990Y-96644014D01*
X114492166Y-96631718D01*
X114503632Y-96625466D01*
X114513042Y-96622574D01*
X114538147Y-96622425D01*
X114565290Y-96637768D01*
X114566590Y-96638753D01*
X114588674Y-96661388D01*
X114599723Y-96683613D01*
X114599769Y-96684253D01*
X114595228Y-96701915D01*
X114582364Y-96736481D01*
X114562605Y-96784826D01*
X114537381Y-96843825D01*
X114508119Y-96910355D01*
X114476250Y-96981291D01*
X114443201Y-97053507D01*
X114410401Y-97123880D01*
X114379280Y-97189285D01*
X114351265Y-97246597D01*
X114327786Y-97292692D01*
X114310272Y-97324446D01*
X114300151Y-97338733D01*
X114265743Y-97352102D01*
X114224046Y-97345741D01*
X114218681Y-97341044D01*
X114202852Y-97318893D01*
X114180650Y-97282132D01*
X114154233Y-97234415D01*
X114125760Y-97179393D01*
X114045986Y-97020150D01*
X113972799Y-97166742D01*
X113963103Y-97186032D01*
X113936125Y-97238380D01*
X113912096Y-97283170D01*
X113893332Y-97316154D01*
X113882146Y-97333089D01*
X113881000Y-97334332D01*
X113852879Y-97349619D01*
X113817817Y-97351302D01*
X113786776Y-97338733D01*
X113784350Y-97335884D01*
X113772090Y-97315259D01*
X113752352Y-97277708D01*
X113726448Y-97225880D01*
X113695685Y-97162423D01*
X113661375Y-97089985D01*
X113624825Y-97011216D01*
X113604585Y-96967093D01*
X113567812Y-96886365D01*
X113539355Y-96822687D01*
X113518331Y-96773752D01*
X113503854Y-96737257D01*
X113495039Y-96710895D01*
X113491004Y-96692361D01*
X113490862Y-96679352D01*
X113493730Y-96669561D01*
X113508387Y-96648678D01*
X113534990Y-96628377D01*
X113535745Y-96628035D01*
X113555335Y-96621034D01*
X113572790Y-96620504D01*
X113589702Y-96628478D01*
G37*
X121140853Y-96619936D02*
X121207100Y-96625366D01*
X121262400Y-96634964D01*
X121313283Y-96649825D01*
X121384595Y-96682958D01*
X121435752Y-96725640D01*
X121466575Y-96777705D01*
X121476889Y-96838983D01*
X121475952Y-96870232D01*
X121470160Y-96895029D01*
X121455353Y-96916699D01*
X121427380Y-96944049D01*
X121419402Y-96951378D01*
X121395692Y-96972281D01*
X121373298Y-96989251D01*
X121349265Y-97003205D01*
X121320637Y-97015056D01*
X121284460Y-97025720D01*
X121237780Y-97036111D01*
X121177641Y-97047146D01*
X121101090Y-97059738D01*
X121005171Y-97074804D01*
X120986808Y-97077838D01*
X120924478Y-97091458D01*
X120879260Y-97107192D01*
X120852976Y-97124263D01*
X120847447Y-97141897D01*
X120850068Y-97146168D01*
X120868000Y-97161233D01*
X120896126Y-97177867D01*
X120908926Y-97183857D01*
X120930224Y-97191050D01*
X120956610Y-97195827D01*
X120992454Y-97198646D01*
X121042128Y-97199964D01*
X121110000Y-97200237D01*
X121127785Y-97200164D01*
X121195406Y-97199053D01*
X121260345Y-97196828D01*
X121315970Y-97193762D01*
X121355651Y-97190127D01*
X121391162Y-97186059D01*
X121420415Y-97185276D01*
X121439315Y-97189876D01*
X121454429Y-97200551D01*
X121458085Y-97204144D01*
X121474427Y-97235918D01*
X121473107Y-97271572D01*
X121454150Y-97302190D01*
X121433780Y-97313796D01*
X121397796Y-97326491D01*
X121355372Y-97336541D01*
X121351922Y-97337140D01*
X121309252Y-97342356D01*
X121251866Y-97346730D01*
X121186849Y-97349818D01*
X121121289Y-97351177D01*
X121105057Y-97351218D01*
X121006744Y-97348741D01*
X120926692Y-97340735D01*
X120861513Y-97326203D01*
X120807817Y-97304149D01*
X120762216Y-97273576D01*
X120721323Y-97233486D01*
X120701202Y-97207259D01*
X120689576Y-97177712D01*
X120686667Y-97137995D01*
X120686808Y-97126026D01*
X120690681Y-97093345D01*
X120703065Y-97066819D01*
X120728230Y-97035971D01*
X120749442Y-97013831D01*
X120775838Y-96991285D01*
X120805555Y-96972917D01*
X120841785Y-96957661D01*
X120887717Y-96944449D01*
X120946544Y-96932214D01*
X121021456Y-96919889D01*
X121115645Y-96906406D01*
X121160957Y-96899396D01*
X121228911Y-96884837D01*
X121278047Y-96868337D01*
X121307614Y-96850439D01*
X121316864Y-96831685D01*
X121305048Y-96812615D01*
X121271416Y-96793771D01*
X121268370Y-96792557D01*
X121222011Y-96780479D01*
X121159361Y-96772279D01*
X121085927Y-96768119D01*
X121007217Y-96768161D01*
X120928739Y-96772569D01*
X120856000Y-96781505D01*
X120852073Y-96782154D01*
X120803257Y-96789861D01*
X120771005Y-96793473D01*
X120750008Y-96792876D01*
X120734954Y-96787954D01*
X120720534Y-96778596D01*
X120719364Y-96777725D01*
X120694847Y-96747351D01*
X120690054Y-96711850D01*
X120705860Y-96677269D01*
X120710406Y-96672813D01*
X120740020Y-96657673D01*
X120787002Y-96644550D01*
X120847306Y-96633750D01*
X120916888Y-96625581D01*
X120991703Y-96620351D01*
X121067706Y-96618367D01*
X121140853Y-96619936D01*
G36*
X121140853Y-96619936D02*
G01*
X121207100Y-96625366D01*
X121262400Y-96634964D01*
X121313283Y-96649825D01*
X121384595Y-96682958D01*
X121435752Y-96725640D01*
X121466575Y-96777705D01*
X121476889Y-96838983D01*
X121475952Y-96870232D01*
X121470160Y-96895029D01*
X121455353Y-96916699D01*
X121427380Y-96944049D01*
X121419402Y-96951378D01*
X121395692Y-96972281D01*
X121373298Y-96989251D01*
X121349265Y-97003205D01*
X121320637Y-97015056D01*
X121284460Y-97025720D01*
X121237780Y-97036111D01*
X121177641Y-97047146D01*
X121101090Y-97059738D01*
X121005171Y-97074804D01*
X120986808Y-97077838D01*
X120924478Y-97091458D01*
X120879260Y-97107192D01*
X120852976Y-97124263D01*
X120847447Y-97141897D01*
X120850068Y-97146168D01*
X120868000Y-97161233D01*
X120896126Y-97177867D01*
X120908926Y-97183857D01*
X120930224Y-97191050D01*
X120956610Y-97195827D01*
X120992454Y-97198646D01*
X121042128Y-97199964D01*
X121110000Y-97200237D01*
X121127785Y-97200164D01*
X121195406Y-97199053D01*
X121260345Y-97196828D01*
X121315970Y-97193762D01*
X121355651Y-97190127D01*
X121391162Y-97186059D01*
X121420415Y-97185276D01*
X121439315Y-97189876D01*
X121454429Y-97200551D01*
X121458085Y-97204144D01*
X121474427Y-97235918D01*
X121473107Y-97271572D01*
X121454150Y-97302190D01*
X121433780Y-97313796D01*
X121397796Y-97326491D01*
X121355372Y-97336541D01*
X121351922Y-97337140D01*
X121309252Y-97342356D01*
X121251866Y-97346730D01*
X121186849Y-97349818D01*
X121121289Y-97351177D01*
X121105057Y-97351218D01*
X121006744Y-97348741D01*
X120926692Y-97340735D01*
X120861513Y-97326203D01*
X120807817Y-97304149D01*
X120762216Y-97273576D01*
X120721323Y-97233486D01*
X120701202Y-97207259D01*
X120689576Y-97177712D01*
X120686667Y-97137995D01*
X120686808Y-97126026D01*
X120690681Y-97093345D01*
X120703065Y-97066819D01*
X120728230Y-97035971D01*
X120749442Y-97013831D01*
X120775838Y-96991285D01*
X120805555Y-96972917D01*
X120841785Y-96957661D01*
X120887717Y-96944449D01*
X120946544Y-96932214D01*
X121021456Y-96919889D01*
X121115645Y-96906406D01*
X121160957Y-96899396D01*
X121228911Y-96884837D01*
X121278047Y-96868337D01*
X121307614Y-96850439D01*
X121316864Y-96831685D01*
X121305048Y-96812615D01*
X121271416Y-96793771D01*
X121268370Y-96792557D01*
X121222011Y-96780479D01*
X121159361Y-96772279D01*
X121085927Y-96768119D01*
X121007217Y-96768161D01*
X120928739Y-96772569D01*
X120856000Y-96781505D01*
X120852073Y-96782154D01*
X120803257Y-96789861D01*
X120771005Y-96793473D01*
X120750008Y-96792876D01*
X120734954Y-96787954D01*
X120720534Y-96778596D01*
X120719364Y-96777725D01*
X120694847Y-96747351D01*
X120690054Y-96711850D01*
X120705860Y-96677269D01*
X120710406Y-96672813D01*
X120740020Y-96657673D01*
X120787002Y-96644550D01*
X120847306Y-96633750D01*
X120916888Y-96625581D01*
X120991703Y-96620351D01*
X121067706Y-96618367D01*
X121140853Y-96619936D01*
G37*
X117288711Y-92312033D02*
X117384268Y-92329523D01*
X117548558Y-92374564D01*
X117702589Y-92437656D01*
X117848509Y-92519915D01*
X117988466Y-92622457D01*
X118124608Y-92746399D01*
X118168473Y-92791661D01*
X118280758Y-92923865D01*
X118373972Y-93061832D01*
X118450719Y-93209750D01*
X118513603Y-93371803D01*
X118517420Y-93383391D01*
X118567507Y-93569392D01*
X118600899Y-93765521D01*
X118617584Y-93967568D01*
X118617551Y-94171325D01*
X118600791Y-94372581D01*
X118567292Y-94567128D01*
X118517044Y-94750756D01*
X118473190Y-94868053D01*
X118395348Y-95030951D01*
X118301828Y-95184866D01*
X118194822Y-95326671D01*
X118076519Y-95453239D01*
X117949111Y-95561441D01*
X117871606Y-95614120D01*
X117744725Y-95683750D01*
X117607243Y-95742468D01*
X117465716Y-95787587D01*
X117326702Y-95816422D01*
X117312597Y-95818106D01*
X117269153Y-95821434D01*
X117211723Y-95824275D01*
X117146122Y-95826373D01*
X117078167Y-95827468D01*
X116951378Y-95825140D01*
X116803673Y-95812136D01*
X116665779Y-95787133D01*
X116532014Y-95749318D01*
X116508562Y-95740889D01*
X116460612Y-95721408D01*
X116404140Y-95696473D01*
X116342379Y-95667722D01*
X116278563Y-95636790D01*
X116215926Y-95605315D01*
X116157703Y-95574934D01*
X116107127Y-95547283D01*
X116067433Y-95523999D01*
X116041854Y-95506718D01*
X116033625Y-95497079D01*
X116035076Y-95493984D01*
X116046250Y-95474079D01*
X116067134Y-95438420D01*
X116096265Y-95389459D01*
X116132181Y-95329646D01*
X116173420Y-95261433D01*
X116218517Y-95187271D01*
X116399785Y-94890008D01*
X116446315Y-94934539D01*
X116537723Y-95012865D01*
X116651334Y-95087439D01*
X116769122Y-95141474D01*
X116889559Y-95174290D01*
X117011117Y-95185211D01*
X117052585Y-95183868D01*
X117170080Y-95165612D01*
X117280089Y-95126617D01*
X117381430Y-95067670D01*
X117472921Y-94989557D01*
X117553380Y-94893064D01*
X117621627Y-94778978D01*
X117637908Y-94744724D01*
X117683982Y-94621240D01*
X117719106Y-94482918D01*
X117743197Y-94333561D01*
X117756173Y-94176973D01*
X117757949Y-94016956D01*
X117748443Y-93857314D01*
X117727572Y-93701850D01*
X117695252Y-93554366D01*
X117651399Y-93418667D01*
X117613982Y-93332076D01*
X117549185Y-93218688D01*
X117473772Y-93125070D01*
X117387418Y-93050959D01*
X117289795Y-92996094D01*
X117180577Y-92960212D01*
X117059439Y-92943051D01*
X116990038Y-92941880D01*
X116867168Y-92956141D01*
X116751664Y-92991241D01*
X116644953Y-93046682D01*
X116548464Y-93121964D01*
X116532720Y-93136440D01*
X116502150Y-93162962D01*
X116479809Y-93180138D01*
X116469691Y-93184787D01*
X116467706Y-93182597D01*
X116453241Y-93163721D01*
X116429400Y-93130397D01*
X116398029Y-93085380D01*
X116360974Y-93031425D01*
X116320083Y-92971285D01*
X116277202Y-92907718D01*
X116234178Y-92843476D01*
X116192857Y-92781315D01*
X116155086Y-92723991D01*
X116122712Y-92674257D01*
X116097582Y-92634868D01*
X116081542Y-92608580D01*
X116076439Y-92598147D01*
X116081050Y-92593941D01*
X116100267Y-92588933D01*
X116109838Y-92586386D01*
X116137809Y-92575249D01*
X116179448Y-92556802D01*
X116230995Y-92532725D01*
X116288690Y-92504699D01*
X116299957Y-92499154D01*
X116477687Y-92419889D01*
X116647490Y-92360385D01*
X116811430Y-92320245D01*
X116971571Y-92299071D01*
X117129977Y-92296466D01*
X117288711Y-92312033D01*
G36*
X117288711Y-92312033D02*
G01*
X117384268Y-92329523D01*
X117548558Y-92374564D01*
X117702589Y-92437656D01*
X117848509Y-92519915D01*
X117988466Y-92622457D01*
X118124608Y-92746399D01*
X118168473Y-92791661D01*
X118280758Y-92923865D01*
X118373972Y-93061832D01*
X118450719Y-93209750D01*
X118513603Y-93371803D01*
X118517420Y-93383391D01*
X118567507Y-93569392D01*
X118600899Y-93765521D01*
X118617584Y-93967568D01*
X118617551Y-94171325D01*
X118600791Y-94372581D01*
X118567292Y-94567128D01*
X118517044Y-94750756D01*
X118473190Y-94868053D01*
X118395348Y-95030951D01*
X118301828Y-95184866D01*
X118194822Y-95326671D01*
X118076519Y-95453239D01*
X117949111Y-95561441D01*
X117871606Y-95614120D01*
X117744725Y-95683750D01*
X117607243Y-95742468D01*
X117465716Y-95787587D01*
X117326702Y-95816422D01*
X117312597Y-95818106D01*
X117269153Y-95821434D01*
X117211723Y-95824275D01*
X117146122Y-95826373D01*
X117078167Y-95827468D01*
X116951378Y-95825140D01*
X116803673Y-95812136D01*
X116665779Y-95787133D01*
X116532014Y-95749318D01*
X116508562Y-95740889D01*
X116460612Y-95721408D01*
X116404140Y-95696473D01*
X116342379Y-95667722D01*
X116278563Y-95636790D01*
X116215926Y-95605315D01*
X116157703Y-95574934D01*
X116107127Y-95547283D01*
X116067433Y-95523999D01*
X116041854Y-95506718D01*
X116033625Y-95497079D01*
X116035076Y-95493984D01*
X116046250Y-95474079D01*
X116067134Y-95438420D01*
X116096265Y-95389459D01*
X116132181Y-95329646D01*
X116173420Y-95261433D01*
X116218517Y-95187271D01*
X116399785Y-94890008D01*
X116446315Y-94934539D01*
X116537723Y-95012865D01*
X116651334Y-95087439D01*
X116769122Y-95141474D01*
X116889559Y-95174290D01*
X117011117Y-95185211D01*
X117052585Y-95183868D01*
X117170080Y-95165612D01*
X117280089Y-95126617D01*
X117381430Y-95067670D01*
X117472921Y-94989557D01*
X117553380Y-94893064D01*
X117621627Y-94778978D01*
X117637908Y-94744724D01*
X117683982Y-94621240D01*
X117719106Y-94482918D01*
X117743197Y-94333561D01*
X117756173Y-94176973D01*
X117757949Y-94016956D01*
X117748443Y-93857314D01*
X117727572Y-93701850D01*
X117695252Y-93554366D01*
X117651399Y-93418667D01*
X117613982Y-93332076D01*
X117549185Y-93218688D01*
X117473772Y-93125070D01*
X117387418Y-93050959D01*
X117289795Y-92996094D01*
X117180577Y-92960212D01*
X117059439Y-92943051D01*
X116990038Y-92941880D01*
X116867168Y-92956141D01*
X116751664Y-92991241D01*
X116644953Y-93046682D01*
X116548464Y-93121964D01*
X116532720Y-93136440D01*
X116502150Y-93162962D01*
X116479809Y-93180138D01*
X116469691Y-93184787D01*
X116467706Y-93182597D01*
X116453241Y-93163721D01*
X116429400Y-93130397D01*
X116398029Y-93085380D01*
X116360974Y-93031425D01*
X116320083Y-92971285D01*
X116277202Y-92907718D01*
X116234178Y-92843476D01*
X116192857Y-92781315D01*
X116155086Y-92723991D01*
X116122712Y-92674257D01*
X116097582Y-92634868D01*
X116081542Y-92608580D01*
X116076439Y-92598147D01*
X116081050Y-92593941D01*
X116100267Y-92588933D01*
X116109838Y-92586386D01*
X116137809Y-92575249D01*
X116179448Y-92556802D01*
X116230995Y-92532725D01*
X116288690Y-92504699D01*
X116299957Y-92499154D01*
X116477687Y-92419889D01*
X116647490Y-92360385D01*
X116811430Y-92320245D01*
X116971571Y-92299071D01*
X117129977Y-92296466D01*
X117288711Y-92312033D01*
G37*
X113485994Y-94592711D02*
X113485268Y-94670158D01*
X113476689Y-94821594D01*
X113457833Y-94958283D01*
X113427837Y-95084276D01*
X113385836Y-95203625D01*
X113330969Y-95320381D01*
X113264167Y-95431179D01*
X113173363Y-95544739D01*
X113069708Y-95640211D01*
X112953887Y-95717073D01*
X112826586Y-95774797D01*
X112688489Y-95812858D01*
X112650793Y-95818666D01*
X112571752Y-95824396D01*
X112483629Y-95824583D01*
X112394236Y-95819539D01*
X112311384Y-95809578D01*
X112242887Y-95795012D01*
X112212035Y-95785364D01*
X112134730Y-95755123D01*
X112057679Y-95717617D01*
X111988200Y-95676614D01*
X111933615Y-95635879D01*
X111910916Y-95616505D01*
X111888201Y-95598662D01*
X111876779Y-95591778D01*
X111875537Y-95593424D01*
X111872728Y-95611205D01*
X111870776Y-95644370D01*
X111870045Y-95687733D01*
X111870045Y-95783689D01*
X111011896Y-95783689D01*
X111046161Y-95722974D01*
X111051355Y-95713868D01*
X111059715Y-95699249D01*
X111067288Y-95685173D01*
X111074112Y-95670540D01*
X111080227Y-95654249D01*
X111085673Y-95635198D01*
X111090487Y-95612286D01*
X111094708Y-95584413D01*
X111098377Y-95550478D01*
X111101531Y-95509379D01*
X111104211Y-95460015D01*
X111106454Y-95401286D01*
X111108299Y-95332090D01*
X111109787Y-95251326D01*
X111110955Y-95157894D01*
X111111844Y-95050692D01*
X111112491Y-94928620D01*
X111112936Y-94790576D01*
X111113218Y-94635459D01*
X111113375Y-94462168D01*
X111113448Y-94269603D01*
X111113474Y-94056662D01*
X111113485Y-93920530D01*
X111915200Y-93920530D01*
X111915200Y-95070721D01*
X111985756Y-95117089D01*
X112026417Y-95140791D01*
X112080546Y-95166639D01*
X112129689Y-95184829D01*
X112193165Y-95200551D01*
X112289331Y-95211541D01*
X112373900Y-95203365D01*
X112447219Y-95175805D01*
X112509637Y-95128642D01*
X112561502Y-95061658D01*
X112603160Y-94974633D01*
X112634962Y-94867350D01*
X112637545Y-94855009D01*
X112646000Y-94793772D01*
X112651663Y-94716692D01*
X112654576Y-94629002D01*
X112654783Y-94535934D01*
X112652330Y-94442720D01*
X112647261Y-94354594D01*
X112639619Y-94276788D01*
X112629448Y-94214533D01*
X112628167Y-94208666D01*
X112599126Y-94098121D01*
X112564610Y-94007575D01*
X112523456Y-93934953D01*
X112474499Y-93878181D01*
X112416574Y-93835184D01*
X112384620Y-93819615D01*
X112311784Y-93800722D01*
X112230443Y-93797465D01*
X112145319Y-93809389D01*
X112061133Y-93836040D01*
X111982608Y-93876962D01*
X111915200Y-93920530D01*
X111113485Y-93920530D01*
X111113493Y-93822245D01*
X111113689Y-92137378D01*
X112019017Y-92137378D01*
X111994585Y-92174067D01*
X111988318Y-92183647D01*
X111962208Y-92229981D01*
X111944469Y-92277102D01*
X111932908Y-92332251D01*
X111925331Y-92402667D01*
X111924839Y-92409650D01*
X111923062Y-92447641D01*
X111921444Y-92501576D01*
X111919999Y-92568703D01*
X111918740Y-92646271D01*
X111917680Y-92731528D01*
X111916829Y-92821724D01*
X111916203Y-92914107D01*
X111915812Y-93005925D01*
X111915670Y-93094427D01*
X111915790Y-93176862D01*
X111916183Y-93250479D01*
X111916862Y-93312526D01*
X111917841Y-93360251D01*
X111919132Y-93390904D01*
X111920747Y-93401733D01*
X111928957Y-93397333D01*
X111950647Y-93382362D01*
X111980014Y-93360448D01*
X112028879Y-93326236D01*
X112117125Y-93279714D01*
X112215916Y-93246046D01*
X112328510Y-93224231D01*
X112458164Y-93213265D01*
X112550670Y-93212219D01*
X112672011Y-93222014D01*
X112782099Y-93246174D01*
X112885389Y-93285785D01*
X112986338Y-93341932D01*
X113031503Y-93372883D01*
X113136911Y-93464115D01*
X113228538Y-93573106D01*
X113306332Y-93699726D01*
X113370241Y-93843845D01*
X113420214Y-94005332D01*
X113456198Y-94184059D01*
X113478143Y-94379895D01*
X113483900Y-94535934D01*
X113485994Y-94592711D01*
G36*
X113485994Y-94592711D02*
G01*
X113485268Y-94670158D01*
X113476689Y-94821594D01*
X113457833Y-94958283D01*
X113427837Y-95084276D01*
X113385836Y-95203625D01*
X113330969Y-95320381D01*
X113264167Y-95431179D01*
X113173363Y-95544739D01*
X113069708Y-95640211D01*
X112953887Y-95717073D01*
X112826586Y-95774797D01*
X112688489Y-95812858D01*
X112650793Y-95818666D01*
X112571752Y-95824396D01*
X112483629Y-95824583D01*
X112394236Y-95819539D01*
X112311384Y-95809578D01*
X112242887Y-95795012D01*
X112212035Y-95785364D01*
X112134730Y-95755123D01*
X112057679Y-95717617D01*
X111988200Y-95676614D01*
X111933615Y-95635879D01*
X111910916Y-95616505D01*
X111888201Y-95598662D01*
X111876779Y-95591778D01*
X111875537Y-95593424D01*
X111872728Y-95611205D01*
X111870776Y-95644370D01*
X111870045Y-95687733D01*
X111870045Y-95783689D01*
X111011896Y-95783689D01*
X111046161Y-95722974D01*
X111051355Y-95713868D01*
X111059715Y-95699249D01*
X111067288Y-95685173D01*
X111074112Y-95670540D01*
X111080227Y-95654249D01*
X111085673Y-95635198D01*
X111090487Y-95612286D01*
X111094708Y-95584413D01*
X111098377Y-95550478D01*
X111101531Y-95509379D01*
X111104211Y-95460015D01*
X111106454Y-95401286D01*
X111108299Y-95332090D01*
X111109787Y-95251326D01*
X111110955Y-95157894D01*
X111111844Y-95050692D01*
X111112491Y-94928620D01*
X111112936Y-94790576D01*
X111113218Y-94635459D01*
X111113375Y-94462168D01*
X111113448Y-94269603D01*
X111113474Y-94056662D01*
X111113485Y-93920530D01*
X111915200Y-93920530D01*
X111915200Y-95070721D01*
X111985756Y-95117089D01*
X112026417Y-95140791D01*
X112080546Y-95166639D01*
X112129689Y-95184829D01*
X112193165Y-95200551D01*
X112289331Y-95211541D01*
X112373900Y-95203365D01*
X112447219Y-95175805D01*
X112509637Y-95128642D01*
X112561502Y-95061658D01*
X112603160Y-94974633D01*
X112634962Y-94867350D01*
X112637545Y-94855009D01*
X112646000Y-94793772D01*
X112651663Y-94716692D01*
X112654576Y-94629002D01*
X112654783Y-94535934D01*
X112652330Y-94442720D01*
X112647261Y-94354594D01*
X112639619Y-94276788D01*
X112629448Y-94214533D01*
X112628167Y-94208666D01*
X112599126Y-94098121D01*
X112564610Y-94007575D01*
X112523456Y-93934953D01*
X112474499Y-93878181D01*
X112416574Y-93835184D01*
X112384620Y-93819615D01*
X112311784Y-93800722D01*
X112230443Y-93797465D01*
X112145319Y-93809389D01*
X112061133Y-93836040D01*
X111982608Y-93876962D01*
X111915200Y-93920530D01*
X111113485Y-93920530D01*
X111113493Y-93822245D01*
X111113689Y-92137378D01*
X112019017Y-92137378D01*
X111994585Y-92174067D01*
X111988318Y-92183647D01*
X111962208Y-92229981D01*
X111944469Y-92277102D01*
X111932908Y-92332251D01*
X111925331Y-92402667D01*
X111924839Y-92409650D01*
X111923062Y-92447641D01*
X111921444Y-92501576D01*
X111919999Y-92568703D01*
X111918740Y-92646271D01*
X111917680Y-92731528D01*
X111916829Y-92821724D01*
X111916203Y-92914107D01*
X111915812Y-93005925D01*
X111915670Y-93094427D01*
X111915790Y-93176862D01*
X111916183Y-93250479D01*
X111916862Y-93312526D01*
X111917841Y-93360251D01*
X111919132Y-93390904D01*
X111920747Y-93401733D01*
X111928957Y-93397333D01*
X111950647Y-93382362D01*
X111980014Y-93360448D01*
X112028879Y-93326236D01*
X112117125Y-93279714D01*
X112215916Y-93246046D01*
X112328510Y-93224231D01*
X112458164Y-93213265D01*
X112550670Y-93212219D01*
X112672011Y-93222014D01*
X112782099Y-93246174D01*
X112885389Y-93285785D01*
X112986338Y-93341932D01*
X113031503Y-93372883D01*
X113136911Y-93464115D01*
X113228538Y-93573106D01*
X113306332Y-93699726D01*
X113370241Y-93843845D01*
X113420214Y-94005332D01*
X113456198Y-94184059D01*
X113478143Y-94379895D01*
X113483900Y-94535934D01*
X113485994Y-94592711D01*
G37*
X116027755Y-94993467D02*
X116027261Y-95027363D01*
X116023632Y-95102202D01*
X116016022Y-95164401D01*
X116003688Y-95220984D01*
X115959313Y-95347076D01*
X115896400Y-95461679D01*
X115816238Y-95562568D01*
X115719740Y-95648924D01*
X115607822Y-95719932D01*
X115481397Y-95774776D01*
X115341378Y-95812638D01*
X115305149Y-95818351D01*
X115226155Y-95824313D01*
X115137841Y-95824646D01*
X115048075Y-95819659D01*
X114964722Y-95809666D01*
X114895651Y-95794978D01*
X114809187Y-95764749D01*
X114699286Y-95710057D01*
X114601956Y-95642543D01*
X114539867Y-95591556D01*
X114536605Y-95687622D01*
X114533343Y-95783689D01*
X114110450Y-95783689D01*
X114099543Y-95783686D01*
X114005056Y-95783380D01*
X113918331Y-95782616D01*
X113841837Y-95781451D01*
X113778043Y-95779942D01*
X113729418Y-95778147D01*
X113698433Y-95776121D01*
X113687556Y-95773922D01*
X113687578Y-95773463D01*
X113694614Y-95757910D01*
X113710434Y-95735071D01*
X113714734Y-95729638D01*
X113725777Y-95715606D01*
X113735311Y-95702186D01*
X113743461Y-95687722D01*
X113750352Y-95670556D01*
X113756111Y-95649034D01*
X113760862Y-95621498D01*
X113764731Y-95586292D01*
X113767844Y-95541760D01*
X113770325Y-95486246D01*
X113772300Y-95418093D01*
X113773894Y-95335645D01*
X113775234Y-95237246D01*
X113776444Y-95121239D01*
X113777649Y-94985968D01*
X113778595Y-94874586D01*
X114579378Y-94874586D01*
X114579378Y-95070462D01*
X114624048Y-95126973D01*
X114636785Y-95142212D01*
X114683604Y-95184844D01*
X114744255Y-95220672D01*
X114754897Y-95225850D01*
X114793676Y-95242745D01*
X114828692Y-95252909D01*
X114868722Y-95258325D01*
X114922541Y-95260978D01*
X114940648Y-95261383D01*
X115016011Y-95258540D01*
X115076743Y-95246620D01*
X115128452Y-95224037D01*
X115176746Y-95189211D01*
X115181803Y-95184798D01*
X115230272Y-95129160D01*
X115258459Y-95065333D01*
X115267752Y-94990282D01*
X115260520Y-94918693D01*
X115235796Y-94855645D01*
X115191249Y-94797758D01*
X115136319Y-94750808D01*
X115063894Y-94710961D01*
X114977340Y-94683263D01*
X114874670Y-94667096D01*
X114753894Y-94661842D01*
X114745007Y-94661857D01*
X114689660Y-94662655D01*
X114642736Y-94664488D01*
X114608953Y-94667111D01*
X114593028Y-94670274D01*
X114588943Y-94676741D01*
X114584572Y-94698875D01*
X114581604Y-94737988D01*
X114579914Y-94795939D01*
X114579378Y-94874586D01*
X113778595Y-94874586D01*
X113778975Y-94829778D01*
X113780228Y-94687012D01*
X113781651Y-94541942D01*
X113783176Y-94416027D01*
X113784933Y-94307436D01*
X113787051Y-94214334D01*
X113789660Y-94134891D01*
X113792890Y-94067273D01*
X113796869Y-94009649D01*
X113801728Y-93960185D01*
X113807597Y-93917050D01*
X113814604Y-93878410D01*
X113822880Y-93842434D01*
X113832554Y-93807289D01*
X113843756Y-93771142D01*
X113856616Y-93732161D01*
X113872090Y-93689091D01*
X113914994Y-93596871D01*
X113968735Y-93517099D01*
X114037576Y-93442965D01*
X114115185Y-93379405D01*
X114219761Y-93317725D01*
X114339244Y-93270202D01*
X114474508Y-93236567D01*
X114626426Y-93216552D01*
X114795872Y-93209889D01*
X114853890Y-93210287D01*
X114919398Y-93212335D01*
X114980693Y-93216704D01*
X115042097Y-93224035D01*
X115107932Y-93234969D01*
X115182520Y-93250147D01*
X115270184Y-93270209D01*
X115375245Y-93295797D01*
X115403806Y-93302820D01*
X115479054Y-93320776D01*
X115549388Y-93336820D01*
X115610567Y-93350028D01*
X115658354Y-93359474D01*
X115688511Y-93364231D01*
X115716783Y-93367910D01*
X115743060Y-93373187D01*
X115753059Y-93377942D01*
X115749952Y-93386781D01*
X115739194Y-93414072D01*
X115721864Y-93456906D01*
X115699126Y-93512425D01*
X115672147Y-93577772D01*
X115642090Y-93650089D01*
X115635493Y-93665879D01*
X115596907Y-93756484D01*
X115565768Y-93826217D01*
X115541917Y-93875405D01*
X115525198Y-93904374D01*
X115515454Y-93913452D01*
X115507766Y-93911405D01*
X115481415Y-93901760D01*
X115442982Y-93886190D01*
X115397822Y-93866815D01*
X115303293Y-93828814D01*
X115166480Y-93787780D01*
X115025289Y-93762612D01*
X114987314Y-93758611D01*
X114884059Y-93756447D01*
X114796952Y-93769622D01*
X114725129Y-93798756D01*
X114667731Y-93844466D01*
X114623896Y-93907372D01*
X114592762Y-93988092D01*
X114573470Y-94087245D01*
X114566050Y-94146224D01*
X114727936Y-94139445D01*
X114854495Y-94137813D01*
X115005951Y-94144194D01*
X115154396Y-94158777D01*
X115290578Y-94180882D01*
X115355245Y-94195821D01*
X115487490Y-94238741D01*
X115609762Y-94295340D01*
X115719685Y-94364017D01*
X115814883Y-94443170D01*
X115892980Y-94531196D01*
X115951599Y-94626493D01*
X115975595Y-94678864D01*
X116001232Y-94749590D01*
X116017478Y-94820812D01*
X116025822Y-94899712D01*
X116027690Y-94990282D01*
X116027755Y-94993467D01*
G36*
X116027755Y-94993467D02*
G01*
X116027261Y-95027363D01*
X116023632Y-95102202D01*
X116016022Y-95164401D01*
X116003688Y-95220984D01*
X115959313Y-95347076D01*
X115896400Y-95461679D01*
X115816238Y-95562568D01*
X115719740Y-95648924D01*
X115607822Y-95719932D01*
X115481397Y-95774776D01*
X115341378Y-95812638D01*
X115305149Y-95818351D01*
X115226155Y-95824313D01*
X115137841Y-95824646D01*
X115048075Y-95819659D01*
X114964722Y-95809666D01*
X114895651Y-95794978D01*
X114809187Y-95764749D01*
X114699286Y-95710057D01*
X114601956Y-95642543D01*
X114539867Y-95591556D01*
X114536605Y-95687622D01*
X114533343Y-95783689D01*
X114110450Y-95783689D01*
X114099543Y-95783686D01*
X114005056Y-95783380D01*
X113918331Y-95782616D01*
X113841837Y-95781451D01*
X113778043Y-95779942D01*
X113729418Y-95778147D01*
X113698433Y-95776121D01*
X113687556Y-95773922D01*
X113687578Y-95773463D01*
X113694614Y-95757910D01*
X113710434Y-95735071D01*
X113714734Y-95729638D01*
X113725777Y-95715606D01*
X113735311Y-95702186D01*
X113743461Y-95687722D01*
X113750352Y-95670556D01*
X113756111Y-95649034D01*
X113760862Y-95621498D01*
X113764731Y-95586292D01*
X113767844Y-95541760D01*
X113770325Y-95486246D01*
X113772300Y-95418093D01*
X113773894Y-95335645D01*
X113775234Y-95237246D01*
X113776444Y-95121239D01*
X113777649Y-94985968D01*
X113778595Y-94874586D01*
X114579378Y-94874586D01*
X114579378Y-95070462D01*
X114624048Y-95126973D01*
X114636785Y-95142212D01*
X114683604Y-95184844D01*
X114744255Y-95220672D01*
X114754897Y-95225850D01*
X114793676Y-95242745D01*
X114828692Y-95252909D01*
X114868722Y-95258325D01*
X114922541Y-95260978D01*
X114940648Y-95261383D01*
X115016011Y-95258540D01*
X115076743Y-95246620D01*
X115128452Y-95224037D01*
X115176746Y-95189211D01*
X115181803Y-95184798D01*
X115230272Y-95129160D01*
X115258459Y-95065333D01*
X115267752Y-94990282D01*
X115260520Y-94918693D01*
X115235796Y-94855645D01*
X115191249Y-94797758D01*
X115136319Y-94750808D01*
X115063894Y-94710961D01*
X114977340Y-94683263D01*
X114874670Y-94667096D01*
X114753894Y-94661842D01*
X114745007Y-94661857D01*
X114689660Y-94662655D01*
X114642736Y-94664488D01*
X114608953Y-94667111D01*
X114593028Y-94670274D01*
X114588943Y-94676741D01*
X114584572Y-94698875D01*
X114581604Y-94737988D01*
X114579914Y-94795939D01*
X114579378Y-94874586D01*
X113778595Y-94874586D01*
X113778975Y-94829778D01*
X113780228Y-94687012D01*
X113781651Y-94541942D01*
X113783176Y-94416027D01*
X113784933Y-94307436D01*
X113787051Y-94214334D01*
X113789660Y-94134891D01*
X113792890Y-94067273D01*
X113796869Y-94009649D01*
X113801728Y-93960185D01*
X113807597Y-93917050D01*
X113814604Y-93878410D01*
X113822880Y-93842434D01*
X113832554Y-93807289D01*
X113843756Y-93771142D01*
X113856616Y-93732161D01*
X113872090Y-93689091D01*
X113914994Y-93596871D01*
X113968735Y-93517099D01*
X114037576Y-93442965D01*
X114115185Y-93379405D01*
X114219761Y-93317725D01*
X114339244Y-93270202D01*
X114474508Y-93236567D01*
X114626426Y-93216552D01*
X114795872Y-93209889D01*
X114853890Y-93210287D01*
X114919398Y-93212335D01*
X114980693Y-93216704D01*
X115042097Y-93224035D01*
X115107932Y-93234969D01*
X115182520Y-93250147D01*
X115270184Y-93270209D01*
X115375245Y-93295797D01*
X115403806Y-93302820D01*
X115479054Y-93320776D01*
X115549388Y-93336820D01*
X115610567Y-93350028D01*
X115658354Y-93359474D01*
X115688511Y-93364231D01*
X115716783Y-93367910D01*
X115743060Y-93373187D01*
X115753059Y-93377942D01*
X115749952Y-93386781D01*
X115739194Y-93414072D01*
X115721864Y-93456906D01*
X115699126Y-93512425D01*
X115672147Y-93577772D01*
X115642090Y-93650089D01*
X115635493Y-93665879D01*
X115596907Y-93756484D01*
X115565768Y-93826217D01*
X115541917Y-93875405D01*
X115525198Y-93904374D01*
X115515454Y-93913452D01*
X115507766Y-93911405D01*
X115481415Y-93901760D01*
X115442982Y-93886190D01*
X115397822Y-93866815D01*
X115303293Y-93828814D01*
X115166480Y-93787780D01*
X115025289Y-93762612D01*
X114987314Y-93758611D01*
X114884059Y-93756447D01*
X114796952Y-93769622D01*
X114725129Y-93798756D01*
X114667731Y-93844466D01*
X114623896Y-93907372D01*
X114592762Y-93988092D01*
X114573470Y-94087245D01*
X114566050Y-94146224D01*
X114727936Y-94139445D01*
X114854495Y-94137813D01*
X115005951Y-94144194D01*
X115154396Y-94158777D01*
X115290578Y-94180882D01*
X115355245Y-94195821D01*
X115487490Y-94238741D01*
X115609762Y-94295340D01*
X115719685Y-94364017D01*
X115814883Y-94443170D01*
X115892980Y-94531196D01*
X115951599Y-94626493D01*
X115975595Y-94678864D01*
X116001232Y-94749590D01*
X116017478Y-94820812D01*
X116025822Y-94899712D01*
X116027690Y-94990282D01*
X116027755Y-94993467D01*
G37*
X123575614Y-92461792D02*
X123576059Y-92593011D01*
X123576362Y-92740216D01*
X123576548Y-92904349D01*
X123576642Y-93086352D01*
X123576671Y-93287165D01*
X123576661Y-93507732D01*
X123576636Y-93748992D01*
X123576622Y-94011889D01*
X123576622Y-94054040D01*
X123576646Y-94314668D01*
X123576685Y-94553796D01*
X123576708Y-94772360D01*
X123576687Y-94971295D01*
X123576593Y-95151535D01*
X123576395Y-95314015D01*
X123576063Y-95459670D01*
X123575569Y-95589434D01*
X123574883Y-95704243D01*
X123573976Y-95805030D01*
X123572817Y-95892730D01*
X123571378Y-95968279D01*
X123569629Y-96032611D01*
X123567540Y-96086661D01*
X123565083Y-96131363D01*
X123562227Y-96167652D01*
X123558943Y-96196463D01*
X123555202Y-96218731D01*
X123550974Y-96235390D01*
X123546229Y-96247375D01*
X123540939Y-96255621D01*
X123535073Y-96261062D01*
X123528602Y-96264634D01*
X123521497Y-96267270D01*
X123513728Y-96269906D01*
X123505266Y-96273477D01*
X123500908Y-96275145D01*
X123492395Y-96277111D01*
X123479694Y-96278911D01*
X123461885Y-96280555D01*
X123438049Y-96282047D01*
X123407266Y-96283397D01*
X123368617Y-96284611D01*
X123321182Y-96285697D01*
X123264043Y-96286661D01*
X123196279Y-96287511D01*
X123116971Y-96288253D01*
X123025199Y-96288897D01*
X122920044Y-96289447D01*
X122800587Y-96289913D01*
X122665908Y-96290300D01*
X122515088Y-96290616D01*
X122347206Y-96290869D01*
X122161345Y-96291066D01*
X121956583Y-96291213D01*
X121732002Y-96291318D01*
X121486682Y-96291389D01*
X121219704Y-96291432D01*
X121181321Y-96291437D01*
X120915922Y-96291480D01*
X120672050Y-96291525D01*
X120448783Y-96291548D01*
X120245196Y-96291524D01*
X120060367Y-96291430D01*
X119893373Y-96291243D01*
X119743290Y-96290939D01*
X119609196Y-96290494D01*
X119490166Y-96289885D01*
X119385279Y-96289089D01*
X119293610Y-96288080D01*
X119214237Y-96286837D01*
X119146237Y-96285335D01*
X119088686Y-96283551D01*
X119040662Y-96281461D01*
X119001240Y-96279042D01*
X118969499Y-96276270D01*
X118944514Y-96273121D01*
X118925364Y-96269572D01*
X118911123Y-96265598D01*
X118900871Y-96261178D01*
X118893682Y-96256286D01*
X118888635Y-96250900D01*
X118884805Y-96244996D01*
X118881271Y-96238549D01*
X118877108Y-96231537D01*
X118876025Y-96229687D01*
X118873813Y-96224180D01*
X118871786Y-96215868D01*
X118869938Y-96203809D01*
X118868261Y-96187063D01*
X118866745Y-96164687D01*
X118865383Y-96135740D01*
X118864167Y-96099280D01*
X118863089Y-96054367D01*
X118862140Y-96000057D01*
X118861312Y-95935410D01*
X118860597Y-95859484D01*
X118859987Y-95771338D01*
X118859942Y-95762493D01*
X119151378Y-95762493D01*
X119155260Y-95763765D01*
X119178520Y-95765791D01*
X119220874Y-95767626D01*
X119280132Y-95769227D01*
X119354107Y-95770549D01*
X119440610Y-95771548D01*
X119537452Y-95772180D01*
X119642445Y-95772400D01*
X120340651Y-95772400D01*
X121495090Y-95772400D01*
X121494456Y-95696200D01*
X121495574Y-95654160D01*
X121501304Y-95618334D01*
X121513890Y-95580772D01*
X121535568Y-95532577D01*
X121538789Y-95525897D01*
X121564188Y-95476359D01*
X121590996Y-95428369D01*
X121613917Y-95391466D01*
X121618485Y-95384834D01*
X121640516Y-95353593D01*
X121672693Y-95308654D01*
X121713457Y-95252147D01*
X121761245Y-95186204D01*
X121814498Y-95112957D01*
X121871655Y-95034536D01*
X121931155Y-94953072D01*
X121991437Y-94870698D01*
X122050940Y-94789544D01*
X122108105Y-94711742D01*
X122161370Y-94639423D01*
X122209174Y-94574718D01*
X122249957Y-94519759D01*
X122282158Y-94476676D01*
X122304216Y-94447602D01*
X122314571Y-94434667D01*
X122319044Y-94430351D01*
X122323236Y-94428312D01*
X122326643Y-94430926D01*
X122329325Y-94439986D01*
X122331341Y-94457285D01*
X122332748Y-94484614D01*
X122333605Y-94523765D01*
X122333970Y-94576533D01*
X122333903Y-94644707D01*
X122333460Y-94730082D01*
X122332702Y-94834449D01*
X122331685Y-94959600D01*
X122331308Y-95004300D01*
X122330169Y-95125395D01*
X122328972Y-95226688D01*
X122327636Y-95310262D01*
X122326077Y-95378204D01*
X122324215Y-95432599D01*
X122321966Y-95475532D01*
X122319248Y-95509089D01*
X122315979Y-95535355D01*
X122312078Y-95556416D01*
X122307461Y-95574357D01*
X122299192Y-95600770D01*
X122275583Y-95662772D01*
X122249685Y-95715573D01*
X122224535Y-95752645D01*
X122223339Y-95754075D01*
X122221168Y-95758424D01*
X122223328Y-95762026D01*
X122231644Y-95764951D01*
X122247940Y-95767269D01*
X122274041Y-95769051D01*
X122311771Y-95770367D01*
X122362956Y-95771286D01*
X122429420Y-95771878D01*
X122512987Y-95772215D01*
X122615483Y-95772365D01*
X122738732Y-95772400D01*
X123270296Y-95772400D01*
X123231523Y-95714783D01*
X123225432Y-95705893D01*
X123214976Y-95691069D01*
X123205579Y-95677422D01*
X123197183Y-95663765D01*
X123189733Y-95648911D01*
X123183173Y-95631670D01*
X123177446Y-95610855D01*
X123172495Y-95585280D01*
X123168266Y-95553755D01*
X123164701Y-95515093D01*
X123161744Y-95468107D01*
X123159340Y-95411608D01*
X123157431Y-95344409D01*
X123155962Y-95265322D01*
X123154876Y-95173160D01*
X123154118Y-95066734D01*
X123153630Y-94944857D01*
X123153358Y-94806341D01*
X123153243Y-94649999D01*
X123153231Y-94474642D01*
X123153265Y-94279082D01*
X123153289Y-94062133D01*
X123153280Y-93939513D01*
X123153243Y-93734447D01*
X123153227Y-93550116D01*
X123153288Y-93385334D01*
X123153484Y-93238916D01*
X123153870Y-93109674D01*
X123154505Y-92996422D01*
X123155444Y-92897975D01*
X123156745Y-92813144D01*
X123158464Y-92740744D01*
X123160659Y-92679589D01*
X123163385Y-92628492D01*
X123166701Y-92586267D01*
X123170662Y-92551727D01*
X123175325Y-92523686D01*
X123180747Y-92500958D01*
X123186986Y-92482356D01*
X123194097Y-92466693D01*
X123202138Y-92452784D01*
X123211166Y-92439441D01*
X123221236Y-92425479D01*
X123232407Y-92409711D01*
X123272197Y-92351867D01*
X122212314Y-92351867D01*
X122250311Y-92414966D01*
X122264993Y-92440005D01*
X122279531Y-92467586D01*
X122291627Y-92495700D01*
X122301532Y-92526551D01*
X122309494Y-92562344D01*
X122315761Y-92605283D01*
X122320582Y-92657574D01*
X122324206Y-92721419D01*
X122326881Y-92799025D01*
X122328857Y-92892594D01*
X122330382Y-93004333D01*
X122331704Y-93136445D01*
X122332613Y-93256434D01*
X122333020Y-93373063D01*
X122332767Y-93468531D01*
X122331857Y-93542556D01*
X122330293Y-93594855D01*
X122328079Y-93625149D01*
X122325220Y-93633156D01*
X122322161Y-93629858D01*
X122304006Y-93608408D01*
X122274275Y-93571889D01*
X122234639Y-93522442D01*
X122186771Y-93462207D01*
X122132343Y-93393327D01*
X122073027Y-93317943D01*
X122010495Y-93238196D01*
X121946421Y-93156228D01*
X121882475Y-93074180D01*
X121820331Y-92994194D01*
X121761661Y-92918411D01*
X121708137Y-92848973D01*
X121661430Y-92788021D01*
X121623214Y-92737696D01*
X121595161Y-92700140D01*
X121578943Y-92677495D01*
X121533635Y-92605212D01*
X121493661Y-92525463D01*
X121472130Y-92457188D01*
X121468827Y-92399844D01*
X121474116Y-92351867D01*
X120342356Y-92352117D01*
X120381867Y-92382722D01*
X120391248Y-92390089D01*
X120454183Y-92444438D01*
X120522997Y-92512259D01*
X120599596Y-92595516D01*
X120685888Y-92696178D01*
X120703052Y-92716847D01*
X120743833Y-92766409D01*
X120793588Y-92827326D01*
X120850955Y-92897898D01*
X120914569Y-92976424D01*
X120983069Y-93061204D01*
X121055090Y-93150537D01*
X121129270Y-93242722D01*
X121144517Y-93261702D01*
X121204246Y-93336060D01*
X121278653Y-93428848D01*
X121351131Y-93519388D01*
X121420314Y-93605978D01*
X121484841Y-93686918D01*
X121543347Y-93760506D01*
X121594470Y-93825044D01*
X121636847Y-93878829D01*
X121669115Y-93920162D01*
X121689910Y-93947342D01*
X121697869Y-93958668D01*
X121696111Y-93962771D01*
X121683230Y-93983334D01*
X121658885Y-94019561D01*
X121624247Y-94069824D01*
X121580486Y-94132492D01*
X121528775Y-94205936D01*
X121470284Y-94288527D01*
X121406184Y-94378636D01*
X121337646Y-94474631D01*
X121265843Y-94574885D01*
X121191944Y-94677768D01*
X121117121Y-94781650D01*
X121042545Y-94884901D01*
X120969387Y-94985892D01*
X120898819Y-95082994D01*
X120832011Y-95174577D01*
X120770135Y-95259011D01*
X120714361Y-95334667D01*
X120665862Y-95399916D01*
X120625807Y-95453128D01*
X120595369Y-95492673D01*
X120574944Y-95518026D01*
X120528899Y-95572295D01*
X120478612Y-95628775D01*
X120431815Y-95678669D01*
X120340651Y-95772400D01*
X119642445Y-95772400D01*
X119711356Y-95772349D01*
X119809607Y-95772091D01*
X119899030Y-95771637D01*
X119977333Y-95771010D01*
X120042223Y-95770235D01*
X120091411Y-95769335D01*
X120122604Y-95768334D01*
X120133511Y-95767257D01*
X120132322Y-95764037D01*
X120122176Y-95746452D01*
X120105040Y-95720158D01*
X120096540Y-95707691D01*
X120087329Y-95693622D01*
X120079233Y-95679351D01*
X120072185Y-95663479D01*
X120066117Y-95644609D01*
X120060961Y-95621341D01*
X120056651Y-95592278D01*
X120053119Y-95556021D01*
X120050297Y-95511170D01*
X120048118Y-95456328D01*
X120046514Y-95390097D01*
X120045419Y-95311077D01*
X120044765Y-95217871D01*
X120044484Y-95109079D01*
X120044509Y-94983303D01*
X120044772Y-94839145D01*
X120045206Y-94675207D01*
X120045745Y-94490089D01*
X120046279Y-94311232D01*
X120046805Y-94152374D01*
X120047350Y-94013316D01*
X120047945Y-93892665D01*
X120048619Y-93789028D01*
X120049403Y-93701011D01*
X120050326Y-93627223D01*
X120051419Y-93566269D01*
X120052712Y-93516757D01*
X120054235Y-93477293D01*
X120056019Y-93446484D01*
X120058092Y-93422938D01*
X120060486Y-93405260D01*
X120063230Y-93392059D01*
X120066356Y-93381940D01*
X120069892Y-93373511D01*
X120073791Y-93365375D01*
X120093438Y-93328544D01*
X120112225Y-93298391D01*
X120113272Y-93296908D01*
X120127602Y-93274659D01*
X120133511Y-93261702D01*
X120132504Y-93261249D01*
X120115305Y-93259803D01*
X120078656Y-93258480D01*
X120024962Y-93257316D01*
X119956630Y-93256347D01*
X119876064Y-93255611D01*
X119785670Y-93255142D01*
X119687853Y-93254978D01*
X119242195Y-93254978D01*
X119239120Y-94431845D01*
X119236045Y-95608711D01*
X119209407Y-95667622D01*
X119197485Y-95692183D01*
X119180246Y-95722434D01*
X119167074Y-95739560D01*
X119159076Y-95747591D01*
X119151378Y-95762493D01*
X118859942Y-95762493D01*
X118859474Y-95670029D01*
X118859050Y-95554617D01*
X118858706Y-95424160D01*
X118858434Y-95277716D01*
X118858227Y-95114344D01*
X118858076Y-94933101D01*
X118857972Y-94733048D01*
X118857908Y-94513241D01*
X118857876Y-94272739D01*
X118857867Y-94010602D01*
X118857867Y-91819031D01*
X118896249Y-91780649D01*
X118923355Y-91756911D01*
X118950253Y-91745111D01*
X118986560Y-91742267D01*
X119038489Y-91742267D01*
X119038489Y-91830206D01*
X119040427Y-91880102D01*
X119059199Y-91990523D01*
X119096217Y-92091987D01*
X119149369Y-92183152D01*
X119216546Y-92262673D01*
X119295638Y-92329205D01*
X119384534Y-92381406D01*
X119481125Y-92417930D01*
X119583300Y-92437434D01*
X119688950Y-92438573D01*
X119795964Y-92420005D01*
X119902232Y-92380384D01*
X119999219Y-92322516D01*
X120084293Y-92247684D01*
X120153015Y-92159615D01*
X120203918Y-92060616D01*
X120235535Y-91952993D01*
X120246400Y-91839054D01*
X120246400Y-91742267D01*
X121866753Y-91742267D01*
X122077897Y-91742280D01*
X122282020Y-91742330D01*
X122465686Y-91742430D01*
X122629991Y-91742592D01*
X122776029Y-91742829D01*
X122904894Y-91743153D01*
X123017683Y-91743575D01*
X123115488Y-91744109D01*
X123199404Y-91744767D01*
X123270527Y-91745561D01*
X123329950Y-91746504D01*
X123378768Y-91747608D01*
X123418077Y-91748884D01*
X123448969Y-91750347D01*
X123472541Y-91752007D01*
X123489886Y-91753878D01*
X123502099Y-91755972D01*
X123510275Y-91758300D01*
X123515508Y-91760876D01*
X123521504Y-91764445D01*
X123528279Y-91767978D01*
X123534478Y-91771488D01*
X123540126Y-91775918D01*
X123545247Y-91782208D01*
X123549869Y-91791301D01*
X123554015Y-91804139D01*
X123557713Y-91821662D01*
X123560987Y-91844813D01*
X123563863Y-91874534D01*
X123566367Y-91911765D01*
X123568524Y-91957449D01*
X123570360Y-92012527D01*
X123571900Y-92077941D01*
X123573170Y-92154633D01*
X123574195Y-92243544D01*
X123575001Y-92345617D01*
X123575034Y-92351867D01*
X123575614Y-92461792D01*
G36*
X123575614Y-92461792D02*
G01*
X123576059Y-92593011D01*
X123576362Y-92740216D01*
X123576548Y-92904349D01*
X123576642Y-93086352D01*
X123576671Y-93287165D01*
X123576661Y-93507732D01*
X123576636Y-93748992D01*
X123576622Y-94011889D01*
X123576622Y-94054040D01*
X123576646Y-94314668D01*
X123576685Y-94553796D01*
X123576708Y-94772360D01*
X123576687Y-94971295D01*
X123576593Y-95151535D01*
X123576395Y-95314015D01*
X123576063Y-95459670D01*
X123575569Y-95589434D01*
X123574883Y-95704243D01*
X123573976Y-95805030D01*
X123572817Y-95892730D01*
X123571378Y-95968279D01*
X123569629Y-96032611D01*
X123567540Y-96086661D01*
X123565083Y-96131363D01*
X123562227Y-96167652D01*
X123558943Y-96196463D01*
X123555202Y-96218731D01*
X123550974Y-96235390D01*
X123546229Y-96247375D01*
X123540939Y-96255621D01*
X123535073Y-96261062D01*
X123528602Y-96264634D01*
X123521497Y-96267270D01*
X123513728Y-96269906D01*
X123505266Y-96273477D01*
X123500908Y-96275145D01*
X123492395Y-96277111D01*
X123479694Y-96278911D01*
X123461885Y-96280555D01*
X123438049Y-96282047D01*
X123407266Y-96283397D01*
X123368617Y-96284611D01*
X123321182Y-96285697D01*
X123264043Y-96286661D01*
X123196279Y-96287511D01*
X123116971Y-96288253D01*
X123025199Y-96288897D01*
X122920044Y-96289447D01*
X122800587Y-96289913D01*
X122665908Y-96290300D01*
X122515088Y-96290616D01*
X122347206Y-96290869D01*
X122161345Y-96291066D01*
X121956583Y-96291213D01*
X121732002Y-96291318D01*
X121486682Y-96291389D01*
X121219704Y-96291432D01*
X121181321Y-96291437D01*
X120915922Y-96291480D01*
X120672050Y-96291525D01*
X120448783Y-96291548D01*
X120245196Y-96291524D01*
X120060367Y-96291430D01*
X119893373Y-96291243D01*
X119743290Y-96290939D01*
X119609196Y-96290494D01*
X119490166Y-96289885D01*
X119385279Y-96289089D01*
X119293610Y-96288080D01*
X119214237Y-96286837D01*
X119146237Y-96285335D01*
X119088686Y-96283551D01*
X119040662Y-96281461D01*
X119001240Y-96279042D01*
X118969499Y-96276270D01*
X118944514Y-96273121D01*
X118925364Y-96269572D01*
X118911123Y-96265598D01*
X118900871Y-96261178D01*
X118893682Y-96256286D01*
X118888635Y-96250900D01*
X118884805Y-96244996D01*
X118881271Y-96238549D01*
X118877108Y-96231537D01*
X118876025Y-96229687D01*
X118873813Y-96224180D01*
X118871786Y-96215868D01*
X118869938Y-96203809D01*
X118868261Y-96187063D01*
X118866745Y-96164687D01*
X118865383Y-96135740D01*
X118864167Y-96099280D01*
X118863089Y-96054367D01*
X118862140Y-96000057D01*
X118861312Y-95935410D01*
X118860597Y-95859484D01*
X118859987Y-95771338D01*
X118859942Y-95762493D01*
X119151378Y-95762493D01*
X119155260Y-95763765D01*
X119178520Y-95765791D01*
X119220874Y-95767626D01*
X119280132Y-95769227D01*
X119354107Y-95770549D01*
X119440610Y-95771548D01*
X119537452Y-95772180D01*
X119642445Y-95772400D01*
X120340651Y-95772400D01*
X121495090Y-95772400D01*
X121494456Y-95696200D01*
X121495574Y-95654160D01*
X121501304Y-95618334D01*
X121513890Y-95580772D01*
X121535568Y-95532577D01*
X121538789Y-95525897D01*
X121564188Y-95476359D01*
X121590996Y-95428369D01*
X121613917Y-95391466D01*
X121618485Y-95384834D01*
X121640516Y-95353593D01*
X121672693Y-95308654D01*
X121713457Y-95252147D01*
X121761245Y-95186204D01*
X121814498Y-95112957D01*
X121871655Y-95034536D01*
X121931155Y-94953072D01*
X121991437Y-94870698D01*
X122050940Y-94789544D01*
X122108105Y-94711742D01*
X122161370Y-94639423D01*
X122209174Y-94574718D01*
X122249957Y-94519759D01*
X122282158Y-94476676D01*
X122304216Y-94447602D01*
X122314571Y-94434667D01*
X122319044Y-94430351D01*
X122323236Y-94428312D01*
X122326643Y-94430926D01*
X122329325Y-94439986D01*
X122331341Y-94457285D01*
X122332748Y-94484614D01*
X122333605Y-94523765D01*
X122333970Y-94576533D01*
X122333903Y-94644707D01*
X122333460Y-94730082D01*
X122332702Y-94834449D01*
X122331685Y-94959600D01*
X122331308Y-95004300D01*
X122330169Y-95125395D01*
X122328972Y-95226688D01*
X122327636Y-95310262D01*
X122326077Y-95378204D01*
X122324215Y-95432599D01*
X122321966Y-95475532D01*
X122319248Y-95509089D01*
X122315979Y-95535355D01*
X122312078Y-95556416D01*
X122307461Y-95574357D01*
X122299192Y-95600770D01*
X122275583Y-95662772D01*
X122249685Y-95715573D01*
X122224535Y-95752645D01*
X122223339Y-95754075D01*
X122221168Y-95758424D01*
X122223328Y-95762026D01*
X122231644Y-95764951D01*
X122247940Y-95767269D01*
X122274041Y-95769051D01*
X122311771Y-95770367D01*
X122362956Y-95771286D01*
X122429420Y-95771878D01*
X122512987Y-95772215D01*
X122615483Y-95772365D01*
X122738732Y-95772400D01*
X123270296Y-95772400D01*
X123231523Y-95714783D01*
X123225432Y-95705893D01*
X123214976Y-95691069D01*
X123205579Y-95677422D01*
X123197183Y-95663765D01*
X123189733Y-95648911D01*
X123183173Y-95631670D01*
X123177446Y-95610855D01*
X123172495Y-95585280D01*
X123168266Y-95553755D01*
X123164701Y-95515093D01*
X123161744Y-95468107D01*
X123159340Y-95411608D01*
X123157431Y-95344409D01*
X123155962Y-95265322D01*
X123154876Y-95173160D01*
X123154118Y-95066734D01*
X123153630Y-94944857D01*
X123153358Y-94806341D01*
X123153243Y-94649999D01*
X123153231Y-94474642D01*
X123153265Y-94279082D01*
X123153289Y-94062133D01*
X123153280Y-93939513D01*
X123153243Y-93734447D01*
X123153227Y-93550116D01*
X123153288Y-93385334D01*
X123153484Y-93238916D01*
X123153870Y-93109674D01*
X123154505Y-92996422D01*
X123155444Y-92897975D01*
X123156745Y-92813144D01*
X123158464Y-92740744D01*
X123160659Y-92679589D01*
X123163385Y-92628492D01*
X123166701Y-92586267D01*
X123170662Y-92551727D01*
X123175325Y-92523686D01*
X123180747Y-92500958D01*
X123186986Y-92482356D01*
X123194097Y-92466693D01*
X123202138Y-92452784D01*
X123211166Y-92439441D01*
X123221236Y-92425479D01*
X123232407Y-92409711D01*
X123272197Y-92351867D01*
X122212314Y-92351867D01*
X122250311Y-92414966D01*
X122264993Y-92440005D01*
X122279531Y-92467586D01*
X122291627Y-92495700D01*
X122301532Y-92526551D01*
X122309494Y-92562344D01*
X122315761Y-92605283D01*
X122320582Y-92657574D01*
X122324206Y-92721419D01*
X122326881Y-92799025D01*
X122328857Y-92892594D01*
X122330382Y-93004333D01*
X122331704Y-93136445D01*
X122332613Y-93256434D01*
X122333020Y-93373063D01*
X122332767Y-93468531D01*
X122331857Y-93542556D01*
X122330293Y-93594855D01*
X122328079Y-93625149D01*
X122325220Y-93633156D01*
X122322161Y-93629858D01*
X122304006Y-93608408D01*
X122274275Y-93571889D01*
X122234639Y-93522442D01*
X122186771Y-93462207D01*
X122132343Y-93393327D01*
X122073027Y-93317943D01*
X122010495Y-93238196D01*
X121946421Y-93156228D01*
X121882475Y-93074180D01*
X121820331Y-92994194D01*
X121761661Y-92918411D01*
X121708137Y-92848973D01*
X121661430Y-92788021D01*
X121623214Y-92737696D01*
X121595161Y-92700140D01*
X121578943Y-92677495D01*
X121533635Y-92605212D01*
X121493661Y-92525463D01*
X121472130Y-92457188D01*
X121468827Y-92399844D01*
X121474116Y-92351867D01*
X120342356Y-92352117D01*
X120381867Y-92382722D01*
X120391248Y-92390089D01*
X120454183Y-92444438D01*
X120522997Y-92512259D01*
X120599596Y-92595516D01*
X120685888Y-92696178D01*
X120703052Y-92716847D01*
X120743833Y-92766409D01*
X120793588Y-92827326D01*
X120850955Y-92897898D01*
X120914569Y-92976424D01*
X120983069Y-93061204D01*
X121055090Y-93150537D01*
X121129270Y-93242722D01*
X121144517Y-93261702D01*
X121204246Y-93336060D01*
X121278653Y-93428848D01*
X121351131Y-93519388D01*
X121420314Y-93605978D01*
X121484841Y-93686918D01*
X121543347Y-93760506D01*
X121594470Y-93825044D01*
X121636847Y-93878829D01*
X121669115Y-93920162D01*
X121689910Y-93947342D01*
X121697869Y-93958668D01*
X121696111Y-93962771D01*
X121683230Y-93983334D01*
X121658885Y-94019561D01*
X121624247Y-94069824D01*
X121580486Y-94132492D01*
X121528775Y-94205936D01*
X121470284Y-94288527D01*
X121406184Y-94378636D01*
X121337646Y-94474631D01*
X121265843Y-94574885D01*
X121191944Y-94677768D01*
X121117121Y-94781650D01*
X121042545Y-94884901D01*
X120969387Y-94985892D01*
X120898819Y-95082994D01*
X120832011Y-95174577D01*
X120770135Y-95259011D01*
X120714361Y-95334667D01*
X120665862Y-95399916D01*
X120625807Y-95453128D01*
X120595369Y-95492673D01*
X120574944Y-95518026D01*
X120528899Y-95572295D01*
X120478612Y-95628775D01*
X120431815Y-95678669D01*
X120340651Y-95772400D01*
X119642445Y-95772400D01*
X119711356Y-95772349D01*
X119809607Y-95772091D01*
X119899030Y-95771637D01*
X119977333Y-95771010D01*
X120042223Y-95770235D01*
X120091411Y-95769335D01*
X120122604Y-95768334D01*
X120133511Y-95767257D01*
X120132322Y-95764037D01*
X120122176Y-95746452D01*
X120105040Y-95720158D01*
X120096540Y-95707691D01*
X120087329Y-95693622D01*
X120079233Y-95679351D01*
X120072185Y-95663479D01*
X120066117Y-95644609D01*
X120060961Y-95621341D01*
X120056651Y-95592278D01*
X120053119Y-95556021D01*
X120050297Y-95511170D01*
X120048118Y-95456328D01*
X120046514Y-95390097D01*
X120045419Y-95311077D01*
X120044765Y-95217871D01*
X120044484Y-95109079D01*
X120044509Y-94983303D01*
X120044772Y-94839145D01*
X120045206Y-94675207D01*
X120045745Y-94490089D01*
X120046279Y-94311232D01*
X120046805Y-94152374D01*
X120047350Y-94013316D01*
X120047945Y-93892665D01*
X120048619Y-93789028D01*
X120049403Y-93701011D01*
X120050326Y-93627223D01*
X120051419Y-93566269D01*
X120052712Y-93516757D01*
X120054235Y-93477293D01*
X120056019Y-93446484D01*
X120058092Y-93422938D01*
X120060486Y-93405260D01*
X120063230Y-93392059D01*
X120066356Y-93381940D01*
X120069892Y-93373511D01*
X120073791Y-93365375D01*
X120093438Y-93328544D01*
X120112225Y-93298391D01*
X120113272Y-93296908D01*
X120127602Y-93274659D01*
X120133511Y-93261702D01*
X120132504Y-93261249D01*
X120115305Y-93259803D01*
X120078656Y-93258480D01*
X120024962Y-93257316D01*
X119956630Y-93256347D01*
X119876064Y-93255611D01*
X119785670Y-93255142D01*
X119687853Y-93254978D01*
X119242195Y-93254978D01*
X119239120Y-94431845D01*
X119236045Y-95608711D01*
X119209407Y-95667622D01*
X119197485Y-95692183D01*
X119180246Y-95722434D01*
X119167074Y-95739560D01*
X119159076Y-95747591D01*
X119151378Y-95762493D01*
X118859942Y-95762493D01*
X118859474Y-95670029D01*
X118859050Y-95554617D01*
X118858706Y-95424160D01*
X118858434Y-95277716D01*
X118858227Y-95114344D01*
X118858076Y-94933101D01*
X118857972Y-94733048D01*
X118857908Y-94513241D01*
X118857876Y-94272739D01*
X118857867Y-94010602D01*
X118857867Y-91819031D01*
X118896249Y-91780649D01*
X118923355Y-91756911D01*
X118950253Y-91745111D01*
X118986560Y-91742267D01*
X119038489Y-91742267D01*
X119038489Y-91830206D01*
X119040427Y-91880102D01*
X119059199Y-91990523D01*
X119096217Y-92091987D01*
X119149369Y-92183152D01*
X119216546Y-92262673D01*
X119295638Y-92329205D01*
X119384534Y-92381406D01*
X119481125Y-92417930D01*
X119583300Y-92437434D01*
X119688950Y-92438573D01*
X119795964Y-92420005D01*
X119902232Y-92380384D01*
X119999219Y-92322516D01*
X120084293Y-92247684D01*
X120153015Y-92159615D01*
X120203918Y-92060616D01*
X120235535Y-91952993D01*
X120246400Y-91839054D01*
X120246400Y-91742267D01*
X121866753Y-91742267D01*
X122077897Y-91742280D01*
X122282020Y-91742330D01*
X122465686Y-91742430D01*
X122629991Y-91742592D01*
X122776029Y-91742829D01*
X122904894Y-91743153D01*
X123017683Y-91743575D01*
X123115488Y-91744109D01*
X123199404Y-91744767D01*
X123270527Y-91745561D01*
X123329950Y-91746504D01*
X123378768Y-91747608D01*
X123418077Y-91748884D01*
X123448969Y-91750347D01*
X123472541Y-91752007D01*
X123489886Y-91753878D01*
X123502099Y-91755972D01*
X123510275Y-91758300D01*
X123515508Y-91760876D01*
X123521504Y-91764445D01*
X123528279Y-91767978D01*
X123534478Y-91771488D01*
X123540126Y-91775918D01*
X123545247Y-91782208D01*
X123549869Y-91791301D01*
X123554015Y-91804139D01*
X123557713Y-91821662D01*
X123560987Y-91844813D01*
X123563863Y-91874534D01*
X123566367Y-91911765D01*
X123568524Y-91957449D01*
X123570360Y-92012527D01*
X123571900Y-92077941D01*
X123573170Y-92154633D01*
X123574195Y-92243544D01*
X123575001Y-92345617D01*
X123575034Y-92351867D01*
X123575614Y-92461792D01*
G37*
%LPC*%
D14*
X114732500Y-86550000D03*
D15*
X114732500Y-91550000D03*
D16*
X132787500Y-88587500D03*
X132787500Y-89612500D03*
X133812500Y-88587500D03*
X133812500Y-89612500D03*
D17*
X166117500Y-91550000D03*
D15*
X166117500Y-86550000D03*
%LPD*%
D18*
X110400000Y-98550000D02*
G75*
G02*
X109400000Y-97550000I0J1000000D01*
G01*
X171400000Y-97550000D02*
G75*
G02*
X170400000Y-98550000I-1000000J0D01*
G01*
X170400000Y-98550000D02*
X110400000Y-98550000D01*
X110400000Y-80550000D02*
X170400000Y-80550000D01*
X171400000Y-81550000D02*
X171400000Y-97550000D01*
X170400000Y-80550000D02*
G75*
G02*
X171400000Y-81550000I0J-1000000D01*
G01*
X109400000Y-81550000D02*
G75*
G02*
X110400000Y-80550000I1000000J0D01*
G01*
X109400000Y-97550000D02*
X109400000Y-81550000D01*
M02*
