M48
; DRILL file {KiCad 9.0.4} date 2025-09-21T01:50:17+0530
; FORMAT={-:-/ absolute / metric / decimal}
; #@! TF.CreationDate,2025-09-21T01:50:17+05:30
; #@! TF.GenerationSoftware,Kicad,Pcbnew,9.0.4
; #@! TF.FileFunction,Plated,1,2,PTH
FMAT,2
METRIC
; #@! TA.AperFunction,Plated,PTH,ViaDrill
T1C0.300
; #@! TA.AperFunction,Plated,PTH,ComponentDrill
T2C0.300
; #@! TA.AperFunction,Plated,PTH,ComponentDrill
T3C1.100
%
G90
G05
T1
X119.7Y-31.8
X119.7Y-33.427
X119.7Y-35.427
X119.7Y-52.8
X119.7Y-54.427
X119.7Y-56.427
X119.7Y-73.8
X119.7Y-75.427
X119.7Y-77.427
X119.7Y-94.8
X119.7Y-96.427
X119.7Y-98.427
X119.7Y-115.8
X119.7Y-117.427
X119.7Y-119.427
X121.7Y-31.8
X121.7Y-33.427
X121.7Y-52.8
X121.7Y-54.427
X121.7Y-73.8
X121.7Y-75.427
X121.7Y-94.8
X121.7Y-96.427
X121.7Y-115.8
X121.7Y-117.427
X123.7Y-31.8
X123.7Y-33.427
X123.7Y-52.8
X123.7Y-54.427
X123.7Y-73.8
X123.7Y-75.427
X123.7Y-94.8
X123.7Y-96.427
X123.7Y-115.8
X123.7Y-117.427
X125.7Y-31.8
X125.7Y-33.427
X125.7Y-35.427
X125.7Y-52.8
X125.7Y-54.427
X125.7Y-56.427
X125.7Y-73.8
X125.7Y-75.427
X125.7Y-77.427
X125.7Y-94.8
X125.7Y-96.427
X125.7Y-98.427
X125.7Y-115.8
X125.7Y-117.427
X125.7Y-119.427
X127.7Y-31.8
X127.7Y-33.427
X127.7Y-35.427
X127.7Y-52.8
X127.7Y-54.427
X127.7Y-56.427
X127.7Y-73.8
X127.7Y-75.427
X127.7Y-77.427
X127.7Y-94.8
X127.7Y-96.427
X127.7Y-98.427
X127.7Y-115.8
X127.7Y-117.427
X127.7Y-119.427
X129.7Y-31.8
X129.7Y-33.427
X129.7Y-34.8
X129.7Y-45.427
X129.7Y-46.9
X129.7Y-52.8
X129.7Y-54.427
X129.7Y-55.8
X129.7Y-66.427
X129.7Y-67.9
X129.7Y-73.8
X129.7Y-75.427
X129.7Y-76.8
X129.7Y-87.427
X129.7Y-88.9
X129.7Y-94.8
X129.7Y-96.427
X129.7Y-97.8
X129.7Y-108.427
X129.7Y-109.9
X129.7Y-115.8
X129.7Y-117.427
X129.7Y-118.8
X129.7Y-129.427
X129.7Y-130.9
X131.7Y-31.8
X131.7Y-33.427
X131.7Y-34.8
X131.7Y-45.427
X131.7Y-46.9
X131.7Y-52.8
X131.7Y-54.427
X131.7Y-55.8
X131.7Y-66.427
X131.7Y-67.9
X131.7Y-73.8
X131.7Y-75.427
X131.7Y-76.8
X131.7Y-87.427
X131.7Y-88.9
X131.7Y-94.8
X131.7Y-96.427
X131.7Y-97.8
X131.7Y-108.427
X131.7Y-109.9
X131.7Y-115.8
X131.7Y-117.427
X131.7Y-118.8
X131.7Y-129.427
X131.7Y-130.9
X133.7Y-31.8
X133.7Y-33.427
X133.7Y-34.8
X133.7Y-45.427
X133.7Y-46.9
X133.7Y-52.8
X133.7Y-54.427
X133.7Y-55.8
X133.7Y-66.427
X133.7Y-67.9
X133.7Y-73.8
X133.7Y-75.427
X133.7Y-76.8
X133.7Y-87.427
X133.7Y-88.9
X133.7Y-94.8
X133.7Y-96.427
X133.7Y-97.8
X133.7Y-108.427
X133.7Y-109.9
X133.7Y-115.8
X133.7Y-117.427
X133.7Y-118.8
X133.7Y-129.427
X133.7Y-130.9
X135.7Y-31.75
X135.7Y-33.427
X135.7Y-34.8
X135.7Y-45.427
X135.7Y-46.9
X135.7Y-52.75
X135.7Y-54.427
X135.7Y-55.8
X135.7Y-66.427
X135.7Y-67.9
X135.7Y-73.75
X135.7Y-75.427
X135.7Y-76.8
X135.7Y-87.427
X135.7Y-88.9
X135.7Y-94.75
X135.7Y-96.427
X135.7Y-97.8
X135.7Y-108.427
X135.7Y-109.9
X135.7Y-115.75
X135.7Y-117.427
X135.7Y-118.8
X135.7Y-129.427
X135.7Y-130.9
X137.7Y-31.75
X137.7Y-33.427
X137.7Y-35.427
X137.7Y-52.75
X137.7Y-54.427
X137.7Y-56.427
X137.7Y-73.75
X137.7Y-75.427
X137.7Y-77.427
X137.7Y-94.75
X137.7Y-96.427
X137.7Y-98.427
X137.7Y-115.75
X137.7Y-117.427
X137.7Y-119.427
X138.5Y-36.8
X138.5Y-57.8
X138.5Y-78.8
X138.5Y-99.8
X138.5Y-120.8
X139.7Y-31.75
X139.7Y-33.427
X139.7Y-52.75
X139.7Y-54.427
X139.7Y-73.75
X139.7Y-75.427
X139.7Y-94.75
X139.7Y-96.427
X139.7Y-115.75
X139.7Y-117.427
X140.9Y-42.2
X140.9Y-43.8
X140.9Y-45.45
X140.9Y-63.2
X140.9Y-64.8
X140.9Y-66.45
X140.9Y-84.2
X140.9Y-85.8
X140.9Y-87.45
X140.9Y-105.2
X140.9Y-106.8
X140.9Y-108.45
X140.9Y-126.2
X140.9Y-127.8
X140.9Y-129.45
X141.7Y-31.75
X141.7Y-33.427
X141.7Y-52.75
X141.7Y-54.427
X141.7Y-73.75
X141.7Y-75.427
X141.7Y-94.75
X141.7Y-96.427
X141.7Y-115.75
X141.7Y-117.427
X141.85Y-35.75
X141.85Y-56.75
X141.85Y-77.75
X141.85Y-98.75
X141.85Y-119.75
X142.7Y-43.85
X142.7Y-45.45
X142.7Y-64.85
X142.7Y-66.45
X142.7Y-85.85
X142.7Y-87.45
X142.7Y-106.85
X142.7Y-108.45
X142.7Y-127.85
X142.7Y-129.45
X144.5Y-45.45
X144.5Y-66.45
X144.5Y-87.45
X144.5Y-108.45
X144.5Y-129.45
X145.35Y-40.8
X145.35Y-61.8
X145.35Y-82.8
X145.35Y-103.8
X145.35Y-124.8
X146.35Y-42.4
X146.35Y-63.4
X146.35Y-84.4
X146.35Y-105.4
X146.35Y-126.4
X146.7Y-46.7
X146.7Y-67.7
X146.7Y-88.7
X146.7Y-109.7
X146.7Y-130.7
X147.7Y-41.427
X147.7Y-43.427
X147.7Y-45.427
X147.7Y-62.427
X147.7Y-64.427
X147.7Y-66.427
X147.7Y-83.427
X147.7Y-85.427
X147.7Y-87.427
X147.7Y-104.427
X147.7Y-106.427
X147.7Y-108.427
X147.7Y-125.427
X147.7Y-127.427
X147.7Y-129.427
X149.3Y-40.7
X149.3Y-61.7
X149.3Y-82.7
X149.3Y-103.7
X149.3Y-124.7
X150.5Y-39.55
X150.5Y-60.55
X150.5Y-81.55
X150.5Y-102.55
X150.5Y-123.55
X152.15Y-39.55
X152.15Y-60.55
X152.15Y-81.55
X152.15Y-102.55
X152.15Y-123.55
X153.85Y-39.55
X153.85Y-60.55
X153.85Y-81.55
X153.85Y-102.55
X153.85Y-123.55
X154.9Y-38.5
X154.9Y-59.5
X154.9Y-80.5
X154.9Y-101.5
X154.9Y-122.5
X155.95Y-37.5
X155.95Y-58.5
X155.95Y-79.5
X155.95Y-100.5
X155.95Y-121.5
X156.95Y-36.55
X156.95Y-57.55
X156.95Y-78.55
X156.95Y-99.55
X156.95Y-120.55
X157.9Y-31.75
X157.9Y-33.45
X157.9Y-35.55
X157.9Y-52.75
X157.9Y-54.45
X157.9Y-56.55
X157.9Y-73.75
X157.9Y-75.45
X157.9Y-77.55
X157.9Y-94.75
X157.9Y-96.45
X157.9Y-98.55
X157.9Y-115.75
X157.9Y-117.45
X157.9Y-119.55
X159.7Y-31.75
X159.7Y-33.427
X159.7Y-35.427
X159.7Y-52.75
X159.7Y-54.427
X159.7Y-56.427
X159.7Y-73.75
X159.7Y-75.427
X159.7Y-77.427
X159.7Y-94.75
X159.7Y-96.427
X159.7Y-98.427
X159.7Y-115.75
X159.7Y-117.427
X159.7Y-119.427
X160.9Y-45.15
X160.9Y-46.55
X160.9Y-66.15
X160.9Y-67.55
X160.9Y-87.15
X160.9Y-88.55
X160.9Y-108.15
X160.9Y-109.55
X160.9Y-129.15
X160.9Y-130.55
X161.7Y-31.75
X161.7Y-33.427
X161.7Y-34.85
X161.7Y-52.75
X161.7Y-54.427
X161.7Y-55.85
X161.7Y-73.75
X161.7Y-75.427
X161.7Y-76.85
X161.7Y-94.75
X161.7Y-96.427
X161.7Y-97.85
X161.7Y-115.75
X161.7Y-117.427
X161.7Y-118.85
X162.9Y-45.15
X162.9Y-46.55
X162.9Y-66.15
X162.9Y-67.55
X162.9Y-87.15
X162.9Y-88.55
X162.9Y-108.15
X162.9Y-109.55
X162.9Y-129.15
X162.9Y-130.55
X163.7Y-31.75
X163.7Y-33.427
X163.7Y-34.85
X163.7Y-52.75
X163.7Y-54.427
X163.7Y-55.85
X163.7Y-73.75
X163.7Y-75.427
X163.7Y-76.85
X163.7Y-94.75
X163.7Y-96.427
X163.7Y-97.85
X163.7Y-115.75
X163.7Y-117.427
X163.7Y-118.85
X164.9Y-45.15
X164.9Y-46.55
X164.9Y-66.15
X164.9Y-67.55
X164.9Y-87.15
X164.9Y-88.55
X164.9Y-108.15
X164.9Y-109.55
X164.9Y-129.15
X164.9Y-130.55
X165.7Y-31.75
X165.7Y-33.427
X165.7Y-34.85
X165.7Y-52.75
X165.7Y-54.427
X165.7Y-55.85
X165.7Y-73.75
X165.7Y-75.427
X165.7Y-76.85
X165.7Y-94.75
X165.7Y-96.427
X165.7Y-97.85
X165.7Y-115.75
X165.7Y-117.427
X165.7Y-118.85
X166.9Y-45.15
X166.9Y-46.55
X166.9Y-66.15
X166.9Y-67.55
X166.9Y-87.15
X166.9Y-88.55
X166.9Y-108.15
X166.9Y-109.55
X166.9Y-129.15
X166.9Y-130.55
X167.7Y-31.75
X167.7Y-33.427
X167.7Y-34.85
X167.7Y-52.75
X167.7Y-54.427
X167.7Y-55.85
X167.7Y-73.75
X167.7Y-75.427
X167.7Y-76.85
X167.7Y-94.75
X167.7Y-96.427
X167.7Y-97.85
X167.7Y-115.75
X167.7Y-117.427
X167.7Y-118.85
X169.7Y-31.75
X169.7Y-33.427
X169.7Y-35.427
X169.7Y-52.75
X169.7Y-54.427
X169.7Y-56.427
X169.7Y-73.75
X169.7Y-75.427
X169.7Y-77.427
X169.7Y-94.75
X169.7Y-96.427
X169.7Y-98.427
X169.7Y-115.75
X169.7Y-117.427
X169.7Y-119.427
X171.7Y-31.75
X171.7Y-33.427
X171.7Y-35.427
X171.7Y-52.75
X171.7Y-54.427
X171.7Y-56.427
X171.7Y-73.75
X171.7Y-75.427
X171.7Y-77.427
X171.7Y-94.75
X171.7Y-96.427
X171.7Y-98.427
X171.7Y-115.75
X171.7Y-117.427
X171.7Y-119.427
X173.7Y-31.75
X173.7Y-33.427
X173.7Y-52.75
X173.7Y-54.427
X173.7Y-73.75
X173.7Y-75.427
X173.7Y-94.75
X173.7Y-96.427
X173.7Y-115.75
X173.7Y-117.427
X175.7Y-31.65
X175.7Y-33.427
X175.7Y-35.427
X175.7Y-37.427
X175.7Y-52.65
X175.7Y-54.427
X175.7Y-56.427
X175.7Y-58.427
X175.7Y-73.65
X175.7Y-75.427
X175.7Y-77.427
X175.7Y-79.427
X175.7Y-94.65
X175.7Y-96.427
X175.7Y-98.427
X175.7Y-100.427
X175.7Y-115.65
X175.7Y-117.427
X175.7Y-119.427
X175.7Y-121.427
X177.7Y-31.65
X177.7Y-33.427
X177.7Y-35.427
X177.7Y-37.427
X177.7Y-52.65
X177.7Y-54.427
X177.7Y-56.427
X177.7Y-58.427
X177.7Y-73.65
X177.7Y-75.427
X177.7Y-77.427
X177.7Y-79.427
X177.7Y-94.65
X177.7Y-96.427
X177.7Y-98.427
X177.7Y-100.427
X177.7Y-115.65
X177.7Y-117.427
X177.7Y-119.427
X177.7Y-121.427
T2
X140.487Y-38.337
X140.487Y-39.362
X140.487Y-59.337
X140.487Y-60.362
X140.487Y-80.337
X140.487Y-81.362
X140.487Y-101.337
X140.487Y-102.362
X140.487Y-122.337
X140.487Y-123.362
X141.512Y-38.337
X141.512Y-39.362
X141.512Y-59.337
X141.512Y-60.362
X141.512Y-80.337
X141.512Y-81.362
X141.512Y-101.337
X141.512Y-102.362
X141.512Y-122.337
X141.512Y-123.362
T3
X122.432Y-36.3
X122.432Y-41.3
X122.432Y-57.3
X122.432Y-62.3
X122.432Y-78.3
X122.432Y-83.3
X122.432Y-99.3
X122.432Y-104.3
X122.432Y-120.3
X122.432Y-125.3
X173.817Y-36.3
X173.817Y-41.3
X173.817Y-57.3
X173.817Y-62.3
X173.817Y-78.3
X173.817Y-83.3
X173.817Y-99.3
X173.817Y-104.3
X173.817Y-120.3
X173.817Y-125.3
M30
