%TF.GenerationSoftware,KiCad,Pcbnew,9.0.4*%
%TF.CreationDate,2025-09-21T01:50:17+05:30*%
%TF.ProjectId,panel,70616e65-6c2e-46b6-9963-61645f706362,rev?*%
%TF.SameCoordinates,Original*%
%TF.FileFunction,Drillmap*%
%TF.FilePolarity,Positive*%
%FSLAX45Y45*%
G04 Gerber Fmt 4.5, Leading zero omitted, Abs format (unit mm)*
G04 Created by KiCad (PCBNEW 9.0.4) date 2025-09-21 01:50:17*
%MOMM*%
%LPD*%
G01*
G04 APERTURE LIST*
%ADD10C,0.050000*%
%ADD11C,0.200000*%
G04 APERTURE END LIST*
D10*
X11700000Y-3030000D02*
X17920000Y-3030000D01*
X17920000Y-13230000D01*
X11700000Y-13230000D01*
X11700000Y-3030000D01*
D11*
X11958277Y-13543984D02*
X11958277Y-13343984D01*
X11958277Y-13343984D02*
X12005896Y-13343984D01*
X12005896Y-13343984D02*
X12034467Y-13353508D01*
X12034467Y-13353508D02*
X12053515Y-13372555D01*
X12053515Y-13372555D02*
X12063039Y-13391603D01*
X12063039Y-13391603D02*
X12072562Y-13429698D01*
X12072562Y-13429698D02*
X12072562Y-13458269D01*
X12072562Y-13458269D02*
X12063039Y-13496365D01*
X12063039Y-13496365D02*
X12053515Y-13515412D01*
X12053515Y-13515412D02*
X12034467Y-13534460D01*
X12034467Y-13534460D02*
X12005896Y-13543984D01*
X12005896Y-13543984D02*
X11958277Y-13543984D01*
X12158277Y-13543984D02*
X12158277Y-13410650D01*
X12158277Y-13448746D02*
X12167801Y-13429698D01*
X12167801Y-13429698D02*
X12177324Y-13420174D01*
X12177324Y-13420174D02*
X12196372Y-13410650D01*
X12196372Y-13410650D02*
X12215420Y-13410650D01*
X12282086Y-13543984D02*
X12282086Y-13410650D01*
X12282086Y-13343984D02*
X12272562Y-13353508D01*
X12272562Y-13353508D02*
X12282086Y-13363031D01*
X12282086Y-13363031D02*
X12291610Y-13353508D01*
X12291610Y-13353508D02*
X12282086Y-13343984D01*
X12282086Y-13343984D02*
X12282086Y-13363031D01*
X12405896Y-13543984D02*
X12386848Y-13534460D01*
X12386848Y-13534460D02*
X12377324Y-13515412D01*
X12377324Y-13515412D02*
X12377324Y-13343984D01*
X12510658Y-13543984D02*
X12491610Y-13534460D01*
X12491610Y-13534460D02*
X12482086Y-13515412D01*
X12482086Y-13515412D02*
X12482086Y-13343984D01*
X12739229Y-13543984D02*
X12739229Y-13343984D01*
X12739229Y-13343984D02*
X12805896Y-13486841D01*
X12805896Y-13486841D02*
X12872562Y-13343984D01*
X12872562Y-13343984D02*
X12872562Y-13543984D01*
X13053515Y-13543984D02*
X13053515Y-13439222D01*
X13053515Y-13439222D02*
X13043991Y-13420174D01*
X13043991Y-13420174D02*
X13024943Y-13410650D01*
X13024943Y-13410650D02*
X12986848Y-13410650D01*
X12986848Y-13410650D02*
X12967801Y-13420174D01*
X13053515Y-13534460D02*
X13034467Y-13543984D01*
X13034467Y-13543984D02*
X12986848Y-13543984D01*
X12986848Y-13543984D02*
X12967801Y-13534460D01*
X12967801Y-13534460D02*
X12958277Y-13515412D01*
X12958277Y-13515412D02*
X12958277Y-13496365D01*
X12958277Y-13496365D02*
X12967801Y-13477317D01*
X12967801Y-13477317D02*
X12986848Y-13467793D01*
X12986848Y-13467793D02*
X13034467Y-13467793D01*
X13034467Y-13467793D02*
X13053515Y-13458269D01*
X13148753Y-13410650D02*
X13148753Y-13610650D01*
X13148753Y-13420174D02*
X13167801Y-13410650D01*
X13167801Y-13410650D02*
X13205896Y-13410650D01*
X13205896Y-13410650D02*
X13224943Y-13420174D01*
X13224943Y-13420174D02*
X13234467Y-13429698D01*
X13234467Y-13429698D02*
X13243991Y-13448746D01*
X13243991Y-13448746D02*
X13243991Y-13505888D01*
X13243991Y-13505888D02*
X13234467Y-13524936D01*
X13234467Y-13524936D02*
X13224943Y-13534460D01*
X13224943Y-13534460D02*
X13205896Y-13543984D01*
X13205896Y-13543984D02*
X13167801Y-13543984D01*
X13167801Y-13543984D02*
X13148753Y-13534460D01*
X13329705Y-13524936D02*
X13339229Y-13534460D01*
X13339229Y-13534460D02*
X13329705Y-13543984D01*
X13329705Y-13543984D02*
X13320182Y-13534460D01*
X13320182Y-13534460D02*
X13329705Y-13524936D01*
X13329705Y-13524936D02*
X13329705Y-13543984D01*
X13329705Y-13420174D02*
X13339229Y-13429698D01*
X13339229Y-13429698D02*
X13329705Y-13439222D01*
X13329705Y-13439222D02*
X13320182Y-13429698D01*
X13320182Y-13429698D02*
X13329705Y-13420174D01*
X13329705Y-13420174D02*
X13329705Y-13439222D01*
M02*
