G04 #@! TF.GenerationSoftware,KiCad,Pcbnew,9.0.4*
G04 #@! TF.CreationDate,2025-09-21T01:50:15+05:30*
G04 #@! TF.ProjectId,panel,70616e65-6c2e-46b6-9963-61645f706362,rev?*
G04 #@! TF.SameCoordinates,Original*
G04 #@! TF.FileFunction,Paste,Top*
G04 #@! TF.FilePolarity,Positive*
%FSLAX46Y46*%
G04 Gerber Fmt 4.6, Leading zero omitted, Abs format (unit mm)*
G04 Created by KiCad (PCBNEW 9.0.4) date 2025-09-21 01:50:15*
%MOMM*%
%LPD*%
G01*
G04 APERTURE LIST*
G04 Aperture macros list*
%AMRoundRect*
0 Rectangle with rounded corners*
0 $1 Rounding radius*
0 $2 $3 $4 $5 $6 $7 $8 $9 X,Y pos of 4 corners*
0 Add a 4 corners polygon primitive as box body*
4,1,4,$2,$3,$4,$5,$6,$7,$8,$9,$2,$3,0*
0 Add four circle primitives for the rounded corners*
1,1,$1+$1,$2,$3*
1,1,$1+$1,$4,$5*
1,1,$1+$1,$6,$7*
1,1,$1+$1,$8,$9*
0 Add four rect primitives between the rounded corners*
20,1,$1+$1,$2,$3,$4,$5,0*
20,1,$1+$1,$4,$5,$6,$7,0*
20,1,$1+$1,$6,$7,$8,$9,0*
20,1,$1+$1,$8,$9,$2,$3,0*%
G04 Aperture macros list end*
%ADD10RoundRect,0.225000X0.250000X-0.225000X0.250000X0.225000X-0.250000X0.225000X-0.250000X-0.225000X0*%
%ADD11RoundRect,0.225000X-0.250000X0.225000X-0.250000X-0.225000X0.250000X-0.225000X0.250000X0.225000X0*%
%ADD12RoundRect,0.050000X-0.050000X-1.900000X0.050000X-1.900000X0.050000X1.900000X-0.050000X1.900000X0*%
%ADD13R,0.550000X0.467500*%
%ADD14RoundRect,0.120000X-0.905000X-0.905000X0.905000X-0.905000X0.905000X0.905000X-0.905000X0.905000X0*%
%ADD15RoundRect,0.050000X0.070000X-0.250000X0.070000X0.250000X-0.070000X0.250000X-0.070000X-0.250000X0*%
%ADD16RoundRect,0.050000X-0.250000X-0.070000X0.250000X-0.070000X0.250000X0.070000X-0.250000X0.070000X0*%
%ADD17RoundRect,0.050000X-0.070000X0.250000X-0.070000X-0.250000X0.070000X-0.250000X0.070000X0.250000X0*%
%ADD18RoundRect,0.483900X-1.992600X1.129100X-1.992600X-1.129100X1.992600X-1.129100X1.992600X1.129100X0*%
%ADD19RoundRect,0.200000X-0.275000X0.200000X-0.275000X-0.200000X0.275000X-0.200000X0.275000X0.200000X0*%
%ADD20RoundRect,0.200000X-0.200000X-0.275000X0.200000X-0.275000X0.200000X0.275000X-0.200000X0.275000X0*%
%ADD21RoundRect,0.225000X-0.225000X-0.250000X0.225000X-0.250000X0.225000X0.250000X-0.225000X0.250000X0*%
%ADD22RoundRect,0.200000X0.275000X-0.200000X0.275000X0.200000X-0.275000X0.200000X-0.275000X-0.200000X0*%
G04 #@! TA.AperFunction,Profile*
%ADD23C,0.050000*%
G04 #@! TD*
G04 APERTURE END LIST*
D10*
X132900000Y-104875000D03*
X132900000Y-106425000D03*
X166750000Y-105275000D03*
X166750000Y-106825000D03*
D11*
X140000000Y-109225000D03*
X140000000Y-107675000D03*
D10*
X145400000Y-107675000D03*
X145400000Y-109225000D03*
D11*
X161350000Y-100825000D03*
X161350000Y-99275000D03*
D10*
X163150000Y-105275000D03*
X163150000Y-106825000D03*
X136500000Y-104875000D03*
X136500000Y-106425000D03*
D11*
X134700000Y-100825000D03*
X134700000Y-99275000D03*
D10*
X129300000Y-104875000D03*
X129300000Y-106425000D03*
D12*
X141275000Y-101850000D03*
D13*
X141000000Y-103053800D03*
D14*
X141000000Y-101850000D03*
D13*
X141000000Y-100646200D03*
D12*
X140725000Y-101850000D03*
D15*
X141750000Y-100200000D03*
D16*
X142650000Y-100850000D03*
X142650000Y-101350000D03*
X142650000Y-101850000D03*
X142650000Y-102350000D03*
X142650000Y-102850000D03*
D17*
X141750000Y-103500000D03*
X140250000Y-103500000D03*
D16*
X139350000Y-102850000D03*
X139350000Y-102350000D03*
X139350000Y-101850000D03*
X139350000Y-101350000D03*
X139350000Y-100850000D03*
D15*
X140250000Y-100200000D03*
D18*
X153450000Y-107453000D03*
X153450000Y-95947000D03*
D19*
X143600000Y-109275000D03*
X143600000Y-107625000D03*
D20*
X141025000Y-98000000D03*
X139375000Y-98000000D03*
D10*
X134700000Y-104875000D03*
X134700000Y-106425000D03*
X131100000Y-104875000D03*
X131100000Y-106425000D03*
D11*
X136500000Y-100825000D03*
X136500000Y-99275000D03*
X163150000Y-100825000D03*
X163150000Y-99275000D03*
D21*
X143325000Y-105900000D03*
X141775000Y-105900000D03*
D11*
X132900000Y-100825000D03*
X132900000Y-99275000D03*
X164950000Y-100825000D03*
X164950000Y-99275000D03*
X141800000Y-109225000D03*
X141800000Y-107675000D03*
D20*
X140075000Y-105900000D03*
X138425000Y-105900000D03*
D10*
X164950000Y-105275000D03*
X164950000Y-106825000D03*
D11*
X166750000Y-100825000D03*
X166750000Y-99275000D03*
X131100000Y-100825000D03*
X131100000Y-99275000D03*
X129300000Y-100825000D03*
X129300000Y-99275000D03*
D21*
X144275000Y-98000000D03*
X142725000Y-98000000D03*
D22*
X138200000Y-107625000D03*
X138200000Y-109275000D03*
D10*
X132900000Y-83875000D03*
X132900000Y-85425000D03*
X166750000Y-84275000D03*
X166750000Y-85825000D03*
D11*
X140000000Y-88225000D03*
X140000000Y-86675000D03*
D10*
X145400000Y-86675000D03*
X145400000Y-88225000D03*
D11*
X161350000Y-79825000D03*
X161350000Y-78275000D03*
D10*
X163150000Y-84275000D03*
X163150000Y-85825000D03*
X136500000Y-83875000D03*
X136500000Y-85425000D03*
D11*
X134700000Y-79825000D03*
X134700000Y-78275000D03*
D10*
X129300000Y-83875000D03*
X129300000Y-85425000D03*
D12*
X141275000Y-80850000D03*
D13*
X141000000Y-82053800D03*
D14*
X141000000Y-80850000D03*
D13*
X141000000Y-79646200D03*
D12*
X140725000Y-80850000D03*
D15*
X141750000Y-79200000D03*
D16*
X142650000Y-79850000D03*
X142650000Y-80350000D03*
X142650000Y-80850000D03*
X142650000Y-81350000D03*
X142650000Y-81850000D03*
D17*
X141750000Y-82500000D03*
X140250000Y-82500000D03*
D16*
X139350000Y-81850000D03*
X139350000Y-81350000D03*
X139350000Y-80850000D03*
X139350000Y-80350000D03*
X139350000Y-79850000D03*
D15*
X140250000Y-79200000D03*
D18*
X153450000Y-86453000D03*
X153450000Y-74947000D03*
D19*
X143600000Y-88275000D03*
X143600000Y-86625000D03*
D20*
X141025000Y-77000000D03*
X139375000Y-77000000D03*
D10*
X134700000Y-83875000D03*
X134700000Y-85425000D03*
X131100000Y-83875000D03*
X131100000Y-85425000D03*
D11*
X136500000Y-79825000D03*
X136500000Y-78275000D03*
X163150000Y-79825000D03*
X163150000Y-78275000D03*
D21*
X143325000Y-84900000D03*
X141775000Y-84900000D03*
D11*
X132900000Y-79825000D03*
X132900000Y-78275000D03*
X164950000Y-79825000D03*
X164950000Y-78275000D03*
X141800000Y-88225000D03*
X141800000Y-86675000D03*
D20*
X140075000Y-84900000D03*
X138425000Y-84900000D03*
D10*
X164950000Y-84275000D03*
X164950000Y-85825000D03*
D11*
X166750000Y-79825000D03*
X166750000Y-78275000D03*
X131100000Y-79825000D03*
X131100000Y-78275000D03*
X129300000Y-79825000D03*
X129300000Y-78275000D03*
D21*
X144275000Y-77000000D03*
X142725000Y-77000000D03*
D22*
X138200000Y-86625000D03*
X138200000Y-88275000D03*
D10*
X132900000Y-62875000D03*
X132900000Y-64425000D03*
X166750000Y-63275000D03*
X166750000Y-64825000D03*
D11*
X140000000Y-67225000D03*
X140000000Y-65675000D03*
D10*
X145400000Y-65675000D03*
X145400000Y-67225000D03*
D11*
X161350000Y-58825000D03*
X161350000Y-57275000D03*
D10*
X163150000Y-63275000D03*
X163150000Y-64825000D03*
X136500000Y-62875000D03*
X136500000Y-64425000D03*
D11*
X134700000Y-58825000D03*
X134700000Y-57275000D03*
D10*
X129300000Y-62875000D03*
X129300000Y-64425000D03*
D12*
X141275000Y-59850000D03*
D13*
X141000000Y-61053800D03*
D14*
X141000000Y-59850000D03*
D13*
X141000000Y-58646200D03*
D12*
X140725000Y-59850000D03*
D15*
X141750000Y-58200000D03*
D16*
X142650000Y-58850000D03*
X142650000Y-59350000D03*
X142650000Y-59850000D03*
X142650000Y-60350000D03*
X142650000Y-60850000D03*
D17*
X141750000Y-61500000D03*
X140250000Y-61500000D03*
D16*
X139350000Y-60850000D03*
X139350000Y-60350000D03*
X139350000Y-59850000D03*
X139350000Y-59350000D03*
X139350000Y-58850000D03*
D15*
X140250000Y-58200000D03*
D18*
X153450000Y-65453000D03*
X153450000Y-53947000D03*
D19*
X143600000Y-67275000D03*
X143600000Y-65625000D03*
D20*
X141025000Y-56000000D03*
X139375000Y-56000000D03*
D10*
X134700000Y-62875000D03*
X134700000Y-64425000D03*
X131100000Y-62875000D03*
X131100000Y-64425000D03*
D11*
X136500000Y-58825000D03*
X136500000Y-57275000D03*
X163150000Y-58825000D03*
X163150000Y-57275000D03*
D21*
X143325000Y-63900000D03*
X141775000Y-63900000D03*
D11*
X132900000Y-58825000D03*
X132900000Y-57275000D03*
X164950000Y-58825000D03*
X164950000Y-57275000D03*
X141800000Y-67225000D03*
X141800000Y-65675000D03*
D20*
X140075000Y-63900000D03*
X138425000Y-63900000D03*
D10*
X164950000Y-63275000D03*
X164950000Y-64825000D03*
D11*
X166750000Y-58825000D03*
X166750000Y-57275000D03*
X131100000Y-58825000D03*
X131100000Y-57275000D03*
X129300000Y-58825000D03*
X129300000Y-57275000D03*
D21*
X144275000Y-56000000D03*
X142725000Y-56000000D03*
D22*
X138200000Y-65625000D03*
X138200000Y-67275000D03*
D10*
X132900000Y-41875000D03*
X132900000Y-43425000D03*
X166750000Y-42275000D03*
X166750000Y-43825000D03*
D11*
X140000000Y-46225000D03*
X140000000Y-44675000D03*
D10*
X145400000Y-44675000D03*
X145400000Y-46225000D03*
D11*
X161350000Y-37825000D03*
X161350000Y-36275000D03*
D10*
X163150000Y-42275000D03*
X163150000Y-43825000D03*
X136500000Y-41875000D03*
X136500000Y-43425000D03*
D11*
X134700000Y-37825000D03*
X134700000Y-36275000D03*
D10*
X129300000Y-41875000D03*
X129300000Y-43425000D03*
D12*
X141275000Y-38850000D03*
D13*
X141000000Y-40053800D03*
D14*
X141000000Y-38850000D03*
D13*
X141000000Y-37646200D03*
D12*
X140725000Y-38850000D03*
D15*
X141750000Y-37200000D03*
D16*
X142650000Y-37850000D03*
X142650000Y-38350000D03*
X142650000Y-38850000D03*
X142650000Y-39350000D03*
X142650000Y-39850000D03*
D17*
X141750000Y-40500000D03*
X140250000Y-40500000D03*
D16*
X139350000Y-39850000D03*
X139350000Y-39350000D03*
X139350000Y-38850000D03*
X139350000Y-38350000D03*
X139350000Y-37850000D03*
D15*
X140250000Y-37200000D03*
D18*
X153450000Y-44453000D03*
X153450000Y-32947000D03*
D19*
X143600000Y-46275000D03*
X143600000Y-44625000D03*
D20*
X141025000Y-35000000D03*
X139375000Y-35000000D03*
D10*
X134700000Y-41875000D03*
X134700000Y-43425000D03*
X131100000Y-41875000D03*
X131100000Y-43425000D03*
D11*
X136500000Y-37825000D03*
X136500000Y-36275000D03*
X163150000Y-37825000D03*
X163150000Y-36275000D03*
D21*
X143325000Y-42900000D03*
X141775000Y-42900000D03*
D11*
X132900000Y-37825000D03*
X132900000Y-36275000D03*
X164950000Y-37825000D03*
X164950000Y-36275000D03*
X141800000Y-46225000D03*
X141800000Y-44675000D03*
D20*
X140075000Y-42900000D03*
X138425000Y-42900000D03*
D10*
X164950000Y-42275000D03*
X164950000Y-43825000D03*
D11*
X166750000Y-37825000D03*
X166750000Y-36275000D03*
X131100000Y-37825000D03*
X131100000Y-36275000D03*
X129300000Y-37825000D03*
X129300000Y-36275000D03*
D21*
X144275000Y-35000000D03*
X142725000Y-35000000D03*
D22*
X138200000Y-44625000D03*
X138200000Y-46275000D03*
X138200000Y-128625000D03*
X138200000Y-130275000D03*
D21*
X144275000Y-119000000D03*
X142725000Y-119000000D03*
D11*
X129300000Y-121825000D03*
X129300000Y-120275000D03*
X131100000Y-121825000D03*
X131100000Y-120275000D03*
X166750000Y-121825000D03*
X166750000Y-120275000D03*
D10*
X164950000Y-126275000D03*
X164950000Y-127825000D03*
D20*
X140075000Y-126900000D03*
X138425000Y-126900000D03*
D11*
X141800000Y-130225000D03*
X141800000Y-128675000D03*
X164950000Y-121825000D03*
X164950000Y-120275000D03*
X132900000Y-121825000D03*
X132900000Y-120275000D03*
D21*
X143325000Y-126900000D03*
X141775000Y-126900000D03*
D11*
X163150000Y-121825000D03*
X163150000Y-120275000D03*
X136500000Y-121825000D03*
X136500000Y-120275000D03*
D10*
X131100000Y-125875000D03*
X131100000Y-127425000D03*
X134700000Y-125875000D03*
X134700000Y-127425000D03*
D20*
X141025000Y-119000000D03*
X139375000Y-119000000D03*
D19*
X143600000Y-130275000D03*
X143600000Y-128625000D03*
D18*
X153450000Y-128453000D03*
X153450000Y-116947000D03*
D12*
X141275000Y-122850000D03*
D13*
X141000000Y-124053800D03*
D14*
X141000000Y-122850000D03*
D13*
X141000000Y-121646200D03*
D12*
X140725000Y-122850000D03*
D15*
X141750000Y-121200000D03*
D16*
X142650000Y-121850000D03*
X142650000Y-122350000D03*
X142650000Y-122850000D03*
X142650000Y-123350000D03*
X142650000Y-123850000D03*
D17*
X141750000Y-124500000D03*
X140250000Y-124500000D03*
D16*
X139350000Y-123850000D03*
X139350000Y-123350000D03*
X139350000Y-122850000D03*
X139350000Y-122350000D03*
X139350000Y-121850000D03*
D15*
X140250000Y-121200000D03*
D10*
X129300000Y-125875000D03*
X129300000Y-127425000D03*
D11*
X134700000Y-121825000D03*
X134700000Y-120275000D03*
D10*
X136500000Y-125875000D03*
X136500000Y-127425000D03*
X163150000Y-126275000D03*
X163150000Y-127825000D03*
D11*
X161350000Y-121825000D03*
X161350000Y-120275000D03*
D10*
X145400000Y-128675000D03*
X145400000Y-130225000D03*
D11*
X140000000Y-130225000D03*
X140000000Y-128675000D03*
D10*
X166750000Y-126275000D03*
X166750000Y-127825000D03*
X132900000Y-125875000D03*
X132900000Y-127425000D03*
D23*
X117000000Y-30300000D02*
X179200000Y-30300000D01*
X179200000Y-132300000D01*
X117000000Y-132300000D01*
X117000000Y-30300000D01*
M02*
