G04 #@! TF.GenerationSoftware,KiCad,Pcbnew,9.0.4*
G04 #@! TF.CreationDate,2025-09-21T01:50:15+05:30*
G04 #@! TF.ProjectId,panel,70616e65-6c2e-46b6-9963-61645f706362,rev?*
G04 #@! TF.SameCoordinates,Original*
G04 #@! TF.FileFunction,Legend,Top*
G04 #@! TF.FilePolarity,Positive*
%FSLAX46Y46*%
G04 Gerber Fmt 4.6, Leading zero omitted, Abs format (unit mm)*
G04 Created by KiCad (PCBNEW 9.0.4) date 2025-09-21 01:50:15*
%MOMM*%
%LPD*%
G01*
G04 APERTURE LIST*
G04 Aperture macros list*
%AMRoundRect*
0 Rectangle with rounded corners*
0 $1 Rounding radius*
0 $2 $3 $4 $5 $6 $7 $8 $9 X,Y pos of 4 corners*
0 Add a 4 corners polygon primitive as box body*
4,1,4,$2,$3,$4,$5,$6,$7,$8,$9,$2,$3,0*
0 Add four circle primitives for the rounded corners*
1,1,$1+$1,$2,$3*
1,1,$1+$1,$4,$5*
1,1,$1+$1,$6,$7*
1,1,$1+$1,$8,$9*
0 Add four rect primitives between the rounded corners*
20,1,$1+$1,$2,$3,$4,$5,0*
20,1,$1+$1,$4,$5,$6,$7,0*
20,1,$1+$1,$6,$7,$8,$9,0*
20,1,$1+$1,$8,$9,$2,$3,0*%
G04 Aperture macros list end*
%ADD10C,0.200000*%
%ADD11C,0.100000*%
%ADD12C,0.160000*%
%ADD13C,0.180000*%
%ADD14C,0.120000*%
%ADD15RoundRect,0.225000X0.250000X-0.225000X0.250000X0.225000X-0.250000X0.225000X-0.250000X-0.225000X0*%
%ADD16RoundRect,0.225000X-0.250000X0.225000X-0.250000X-0.225000X0.250000X-0.225000X0.250000X0.225000X0*%
%ADD17C,0.700000*%
%ADD18RoundRect,0.050000X-0.050000X-1.900000X0.050000X-1.900000X0.050000X1.900000X-0.050000X1.900000X0*%
%ADD19R,0.550000X0.467500*%
%ADD20RoundRect,0.120000X-0.905000X-0.905000X0.905000X-0.905000X0.905000X0.905000X-0.905000X0.905000X0*%
%ADD21RoundRect,0.050000X0.070000X-0.250000X0.070000X0.250000X-0.070000X0.250000X-0.070000X-0.250000X0*%
%ADD22RoundRect,0.050000X-0.250000X-0.070000X0.250000X-0.070000X0.250000X0.070000X-0.250000X0.070000X0*%
%ADD23RoundRect,0.050000X-0.070000X0.250000X-0.070000X-0.250000X0.070000X-0.250000X0.070000X0.250000X0*%
%ADD24RoundRect,0.483900X-1.992600X1.129100X-1.992600X-1.129100X1.992600X-1.129100X1.992600X1.129100X0*%
%ADD25RoundRect,0.200000X-0.275000X0.200000X-0.275000X-0.200000X0.275000X-0.200000X0.275000X0.200000X0*%
%ADD26RoundRect,0.200000X-0.200000X-0.275000X0.200000X-0.275000X0.200000X0.275000X-0.200000X0.275000X0*%
%ADD27C,2.100000*%
%ADD28RoundRect,0.250001X0.799999X-0.799999X0.799999X0.799999X-0.799999X0.799999X-0.799999X-0.799999X0*%
%ADD29RoundRect,0.225000X-0.225000X-0.250000X0.225000X-0.250000X0.225000X0.250000X-0.225000X0.250000X0*%
%ADD30RoundRect,0.250001X-0.799999X0.799999X-0.799999X-0.799999X0.799999X-0.799999X0.799999X0.799999X0*%
%ADD31RoundRect,0.200000X0.275000X-0.200000X0.275000X0.200000X-0.275000X0.200000X-0.275000X-0.200000X0*%
G04 #@! TA.AperFunction,Profile*
%ADD32C,0.050000*%
G04 #@! TD*
G04 APERTURE END LIST*
D10*
G36*
X168571590Y-103630712D02*
G01*
X168654638Y-103652858D01*
X168728281Y-103688782D01*
X168794031Y-103738873D01*
X168850581Y-103801153D01*
X168889035Y-103865077D01*
X168911593Y-103931614D01*
X168919145Y-104002198D01*
X168911590Y-104072177D01*
X168888987Y-104138349D01*
X168850376Y-104202139D01*
X168793482Y-104264515D01*
X168727459Y-104314628D01*
X168653788Y-104350521D01*
X168570996Y-104372614D01*
X168477126Y-104380286D01*
X168383215Y-104372619D01*
X168300309Y-104350533D01*
X168226465Y-104314639D01*
X168160221Y-104264515D01*
X168103053Y-104202105D01*
X168064279Y-104138306D01*
X168041590Y-104072148D01*
X168034009Y-104002198D01*
X168041587Y-103931643D01*
X168064230Y-103865119D01*
X168102849Y-103801187D01*
X168159672Y-103738873D01*
X168225688Y-103688764D01*
X168299522Y-103652840D01*
X168382671Y-103630705D01*
X168477126Y-103623011D01*
X168571590Y-103630712D01*
G37*
G36*
X169296837Y-107232677D02*
G01*
X167656316Y-107232677D01*
X167656316Y-106519853D01*
X167899187Y-106519853D01*
X167907554Y-106562804D01*
X167932068Y-106596148D01*
X167971682Y-106616975D01*
X168040054Y-106625366D01*
X168391580Y-106625366D01*
X168391580Y-106925601D01*
X168399199Y-106994518D01*
X168419882Y-107033770D01*
X168453286Y-107057774D01*
X168496543Y-107066010D01*
X168539817Y-107057777D01*
X168573297Y-107033770D01*
X168594149Y-106994522D01*
X168602606Y-106925601D01*
X168602606Y-106625366D01*
X168954499Y-106625366D01*
X169023430Y-106616932D01*
X169062668Y-106596148D01*
X169086753Y-106562850D01*
X169095000Y-106519853D01*
X169086730Y-106476874D01*
X169062668Y-106444016D01*
X169023489Y-106423640D01*
X168954499Y-106415348D01*
X168602606Y-106415348D01*
X168602606Y-106115112D01*
X168594145Y-106046206D01*
X168573297Y-106007035D01*
X168539810Y-105982956D01*
X168496543Y-105974703D01*
X168453391Y-105982978D01*
X168420431Y-106007035D01*
X168399923Y-106046156D01*
X168391580Y-106115112D01*
X168391580Y-106415348D01*
X168040054Y-106414248D01*
X167970880Y-106422690D01*
X167931610Y-106443466D01*
X167907458Y-106476785D01*
X167899187Y-106519853D01*
X167656316Y-106519853D01*
X167656316Y-104002198D01*
X167822983Y-104002198D01*
X167832515Y-104103823D01*
X167860876Y-104199833D01*
X167908730Y-104291908D01*
X167978046Y-104381293D01*
X168059685Y-104456453D01*
X168149070Y-104514265D01*
X168247304Y-104555864D01*
X168355988Y-104581456D01*
X168477126Y-104590304D01*
X168598292Y-104581445D01*
X168706859Y-104555834D01*
X168804857Y-104514226D01*
X168893902Y-104456423D01*
X168975107Y-104381293D01*
X169044424Y-104291908D01*
X169092277Y-104199833D01*
X169120638Y-104103823D01*
X169130170Y-104002198D01*
X169122817Y-103911583D01*
X169101052Y-103826225D01*
X169064716Y-103744898D01*
X169012858Y-103666634D01*
X168943783Y-103590771D01*
X168865931Y-103527089D01*
X168781459Y-103477857D01*
X168689411Y-103442351D01*
X168588492Y-103420520D01*
X168477126Y-103412992D01*
X168365270Y-103420531D01*
X168264011Y-103442386D01*
X168171758Y-103477909D01*
X168087201Y-103527134D01*
X168009371Y-103590771D01*
X167940295Y-103666634D01*
X167888437Y-103744898D01*
X167852101Y-103826225D01*
X167830336Y-103911583D01*
X167822983Y-104002198D01*
X167656316Y-104002198D01*
X167656316Y-102274057D01*
X167852292Y-102274057D01*
X167852292Y-102549655D01*
X167860725Y-102618586D01*
X167881509Y-102657824D01*
X167914737Y-102681830D01*
X167957805Y-102690064D01*
X168000889Y-102681833D01*
X168034192Y-102657824D01*
X168054908Y-102618596D01*
X168063318Y-102549655D01*
X168063318Y-102473818D01*
X168679451Y-102473818D01*
X168736879Y-102480571D01*
X168782308Y-102499463D01*
X168841611Y-102546738D01*
X168884157Y-102604976D01*
X168910387Y-102671816D01*
X168919145Y-102743370D01*
X168910904Y-102814292D01*
X168886878Y-102876613D01*
X168846605Y-102932414D01*
X168794329Y-102976920D01*
X168739222Y-103002358D01*
X168679451Y-103010816D01*
X168063318Y-103010816D01*
X168063318Y-102934979D01*
X168054904Y-102866052D01*
X168034192Y-102826901D01*
X168000881Y-102802820D01*
X167957805Y-102794569D01*
X167914745Y-102802824D01*
X167881509Y-102826901D01*
X167860729Y-102866062D01*
X167852292Y-102934979D01*
X167852292Y-103210576D01*
X167860776Y-103280309D01*
X167881509Y-103319203D01*
X167914699Y-103342852D01*
X167957805Y-103350985D01*
X168000927Y-103342855D01*
X168034192Y-103319203D01*
X168055169Y-103281537D01*
X168063318Y-103220834D01*
X168661041Y-103220834D01*
X168741486Y-103215999D01*
X168805071Y-103202841D01*
X168854939Y-103182916D01*
X168924717Y-103138459D01*
X168994341Y-103076853D01*
X169053309Y-103004036D01*
X169095641Y-102923163D01*
X169121425Y-102835262D01*
X169130170Y-102740256D01*
X169121439Y-102644490D01*
X169095913Y-102557620D01*
X169053627Y-102477786D01*
X168993333Y-102403659D01*
X168920481Y-102341938D01*
X168841819Y-102298754D01*
X168755986Y-102272712D01*
X168661041Y-102263799D01*
X168063318Y-102263799D01*
X168055169Y-102203096D01*
X168034192Y-102165430D01*
X168000927Y-102141778D01*
X167957805Y-102133648D01*
X167914745Y-102141902D01*
X167881509Y-102165980D01*
X167860729Y-102205141D01*
X167852292Y-102274057D01*
X167656316Y-102274057D01*
X167656316Y-102030700D01*
X167852292Y-102030700D01*
X168262620Y-102030700D01*
X168331793Y-102022258D01*
X168371064Y-102001482D01*
X168395119Y-101968320D01*
X168403304Y-101926103D01*
X168395077Y-101883098D01*
X168371064Y-101849808D01*
X168331793Y-101829032D01*
X168262620Y-101820590D01*
X168063318Y-101820590D01*
X168063318Y-101593169D01*
X168883974Y-101593169D01*
X168883974Y-101733487D01*
X168892407Y-101802418D01*
X168913191Y-101841656D01*
X168946419Y-101865662D01*
X168989487Y-101873896D01*
X169032570Y-101865665D01*
X169065874Y-101841656D01*
X169086589Y-101802428D01*
X169095000Y-101733487D01*
X169095000Y-101241643D01*
X169086586Y-101172717D01*
X169065874Y-101133565D01*
X169032570Y-101109556D01*
X168989487Y-101101325D01*
X168946419Y-101109559D01*
X168913191Y-101133565D01*
X168892411Y-101172727D01*
X168883974Y-101241643D01*
X168883974Y-101383060D01*
X168063318Y-101383060D01*
X168063318Y-101152525D01*
X168262620Y-101152525D01*
X168331793Y-101144083D01*
X168371064Y-101123307D01*
X168395123Y-101090157D01*
X168403304Y-101048019D01*
X168395073Y-101004936D01*
X168371064Y-100971632D01*
X168331793Y-100950856D01*
X168262620Y-100942415D01*
X167852292Y-100942415D01*
X167852292Y-102030700D01*
X167656316Y-102030700D01*
X167656316Y-99404418D01*
X168403304Y-99404418D01*
X168596744Y-99404418D01*
X168596744Y-98527250D01*
X168403304Y-98527250D01*
X168403304Y-99404418D01*
X167656316Y-99404418D01*
X167656316Y-98360583D01*
X169296837Y-98360583D01*
X169296837Y-107232677D01*
G37*
G36*
X128186681Y-104011298D02*
G01*
X128179743Y-104090163D01*
X128160860Y-104150793D01*
X128131727Y-104197228D01*
X128091682Y-104234373D01*
X128049448Y-104255390D01*
X128003499Y-104262349D01*
X127949667Y-104253767D01*
X127900973Y-104227887D01*
X127855488Y-104181932D01*
X127822635Y-104125195D01*
X127801575Y-104053882D01*
X127793939Y-103964220D01*
X127793939Y-103769498D01*
X128186681Y-103769498D01*
X128186681Y-104011298D01*
G37*
G36*
X128564374Y-107120878D02*
G01*
X126988333Y-107120878D01*
X126988333Y-106409061D01*
X127155000Y-106409061D01*
X127163269Y-106452039D01*
X127187331Y-106484898D01*
X127226510Y-106505274D01*
X127295500Y-106513566D01*
X127647393Y-106513566D01*
X127647393Y-106813802D01*
X127655854Y-106882708D01*
X127676702Y-106921879D01*
X127710189Y-106945958D01*
X127753456Y-106954211D01*
X127796608Y-106945936D01*
X127829568Y-106921879D01*
X127850076Y-106882758D01*
X127858419Y-106813802D01*
X127858419Y-106513566D01*
X128209945Y-106514665D01*
X128279119Y-106506224D01*
X128318389Y-106485448D01*
X128342541Y-106452129D01*
X128350812Y-106409061D01*
X128342445Y-106366110D01*
X128317931Y-106332765D01*
X128278317Y-106311939D01*
X128209945Y-106303548D01*
X127858419Y-106303548D01*
X127858419Y-106003312D01*
X127850800Y-105934396D01*
X127830117Y-105895143D01*
X127796713Y-105871139D01*
X127753456Y-105862903D01*
X127710182Y-105871136D01*
X127676702Y-105895143D01*
X127655850Y-105934391D01*
X127647393Y-106003312D01*
X127647393Y-106303548D01*
X127295500Y-106303548D01*
X127226569Y-106311982D01*
X127187331Y-106332765D01*
X127163246Y-106366064D01*
X127155000Y-106409061D01*
X126988333Y-106409061D01*
X126988333Y-103526690D01*
X127155000Y-103526690D01*
X127155000Y-103981623D01*
X127163413Y-104050549D01*
X127184125Y-104089700D01*
X127217436Y-104113781D01*
X127260512Y-104122032D01*
X127303572Y-104113778D01*
X127336808Y-104089700D01*
X127357588Y-104050539D01*
X127366025Y-103981623D01*
X127366025Y-103769498D01*
X127582913Y-103769498D01*
X127582913Y-103964220D01*
X127582913Y-103968250D01*
X127591323Y-104088665D01*
X127613046Y-104172682D01*
X127649846Y-104247987D01*
X127703080Y-104324357D01*
X127765897Y-104390223D01*
X127824347Y-104430419D01*
X127908861Y-104461949D01*
X127998462Y-104472459D01*
X128079244Y-104464570D01*
X128152281Y-104441483D01*
X128219301Y-104403070D01*
X128281478Y-104347895D01*
X128330820Y-104282635D01*
X128366931Y-104206159D01*
X128389661Y-104116310D01*
X128397707Y-104010291D01*
X128397707Y-103526690D01*
X128389274Y-103457759D01*
X128368490Y-103418521D01*
X128335262Y-103394515D01*
X128292194Y-103386281D01*
X128249110Y-103394512D01*
X128215807Y-103418521D01*
X128195091Y-103457749D01*
X128186681Y-103526690D01*
X128186681Y-103559480D01*
X127366025Y-103559480D01*
X127366025Y-103526690D01*
X127357639Y-103458575D01*
X127336808Y-103419070D01*
X127303534Y-103394635D01*
X127260512Y-103386281D01*
X127217429Y-103394512D01*
X127184125Y-103418521D01*
X127163410Y-103457749D01*
X127155000Y-103526690D01*
X126988333Y-103526690D01*
X126988333Y-102169494D01*
X127155000Y-102169494D01*
X127155000Y-102445091D01*
X127163413Y-102514017D01*
X127184125Y-102553168D01*
X127217436Y-102577249D01*
X127260512Y-102585500D01*
X127303572Y-102577246D01*
X127336808Y-102553168D01*
X127357588Y-102514007D01*
X127366025Y-102445091D01*
X127366025Y-102369254D01*
X128000935Y-102369254D01*
X127155000Y-102909275D01*
X127155000Y-103117278D01*
X128186681Y-103117278D01*
X128194797Y-103177095D01*
X128215807Y-103214639D01*
X128249072Y-103238291D01*
X128292194Y-103246421D01*
X128335254Y-103238167D01*
X128368490Y-103214090D01*
X128389270Y-103174929D01*
X128397707Y-103106012D01*
X128397707Y-102830415D01*
X128389274Y-102761484D01*
X128368490Y-102722246D01*
X128335262Y-102698240D01*
X128292194Y-102690006D01*
X128249110Y-102698236D01*
X128215807Y-102722246D01*
X128195091Y-102761474D01*
X128186681Y-102830415D01*
X128186681Y-102906160D01*
X127554886Y-102906160D01*
X128397707Y-102369254D01*
X128397707Y-102126446D01*
X128389274Y-102057515D01*
X128368490Y-102018277D01*
X128335262Y-101994271D01*
X128292194Y-101986037D01*
X128249110Y-101994268D01*
X128215807Y-102018277D01*
X128195091Y-102057505D01*
X128186681Y-102126446D01*
X128186681Y-102159235D01*
X127366025Y-102159235D01*
X127357854Y-102098542D01*
X127336808Y-102060867D01*
X127303618Y-102037218D01*
X127260512Y-102029084D01*
X127217429Y-102037315D01*
X127184125Y-102061324D01*
X127163410Y-102100553D01*
X127155000Y-102169494D01*
X126988333Y-102169494D01*
X126988333Y-101056112D01*
X127155000Y-101056112D01*
X127155000Y-101690381D01*
X127163413Y-101759307D01*
X127184125Y-101798458D01*
X127217436Y-101822539D01*
X127260512Y-101830790D01*
X127303572Y-101822536D01*
X127336808Y-101798458D01*
X127357588Y-101759297D01*
X127366025Y-101690381D01*
X127366025Y-101478256D01*
X128186681Y-101478256D01*
X128186681Y-101690381D01*
X128195095Y-101759307D01*
X128215807Y-101798458D01*
X128249118Y-101822539D01*
X128292194Y-101830790D01*
X128335254Y-101822536D01*
X128368490Y-101798458D01*
X128389270Y-101759297D01*
X128397707Y-101690381D01*
X128397707Y-101056112D01*
X128389270Y-100987196D01*
X128368490Y-100948035D01*
X128335262Y-100924029D01*
X128292194Y-100915795D01*
X128249110Y-100924026D01*
X128215807Y-100948035D01*
X128195095Y-100987186D01*
X128186681Y-101056112D01*
X128186681Y-101268237D01*
X127366025Y-101268237D01*
X127366025Y-101056112D01*
X127357588Y-100987196D01*
X127336808Y-100948035D01*
X127303580Y-100924029D01*
X127260512Y-100915795D01*
X127217429Y-100924026D01*
X127184125Y-100948035D01*
X127163413Y-100987186D01*
X127155000Y-101056112D01*
X126988333Y-101056112D01*
X126988333Y-99295732D01*
X127653255Y-99295732D01*
X127846695Y-99295732D01*
X127846695Y-98418565D01*
X127653255Y-98418565D01*
X127653255Y-99295732D01*
X126988333Y-99295732D01*
X126988333Y-98251898D01*
X128564374Y-98251898D01*
X128564374Y-107120878D01*
G37*
D11*
X179100000Y-94300000D02*
X179100000Y-110300000D01*
X117100000Y-110300000D02*
X117100000Y-94300000D01*
X118100000Y-93300000D02*
X178100000Y-93300000D01*
X117100000Y-91800000D02*
X179100000Y-91800000D01*
X179100000Y-110300000D02*
G75*
G02*
X178100000Y-111300000I-1000000J0D01*
G01*
X117100000Y-94300000D02*
G75*
G02*
X118100000Y-93300000I1000000J0D01*
G01*
X178100000Y-93300000D02*
G75*
G02*
X179100000Y-94300000I0J-1000000D01*
G01*
X178100000Y-111300000D02*
X118100000Y-111300000D01*
X118100000Y-111300000D02*
G75*
G02*
X117100000Y-110300000I0J1000000D01*
G01*
D10*
G36*
X168571590Y-82630712D02*
G01*
X168654638Y-82652858D01*
X168728281Y-82688782D01*
X168794031Y-82738873D01*
X168850581Y-82801153D01*
X168889035Y-82865077D01*
X168911593Y-82931614D01*
X168919145Y-83002198D01*
X168911590Y-83072177D01*
X168888987Y-83138349D01*
X168850376Y-83202139D01*
X168793482Y-83264515D01*
X168727459Y-83314628D01*
X168653788Y-83350521D01*
X168570996Y-83372614D01*
X168477126Y-83380286D01*
X168383215Y-83372619D01*
X168300309Y-83350533D01*
X168226465Y-83314639D01*
X168160221Y-83264515D01*
X168103053Y-83202105D01*
X168064279Y-83138306D01*
X168041590Y-83072148D01*
X168034009Y-83002198D01*
X168041587Y-82931643D01*
X168064230Y-82865119D01*
X168102849Y-82801187D01*
X168159672Y-82738873D01*
X168225688Y-82688764D01*
X168299522Y-82652840D01*
X168382671Y-82630705D01*
X168477126Y-82623011D01*
X168571590Y-82630712D01*
G37*
G36*
X169296837Y-86232677D02*
G01*
X167656316Y-86232677D01*
X167656316Y-85519853D01*
X167899187Y-85519853D01*
X167907554Y-85562804D01*
X167932068Y-85596148D01*
X167971682Y-85616975D01*
X168040054Y-85625366D01*
X168391580Y-85625366D01*
X168391580Y-85925601D01*
X168399199Y-85994518D01*
X168419882Y-86033770D01*
X168453286Y-86057774D01*
X168496543Y-86066010D01*
X168539817Y-86057777D01*
X168573297Y-86033770D01*
X168594149Y-85994522D01*
X168602606Y-85925601D01*
X168602606Y-85625366D01*
X168954499Y-85625366D01*
X169023430Y-85616932D01*
X169062668Y-85596148D01*
X169086753Y-85562850D01*
X169095000Y-85519853D01*
X169086730Y-85476874D01*
X169062668Y-85444016D01*
X169023489Y-85423640D01*
X168954499Y-85415348D01*
X168602606Y-85415348D01*
X168602606Y-85115112D01*
X168594145Y-85046206D01*
X168573297Y-85007035D01*
X168539810Y-84982956D01*
X168496543Y-84974703D01*
X168453391Y-84982978D01*
X168420431Y-85007035D01*
X168399923Y-85046156D01*
X168391580Y-85115112D01*
X168391580Y-85415348D01*
X168040054Y-85414248D01*
X167970880Y-85422690D01*
X167931610Y-85443466D01*
X167907458Y-85476785D01*
X167899187Y-85519853D01*
X167656316Y-85519853D01*
X167656316Y-83002198D01*
X167822983Y-83002198D01*
X167832515Y-83103823D01*
X167860876Y-83199833D01*
X167908730Y-83291908D01*
X167978046Y-83381293D01*
X168059685Y-83456453D01*
X168149070Y-83514265D01*
X168247304Y-83555864D01*
X168355988Y-83581456D01*
X168477126Y-83590304D01*
X168598292Y-83581445D01*
X168706859Y-83555834D01*
X168804857Y-83514226D01*
X168893902Y-83456423D01*
X168975107Y-83381293D01*
X169044424Y-83291908D01*
X169092277Y-83199833D01*
X169120638Y-83103823D01*
X169130170Y-83002198D01*
X169122817Y-82911583D01*
X169101052Y-82826225D01*
X169064716Y-82744898D01*
X169012858Y-82666634D01*
X168943783Y-82590771D01*
X168865931Y-82527089D01*
X168781459Y-82477857D01*
X168689411Y-82442351D01*
X168588492Y-82420520D01*
X168477126Y-82412992D01*
X168365270Y-82420531D01*
X168264011Y-82442386D01*
X168171758Y-82477909D01*
X168087201Y-82527134D01*
X168009371Y-82590771D01*
X167940295Y-82666634D01*
X167888437Y-82744898D01*
X167852101Y-82826225D01*
X167830336Y-82911583D01*
X167822983Y-83002198D01*
X167656316Y-83002198D01*
X167656316Y-81274057D01*
X167852292Y-81274057D01*
X167852292Y-81549655D01*
X167860725Y-81618586D01*
X167881509Y-81657824D01*
X167914737Y-81681830D01*
X167957805Y-81690064D01*
X168000889Y-81681833D01*
X168034192Y-81657824D01*
X168054908Y-81618596D01*
X168063318Y-81549655D01*
X168063318Y-81473818D01*
X168679451Y-81473818D01*
X168736879Y-81480571D01*
X168782308Y-81499463D01*
X168841611Y-81546738D01*
X168884157Y-81604976D01*
X168910387Y-81671816D01*
X168919145Y-81743370D01*
X168910904Y-81814292D01*
X168886878Y-81876613D01*
X168846605Y-81932414D01*
X168794329Y-81976920D01*
X168739222Y-82002358D01*
X168679451Y-82010816D01*
X168063318Y-82010816D01*
X168063318Y-81934979D01*
X168054904Y-81866052D01*
X168034192Y-81826901D01*
X168000881Y-81802820D01*
X167957805Y-81794569D01*
X167914745Y-81802824D01*
X167881509Y-81826901D01*
X167860729Y-81866062D01*
X167852292Y-81934979D01*
X167852292Y-82210576D01*
X167860776Y-82280309D01*
X167881509Y-82319203D01*
X167914699Y-82342852D01*
X167957805Y-82350985D01*
X168000927Y-82342855D01*
X168034192Y-82319203D01*
X168055169Y-82281537D01*
X168063318Y-82220834D01*
X168661041Y-82220834D01*
X168741486Y-82215999D01*
X168805071Y-82202841D01*
X168854939Y-82182916D01*
X168924717Y-82138459D01*
X168994341Y-82076853D01*
X169053309Y-82004036D01*
X169095641Y-81923163D01*
X169121425Y-81835262D01*
X169130170Y-81740256D01*
X169121439Y-81644490D01*
X169095913Y-81557620D01*
X169053627Y-81477786D01*
X168993333Y-81403659D01*
X168920481Y-81341938D01*
X168841819Y-81298754D01*
X168755986Y-81272712D01*
X168661041Y-81263799D01*
X168063318Y-81263799D01*
X168055169Y-81203096D01*
X168034192Y-81165430D01*
X168000927Y-81141778D01*
X167957805Y-81133648D01*
X167914745Y-81141902D01*
X167881509Y-81165980D01*
X167860729Y-81205141D01*
X167852292Y-81274057D01*
X167656316Y-81274057D01*
X167656316Y-81030700D01*
X167852292Y-81030700D01*
X168262620Y-81030700D01*
X168331793Y-81022258D01*
X168371064Y-81001482D01*
X168395119Y-80968320D01*
X168403304Y-80926103D01*
X168395077Y-80883098D01*
X168371064Y-80849808D01*
X168331793Y-80829032D01*
X168262620Y-80820590D01*
X168063318Y-80820590D01*
X168063318Y-80593169D01*
X168883974Y-80593169D01*
X168883974Y-80733487D01*
X168892407Y-80802418D01*
X168913191Y-80841656D01*
X168946419Y-80865662D01*
X168989487Y-80873896D01*
X169032570Y-80865665D01*
X169065874Y-80841656D01*
X169086589Y-80802428D01*
X169095000Y-80733487D01*
X169095000Y-80241643D01*
X169086586Y-80172717D01*
X169065874Y-80133565D01*
X169032570Y-80109556D01*
X168989487Y-80101325D01*
X168946419Y-80109559D01*
X168913191Y-80133565D01*
X168892411Y-80172727D01*
X168883974Y-80241643D01*
X168883974Y-80383060D01*
X168063318Y-80383060D01*
X168063318Y-80152525D01*
X168262620Y-80152525D01*
X168331793Y-80144083D01*
X168371064Y-80123307D01*
X168395123Y-80090157D01*
X168403304Y-80048019D01*
X168395073Y-80004936D01*
X168371064Y-79971632D01*
X168331793Y-79950856D01*
X168262620Y-79942415D01*
X167852292Y-79942415D01*
X167852292Y-81030700D01*
X167656316Y-81030700D01*
X167656316Y-78404418D01*
X168403304Y-78404418D01*
X168596744Y-78404418D01*
X168596744Y-77527250D01*
X168403304Y-77527250D01*
X168403304Y-78404418D01*
X167656316Y-78404418D01*
X167656316Y-77360583D01*
X169296837Y-77360583D01*
X169296837Y-86232677D01*
G37*
G36*
X128186681Y-83011298D02*
G01*
X128179743Y-83090163D01*
X128160860Y-83150793D01*
X128131727Y-83197228D01*
X128091682Y-83234373D01*
X128049448Y-83255390D01*
X128003499Y-83262349D01*
X127949667Y-83253767D01*
X127900973Y-83227887D01*
X127855488Y-83181932D01*
X127822635Y-83125195D01*
X127801575Y-83053882D01*
X127793939Y-82964220D01*
X127793939Y-82769498D01*
X128186681Y-82769498D01*
X128186681Y-83011298D01*
G37*
G36*
X128564374Y-86120878D02*
G01*
X126988333Y-86120878D01*
X126988333Y-85409061D01*
X127155000Y-85409061D01*
X127163269Y-85452039D01*
X127187331Y-85484898D01*
X127226510Y-85505274D01*
X127295500Y-85513566D01*
X127647393Y-85513566D01*
X127647393Y-85813802D01*
X127655854Y-85882708D01*
X127676702Y-85921879D01*
X127710189Y-85945958D01*
X127753456Y-85954211D01*
X127796608Y-85945936D01*
X127829568Y-85921879D01*
X127850076Y-85882758D01*
X127858419Y-85813802D01*
X127858419Y-85513566D01*
X128209945Y-85514665D01*
X128279119Y-85506224D01*
X128318389Y-85485448D01*
X128342541Y-85452129D01*
X128350812Y-85409061D01*
X128342445Y-85366110D01*
X128317931Y-85332765D01*
X128278317Y-85311939D01*
X128209945Y-85303548D01*
X127858419Y-85303548D01*
X127858419Y-85003312D01*
X127850800Y-84934396D01*
X127830117Y-84895143D01*
X127796713Y-84871139D01*
X127753456Y-84862903D01*
X127710182Y-84871136D01*
X127676702Y-84895143D01*
X127655850Y-84934391D01*
X127647393Y-85003312D01*
X127647393Y-85303548D01*
X127295500Y-85303548D01*
X127226569Y-85311982D01*
X127187331Y-85332765D01*
X127163246Y-85366064D01*
X127155000Y-85409061D01*
X126988333Y-85409061D01*
X126988333Y-82526690D01*
X127155000Y-82526690D01*
X127155000Y-82981623D01*
X127163413Y-83050549D01*
X127184125Y-83089700D01*
X127217436Y-83113781D01*
X127260512Y-83122032D01*
X127303572Y-83113778D01*
X127336808Y-83089700D01*
X127357588Y-83050539D01*
X127366025Y-82981623D01*
X127366025Y-82769498D01*
X127582913Y-82769498D01*
X127582913Y-82964220D01*
X127582913Y-82968250D01*
X127591323Y-83088665D01*
X127613046Y-83172682D01*
X127649846Y-83247987D01*
X127703080Y-83324357D01*
X127765897Y-83390223D01*
X127824347Y-83430419D01*
X127908861Y-83461949D01*
X127998462Y-83472459D01*
X128079244Y-83464570D01*
X128152281Y-83441483D01*
X128219301Y-83403070D01*
X128281478Y-83347895D01*
X128330820Y-83282635D01*
X128366931Y-83206159D01*
X128389661Y-83116310D01*
X128397707Y-83010291D01*
X128397707Y-82526690D01*
X128389274Y-82457759D01*
X128368490Y-82418521D01*
X128335262Y-82394515D01*
X128292194Y-82386281D01*
X128249110Y-82394512D01*
X128215807Y-82418521D01*
X128195091Y-82457749D01*
X128186681Y-82526690D01*
X128186681Y-82559480D01*
X127366025Y-82559480D01*
X127366025Y-82526690D01*
X127357639Y-82458575D01*
X127336808Y-82419070D01*
X127303534Y-82394635D01*
X127260512Y-82386281D01*
X127217429Y-82394512D01*
X127184125Y-82418521D01*
X127163410Y-82457749D01*
X127155000Y-82526690D01*
X126988333Y-82526690D01*
X126988333Y-81169494D01*
X127155000Y-81169494D01*
X127155000Y-81445091D01*
X127163413Y-81514017D01*
X127184125Y-81553168D01*
X127217436Y-81577249D01*
X127260512Y-81585500D01*
X127303572Y-81577246D01*
X127336808Y-81553168D01*
X127357588Y-81514007D01*
X127366025Y-81445091D01*
X127366025Y-81369254D01*
X128000935Y-81369254D01*
X127155000Y-81909275D01*
X127155000Y-82117278D01*
X128186681Y-82117278D01*
X128194797Y-82177095D01*
X128215807Y-82214639D01*
X128249072Y-82238291D01*
X128292194Y-82246421D01*
X128335254Y-82238167D01*
X128368490Y-82214090D01*
X128389270Y-82174929D01*
X128397707Y-82106012D01*
X128397707Y-81830415D01*
X128389274Y-81761484D01*
X128368490Y-81722246D01*
X128335262Y-81698240D01*
X128292194Y-81690006D01*
X128249110Y-81698236D01*
X128215807Y-81722246D01*
X128195091Y-81761474D01*
X128186681Y-81830415D01*
X128186681Y-81906160D01*
X127554886Y-81906160D01*
X128397707Y-81369254D01*
X128397707Y-81126446D01*
X128389274Y-81057515D01*
X128368490Y-81018277D01*
X128335262Y-80994271D01*
X128292194Y-80986037D01*
X128249110Y-80994268D01*
X128215807Y-81018277D01*
X128195091Y-81057505D01*
X128186681Y-81126446D01*
X128186681Y-81159235D01*
X127366025Y-81159235D01*
X127357854Y-81098542D01*
X127336808Y-81060867D01*
X127303618Y-81037218D01*
X127260512Y-81029084D01*
X127217429Y-81037315D01*
X127184125Y-81061324D01*
X127163410Y-81100553D01*
X127155000Y-81169494D01*
X126988333Y-81169494D01*
X126988333Y-80056112D01*
X127155000Y-80056112D01*
X127155000Y-80690381D01*
X127163413Y-80759307D01*
X127184125Y-80798458D01*
X127217436Y-80822539D01*
X127260512Y-80830790D01*
X127303572Y-80822536D01*
X127336808Y-80798458D01*
X127357588Y-80759297D01*
X127366025Y-80690381D01*
X127366025Y-80478256D01*
X128186681Y-80478256D01*
X128186681Y-80690381D01*
X128195095Y-80759307D01*
X128215807Y-80798458D01*
X128249118Y-80822539D01*
X128292194Y-80830790D01*
X128335254Y-80822536D01*
X128368490Y-80798458D01*
X128389270Y-80759297D01*
X128397707Y-80690381D01*
X128397707Y-80056112D01*
X128389270Y-79987196D01*
X128368490Y-79948035D01*
X128335262Y-79924029D01*
X128292194Y-79915795D01*
X128249110Y-79924026D01*
X128215807Y-79948035D01*
X128195095Y-79987186D01*
X128186681Y-80056112D01*
X128186681Y-80268237D01*
X127366025Y-80268237D01*
X127366025Y-80056112D01*
X127357588Y-79987196D01*
X127336808Y-79948035D01*
X127303580Y-79924029D01*
X127260512Y-79915795D01*
X127217429Y-79924026D01*
X127184125Y-79948035D01*
X127163413Y-79987186D01*
X127155000Y-80056112D01*
X126988333Y-80056112D01*
X126988333Y-78295732D01*
X127653255Y-78295732D01*
X127846695Y-78295732D01*
X127846695Y-77418565D01*
X127653255Y-77418565D01*
X127653255Y-78295732D01*
X126988333Y-78295732D01*
X126988333Y-77251898D01*
X128564374Y-77251898D01*
X128564374Y-86120878D01*
G37*
D11*
X179100000Y-73300000D02*
X179100000Y-89300000D01*
X117100000Y-89300000D02*
X117100000Y-73300000D01*
X118100000Y-72300000D02*
X178100000Y-72300000D01*
X117100000Y-70800000D02*
X179100000Y-70800000D01*
X179100000Y-89300000D02*
G75*
G02*
X178100000Y-90300000I-1000000J0D01*
G01*
X117100000Y-73300000D02*
G75*
G02*
X118100000Y-72300000I1000000J0D01*
G01*
X178100000Y-72300000D02*
G75*
G02*
X179100000Y-73300000I0J-1000000D01*
G01*
X178100000Y-90300000D02*
X118100000Y-90300000D01*
X118100000Y-90300000D02*
G75*
G02*
X117100000Y-89300000I0J1000000D01*
G01*
D10*
G36*
X168571590Y-61630712D02*
G01*
X168654638Y-61652858D01*
X168728281Y-61688782D01*
X168794031Y-61738873D01*
X168850581Y-61801153D01*
X168889035Y-61865077D01*
X168911593Y-61931614D01*
X168919145Y-62002198D01*
X168911590Y-62072177D01*
X168888987Y-62138349D01*
X168850376Y-62202139D01*
X168793482Y-62264515D01*
X168727459Y-62314628D01*
X168653788Y-62350521D01*
X168570996Y-62372614D01*
X168477126Y-62380286D01*
X168383215Y-62372619D01*
X168300309Y-62350533D01*
X168226465Y-62314639D01*
X168160221Y-62264515D01*
X168103053Y-62202105D01*
X168064279Y-62138306D01*
X168041590Y-62072148D01*
X168034009Y-62002198D01*
X168041587Y-61931643D01*
X168064230Y-61865119D01*
X168102849Y-61801187D01*
X168159672Y-61738873D01*
X168225688Y-61688764D01*
X168299522Y-61652840D01*
X168382671Y-61630705D01*
X168477126Y-61623011D01*
X168571590Y-61630712D01*
G37*
G36*
X169296837Y-65232677D02*
G01*
X167656316Y-65232677D01*
X167656316Y-64519853D01*
X167899187Y-64519853D01*
X167907554Y-64562804D01*
X167932068Y-64596148D01*
X167971682Y-64616975D01*
X168040054Y-64625366D01*
X168391580Y-64625366D01*
X168391580Y-64925601D01*
X168399199Y-64994518D01*
X168419882Y-65033770D01*
X168453286Y-65057774D01*
X168496543Y-65066010D01*
X168539817Y-65057777D01*
X168573297Y-65033770D01*
X168594149Y-64994522D01*
X168602606Y-64925601D01*
X168602606Y-64625366D01*
X168954499Y-64625366D01*
X169023430Y-64616932D01*
X169062668Y-64596148D01*
X169086753Y-64562850D01*
X169095000Y-64519853D01*
X169086730Y-64476874D01*
X169062668Y-64444016D01*
X169023489Y-64423640D01*
X168954499Y-64415348D01*
X168602606Y-64415348D01*
X168602606Y-64115112D01*
X168594145Y-64046206D01*
X168573297Y-64007035D01*
X168539810Y-63982956D01*
X168496543Y-63974703D01*
X168453391Y-63982978D01*
X168420431Y-64007035D01*
X168399923Y-64046156D01*
X168391580Y-64115112D01*
X168391580Y-64415348D01*
X168040054Y-64414248D01*
X167970880Y-64422690D01*
X167931610Y-64443466D01*
X167907458Y-64476785D01*
X167899187Y-64519853D01*
X167656316Y-64519853D01*
X167656316Y-62002198D01*
X167822983Y-62002198D01*
X167832515Y-62103823D01*
X167860876Y-62199833D01*
X167908730Y-62291908D01*
X167978046Y-62381293D01*
X168059685Y-62456453D01*
X168149070Y-62514265D01*
X168247304Y-62555864D01*
X168355988Y-62581456D01*
X168477126Y-62590304D01*
X168598292Y-62581445D01*
X168706859Y-62555834D01*
X168804857Y-62514226D01*
X168893902Y-62456423D01*
X168975107Y-62381293D01*
X169044424Y-62291908D01*
X169092277Y-62199833D01*
X169120638Y-62103823D01*
X169130170Y-62002198D01*
X169122817Y-61911583D01*
X169101052Y-61826225D01*
X169064716Y-61744898D01*
X169012858Y-61666634D01*
X168943783Y-61590771D01*
X168865931Y-61527089D01*
X168781459Y-61477857D01*
X168689411Y-61442351D01*
X168588492Y-61420520D01*
X168477126Y-61412992D01*
X168365270Y-61420531D01*
X168264011Y-61442386D01*
X168171758Y-61477909D01*
X168087201Y-61527134D01*
X168009371Y-61590771D01*
X167940295Y-61666634D01*
X167888437Y-61744898D01*
X167852101Y-61826225D01*
X167830336Y-61911583D01*
X167822983Y-62002198D01*
X167656316Y-62002198D01*
X167656316Y-60274057D01*
X167852292Y-60274057D01*
X167852292Y-60549655D01*
X167860725Y-60618586D01*
X167881509Y-60657824D01*
X167914737Y-60681830D01*
X167957805Y-60690064D01*
X168000889Y-60681833D01*
X168034192Y-60657824D01*
X168054908Y-60618596D01*
X168063318Y-60549655D01*
X168063318Y-60473818D01*
X168679451Y-60473818D01*
X168736879Y-60480571D01*
X168782308Y-60499463D01*
X168841611Y-60546738D01*
X168884157Y-60604976D01*
X168910387Y-60671816D01*
X168919145Y-60743370D01*
X168910904Y-60814292D01*
X168886878Y-60876613D01*
X168846605Y-60932414D01*
X168794329Y-60976920D01*
X168739222Y-61002358D01*
X168679451Y-61010816D01*
X168063318Y-61010816D01*
X168063318Y-60934979D01*
X168054904Y-60866052D01*
X168034192Y-60826901D01*
X168000881Y-60802820D01*
X167957805Y-60794569D01*
X167914745Y-60802824D01*
X167881509Y-60826901D01*
X167860729Y-60866062D01*
X167852292Y-60934979D01*
X167852292Y-61210576D01*
X167860776Y-61280309D01*
X167881509Y-61319203D01*
X167914699Y-61342852D01*
X167957805Y-61350985D01*
X168000927Y-61342855D01*
X168034192Y-61319203D01*
X168055169Y-61281537D01*
X168063318Y-61220834D01*
X168661041Y-61220834D01*
X168741486Y-61215999D01*
X168805071Y-61202841D01*
X168854939Y-61182916D01*
X168924717Y-61138459D01*
X168994341Y-61076853D01*
X169053309Y-61004036D01*
X169095641Y-60923163D01*
X169121425Y-60835262D01*
X169130170Y-60740256D01*
X169121439Y-60644490D01*
X169095913Y-60557620D01*
X169053627Y-60477786D01*
X168993333Y-60403659D01*
X168920481Y-60341938D01*
X168841819Y-60298754D01*
X168755986Y-60272712D01*
X168661041Y-60263799D01*
X168063318Y-60263799D01*
X168055169Y-60203096D01*
X168034192Y-60165430D01*
X168000927Y-60141778D01*
X167957805Y-60133648D01*
X167914745Y-60141902D01*
X167881509Y-60165980D01*
X167860729Y-60205141D01*
X167852292Y-60274057D01*
X167656316Y-60274057D01*
X167656316Y-60030700D01*
X167852292Y-60030700D01*
X168262620Y-60030700D01*
X168331793Y-60022258D01*
X168371064Y-60001482D01*
X168395119Y-59968320D01*
X168403304Y-59926103D01*
X168395077Y-59883098D01*
X168371064Y-59849808D01*
X168331793Y-59829032D01*
X168262620Y-59820590D01*
X168063318Y-59820590D01*
X168063318Y-59593169D01*
X168883974Y-59593169D01*
X168883974Y-59733487D01*
X168892407Y-59802418D01*
X168913191Y-59841656D01*
X168946419Y-59865662D01*
X168989487Y-59873896D01*
X169032570Y-59865665D01*
X169065874Y-59841656D01*
X169086589Y-59802428D01*
X169095000Y-59733487D01*
X169095000Y-59241643D01*
X169086586Y-59172717D01*
X169065874Y-59133565D01*
X169032570Y-59109556D01*
X168989487Y-59101325D01*
X168946419Y-59109559D01*
X168913191Y-59133565D01*
X168892411Y-59172727D01*
X168883974Y-59241643D01*
X168883974Y-59383060D01*
X168063318Y-59383060D01*
X168063318Y-59152525D01*
X168262620Y-59152525D01*
X168331793Y-59144083D01*
X168371064Y-59123307D01*
X168395123Y-59090157D01*
X168403304Y-59048019D01*
X168395073Y-59004936D01*
X168371064Y-58971632D01*
X168331793Y-58950856D01*
X168262620Y-58942415D01*
X167852292Y-58942415D01*
X167852292Y-60030700D01*
X167656316Y-60030700D01*
X167656316Y-57404418D01*
X168403304Y-57404418D01*
X168596744Y-57404418D01*
X168596744Y-56527250D01*
X168403304Y-56527250D01*
X168403304Y-57404418D01*
X167656316Y-57404418D01*
X167656316Y-56360583D01*
X169296837Y-56360583D01*
X169296837Y-65232677D01*
G37*
G36*
X128186681Y-62011298D02*
G01*
X128179743Y-62090163D01*
X128160860Y-62150793D01*
X128131727Y-62197228D01*
X128091682Y-62234373D01*
X128049448Y-62255390D01*
X128003499Y-62262349D01*
X127949667Y-62253767D01*
X127900973Y-62227887D01*
X127855488Y-62181932D01*
X127822635Y-62125195D01*
X127801575Y-62053882D01*
X127793939Y-61964220D01*
X127793939Y-61769498D01*
X128186681Y-61769498D01*
X128186681Y-62011298D01*
G37*
G36*
X128564374Y-65120878D02*
G01*
X126988333Y-65120878D01*
X126988333Y-64409061D01*
X127155000Y-64409061D01*
X127163269Y-64452039D01*
X127187331Y-64484898D01*
X127226510Y-64505274D01*
X127295500Y-64513566D01*
X127647393Y-64513566D01*
X127647393Y-64813802D01*
X127655854Y-64882708D01*
X127676702Y-64921879D01*
X127710189Y-64945958D01*
X127753456Y-64954211D01*
X127796608Y-64945936D01*
X127829568Y-64921879D01*
X127850076Y-64882758D01*
X127858419Y-64813802D01*
X127858419Y-64513566D01*
X128209945Y-64514665D01*
X128279119Y-64506224D01*
X128318389Y-64485448D01*
X128342541Y-64452129D01*
X128350812Y-64409061D01*
X128342445Y-64366110D01*
X128317931Y-64332765D01*
X128278317Y-64311939D01*
X128209945Y-64303548D01*
X127858419Y-64303548D01*
X127858419Y-64003312D01*
X127850800Y-63934396D01*
X127830117Y-63895143D01*
X127796713Y-63871139D01*
X127753456Y-63862903D01*
X127710182Y-63871136D01*
X127676702Y-63895143D01*
X127655850Y-63934391D01*
X127647393Y-64003312D01*
X127647393Y-64303548D01*
X127295500Y-64303548D01*
X127226569Y-64311982D01*
X127187331Y-64332765D01*
X127163246Y-64366064D01*
X127155000Y-64409061D01*
X126988333Y-64409061D01*
X126988333Y-61526690D01*
X127155000Y-61526690D01*
X127155000Y-61981623D01*
X127163413Y-62050549D01*
X127184125Y-62089700D01*
X127217436Y-62113781D01*
X127260512Y-62122032D01*
X127303572Y-62113778D01*
X127336808Y-62089700D01*
X127357588Y-62050539D01*
X127366025Y-61981623D01*
X127366025Y-61769498D01*
X127582913Y-61769498D01*
X127582913Y-61964220D01*
X127582913Y-61968250D01*
X127591323Y-62088665D01*
X127613046Y-62172682D01*
X127649846Y-62247987D01*
X127703080Y-62324357D01*
X127765897Y-62390223D01*
X127824347Y-62430419D01*
X127908861Y-62461949D01*
X127998462Y-62472459D01*
X128079244Y-62464570D01*
X128152281Y-62441483D01*
X128219301Y-62403070D01*
X128281478Y-62347895D01*
X128330820Y-62282635D01*
X128366931Y-62206159D01*
X128389661Y-62116310D01*
X128397707Y-62010291D01*
X128397707Y-61526690D01*
X128389274Y-61457759D01*
X128368490Y-61418521D01*
X128335262Y-61394515D01*
X128292194Y-61386281D01*
X128249110Y-61394512D01*
X128215807Y-61418521D01*
X128195091Y-61457749D01*
X128186681Y-61526690D01*
X128186681Y-61559480D01*
X127366025Y-61559480D01*
X127366025Y-61526690D01*
X127357639Y-61458575D01*
X127336808Y-61419070D01*
X127303534Y-61394635D01*
X127260512Y-61386281D01*
X127217429Y-61394512D01*
X127184125Y-61418521D01*
X127163410Y-61457749D01*
X127155000Y-61526690D01*
X126988333Y-61526690D01*
X126988333Y-60169494D01*
X127155000Y-60169494D01*
X127155000Y-60445091D01*
X127163413Y-60514017D01*
X127184125Y-60553168D01*
X127217436Y-60577249D01*
X127260512Y-60585500D01*
X127303572Y-60577246D01*
X127336808Y-60553168D01*
X127357588Y-60514007D01*
X127366025Y-60445091D01*
X127366025Y-60369254D01*
X128000935Y-60369254D01*
X127155000Y-60909275D01*
X127155000Y-61117278D01*
X128186681Y-61117278D01*
X128194797Y-61177095D01*
X128215807Y-61214639D01*
X128249072Y-61238291D01*
X128292194Y-61246421D01*
X128335254Y-61238167D01*
X128368490Y-61214090D01*
X128389270Y-61174929D01*
X128397707Y-61106012D01*
X128397707Y-60830415D01*
X128389274Y-60761484D01*
X128368490Y-60722246D01*
X128335262Y-60698240D01*
X128292194Y-60690006D01*
X128249110Y-60698236D01*
X128215807Y-60722246D01*
X128195091Y-60761474D01*
X128186681Y-60830415D01*
X128186681Y-60906160D01*
X127554886Y-60906160D01*
X128397707Y-60369254D01*
X128397707Y-60126446D01*
X128389274Y-60057515D01*
X128368490Y-60018277D01*
X128335262Y-59994271D01*
X128292194Y-59986037D01*
X128249110Y-59994268D01*
X128215807Y-60018277D01*
X128195091Y-60057505D01*
X128186681Y-60126446D01*
X128186681Y-60159235D01*
X127366025Y-60159235D01*
X127357854Y-60098542D01*
X127336808Y-60060867D01*
X127303618Y-60037218D01*
X127260512Y-60029084D01*
X127217429Y-60037315D01*
X127184125Y-60061324D01*
X127163410Y-60100553D01*
X127155000Y-60169494D01*
X126988333Y-60169494D01*
X126988333Y-59056112D01*
X127155000Y-59056112D01*
X127155000Y-59690381D01*
X127163413Y-59759307D01*
X127184125Y-59798458D01*
X127217436Y-59822539D01*
X127260512Y-59830790D01*
X127303572Y-59822536D01*
X127336808Y-59798458D01*
X127357588Y-59759297D01*
X127366025Y-59690381D01*
X127366025Y-59478256D01*
X128186681Y-59478256D01*
X128186681Y-59690381D01*
X128195095Y-59759307D01*
X128215807Y-59798458D01*
X128249118Y-59822539D01*
X128292194Y-59830790D01*
X128335254Y-59822536D01*
X128368490Y-59798458D01*
X128389270Y-59759297D01*
X128397707Y-59690381D01*
X128397707Y-59056112D01*
X128389270Y-58987196D01*
X128368490Y-58948035D01*
X128335262Y-58924029D01*
X128292194Y-58915795D01*
X128249110Y-58924026D01*
X128215807Y-58948035D01*
X128195095Y-58987186D01*
X128186681Y-59056112D01*
X128186681Y-59268237D01*
X127366025Y-59268237D01*
X127366025Y-59056112D01*
X127357588Y-58987196D01*
X127336808Y-58948035D01*
X127303580Y-58924029D01*
X127260512Y-58915795D01*
X127217429Y-58924026D01*
X127184125Y-58948035D01*
X127163413Y-58987186D01*
X127155000Y-59056112D01*
X126988333Y-59056112D01*
X126988333Y-57295732D01*
X127653255Y-57295732D01*
X127846695Y-57295732D01*
X127846695Y-56418565D01*
X127653255Y-56418565D01*
X127653255Y-57295732D01*
X126988333Y-57295732D01*
X126988333Y-56251898D01*
X128564374Y-56251898D01*
X128564374Y-65120878D01*
G37*
D11*
X179100000Y-52300000D02*
X179100000Y-68300000D01*
X117100000Y-68300000D02*
X117100000Y-52300000D01*
X118100000Y-51300000D02*
X178100000Y-51300000D01*
X117100000Y-49800000D02*
X179100000Y-49800000D01*
X179100000Y-68300000D02*
G75*
G02*
X178100000Y-69300000I-1000000J0D01*
G01*
X117100000Y-52300000D02*
G75*
G02*
X118100000Y-51300000I1000000J0D01*
G01*
X178100000Y-51300000D02*
G75*
G02*
X179100000Y-52300000I0J-1000000D01*
G01*
X178100000Y-69300000D02*
X118100000Y-69300000D01*
X118100000Y-69300000D02*
G75*
G02*
X117100000Y-68300000I0J1000000D01*
G01*
D10*
G36*
X168571590Y-40630712D02*
G01*
X168654638Y-40652858D01*
X168728281Y-40688782D01*
X168794031Y-40738873D01*
X168850581Y-40801153D01*
X168889035Y-40865077D01*
X168911593Y-40931614D01*
X168919145Y-41002198D01*
X168911590Y-41072177D01*
X168888987Y-41138349D01*
X168850376Y-41202139D01*
X168793482Y-41264515D01*
X168727459Y-41314628D01*
X168653788Y-41350521D01*
X168570996Y-41372614D01*
X168477126Y-41380286D01*
X168383215Y-41372619D01*
X168300309Y-41350533D01*
X168226465Y-41314639D01*
X168160221Y-41264515D01*
X168103053Y-41202105D01*
X168064279Y-41138306D01*
X168041590Y-41072148D01*
X168034009Y-41002198D01*
X168041587Y-40931643D01*
X168064230Y-40865119D01*
X168102849Y-40801187D01*
X168159672Y-40738873D01*
X168225688Y-40688764D01*
X168299522Y-40652840D01*
X168382671Y-40630705D01*
X168477126Y-40623011D01*
X168571590Y-40630712D01*
G37*
G36*
X169296837Y-44232677D02*
G01*
X167656316Y-44232677D01*
X167656316Y-43519853D01*
X167899187Y-43519853D01*
X167907554Y-43562804D01*
X167932068Y-43596148D01*
X167971682Y-43616975D01*
X168040054Y-43625366D01*
X168391580Y-43625366D01*
X168391580Y-43925601D01*
X168399199Y-43994518D01*
X168419882Y-44033770D01*
X168453286Y-44057774D01*
X168496543Y-44066010D01*
X168539817Y-44057777D01*
X168573297Y-44033770D01*
X168594149Y-43994522D01*
X168602606Y-43925601D01*
X168602606Y-43625366D01*
X168954499Y-43625366D01*
X169023430Y-43616932D01*
X169062668Y-43596148D01*
X169086753Y-43562850D01*
X169095000Y-43519853D01*
X169086730Y-43476874D01*
X169062668Y-43444016D01*
X169023489Y-43423640D01*
X168954499Y-43415348D01*
X168602606Y-43415348D01*
X168602606Y-43115112D01*
X168594145Y-43046206D01*
X168573297Y-43007035D01*
X168539810Y-42982956D01*
X168496543Y-42974703D01*
X168453391Y-42982978D01*
X168420431Y-43007035D01*
X168399923Y-43046156D01*
X168391580Y-43115112D01*
X168391580Y-43415348D01*
X168040054Y-43414248D01*
X167970880Y-43422690D01*
X167931610Y-43443466D01*
X167907458Y-43476785D01*
X167899187Y-43519853D01*
X167656316Y-43519853D01*
X167656316Y-41002198D01*
X167822983Y-41002198D01*
X167832515Y-41103823D01*
X167860876Y-41199833D01*
X167908730Y-41291908D01*
X167978046Y-41381293D01*
X168059685Y-41456453D01*
X168149070Y-41514265D01*
X168247304Y-41555864D01*
X168355988Y-41581456D01*
X168477126Y-41590304D01*
X168598292Y-41581445D01*
X168706859Y-41555834D01*
X168804857Y-41514226D01*
X168893902Y-41456423D01*
X168975107Y-41381293D01*
X169044424Y-41291908D01*
X169092277Y-41199833D01*
X169120638Y-41103823D01*
X169130170Y-41002198D01*
X169122817Y-40911583D01*
X169101052Y-40826225D01*
X169064716Y-40744898D01*
X169012858Y-40666634D01*
X168943783Y-40590771D01*
X168865931Y-40527089D01*
X168781459Y-40477857D01*
X168689411Y-40442351D01*
X168588492Y-40420520D01*
X168477126Y-40412992D01*
X168365270Y-40420531D01*
X168264011Y-40442386D01*
X168171758Y-40477909D01*
X168087201Y-40527134D01*
X168009371Y-40590771D01*
X167940295Y-40666634D01*
X167888437Y-40744898D01*
X167852101Y-40826225D01*
X167830336Y-40911583D01*
X167822983Y-41002198D01*
X167656316Y-41002198D01*
X167656316Y-39274057D01*
X167852292Y-39274057D01*
X167852292Y-39549655D01*
X167860725Y-39618586D01*
X167881509Y-39657824D01*
X167914737Y-39681830D01*
X167957805Y-39690064D01*
X168000889Y-39681833D01*
X168034192Y-39657824D01*
X168054908Y-39618596D01*
X168063318Y-39549655D01*
X168063318Y-39473818D01*
X168679451Y-39473818D01*
X168736879Y-39480571D01*
X168782308Y-39499463D01*
X168841611Y-39546738D01*
X168884157Y-39604976D01*
X168910387Y-39671816D01*
X168919145Y-39743370D01*
X168910904Y-39814292D01*
X168886878Y-39876613D01*
X168846605Y-39932414D01*
X168794329Y-39976920D01*
X168739222Y-40002358D01*
X168679451Y-40010816D01*
X168063318Y-40010816D01*
X168063318Y-39934979D01*
X168054904Y-39866052D01*
X168034192Y-39826901D01*
X168000881Y-39802820D01*
X167957805Y-39794569D01*
X167914745Y-39802824D01*
X167881509Y-39826901D01*
X167860729Y-39866062D01*
X167852292Y-39934979D01*
X167852292Y-40210576D01*
X167860776Y-40280309D01*
X167881509Y-40319203D01*
X167914699Y-40342852D01*
X167957805Y-40350985D01*
X168000927Y-40342855D01*
X168034192Y-40319203D01*
X168055169Y-40281537D01*
X168063318Y-40220834D01*
X168661041Y-40220834D01*
X168741486Y-40215999D01*
X168805071Y-40202841D01*
X168854939Y-40182916D01*
X168924717Y-40138459D01*
X168994341Y-40076853D01*
X169053309Y-40004036D01*
X169095641Y-39923163D01*
X169121425Y-39835262D01*
X169130170Y-39740256D01*
X169121439Y-39644490D01*
X169095913Y-39557620D01*
X169053627Y-39477786D01*
X168993333Y-39403659D01*
X168920481Y-39341938D01*
X168841819Y-39298754D01*
X168755986Y-39272712D01*
X168661041Y-39263799D01*
X168063318Y-39263799D01*
X168055169Y-39203096D01*
X168034192Y-39165430D01*
X168000927Y-39141778D01*
X167957805Y-39133648D01*
X167914745Y-39141902D01*
X167881509Y-39165980D01*
X167860729Y-39205141D01*
X167852292Y-39274057D01*
X167656316Y-39274057D01*
X167656316Y-39030700D01*
X167852292Y-39030700D01*
X168262620Y-39030700D01*
X168331793Y-39022258D01*
X168371064Y-39001482D01*
X168395119Y-38968320D01*
X168403304Y-38926103D01*
X168395077Y-38883098D01*
X168371064Y-38849808D01*
X168331793Y-38829032D01*
X168262620Y-38820590D01*
X168063318Y-38820590D01*
X168063318Y-38593169D01*
X168883974Y-38593169D01*
X168883974Y-38733487D01*
X168892407Y-38802418D01*
X168913191Y-38841656D01*
X168946419Y-38865662D01*
X168989487Y-38873896D01*
X169032570Y-38865665D01*
X169065874Y-38841656D01*
X169086589Y-38802428D01*
X169095000Y-38733487D01*
X169095000Y-38241643D01*
X169086586Y-38172717D01*
X169065874Y-38133565D01*
X169032570Y-38109556D01*
X168989487Y-38101325D01*
X168946419Y-38109559D01*
X168913191Y-38133565D01*
X168892411Y-38172727D01*
X168883974Y-38241643D01*
X168883974Y-38383060D01*
X168063318Y-38383060D01*
X168063318Y-38152525D01*
X168262620Y-38152525D01*
X168331793Y-38144083D01*
X168371064Y-38123307D01*
X168395123Y-38090157D01*
X168403304Y-38048019D01*
X168395073Y-38004936D01*
X168371064Y-37971632D01*
X168331793Y-37950856D01*
X168262620Y-37942415D01*
X167852292Y-37942415D01*
X167852292Y-39030700D01*
X167656316Y-39030700D01*
X167656316Y-36404418D01*
X168403304Y-36404418D01*
X168596744Y-36404418D01*
X168596744Y-35527250D01*
X168403304Y-35527250D01*
X168403304Y-36404418D01*
X167656316Y-36404418D01*
X167656316Y-35360583D01*
X169296837Y-35360583D01*
X169296837Y-44232677D01*
G37*
G36*
X128186681Y-41011298D02*
G01*
X128179743Y-41090163D01*
X128160860Y-41150793D01*
X128131727Y-41197228D01*
X128091682Y-41234373D01*
X128049448Y-41255390D01*
X128003499Y-41262349D01*
X127949667Y-41253767D01*
X127900973Y-41227887D01*
X127855488Y-41181932D01*
X127822635Y-41125195D01*
X127801575Y-41053882D01*
X127793939Y-40964220D01*
X127793939Y-40769498D01*
X128186681Y-40769498D01*
X128186681Y-41011298D01*
G37*
G36*
X128564374Y-44120878D02*
G01*
X126988333Y-44120878D01*
X126988333Y-43409061D01*
X127155000Y-43409061D01*
X127163269Y-43452039D01*
X127187331Y-43484898D01*
X127226510Y-43505274D01*
X127295500Y-43513566D01*
X127647393Y-43513566D01*
X127647393Y-43813802D01*
X127655854Y-43882708D01*
X127676702Y-43921879D01*
X127710189Y-43945958D01*
X127753456Y-43954211D01*
X127796608Y-43945936D01*
X127829568Y-43921879D01*
X127850076Y-43882758D01*
X127858419Y-43813802D01*
X127858419Y-43513566D01*
X128209945Y-43514665D01*
X128279119Y-43506224D01*
X128318389Y-43485448D01*
X128342541Y-43452129D01*
X128350812Y-43409061D01*
X128342445Y-43366110D01*
X128317931Y-43332765D01*
X128278317Y-43311939D01*
X128209945Y-43303548D01*
X127858419Y-43303548D01*
X127858419Y-43003312D01*
X127850800Y-42934396D01*
X127830117Y-42895143D01*
X127796713Y-42871139D01*
X127753456Y-42862903D01*
X127710182Y-42871136D01*
X127676702Y-42895143D01*
X127655850Y-42934391D01*
X127647393Y-43003312D01*
X127647393Y-43303548D01*
X127295500Y-43303548D01*
X127226569Y-43311982D01*
X127187331Y-43332765D01*
X127163246Y-43366064D01*
X127155000Y-43409061D01*
X126988333Y-43409061D01*
X126988333Y-40526690D01*
X127155000Y-40526690D01*
X127155000Y-40981623D01*
X127163413Y-41050549D01*
X127184125Y-41089700D01*
X127217436Y-41113781D01*
X127260512Y-41122032D01*
X127303572Y-41113778D01*
X127336808Y-41089700D01*
X127357588Y-41050539D01*
X127366025Y-40981623D01*
X127366025Y-40769498D01*
X127582913Y-40769498D01*
X127582913Y-40964220D01*
X127582913Y-40968250D01*
X127591323Y-41088665D01*
X127613046Y-41172682D01*
X127649846Y-41247987D01*
X127703080Y-41324357D01*
X127765897Y-41390223D01*
X127824347Y-41430419D01*
X127908861Y-41461949D01*
X127998462Y-41472459D01*
X128079244Y-41464570D01*
X128152281Y-41441483D01*
X128219301Y-41403070D01*
X128281478Y-41347895D01*
X128330820Y-41282635D01*
X128366931Y-41206159D01*
X128389661Y-41116310D01*
X128397707Y-41010291D01*
X128397707Y-40526690D01*
X128389274Y-40457759D01*
X128368490Y-40418521D01*
X128335262Y-40394515D01*
X128292194Y-40386281D01*
X128249110Y-40394512D01*
X128215807Y-40418521D01*
X128195091Y-40457749D01*
X128186681Y-40526690D01*
X128186681Y-40559480D01*
X127366025Y-40559480D01*
X127366025Y-40526690D01*
X127357639Y-40458575D01*
X127336808Y-40419070D01*
X127303534Y-40394635D01*
X127260512Y-40386281D01*
X127217429Y-40394512D01*
X127184125Y-40418521D01*
X127163410Y-40457749D01*
X127155000Y-40526690D01*
X126988333Y-40526690D01*
X126988333Y-39169494D01*
X127155000Y-39169494D01*
X127155000Y-39445091D01*
X127163413Y-39514017D01*
X127184125Y-39553168D01*
X127217436Y-39577249D01*
X127260512Y-39585500D01*
X127303572Y-39577246D01*
X127336808Y-39553168D01*
X127357588Y-39514007D01*
X127366025Y-39445091D01*
X127366025Y-39369254D01*
X128000935Y-39369254D01*
X127155000Y-39909275D01*
X127155000Y-40117278D01*
X128186681Y-40117278D01*
X128194797Y-40177095D01*
X128215807Y-40214639D01*
X128249072Y-40238291D01*
X128292194Y-40246421D01*
X128335254Y-40238167D01*
X128368490Y-40214090D01*
X128389270Y-40174929D01*
X128397707Y-40106012D01*
X128397707Y-39830415D01*
X128389274Y-39761484D01*
X128368490Y-39722246D01*
X128335262Y-39698240D01*
X128292194Y-39690006D01*
X128249110Y-39698236D01*
X128215807Y-39722246D01*
X128195091Y-39761474D01*
X128186681Y-39830415D01*
X128186681Y-39906160D01*
X127554886Y-39906160D01*
X128397707Y-39369254D01*
X128397707Y-39126446D01*
X128389274Y-39057515D01*
X128368490Y-39018277D01*
X128335262Y-38994271D01*
X128292194Y-38986037D01*
X128249110Y-38994268D01*
X128215807Y-39018277D01*
X128195091Y-39057505D01*
X128186681Y-39126446D01*
X128186681Y-39159235D01*
X127366025Y-39159235D01*
X127357854Y-39098542D01*
X127336808Y-39060867D01*
X127303618Y-39037218D01*
X127260512Y-39029084D01*
X127217429Y-39037315D01*
X127184125Y-39061324D01*
X127163410Y-39100553D01*
X127155000Y-39169494D01*
X126988333Y-39169494D01*
X126988333Y-38056112D01*
X127155000Y-38056112D01*
X127155000Y-38690381D01*
X127163413Y-38759307D01*
X127184125Y-38798458D01*
X127217436Y-38822539D01*
X127260512Y-38830790D01*
X127303572Y-38822536D01*
X127336808Y-38798458D01*
X127357588Y-38759297D01*
X127366025Y-38690381D01*
X127366025Y-38478256D01*
X128186681Y-38478256D01*
X128186681Y-38690381D01*
X128195095Y-38759307D01*
X128215807Y-38798458D01*
X128249118Y-38822539D01*
X128292194Y-38830790D01*
X128335254Y-38822536D01*
X128368490Y-38798458D01*
X128389270Y-38759297D01*
X128397707Y-38690381D01*
X128397707Y-38056112D01*
X128389270Y-37987196D01*
X128368490Y-37948035D01*
X128335262Y-37924029D01*
X128292194Y-37915795D01*
X128249110Y-37924026D01*
X128215807Y-37948035D01*
X128195095Y-37987186D01*
X128186681Y-38056112D01*
X128186681Y-38268237D01*
X127366025Y-38268237D01*
X127366025Y-38056112D01*
X127357588Y-37987196D01*
X127336808Y-37948035D01*
X127303580Y-37924029D01*
X127260512Y-37915795D01*
X127217429Y-37924026D01*
X127184125Y-37948035D01*
X127163413Y-37987186D01*
X127155000Y-38056112D01*
X126988333Y-38056112D01*
X126988333Y-36295732D01*
X127653255Y-36295732D01*
X127846695Y-36295732D01*
X127846695Y-35418565D01*
X127653255Y-35418565D01*
X127653255Y-36295732D01*
X126988333Y-36295732D01*
X126988333Y-35251898D01*
X128564374Y-35251898D01*
X128564374Y-44120878D01*
G37*
D11*
X179100000Y-31300000D02*
X179100000Y-47300000D01*
X117100000Y-47300000D02*
X117100000Y-31300000D01*
X118100000Y-30300000D02*
X178100000Y-30300000D01*
X179100000Y-47300000D02*
G75*
G02*
X178100000Y-48300000I-1000000J0D01*
G01*
X117100000Y-31300000D02*
G75*
G02*
X118100000Y-30300000I1000000J0D01*
G01*
X178100000Y-30300000D02*
G75*
G02*
X179100000Y-31300000I0J-1000000D01*
G01*
X178100000Y-48300000D02*
X118100000Y-48300000D01*
X118100000Y-48300000D02*
G75*
G02*
X117100000Y-47300000I0J1000000D01*
G01*
X118100000Y-132300000D02*
G75*
G02*
X117100000Y-131300000I0J1000000D01*
G01*
X178100000Y-132300000D02*
X118100000Y-132300000D01*
X178100000Y-114300000D02*
G75*
G02*
X179100000Y-115300000I0J-1000000D01*
G01*
X117100000Y-115300000D02*
G75*
G02*
X118100000Y-114300000I1000000J0D01*
G01*
X179100000Y-131300000D02*
G75*
G02*
X178100000Y-132300000I-1000000J0D01*
G01*
X117100000Y-112800000D02*
X179100000Y-112800000D01*
X118100000Y-114300000D02*
X178100000Y-114300000D01*
X117100000Y-131300000D02*
X117100000Y-115300000D01*
X179100000Y-115300000D02*
X179100000Y-131300000D01*
D10*
G36*
X128186681Y-125011298D02*
G01*
X128179743Y-125090163D01*
X128160860Y-125150793D01*
X128131727Y-125197228D01*
X128091682Y-125234373D01*
X128049448Y-125255390D01*
X128003499Y-125262349D01*
X127949667Y-125253767D01*
X127900973Y-125227887D01*
X127855488Y-125181932D01*
X127822635Y-125125195D01*
X127801575Y-125053882D01*
X127793939Y-124964220D01*
X127793939Y-124769498D01*
X128186681Y-124769498D01*
X128186681Y-125011298D01*
G37*
G36*
X128564374Y-128120878D02*
G01*
X126988333Y-128120878D01*
X126988333Y-127409061D01*
X127155000Y-127409061D01*
X127163269Y-127452039D01*
X127187331Y-127484898D01*
X127226510Y-127505274D01*
X127295500Y-127513566D01*
X127647393Y-127513566D01*
X127647393Y-127813802D01*
X127655854Y-127882708D01*
X127676702Y-127921879D01*
X127710189Y-127945958D01*
X127753456Y-127954211D01*
X127796608Y-127945936D01*
X127829568Y-127921879D01*
X127850076Y-127882758D01*
X127858419Y-127813802D01*
X127858419Y-127513566D01*
X128209945Y-127514665D01*
X128279119Y-127506224D01*
X128318389Y-127485448D01*
X128342541Y-127452129D01*
X128350812Y-127409061D01*
X128342445Y-127366110D01*
X128317931Y-127332765D01*
X128278317Y-127311939D01*
X128209945Y-127303548D01*
X127858419Y-127303548D01*
X127858419Y-127003312D01*
X127850800Y-126934396D01*
X127830117Y-126895143D01*
X127796713Y-126871139D01*
X127753456Y-126862903D01*
X127710182Y-126871136D01*
X127676702Y-126895143D01*
X127655850Y-126934391D01*
X127647393Y-127003312D01*
X127647393Y-127303548D01*
X127295500Y-127303548D01*
X127226569Y-127311982D01*
X127187331Y-127332765D01*
X127163246Y-127366064D01*
X127155000Y-127409061D01*
X126988333Y-127409061D01*
X126988333Y-124526690D01*
X127155000Y-124526690D01*
X127155000Y-124981623D01*
X127163413Y-125050549D01*
X127184125Y-125089700D01*
X127217436Y-125113781D01*
X127260512Y-125122032D01*
X127303572Y-125113778D01*
X127336808Y-125089700D01*
X127357588Y-125050539D01*
X127366025Y-124981623D01*
X127366025Y-124769498D01*
X127582913Y-124769498D01*
X127582913Y-124964220D01*
X127582913Y-124968250D01*
X127591323Y-125088665D01*
X127613046Y-125172682D01*
X127649846Y-125247987D01*
X127703080Y-125324357D01*
X127765897Y-125390223D01*
X127824347Y-125430419D01*
X127908861Y-125461949D01*
X127998462Y-125472459D01*
X128079244Y-125464570D01*
X128152281Y-125441483D01*
X128219301Y-125403070D01*
X128281478Y-125347895D01*
X128330820Y-125282635D01*
X128366931Y-125206159D01*
X128389661Y-125116310D01*
X128397707Y-125010291D01*
X128397707Y-124526690D01*
X128389274Y-124457759D01*
X128368490Y-124418521D01*
X128335262Y-124394515D01*
X128292194Y-124386281D01*
X128249110Y-124394512D01*
X128215807Y-124418521D01*
X128195091Y-124457749D01*
X128186681Y-124526690D01*
X128186681Y-124559480D01*
X127366025Y-124559480D01*
X127366025Y-124526690D01*
X127357639Y-124458575D01*
X127336808Y-124419070D01*
X127303534Y-124394635D01*
X127260512Y-124386281D01*
X127217429Y-124394512D01*
X127184125Y-124418521D01*
X127163410Y-124457749D01*
X127155000Y-124526690D01*
X126988333Y-124526690D01*
X126988333Y-123169494D01*
X127155000Y-123169494D01*
X127155000Y-123445091D01*
X127163413Y-123514017D01*
X127184125Y-123553168D01*
X127217436Y-123577249D01*
X127260512Y-123585500D01*
X127303572Y-123577246D01*
X127336808Y-123553168D01*
X127357588Y-123514007D01*
X127366025Y-123445091D01*
X127366025Y-123369254D01*
X128000935Y-123369254D01*
X127155000Y-123909275D01*
X127155000Y-124117278D01*
X128186681Y-124117278D01*
X128194797Y-124177095D01*
X128215807Y-124214639D01*
X128249072Y-124238291D01*
X128292194Y-124246421D01*
X128335254Y-124238167D01*
X128368490Y-124214090D01*
X128389270Y-124174929D01*
X128397707Y-124106012D01*
X128397707Y-123830415D01*
X128389274Y-123761484D01*
X128368490Y-123722246D01*
X128335262Y-123698240D01*
X128292194Y-123690006D01*
X128249110Y-123698236D01*
X128215807Y-123722246D01*
X128195091Y-123761474D01*
X128186681Y-123830415D01*
X128186681Y-123906160D01*
X127554886Y-123906160D01*
X128397707Y-123369254D01*
X128397707Y-123126446D01*
X128389274Y-123057515D01*
X128368490Y-123018277D01*
X128335262Y-122994271D01*
X128292194Y-122986037D01*
X128249110Y-122994268D01*
X128215807Y-123018277D01*
X128195091Y-123057505D01*
X128186681Y-123126446D01*
X128186681Y-123159235D01*
X127366025Y-123159235D01*
X127357854Y-123098542D01*
X127336808Y-123060867D01*
X127303618Y-123037218D01*
X127260512Y-123029084D01*
X127217429Y-123037315D01*
X127184125Y-123061324D01*
X127163410Y-123100553D01*
X127155000Y-123169494D01*
X126988333Y-123169494D01*
X126988333Y-122056112D01*
X127155000Y-122056112D01*
X127155000Y-122690381D01*
X127163413Y-122759307D01*
X127184125Y-122798458D01*
X127217436Y-122822539D01*
X127260512Y-122830790D01*
X127303572Y-122822536D01*
X127336808Y-122798458D01*
X127357588Y-122759297D01*
X127366025Y-122690381D01*
X127366025Y-122478256D01*
X128186681Y-122478256D01*
X128186681Y-122690381D01*
X128195095Y-122759307D01*
X128215807Y-122798458D01*
X128249118Y-122822539D01*
X128292194Y-122830790D01*
X128335254Y-122822536D01*
X128368490Y-122798458D01*
X128389270Y-122759297D01*
X128397707Y-122690381D01*
X128397707Y-122056112D01*
X128389270Y-121987196D01*
X128368490Y-121948035D01*
X128335262Y-121924029D01*
X128292194Y-121915795D01*
X128249110Y-121924026D01*
X128215807Y-121948035D01*
X128195095Y-121987186D01*
X128186681Y-122056112D01*
X128186681Y-122268237D01*
X127366025Y-122268237D01*
X127366025Y-122056112D01*
X127357588Y-121987196D01*
X127336808Y-121948035D01*
X127303580Y-121924029D01*
X127260512Y-121915795D01*
X127217429Y-121924026D01*
X127184125Y-121948035D01*
X127163413Y-121987186D01*
X127155000Y-122056112D01*
X126988333Y-122056112D01*
X126988333Y-120295732D01*
X127653255Y-120295732D01*
X127846695Y-120295732D01*
X127846695Y-119418565D01*
X127653255Y-119418565D01*
X127653255Y-120295732D01*
X126988333Y-120295732D01*
X126988333Y-119251898D01*
X128564374Y-119251898D01*
X128564374Y-128120878D01*
G37*
G36*
X168571590Y-124630712D02*
G01*
X168654638Y-124652858D01*
X168728281Y-124688782D01*
X168794031Y-124738873D01*
X168850581Y-124801153D01*
X168889035Y-124865077D01*
X168911593Y-124931614D01*
X168919145Y-125002198D01*
X168911590Y-125072177D01*
X168888987Y-125138349D01*
X168850376Y-125202139D01*
X168793482Y-125264515D01*
X168727459Y-125314628D01*
X168653788Y-125350521D01*
X168570996Y-125372614D01*
X168477126Y-125380286D01*
X168383215Y-125372619D01*
X168300309Y-125350533D01*
X168226465Y-125314639D01*
X168160221Y-125264515D01*
X168103053Y-125202105D01*
X168064279Y-125138306D01*
X168041590Y-125072148D01*
X168034009Y-125002198D01*
X168041587Y-124931643D01*
X168064230Y-124865119D01*
X168102849Y-124801187D01*
X168159672Y-124738873D01*
X168225688Y-124688764D01*
X168299522Y-124652840D01*
X168382671Y-124630705D01*
X168477126Y-124623011D01*
X168571590Y-124630712D01*
G37*
G36*
X169296837Y-128232677D02*
G01*
X167656316Y-128232677D01*
X167656316Y-127519853D01*
X167899187Y-127519853D01*
X167907554Y-127562804D01*
X167932068Y-127596148D01*
X167971682Y-127616975D01*
X168040054Y-127625366D01*
X168391580Y-127625366D01*
X168391580Y-127925601D01*
X168399199Y-127994518D01*
X168419882Y-128033770D01*
X168453286Y-128057774D01*
X168496543Y-128066010D01*
X168539817Y-128057777D01*
X168573297Y-128033770D01*
X168594149Y-127994522D01*
X168602606Y-127925601D01*
X168602606Y-127625366D01*
X168954499Y-127625366D01*
X169023430Y-127616932D01*
X169062668Y-127596148D01*
X169086753Y-127562850D01*
X169095000Y-127519853D01*
X169086730Y-127476874D01*
X169062668Y-127444016D01*
X169023489Y-127423640D01*
X168954499Y-127415348D01*
X168602606Y-127415348D01*
X168602606Y-127115112D01*
X168594145Y-127046206D01*
X168573297Y-127007035D01*
X168539810Y-126982956D01*
X168496543Y-126974703D01*
X168453391Y-126982978D01*
X168420431Y-127007035D01*
X168399923Y-127046156D01*
X168391580Y-127115112D01*
X168391580Y-127415348D01*
X168040054Y-127414248D01*
X167970880Y-127422690D01*
X167931610Y-127443466D01*
X167907458Y-127476785D01*
X167899187Y-127519853D01*
X167656316Y-127519853D01*
X167656316Y-125002198D01*
X167822983Y-125002198D01*
X167832515Y-125103823D01*
X167860876Y-125199833D01*
X167908730Y-125291908D01*
X167978046Y-125381293D01*
X168059685Y-125456453D01*
X168149070Y-125514265D01*
X168247304Y-125555864D01*
X168355988Y-125581456D01*
X168477126Y-125590304D01*
X168598292Y-125581445D01*
X168706859Y-125555834D01*
X168804857Y-125514226D01*
X168893902Y-125456423D01*
X168975107Y-125381293D01*
X169044424Y-125291908D01*
X169092277Y-125199833D01*
X169120638Y-125103823D01*
X169130170Y-125002198D01*
X169122817Y-124911583D01*
X169101052Y-124826225D01*
X169064716Y-124744898D01*
X169012858Y-124666634D01*
X168943783Y-124590771D01*
X168865931Y-124527089D01*
X168781459Y-124477857D01*
X168689411Y-124442351D01*
X168588492Y-124420520D01*
X168477126Y-124412992D01*
X168365270Y-124420531D01*
X168264011Y-124442386D01*
X168171758Y-124477909D01*
X168087201Y-124527134D01*
X168009371Y-124590771D01*
X167940295Y-124666634D01*
X167888437Y-124744898D01*
X167852101Y-124826225D01*
X167830336Y-124911583D01*
X167822983Y-125002198D01*
X167656316Y-125002198D01*
X167656316Y-123274057D01*
X167852292Y-123274057D01*
X167852292Y-123549655D01*
X167860725Y-123618586D01*
X167881509Y-123657824D01*
X167914737Y-123681830D01*
X167957805Y-123690064D01*
X168000889Y-123681833D01*
X168034192Y-123657824D01*
X168054908Y-123618596D01*
X168063318Y-123549655D01*
X168063318Y-123473818D01*
X168679451Y-123473818D01*
X168736879Y-123480571D01*
X168782308Y-123499463D01*
X168841611Y-123546738D01*
X168884157Y-123604976D01*
X168910387Y-123671816D01*
X168919145Y-123743370D01*
X168910904Y-123814292D01*
X168886878Y-123876613D01*
X168846605Y-123932414D01*
X168794329Y-123976920D01*
X168739222Y-124002358D01*
X168679451Y-124010816D01*
X168063318Y-124010816D01*
X168063318Y-123934979D01*
X168054904Y-123866052D01*
X168034192Y-123826901D01*
X168000881Y-123802820D01*
X167957805Y-123794569D01*
X167914745Y-123802824D01*
X167881509Y-123826901D01*
X167860729Y-123866062D01*
X167852292Y-123934979D01*
X167852292Y-124210576D01*
X167860776Y-124280309D01*
X167881509Y-124319203D01*
X167914699Y-124342852D01*
X167957805Y-124350985D01*
X168000927Y-124342855D01*
X168034192Y-124319203D01*
X168055169Y-124281537D01*
X168063318Y-124220834D01*
X168661041Y-124220834D01*
X168741486Y-124215999D01*
X168805071Y-124202841D01*
X168854939Y-124182916D01*
X168924717Y-124138459D01*
X168994341Y-124076853D01*
X169053309Y-124004036D01*
X169095641Y-123923163D01*
X169121425Y-123835262D01*
X169130170Y-123740256D01*
X169121439Y-123644490D01*
X169095913Y-123557620D01*
X169053627Y-123477786D01*
X168993333Y-123403659D01*
X168920481Y-123341938D01*
X168841819Y-123298754D01*
X168755986Y-123272712D01*
X168661041Y-123263799D01*
X168063318Y-123263799D01*
X168055169Y-123203096D01*
X168034192Y-123165430D01*
X168000927Y-123141778D01*
X167957805Y-123133648D01*
X167914745Y-123141902D01*
X167881509Y-123165980D01*
X167860729Y-123205141D01*
X167852292Y-123274057D01*
X167656316Y-123274057D01*
X167656316Y-123030700D01*
X167852292Y-123030700D01*
X168262620Y-123030700D01*
X168331793Y-123022258D01*
X168371064Y-123001482D01*
X168395119Y-122968320D01*
X168403304Y-122926103D01*
X168395077Y-122883098D01*
X168371064Y-122849808D01*
X168331793Y-122829032D01*
X168262620Y-122820590D01*
X168063318Y-122820590D01*
X168063318Y-122593169D01*
X168883974Y-122593169D01*
X168883974Y-122733487D01*
X168892407Y-122802418D01*
X168913191Y-122841656D01*
X168946419Y-122865662D01*
X168989487Y-122873896D01*
X169032570Y-122865665D01*
X169065874Y-122841656D01*
X169086589Y-122802428D01*
X169095000Y-122733487D01*
X169095000Y-122241643D01*
X169086586Y-122172717D01*
X169065874Y-122133565D01*
X169032570Y-122109556D01*
X168989487Y-122101325D01*
X168946419Y-122109559D01*
X168913191Y-122133565D01*
X168892411Y-122172727D01*
X168883974Y-122241643D01*
X168883974Y-122383060D01*
X168063318Y-122383060D01*
X168063318Y-122152525D01*
X168262620Y-122152525D01*
X168331793Y-122144083D01*
X168371064Y-122123307D01*
X168395123Y-122090157D01*
X168403304Y-122048019D01*
X168395073Y-122004936D01*
X168371064Y-121971632D01*
X168331793Y-121950856D01*
X168262620Y-121942415D01*
X167852292Y-121942415D01*
X167852292Y-123030700D01*
X167656316Y-123030700D01*
X167656316Y-120404418D01*
X168403304Y-120404418D01*
X168596744Y-120404418D01*
X168596744Y-119527250D01*
X168403304Y-119527250D01*
X168403304Y-120404418D01*
X167656316Y-120404418D01*
X167656316Y-119360583D01*
X169296837Y-119360583D01*
X169296837Y-128232677D01*
G37*
D12*
X139883333Y-110698846D02*
X139850000Y-110732180D01*
X139850000Y-110732180D02*
X139750000Y-110765513D01*
X139750000Y-110765513D02*
X139683333Y-110765513D01*
X139683333Y-110765513D02*
X139583333Y-110732180D01*
X139583333Y-110732180D02*
X139516667Y-110665513D01*
X139516667Y-110665513D02*
X139483333Y-110598846D01*
X139483333Y-110598846D02*
X139450000Y-110465513D01*
X139450000Y-110465513D02*
X139450000Y-110365513D01*
X139450000Y-110365513D02*
X139483333Y-110232180D01*
X139483333Y-110232180D02*
X139516667Y-110165513D01*
X139516667Y-110165513D02*
X139583333Y-110098846D01*
X139583333Y-110098846D02*
X139683333Y-110065513D01*
X139683333Y-110065513D02*
X139750000Y-110065513D01*
X139750000Y-110065513D02*
X139850000Y-110098846D01*
X139850000Y-110098846D02*
X139883333Y-110132180D01*
X140150000Y-110132180D02*
X140183333Y-110098846D01*
X140183333Y-110098846D02*
X140250000Y-110065513D01*
X140250000Y-110065513D02*
X140416667Y-110065513D01*
X140416667Y-110065513D02*
X140483333Y-110098846D01*
X140483333Y-110098846D02*
X140516667Y-110132180D01*
X140516667Y-110132180D02*
X140550000Y-110198846D01*
X140550000Y-110198846D02*
X140550000Y-110265513D01*
X140550000Y-110265513D02*
X140516667Y-110365513D01*
X140516667Y-110365513D02*
X140116667Y-110765513D01*
X140116667Y-110765513D02*
X140550000Y-110765513D01*
X145283333Y-110698846D02*
X145250000Y-110732180D01*
X145250000Y-110732180D02*
X145150000Y-110765513D01*
X145150000Y-110765513D02*
X145083333Y-110765513D01*
X145083333Y-110765513D02*
X144983333Y-110732180D01*
X144983333Y-110732180D02*
X144916667Y-110665513D01*
X144916667Y-110665513D02*
X144883333Y-110598846D01*
X144883333Y-110598846D02*
X144850000Y-110465513D01*
X144850000Y-110465513D02*
X144850000Y-110365513D01*
X144850000Y-110365513D02*
X144883333Y-110232180D01*
X144883333Y-110232180D02*
X144916667Y-110165513D01*
X144916667Y-110165513D02*
X144983333Y-110098846D01*
X144983333Y-110098846D02*
X145083333Y-110065513D01*
X145083333Y-110065513D02*
X145150000Y-110065513D01*
X145150000Y-110065513D02*
X145250000Y-110098846D01*
X145250000Y-110098846D02*
X145283333Y-110132180D01*
X145883333Y-110298846D02*
X145883333Y-110765513D01*
X145716667Y-110032180D02*
X145550000Y-110532180D01*
X145550000Y-110532180D02*
X145983333Y-110532180D01*
X143438095Y-101254299D02*
X143438095Y-102063822D01*
X143438095Y-102063822D02*
X143485714Y-102159060D01*
X143485714Y-102159060D02*
X143533333Y-102206680D01*
X143533333Y-102206680D02*
X143628571Y-102254299D01*
X143628571Y-102254299D02*
X143819047Y-102254299D01*
X143819047Y-102254299D02*
X143914285Y-102206680D01*
X143914285Y-102206680D02*
X143961904Y-102159060D01*
X143961904Y-102159060D02*
X144009523Y-102063822D01*
X144009523Y-102063822D02*
X144009523Y-101254299D01*
X145009523Y-102254299D02*
X144438095Y-102254299D01*
X144723809Y-102254299D02*
X144723809Y-101254299D01*
X144723809Y-101254299D02*
X144628571Y-101397156D01*
X144628571Y-101397156D02*
X144533333Y-101492394D01*
X144533333Y-101492394D02*
X144438095Y-101540013D01*
D13*
X153283333Y-102153259D02*
X152807143Y-102153259D01*
X152807143Y-102153259D02*
X152807143Y-101153259D01*
X154140476Y-102153259D02*
X153569048Y-102153259D01*
X153854762Y-102153259D02*
X153854762Y-101153259D01*
X153854762Y-101153259D02*
X153759524Y-101296116D01*
X153759524Y-101296116D02*
X153664286Y-101391354D01*
X153664286Y-101391354D02*
X153569048Y-101438973D01*
D12*
X143483333Y-110765513D02*
X143250000Y-110432180D01*
X143083333Y-110765513D02*
X143083333Y-110065513D01*
X143083333Y-110065513D02*
X143350000Y-110065513D01*
X143350000Y-110065513D02*
X143416667Y-110098846D01*
X143416667Y-110098846D02*
X143450000Y-110132180D01*
X143450000Y-110132180D02*
X143483333Y-110198846D01*
X143483333Y-110198846D02*
X143483333Y-110298846D01*
X143483333Y-110298846D02*
X143450000Y-110365513D01*
X143450000Y-110365513D02*
X143416667Y-110398846D01*
X143416667Y-110398846D02*
X143350000Y-110432180D01*
X143350000Y-110432180D02*
X143083333Y-110432180D01*
X143750000Y-110132180D02*
X143783333Y-110098846D01*
X143783333Y-110098846D02*
X143850000Y-110065513D01*
X143850000Y-110065513D02*
X144016667Y-110065513D01*
X144016667Y-110065513D02*
X144083333Y-110098846D01*
X144083333Y-110098846D02*
X144116667Y-110132180D01*
X144116667Y-110132180D02*
X144150000Y-110198846D01*
X144150000Y-110198846D02*
X144150000Y-110265513D01*
X144150000Y-110265513D02*
X144116667Y-110365513D01*
X144116667Y-110365513D02*
X143716667Y-110765513D01*
X143716667Y-110765513D02*
X144150000Y-110765513D01*
X140033333Y-97154299D02*
X139700000Y-96678108D01*
X139461905Y-97154299D02*
X139461905Y-96154299D01*
X139461905Y-96154299D02*
X139842857Y-96154299D01*
X139842857Y-96154299D02*
X139938095Y-96201918D01*
X139938095Y-96201918D02*
X139985714Y-96249537D01*
X139985714Y-96249537D02*
X140033333Y-96344775D01*
X140033333Y-96344775D02*
X140033333Y-96487632D01*
X140033333Y-96487632D02*
X139985714Y-96582870D01*
X139985714Y-96582870D02*
X139938095Y-96630489D01*
X139938095Y-96630489D02*
X139842857Y-96678108D01*
X139842857Y-96678108D02*
X139461905Y-96678108D01*
X140366667Y-96154299D02*
X140985714Y-96154299D01*
X140985714Y-96154299D02*
X140652381Y-96535251D01*
X140652381Y-96535251D02*
X140795238Y-96535251D01*
X140795238Y-96535251D02*
X140890476Y-96582870D01*
X140890476Y-96582870D02*
X140938095Y-96630489D01*
X140938095Y-96630489D02*
X140985714Y-96725727D01*
X140985714Y-96725727D02*
X140985714Y-96963822D01*
X140985714Y-96963822D02*
X140938095Y-97059060D01*
X140938095Y-97059060D02*
X140890476Y-97106680D01*
X140890476Y-97106680D02*
X140795238Y-97154299D01*
X140795238Y-97154299D02*
X140509524Y-97154299D01*
X140509524Y-97154299D02*
X140414286Y-97106680D01*
X140414286Y-97106680D02*
X140366667Y-97059060D01*
D13*
X173466666Y-101253259D02*
X173466666Y-101967544D01*
X173466666Y-101967544D02*
X173419047Y-102110401D01*
X173419047Y-102110401D02*
X173323809Y-102205640D01*
X173323809Y-102205640D02*
X173180952Y-102253259D01*
X173180952Y-102253259D02*
X173085714Y-102253259D01*
X173895238Y-101348497D02*
X173942857Y-101300878D01*
X173942857Y-101300878D02*
X174038095Y-101253259D01*
X174038095Y-101253259D02*
X174276190Y-101253259D01*
X174276190Y-101253259D02*
X174371428Y-101300878D01*
X174371428Y-101300878D02*
X174419047Y-101348497D01*
X174419047Y-101348497D02*
X174466666Y-101443735D01*
X174466666Y-101443735D02*
X174466666Y-101538973D01*
X174466666Y-101538973D02*
X174419047Y-101681830D01*
X174419047Y-101681830D02*
X173847619Y-102253259D01*
X173847619Y-102253259D02*
X174466666Y-102253259D01*
D12*
X144033333Y-104859060D02*
X143985714Y-104906680D01*
X143985714Y-104906680D02*
X143842857Y-104954299D01*
X143842857Y-104954299D02*
X143747619Y-104954299D01*
X143747619Y-104954299D02*
X143604762Y-104906680D01*
X143604762Y-104906680D02*
X143509524Y-104811441D01*
X143509524Y-104811441D02*
X143461905Y-104716203D01*
X143461905Y-104716203D02*
X143414286Y-104525727D01*
X143414286Y-104525727D02*
X143414286Y-104382870D01*
X143414286Y-104382870D02*
X143461905Y-104192394D01*
X143461905Y-104192394D02*
X143509524Y-104097156D01*
X143509524Y-104097156D02*
X143604762Y-104001918D01*
X143604762Y-104001918D02*
X143747619Y-103954299D01*
X143747619Y-103954299D02*
X143842857Y-103954299D01*
X143842857Y-103954299D02*
X143985714Y-104001918D01*
X143985714Y-104001918D02*
X144033333Y-104049537D01*
X144366667Y-103954299D02*
X144985714Y-103954299D01*
X144985714Y-103954299D02*
X144652381Y-104335251D01*
X144652381Y-104335251D02*
X144795238Y-104335251D01*
X144795238Y-104335251D02*
X144890476Y-104382870D01*
X144890476Y-104382870D02*
X144938095Y-104430489D01*
X144938095Y-104430489D02*
X144985714Y-104525727D01*
X144985714Y-104525727D02*
X144985714Y-104763822D01*
X144985714Y-104763822D02*
X144938095Y-104859060D01*
X144938095Y-104859060D02*
X144890476Y-104906680D01*
X144890476Y-104906680D02*
X144795238Y-104954299D01*
X144795238Y-104954299D02*
X144509524Y-104954299D01*
X144509524Y-104954299D02*
X144414286Y-104906680D01*
X144414286Y-104906680D02*
X144366667Y-104859060D01*
D13*
X122066666Y-101153259D02*
X122066666Y-101867544D01*
X122066666Y-101867544D02*
X122019047Y-102010401D01*
X122019047Y-102010401D02*
X121923809Y-102105640D01*
X121923809Y-102105640D02*
X121780952Y-102153259D01*
X121780952Y-102153259D02*
X121685714Y-102153259D01*
X123066666Y-102153259D02*
X122495238Y-102153259D01*
X122780952Y-102153259D02*
X122780952Y-101153259D01*
X122780952Y-101153259D02*
X122685714Y-101296116D01*
X122685714Y-101296116D02*
X122590476Y-101391354D01*
X122590476Y-101391354D02*
X122495238Y-101438973D01*
D12*
X141683333Y-110698846D02*
X141650000Y-110732180D01*
X141650000Y-110732180D02*
X141550000Y-110765513D01*
X141550000Y-110765513D02*
X141483333Y-110765513D01*
X141483333Y-110765513D02*
X141383333Y-110732180D01*
X141383333Y-110732180D02*
X141316667Y-110665513D01*
X141316667Y-110665513D02*
X141283333Y-110598846D01*
X141283333Y-110598846D02*
X141250000Y-110465513D01*
X141250000Y-110465513D02*
X141250000Y-110365513D01*
X141250000Y-110365513D02*
X141283333Y-110232180D01*
X141283333Y-110232180D02*
X141316667Y-110165513D01*
X141316667Y-110165513D02*
X141383333Y-110098846D01*
X141383333Y-110098846D02*
X141483333Y-110065513D01*
X141483333Y-110065513D02*
X141550000Y-110065513D01*
X141550000Y-110065513D02*
X141650000Y-110098846D01*
X141650000Y-110098846D02*
X141683333Y-110132180D01*
X142316667Y-110065513D02*
X141983333Y-110065513D01*
X141983333Y-110065513D02*
X141950000Y-110398846D01*
X141950000Y-110398846D02*
X141983333Y-110365513D01*
X141983333Y-110365513D02*
X142050000Y-110332180D01*
X142050000Y-110332180D02*
X142216667Y-110332180D01*
X142216667Y-110332180D02*
X142283333Y-110365513D01*
X142283333Y-110365513D02*
X142316667Y-110398846D01*
X142316667Y-110398846D02*
X142350000Y-110465513D01*
X142350000Y-110465513D02*
X142350000Y-110632180D01*
X142350000Y-110632180D02*
X142316667Y-110698846D01*
X142316667Y-110698846D02*
X142283333Y-110732180D01*
X142283333Y-110732180D02*
X142216667Y-110765513D01*
X142216667Y-110765513D02*
X142050000Y-110765513D01*
X142050000Y-110765513D02*
X141983333Y-110732180D01*
X141983333Y-110732180D02*
X141950000Y-110698846D01*
X138033333Y-105004299D02*
X137700000Y-104528108D01*
X137461905Y-105004299D02*
X137461905Y-104004299D01*
X137461905Y-104004299D02*
X137842857Y-104004299D01*
X137842857Y-104004299D02*
X137938095Y-104051918D01*
X137938095Y-104051918D02*
X137985714Y-104099537D01*
X137985714Y-104099537D02*
X138033333Y-104194775D01*
X138033333Y-104194775D02*
X138033333Y-104337632D01*
X138033333Y-104337632D02*
X137985714Y-104432870D01*
X137985714Y-104432870D02*
X137938095Y-104480489D01*
X137938095Y-104480489D02*
X137842857Y-104528108D01*
X137842857Y-104528108D02*
X137461905Y-104528108D01*
X138890476Y-104337632D02*
X138890476Y-105004299D01*
X138652381Y-103956680D02*
X138414286Y-104670965D01*
X138414286Y-104670965D02*
X139033333Y-104670965D01*
X143333333Y-96959060D02*
X143285714Y-97006680D01*
X143285714Y-97006680D02*
X143142857Y-97054299D01*
X143142857Y-97054299D02*
X143047619Y-97054299D01*
X143047619Y-97054299D02*
X142904762Y-97006680D01*
X142904762Y-97006680D02*
X142809524Y-96911441D01*
X142809524Y-96911441D02*
X142761905Y-96816203D01*
X142761905Y-96816203D02*
X142714286Y-96625727D01*
X142714286Y-96625727D02*
X142714286Y-96482870D01*
X142714286Y-96482870D02*
X142761905Y-96292394D01*
X142761905Y-96292394D02*
X142809524Y-96197156D01*
X142809524Y-96197156D02*
X142904762Y-96101918D01*
X142904762Y-96101918D02*
X143047619Y-96054299D01*
X143047619Y-96054299D02*
X143142857Y-96054299D01*
X143142857Y-96054299D02*
X143285714Y-96101918D01*
X143285714Y-96101918D02*
X143333333Y-96149537D01*
X144285714Y-97054299D02*
X143714286Y-97054299D01*
X144000000Y-97054299D02*
X144000000Y-96054299D01*
X144000000Y-96054299D02*
X143904762Y-96197156D01*
X143904762Y-96197156D02*
X143809524Y-96292394D01*
X143809524Y-96292394D02*
X143714286Y-96340013D01*
X138083333Y-110765513D02*
X137850000Y-110432180D01*
X137683333Y-110765513D02*
X137683333Y-110065513D01*
X137683333Y-110065513D02*
X137950000Y-110065513D01*
X137950000Y-110065513D02*
X138016667Y-110098846D01*
X138016667Y-110098846D02*
X138050000Y-110132180D01*
X138050000Y-110132180D02*
X138083333Y-110198846D01*
X138083333Y-110198846D02*
X138083333Y-110298846D01*
X138083333Y-110298846D02*
X138050000Y-110365513D01*
X138050000Y-110365513D02*
X138016667Y-110398846D01*
X138016667Y-110398846D02*
X137950000Y-110432180D01*
X137950000Y-110432180D02*
X137683333Y-110432180D01*
X138750000Y-110765513D02*
X138350000Y-110765513D01*
X138550000Y-110765513D02*
X138550000Y-110065513D01*
X138550000Y-110065513D02*
X138483333Y-110165513D01*
X138483333Y-110165513D02*
X138416667Y-110232180D01*
X138416667Y-110232180D02*
X138350000Y-110265513D01*
X139883333Y-89698846D02*
X139850000Y-89732180D01*
X139850000Y-89732180D02*
X139750000Y-89765513D01*
X139750000Y-89765513D02*
X139683333Y-89765513D01*
X139683333Y-89765513D02*
X139583333Y-89732180D01*
X139583333Y-89732180D02*
X139516667Y-89665513D01*
X139516667Y-89665513D02*
X139483333Y-89598846D01*
X139483333Y-89598846D02*
X139450000Y-89465513D01*
X139450000Y-89465513D02*
X139450000Y-89365513D01*
X139450000Y-89365513D02*
X139483333Y-89232180D01*
X139483333Y-89232180D02*
X139516667Y-89165513D01*
X139516667Y-89165513D02*
X139583333Y-89098846D01*
X139583333Y-89098846D02*
X139683333Y-89065513D01*
X139683333Y-89065513D02*
X139750000Y-89065513D01*
X139750000Y-89065513D02*
X139850000Y-89098846D01*
X139850000Y-89098846D02*
X139883333Y-89132180D01*
X140150000Y-89132180D02*
X140183333Y-89098846D01*
X140183333Y-89098846D02*
X140250000Y-89065513D01*
X140250000Y-89065513D02*
X140416667Y-89065513D01*
X140416667Y-89065513D02*
X140483333Y-89098846D01*
X140483333Y-89098846D02*
X140516667Y-89132180D01*
X140516667Y-89132180D02*
X140550000Y-89198846D01*
X140550000Y-89198846D02*
X140550000Y-89265513D01*
X140550000Y-89265513D02*
X140516667Y-89365513D01*
X140516667Y-89365513D02*
X140116667Y-89765513D01*
X140116667Y-89765513D02*
X140550000Y-89765513D01*
X145283333Y-89698846D02*
X145250000Y-89732180D01*
X145250000Y-89732180D02*
X145150000Y-89765513D01*
X145150000Y-89765513D02*
X145083333Y-89765513D01*
X145083333Y-89765513D02*
X144983333Y-89732180D01*
X144983333Y-89732180D02*
X144916667Y-89665513D01*
X144916667Y-89665513D02*
X144883333Y-89598846D01*
X144883333Y-89598846D02*
X144850000Y-89465513D01*
X144850000Y-89465513D02*
X144850000Y-89365513D01*
X144850000Y-89365513D02*
X144883333Y-89232180D01*
X144883333Y-89232180D02*
X144916667Y-89165513D01*
X144916667Y-89165513D02*
X144983333Y-89098846D01*
X144983333Y-89098846D02*
X145083333Y-89065513D01*
X145083333Y-89065513D02*
X145150000Y-89065513D01*
X145150000Y-89065513D02*
X145250000Y-89098846D01*
X145250000Y-89098846D02*
X145283333Y-89132180D01*
X145883333Y-89298846D02*
X145883333Y-89765513D01*
X145716667Y-89032180D02*
X145550000Y-89532180D01*
X145550000Y-89532180D02*
X145983333Y-89532180D01*
X143438095Y-80254299D02*
X143438095Y-81063822D01*
X143438095Y-81063822D02*
X143485714Y-81159060D01*
X143485714Y-81159060D02*
X143533333Y-81206680D01*
X143533333Y-81206680D02*
X143628571Y-81254299D01*
X143628571Y-81254299D02*
X143819047Y-81254299D01*
X143819047Y-81254299D02*
X143914285Y-81206680D01*
X143914285Y-81206680D02*
X143961904Y-81159060D01*
X143961904Y-81159060D02*
X144009523Y-81063822D01*
X144009523Y-81063822D02*
X144009523Y-80254299D01*
X145009523Y-81254299D02*
X144438095Y-81254299D01*
X144723809Y-81254299D02*
X144723809Y-80254299D01*
X144723809Y-80254299D02*
X144628571Y-80397156D01*
X144628571Y-80397156D02*
X144533333Y-80492394D01*
X144533333Y-80492394D02*
X144438095Y-80540013D01*
D13*
X153283333Y-81153259D02*
X152807143Y-81153259D01*
X152807143Y-81153259D02*
X152807143Y-80153259D01*
X154140476Y-81153259D02*
X153569048Y-81153259D01*
X153854762Y-81153259D02*
X153854762Y-80153259D01*
X153854762Y-80153259D02*
X153759524Y-80296116D01*
X153759524Y-80296116D02*
X153664286Y-80391354D01*
X153664286Y-80391354D02*
X153569048Y-80438973D01*
D12*
X143483333Y-89765513D02*
X143250000Y-89432180D01*
X143083333Y-89765513D02*
X143083333Y-89065513D01*
X143083333Y-89065513D02*
X143350000Y-89065513D01*
X143350000Y-89065513D02*
X143416667Y-89098846D01*
X143416667Y-89098846D02*
X143450000Y-89132180D01*
X143450000Y-89132180D02*
X143483333Y-89198846D01*
X143483333Y-89198846D02*
X143483333Y-89298846D01*
X143483333Y-89298846D02*
X143450000Y-89365513D01*
X143450000Y-89365513D02*
X143416667Y-89398846D01*
X143416667Y-89398846D02*
X143350000Y-89432180D01*
X143350000Y-89432180D02*
X143083333Y-89432180D01*
X143750000Y-89132180D02*
X143783333Y-89098846D01*
X143783333Y-89098846D02*
X143850000Y-89065513D01*
X143850000Y-89065513D02*
X144016667Y-89065513D01*
X144016667Y-89065513D02*
X144083333Y-89098846D01*
X144083333Y-89098846D02*
X144116667Y-89132180D01*
X144116667Y-89132180D02*
X144150000Y-89198846D01*
X144150000Y-89198846D02*
X144150000Y-89265513D01*
X144150000Y-89265513D02*
X144116667Y-89365513D01*
X144116667Y-89365513D02*
X143716667Y-89765513D01*
X143716667Y-89765513D02*
X144150000Y-89765513D01*
X140033333Y-76154299D02*
X139700000Y-75678108D01*
X139461905Y-76154299D02*
X139461905Y-75154299D01*
X139461905Y-75154299D02*
X139842857Y-75154299D01*
X139842857Y-75154299D02*
X139938095Y-75201918D01*
X139938095Y-75201918D02*
X139985714Y-75249537D01*
X139985714Y-75249537D02*
X140033333Y-75344775D01*
X140033333Y-75344775D02*
X140033333Y-75487632D01*
X140033333Y-75487632D02*
X139985714Y-75582870D01*
X139985714Y-75582870D02*
X139938095Y-75630489D01*
X139938095Y-75630489D02*
X139842857Y-75678108D01*
X139842857Y-75678108D02*
X139461905Y-75678108D01*
X140366667Y-75154299D02*
X140985714Y-75154299D01*
X140985714Y-75154299D02*
X140652381Y-75535251D01*
X140652381Y-75535251D02*
X140795238Y-75535251D01*
X140795238Y-75535251D02*
X140890476Y-75582870D01*
X140890476Y-75582870D02*
X140938095Y-75630489D01*
X140938095Y-75630489D02*
X140985714Y-75725727D01*
X140985714Y-75725727D02*
X140985714Y-75963822D01*
X140985714Y-75963822D02*
X140938095Y-76059060D01*
X140938095Y-76059060D02*
X140890476Y-76106680D01*
X140890476Y-76106680D02*
X140795238Y-76154299D01*
X140795238Y-76154299D02*
X140509524Y-76154299D01*
X140509524Y-76154299D02*
X140414286Y-76106680D01*
X140414286Y-76106680D02*
X140366667Y-76059060D01*
D13*
X173466666Y-80253259D02*
X173466666Y-80967544D01*
X173466666Y-80967544D02*
X173419047Y-81110401D01*
X173419047Y-81110401D02*
X173323809Y-81205640D01*
X173323809Y-81205640D02*
X173180952Y-81253259D01*
X173180952Y-81253259D02*
X173085714Y-81253259D01*
X173895238Y-80348497D02*
X173942857Y-80300878D01*
X173942857Y-80300878D02*
X174038095Y-80253259D01*
X174038095Y-80253259D02*
X174276190Y-80253259D01*
X174276190Y-80253259D02*
X174371428Y-80300878D01*
X174371428Y-80300878D02*
X174419047Y-80348497D01*
X174419047Y-80348497D02*
X174466666Y-80443735D01*
X174466666Y-80443735D02*
X174466666Y-80538973D01*
X174466666Y-80538973D02*
X174419047Y-80681830D01*
X174419047Y-80681830D02*
X173847619Y-81253259D01*
X173847619Y-81253259D02*
X174466666Y-81253259D01*
D12*
X144033333Y-83859060D02*
X143985714Y-83906680D01*
X143985714Y-83906680D02*
X143842857Y-83954299D01*
X143842857Y-83954299D02*
X143747619Y-83954299D01*
X143747619Y-83954299D02*
X143604762Y-83906680D01*
X143604762Y-83906680D02*
X143509524Y-83811441D01*
X143509524Y-83811441D02*
X143461905Y-83716203D01*
X143461905Y-83716203D02*
X143414286Y-83525727D01*
X143414286Y-83525727D02*
X143414286Y-83382870D01*
X143414286Y-83382870D02*
X143461905Y-83192394D01*
X143461905Y-83192394D02*
X143509524Y-83097156D01*
X143509524Y-83097156D02*
X143604762Y-83001918D01*
X143604762Y-83001918D02*
X143747619Y-82954299D01*
X143747619Y-82954299D02*
X143842857Y-82954299D01*
X143842857Y-82954299D02*
X143985714Y-83001918D01*
X143985714Y-83001918D02*
X144033333Y-83049537D01*
X144366667Y-82954299D02*
X144985714Y-82954299D01*
X144985714Y-82954299D02*
X144652381Y-83335251D01*
X144652381Y-83335251D02*
X144795238Y-83335251D01*
X144795238Y-83335251D02*
X144890476Y-83382870D01*
X144890476Y-83382870D02*
X144938095Y-83430489D01*
X144938095Y-83430489D02*
X144985714Y-83525727D01*
X144985714Y-83525727D02*
X144985714Y-83763822D01*
X144985714Y-83763822D02*
X144938095Y-83859060D01*
X144938095Y-83859060D02*
X144890476Y-83906680D01*
X144890476Y-83906680D02*
X144795238Y-83954299D01*
X144795238Y-83954299D02*
X144509524Y-83954299D01*
X144509524Y-83954299D02*
X144414286Y-83906680D01*
X144414286Y-83906680D02*
X144366667Y-83859060D01*
D13*
X122066666Y-80153259D02*
X122066666Y-80867544D01*
X122066666Y-80867544D02*
X122019047Y-81010401D01*
X122019047Y-81010401D02*
X121923809Y-81105640D01*
X121923809Y-81105640D02*
X121780952Y-81153259D01*
X121780952Y-81153259D02*
X121685714Y-81153259D01*
X123066666Y-81153259D02*
X122495238Y-81153259D01*
X122780952Y-81153259D02*
X122780952Y-80153259D01*
X122780952Y-80153259D02*
X122685714Y-80296116D01*
X122685714Y-80296116D02*
X122590476Y-80391354D01*
X122590476Y-80391354D02*
X122495238Y-80438973D01*
D12*
X141683333Y-89698846D02*
X141650000Y-89732180D01*
X141650000Y-89732180D02*
X141550000Y-89765513D01*
X141550000Y-89765513D02*
X141483333Y-89765513D01*
X141483333Y-89765513D02*
X141383333Y-89732180D01*
X141383333Y-89732180D02*
X141316667Y-89665513D01*
X141316667Y-89665513D02*
X141283333Y-89598846D01*
X141283333Y-89598846D02*
X141250000Y-89465513D01*
X141250000Y-89465513D02*
X141250000Y-89365513D01*
X141250000Y-89365513D02*
X141283333Y-89232180D01*
X141283333Y-89232180D02*
X141316667Y-89165513D01*
X141316667Y-89165513D02*
X141383333Y-89098846D01*
X141383333Y-89098846D02*
X141483333Y-89065513D01*
X141483333Y-89065513D02*
X141550000Y-89065513D01*
X141550000Y-89065513D02*
X141650000Y-89098846D01*
X141650000Y-89098846D02*
X141683333Y-89132180D01*
X142316667Y-89065513D02*
X141983333Y-89065513D01*
X141983333Y-89065513D02*
X141950000Y-89398846D01*
X141950000Y-89398846D02*
X141983333Y-89365513D01*
X141983333Y-89365513D02*
X142050000Y-89332180D01*
X142050000Y-89332180D02*
X142216667Y-89332180D01*
X142216667Y-89332180D02*
X142283333Y-89365513D01*
X142283333Y-89365513D02*
X142316667Y-89398846D01*
X142316667Y-89398846D02*
X142350000Y-89465513D01*
X142350000Y-89465513D02*
X142350000Y-89632180D01*
X142350000Y-89632180D02*
X142316667Y-89698846D01*
X142316667Y-89698846D02*
X142283333Y-89732180D01*
X142283333Y-89732180D02*
X142216667Y-89765513D01*
X142216667Y-89765513D02*
X142050000Y-89765513D01*
X142050000Y-89765513D02*
X141983333Y-89732180D01*
X141983333Y-89732180D02*
X141950000Y-89698846D01*
X138033333Y-84004299D02*
X137700000Y-83528108D01*
X137461905Y-84004299D02*
X137461905Y-83004299D01*
X137461905Y-83004299D02*
X137842857Y-83004299D01*
X137842857Y-83004299D02*
X137938095Y-83051918D01*
X137938095Y-83051918D02*
X137985714Y-83099537D01*
X137985714Y-83099537D02*
X138033333Y-83194775D01*
X138033333Y-83194775D02*
X138033333Y-83337632D01*
X138033333Y-83337632D02*
X137985714Y-83432870D01*
X137985714Y-83432870D02*
X137938095Y-83480489D01*
X137938095Y-83480489D02*
X137842857Y-83528108D01*
X137842857Y-83528108D02*
X137461905Y-83528108D01*
X138890476Y-83337632D02*
X138890476Y-84004299D01*
X138652381Y-82956680D02*
X138414286Y-83670965D01*
X138414286Y-83670965D02*
X139033333Y-83670965D01*
X143333333Y-75959060D02*
X143285714Y-76006680D01*
X143285714Y-76006680D02*
X143142857Y-76054299D01*
X143142857Y-76054299D02*
X143047619Y-76054299D01*
X143047619Y-76054299D02*
X142904762Y-76006680D01*
X142904762Y-76006680D02*
X142809524Y-75911441D01*
X142809524Y-75911441D02*
X142761905Y-75816203D01*
X142761905Y-75816203D02*
X142714286Y-75625727D01*
X142714286Y-75625727D02*
X142714286Y-75482870D01*
X142714286Y-75482870D02*
X142761905Y-75292394D01*
X142761905Y-75292394D02*
X142809524Y-75197156D01*
X142809524Y-75197156D02*
X142904762Y-75101918D01*
X142904762Y-75101918D02*
X143047619Y-75054299D01*
X143047619Y-75054299D02*
X143142857Y-75054299D01*
X143142857Y-75054299D02*
X143285714Y-75101918D01*
X143285714Y-75101918D02*
X143333333Y-75149537D01*
X144285714Y-76054299D02*
X143714286Y-76054299D01*
X144000000Y-76054299D02*
X144000000Y-75054299D01*
X144000000Y-75054299D02*
X143904762Y-75197156D01*
X143904762Y-75197156D02*
X143809524Y-75292394D01*
X143809524Y-75292394D02*
X143714286Y-75340013D01*
X138083333Y-89765513D02*
X137850000Y-89432180D01*
X137683333Y-89765513D02*
X137683333Y-89065513D01*
X137683333Y-89065513D02*
X137950000Y-89065513D01*
X137950000Y-89065513D02*
X138016667Y-89098846D01*
X138016667Y-89098846D02*
X138050000Y-89132180D01*
X138050000Y-89132180D02*
X138083333Y-89198846D01*
X138083333Y-89198846D02*
X138083333Y-89298846D01*
X138083333Y-89298846D02*
X138050000Y-89365513D01*
X138050000Y-89365513D02*
X138016667Y-89398846D01*
X138016667Y-89398846D02*
X137950000Y-89432180D01*
X137950000Y-89432180D02*
X137683333Y-89432180D01*
X138750000Y-89765513D02*
X138350000Y-89765513D01*
X138550000Y-89765513D02*
X138550000Y-89065513D01*
X138550000Y-89065513D02*
X138483333Y-89165513D01*
X138483333Y-89165513D02*
X138416667Y-89232180D01*
X138416667Y-89232180D02*
X138350000Y-89265513D01*
X139883333Y-68698846D02*
X139850000Y-68732180D01*
X139850000Y-68732180D02*
X139750000Y-68765513D01*
X139750000Y-68765513D02*
X139683333Y-68765513D01*
X139683333Y-68765513D02*
X139583333Y-68732180D01*
X139583333Y-68732180D02*
X139516667Y-68665513D01*
X139516667Y-68665513D02*
X139483333Y-68598846D01*
X139483333Y-68598846D02*
X139450000Y-68465513D01*
X139450000Y-68465513D02*
X139450000Y-68365513D01*
X139450000Y-68365513D02*
X139483333Y-68232180D01*
X139483333Y-68232180D02*
X139516667Y-68165513D01*
X139516667Y-68165513D02*
X139583333Y-68098846D01*
X139583333Y-68098846D02*
X139683333Y-68065513D01*
X139683333Y-68065513D02*
X139750000Y-68065513D01*
X139750000Y-68065513D02*
X139850000Y-68098846D01*
X139850000Y-68098846D02*
X139883333Y-68132180D01*
X140150000Y-68132180D02*
X140183333Y-68098846D01*
X140183333Y-68098846D02*
X140250000Y-68065513D01*
X140250000Y-68065513D02*
X140416667Y-68065513D01*
X140416667Y-68065513D02*
X140483333Y-68098846D01*
X140483333Y-68098846D02*
X140516667Y-68132180D01*
X140516667Y-68132180D02*
X140550000Y-68198846D01*
X140550000Y-68198846D02*
X140550000Y-68265513D01*
X140550000Y-68265513D02*
X140516667Y-68365513D01*
X140516667Y-68365513D02*
X140116667Y-68765513D01*
X140116667Y-68765513D02*
X140550000Y-68765513D01*
X145283333Y-68698846D02*
X145250000Y-68732180D01*
X145250000Y-68732180D02*
X145150000Y-68765513D01*
X145150000Y-68765513D02*
X145083333Y-68765513D01*
X145083333Y-68765513D02*
X144983333Y-68732180D01*
X144983333Y-68732180D02*
X144916667Y-68665513D01*
X144916667Y-68665513D02*
X144883333Y-68598846D01*
X144883333Y-68598846D02*
X144850000Y-68465513D01*
X144850000Y-68465513D02*
X144850000Y-68365513D01*
X144850000Y-68365513D02*
X144883333Y-68232180D01*
X144883333Y-68232180D02*
X144916667Y-68165513D01*
X144916667Y-68165513D02*
X144983333Y-68098846D01*
X144983333Y-68098846D02*
X145083333Y-68065513D01*
X145083333Y-68065513D02*
X145150000Y-68065513D01*
X145150000Y-68065513D02*
X145250000Y-68098846D01*
X145250000Y-68098846D02*
X145283333Y-68132180D01*
X145883333Y-68298846D02*
X145883333Y-68765513D01*
X145716667Y-68032180D02*
X145550000Y-68532180D01*
X145550000Y-68532180D02*
X145983333Y-68532180D01*
X143438095Y-59254299D02*
X143438095Y-60063822D01*
X143438095Y-60063822D02*
X143485714Y-60159060D01*
X143485714Y-60159060D02*
X143533333Y-60206680D01*
X143533333Y-60206680D02*
X143628571Y-60254299D01*
X143628571Y-60254299D02*
X143819047Y-60254299D01*
X143819047Y-60254299D02*
X143914285Y-60206680D01*
X143914285Y-60206680D02*
X143961904Y-60159060D01*
X143961904Y-60159060D02*
X144009523Y-60063822D01*
X144009523Y-60063822D02*
X144009523Y-59254299D01*
X145009523Y-60254299D02*
X144438095Y-60254299D01*
X144723809Y-60254299D02*
X144723809Y-59254299D01*
X144723809Y-59254299D02*
X144628571Y-59397156D01*
X144628571Y-59397156D02*
X144533333Y-59492394D01*
X144533333Y-59492394D02*
X144438095Y-59540013D01*
D13*
X153283333Y-60153259D02*
X152807143Y-60153259D01*
X152807143Y-60153259D02*
X152807143Y-59153259D01*
X154140476Y-60153259D02*
X153569048Y-60153259D01*
X153854762Y-60153259D02*
X153854762Y-59153259D01*
X153854762Y-59153259D02*
X153759524Y-59296116D01*
X153759524Y-59296116D02*
X153664286Y-59391354D01*
X153664286Y-59391354D02*
X153569048Y-59438973D01*
D12*
X143483333Y-68765513D02*
X143250000Y-68432180D01*
X143083333Y-68765513D02*
X143083333Y-68065513D01*
X143083333Y-68065513D02*
X143350000Y-68065513D01*
X143350000Y-68065513D02*
X143416667Y-68098846D01*
X143416667Y-68098846D02*
X143450000Y-68132180D01*
X143450000Y-68132180D02*
X143483333Y-68198846D01*
X143483333Y-68198846D02*
X143483333Y-68298846D01*
X143483333Y-68298846D02*
X143450000Y-68365513D01*
X143450000Y-68365513D02*
X143416667Y-68398846D01*
X143416667Y-68398846D02*
X143350000Y-68432180D01*
X143350000Y-68432180D02*
X143083333Y-68432180D01*
X143750000Y-68132180D02*
X143783333Y-68098846D01*
X143783333Y-68098846D02*
X143850000Y-68065513D01*
X143850000Y-68065513D02*
X144016667Y-68065513D01*
X144016667Y-68065513D02*
X144083333Y-68098846D01*
X144083333Y-68098846D02*
X144116667Y-68132180D01*
X144116667Y-68132180D02*
X144150000Y-68198846D01*
X144150000Y-68198846D02*
X144150000Y-68265513D01*
X144150000Y-68265513D02*
X144116667Y-68365513D01*
X144116667Y-68365513D02*
X143716667Y-68765513D01*
X143716667Y-68765513D02*
X144150000Y-68765513D01*
X140033333Y-55154299D02*
X139700000Y-54678108D01*
X139461905Y-55154299D02*
X139461905Y-54154299D01*
X139461905Y-54154299D02*
X139842857Y-54154299D01*
X139842857Y-54154299D02*
X139938095Y-54201918D01*
X139938095Y-54201918D02*
X139985714Y-54249537D01*
X139985714Y-54249537D02*
X140033333Y-54344775D01*
X140033333Y-54344775D02*
X140033333Y-54487632D01*
X140033333Y-54487632D02*
X139985714Y-54582870D01*
X139985714Y-54582870D02*
X139938095Y-54630489D01*
X139938095Y-54630489D02*
X139842857Y-54678108D01*
X139842857Y-54678108D02*
X139461905Y-54678108D01*
X140366667Y-54154299D02*
X140985714Y-54154299D01*
X140985714Y-54154299D02*
X140652381Y-54535251D01*
X140652381Y-54535251D02*
X140795238Y-54535251D01*
X140795238Y-54535251D02*
X140890476Y-54582870D01*
X140890476Y-54582870D02*
X140938095Y-54630489D01*
X140938095Y-54630489D02*
X140985714Y-54725727D01*
X140985714Y-54725727D02*
X140985714Y-54963822D01*
X140985714Y-54963822D02*
X140938095Y-55059060D01*
X140938095Y-55059060D02*
X140890476Y-55106680D01*
X140890476Y-55106680D02*
X140795238Y-55154299D01*
X140795238Y-55154299D02*
X140509524Y-55154299D01*
X140509524Y-55154299D02*
X140414286Y-55106680D01*
X140414286Y-55106680D02*
X140366667Y-55059060D01*
D13*
X173466666Y-59253259D02*
X173466666Y-59967544D01*
X173466666Y-59967544D02*
X173419047Y-60110401D01*
X173419047Y-60110401D02*
X173323809Y-60205640D01*
X173323809Y-60205640D02*
X173180952Y-60253259D01*
X173180952Y-60253259D02*
X173085714Y-60253259D01*
X173895238Y-59348497D02*
X173942857Y-59300878D01*
X173942857Y-59300878D02*
X174038095Y-59253259D01*
X174038095Y-59253259D02*
X174276190Y-59253259D01*
X174276190Y-59253259D02*
X174371428Y-59300878D01*
X174371428Y-59300878D02*
X174419047Y-59348497D01*
X174419047Y-59348497D02*
X174466666Y-59443735D01*
X174466666Y-59443735D02*
X174466666Y-59538973D01*
X174466666Y-59538973D02*
X174419047Y-59681830D01*
X174419047Y-59681830D02*
X173847619Y-60253259D01*
X173847619Y-60253259D02*
X174466666Y-60253259D01*
D12*
X144033333Y-62859060D02*
X143985714Y-62906680D01*
X143985714Y-62906680D02*
X143842857Y-62954299D01*
X143842857Y-62954299D02*
X143747619Y-62954299D01*
X143747619Y-62954299D02*
X143604762Y-62906680D01*
X143604762Y-62906680D02*
X143509524Y-62811441D01*
X143509524Y-62811441D02*
X143461905Y-62716203D01*
X143461905Y-62716203D02*
X143414286Y-62525727D01*
X143414286Y-62525727D02*
X143414286Y-62382870D01*
X143414286Y-62382870D02*
X143461905Y-62192394D01*
X143461905Y-62192394D02*
X143509524Y-62097156D01*
X143509524Y-62097156D02*
X143604762Y-62001918D01*
X143604762Y-62001918D02*
X143747619Y-61954299D01*
X143747619Y-61954299D02*
X143842857Y-61954299D01*
X143842857Y-61954299D02*
X143985714Y-62001918D01*
X143985714Y-62001918D02*
X144033333Y-62049537D01*
X144366667Y-61954299D02*
X144985714Y-61954299D01*
X144985714Y-61954299D02*
X144652381Y-62335251D01*
X144652381Y-62335251D02*
X144795238Y-62335251D01*
X144795238Y-62335251D02*
X144890476Y-62382870D01*
X144890476Y-62382870D02*
X144938095Y-62430489D01*
X144938095Y-62430489D02*
X144985714Y-62525727D01*
X144985714Y-62525727D02*
X144985714Y-62763822D01*
X144985714Y-62763822D02*
X144938095Y-62859060D01*
X144938095Y-62859060D02*
X144890476Y-62906680D01*
X144890476Y-62906680D02*
X144795238Y-62954299D01*
X144795238Y-62954299D02*
X144509524Y-62954299D01*
X144509524Y-62954299D02*
X144414286Y-62906680D01*
X144414286Y-62906680D02*
X144366667Y-62859060D01*
D13*
X122066666Y-59153259D02*
X122066666Y-59867544D01*
X122066666Y-59867544D02*
X122019047Y-60010401D01*
X122019047Y-60010401D02*
X121923809Y-60105640D01*
X121923809Y-60105640D02*
X121780952Y-60153259D01*
X121780952Y-60153259D02*
X121685714Y-60153259D01*
X123066666Y-60153259D02*
X122495238Y-60153259D01*
X122780952Y-60153259D02*
X122780952Y-59153259D01*
X122780952Y-59153259D02*
X122685714Y-59296116D01*
X122685714Y-59296116D02*
X122590476Y-59391354D01*
X122590476Y-59391354D02*
X122495238Y-59438973D01*
D12*
X141683333Y-68698846D02*
X141650000Y-68732180D01*
X141650000Y-68732180D02*
X141550000Y-68765513D01*
X141550000Y-68765513D02*
X141483333Y-68765513D01*
X141483333Y-68765513D02*
X141383333Y-68732180D01*
X141383333Y-68732180D02*
X141316667Y-68665513D01*
X141316667Y-68665513D02*
X141283333Y-68598846D01*
X141283333Y-68598846D02*
X141250000Y-68465513D01*
X141250000Y-68465513D02*
X141250000Y-68365513D01*
X141250000Y-68365513D02*
X141283333Y-68232180D01*
X141283333Y-68232180D02*
X141316667Y-68165513D01*
X141316667Y-68165513D02*
X141383333Y-68098846D01*
X141383333Y-68098846D02*
X141483333Y-68065513D01*
X141483333Y-68065513D02*
X141550000Y-68065513D01*
X141550000Y-68065513D02*
X141650000Y-68098846D01*
X141650000Y-68098846D02*
X141683333Y-68132180D01*
X142316667Y-68065513D02*
X141983333Y-68065513D01*
X141983333Y-68065513D02*
X141950000Y-68398846D01*
X141950000Y-68398846D02*
X141983333Y-68365513D01*
X141983333Y-68365513D02*
X142050000Y-68332180D01*
X142050000Y-68332180D02*
X142216667Y-68332180D01*
X142216667Y-68332180D02*
X142283333Y-68365513D01*
X142283333Y-68365513D02*
X142316667Y-68398846D01*
X142316667Y-68398846D02*
X142350000Y-68465513D01*
X142350000Y-68465513D02*
X142350000Y-68632180D01*
X142350000Y-68632180D02*
X142316667Y-68698846D01*
X142316667Y-68698846D02*
X142283333Y-68732180D01*
X142283333Y-68732180D02*
X142216667Y-68765513D01*
X142216667Y-68765513D02*
X142050000Y-68765513D01*
X142050000Y-68765513D02*
X141983333Y-68732180D01*
X141983333Y-68732180D02*
X141950000Y-68698846D01*
X138033333Y-63004299D02*
X137700000Y-62528108D01*
X137461905Y-63004299D02*
X137461905Y-62004299D01*
X137461905Y-62004299D02*
X137842857Y-62004299D01*
X137842857Y-62004299D02*
X137938095Y-62051918D01*
X137938095Y-62051918D02*
X137985714Y-62099537D01*
X137985714Y-62099537D02*
X138033333Y-62194775D01*
X138033333Y-62194775D02*
X138033333Y-62337632D01*
X138033333Y-62337632D02*
X137985714Y-62432870D01*
X137985714Y-62432870D02*
X137938095Y-62480489D01*
X137938095Y-62480489D02*
X137842857Y-62528108D01*
X137842857Y-62528108D02*
X137461905Y-62528108D01*
X138890476Y-62337632D02*
X138890476Y-63004299D01*
X138652381Y-61956680D02*
X138414286Y-62670965D01*
X138414286Y-62670965D02*
X139033333Y-62670965D01*
X143333333Y-54959060D02*
X143285714Y-55006680D01*
X143285714Y-55006680D02*
X143142857Y-55054299D01*
X143142857Y-55054299D02*
X143047619Y-55054299D01*
X143047619Y-55054299D02*
X142904762Y-55006680D01*
X142904762Y-55006680D02*
X142809524Y-54911441D01*
X142809524Y-54911441D02*
X142761905Y-54816203D01*
X142761905Y-54816203D02*
X142714286Y-54625727D01*
X142714286Y-54625727D02*
X142714286Y-54482870D01*
X142714286Y-54482870D02*
X142761905Y-54292394D01*
X142761905Y-54292394D02*
X142809524Y-54197156D01*
X142809524Y-54197156D02*
X142904762Y-54101918D01*
X142904762Y-54101918D02*
X143047619Y-54054299D01*
X143047619Y-54054299D02*
X143142857Y-54054299D01*
X143142857Y-54054299D02*
X143285714Y-54101918D01*
X143285714Y-54101918D02*
X143333333Y-54149537D01*
X144285714Y-55054299D02*
X143714286Y-55054299D01*
X144000000Y-55054299D02*
X144000000Y-54054299D01*
X144000000Y-54054299D02*
X143904762Y-54197156D01*
X143904762Y-54197156D02*
X143809524Y-54292394D01*
X143809524Y-54292394D02*
X143714286Y-54340013D01*
X138083333Y-68765513D02*
X137850000Y-68432180D01*
X137683333Y-68765513D02*
X137683333Y-68065513D01*
X137683333Y-68065513D02*
X137950000Y-68065513D01*
X137950000Y-68065513D02*
X138016667Y-68098846D01*
X138016667Y-68098846D02*
X138050000Y-68132180D01*
X138050000Y-68132180D02*
X138083333Y-68198846D01*
X138083333Y-68198846D02*
X138083333Y-68298846D01*
X138083333Y-68298846D02*
X138050000Y-68365513D01*
X138050000Y-68365513D02*
X138016667Y-68398846D01*
X138016667Y-68398846D02*
X137950000Y-68432180D01*
X137950000Y-68432180D02*
X137683333Y-68432180D01*
X138750000Y-68765513D02*
X138350000Y-68765513D01*
X138550000Y-68765513D02*
X138550000Y-68065513D01*
X138550000Y-68065513D02*
X138483333Y-68165513D01*
X138483333Y-68165513D02*
X138416667Y-68232180D01*
X138416667Y-68232180D02*
X138350000Y-68265513D01*
X139883333Y-47698846D02*
X139850000Y-47732180D01*
X139850000Y-47732180D02*
X139750000Y-47765513D01*
X139750000Y-47765513D02*
X139683333Y-47765513D01*
X139683333Y-47765513D02*
X139583333Y-47732180D01*
X139583333Y-47732180D02*
X139516667Y-47665513D01*
X139516667Y-47665513D02*
X139483333Y-47598846D01*
X139483333Y-47598846D02*
X139450000Y-47465513D01*
X139450000Y-47465513D02*
X139450000Y-47365513D01*
X139450000Y-47365513D02*
X139483333Y-47232180D01*
X139483333Y-47232180D02*
X139516667Y-47165513D01*
X139516667Y-47165513D02*
X139583333Y-47098846D01*
X139583333Y-47098846D02*
X139683333Y-47065513D01*
X139683333Y-47065513D02*
X139750000Y-47065513D01*
X139750000Y-47065513D02*
X139850000Y-47098846D01*
X139850000Y-47098846D02*
X139883333Y-47132180D01*
X140150000Y-47132180D02*
X140183333Y-47098846D01*
X140183333Y-47098846D02*
X140250000Y-47065513D01*
X140250000Y-47065513D02*
X140416667Y-47065513D01*
X140416667Y-47065513D02*
X140483333Y-47098846D01*
X140483333Y-47098846D02*
X140516667Y-47132180D01*
X140516667Y-47132180D02*
X140550000Y-47198846D01*
X140550000Y-47198846D02*
X140550000Y-47265513D01*
X140550000Y-47265513D02*
X140516667Y-47365513D01*
X140516667Y-47365513D02*
X140116667Y-47765513D01*
X140116667Y-47765513D02*
X140550000Y-47765513D01*
X145283333Y-47698846D02*
X145250000Y-47732180D01*
X145250000Y-47732180D02*
X145150000Y-47765513D01*
X145150000Y-47765513D02*
X145083333Y-47765513D01*
X145083333Y-47765513D02*
X144983333Y-47732180D01*
X144983333Y-47732180D02*
X144916667Y-47665513D01*
X144916667Y-47665513D02*
X144883333Y-47598846D01*
X144883333Y-47598846D02*
X144850000Y-47465513D01*
X144850000Y-47465513D02*
X144850000Y-47365513D01*
X144850000Y-47365513D02*
X144883333Y-47232180D01*
X144883333Y-47232180D02*
X144916667Y-47165513D01*
X144916667Y-47165513D02*
X144983333Y-47098846D01*
X144983333Y-47098846D02*
X145083333Y-47065513D01*
X145083333Y-47065513D02*
X145150000Y-47065513D01*
X145150000Y-47065513D02*
X145250000Y-47098846D01*
X145250000Y-47098846D02*
X145283333Y-47132180D01*
X145883333Y-47298846D02*
X145883333Y-47765513D01*
X145716667Y-47032180D02*
X145550000Y-47532180D01*
X145550000Y-47532180D02*
X145983333Y-47532180D01*
X143438095Y-38254299D02*
X143438095Y-39063822D01*
X143438095Y-39063822D02*
X143485714Y-39159060D01*
X143485714Y-39159060D02*
X143533333Y-39206680D01*
X143533333Y-39206680D02*
X143628571Y-39254299D01*
X143628571Y-39254299D02*
X143819047Y-39254299D01*
X143819047Y-39254299D02*
X143914285Y-39206680D01*
X143914285Y-39206680D02*
X143961904Y-39159060D01*
X143961904Y-39159060D02*
X144009523Y-39063822D01*
X144009523Y-39063822D02*
X144009523Y-38254299D01*
X145009523Y-39254299D02*
X144438095Y-39254299D01*
X144723809Y-39254299D02*
X144723809Y-38254299D01*
X144723809Y-38254299D02*
X144628571Y-38397156D01*
X144628571Y-38397156D02*
X144533333Y-38492394D01*
X144533333Y-38492394D02*
X144438095Y-38540013D01*
D13*
X153283333Y-39153259D02*
X152807143Y-39153259D01*
X152807143Y-39153259D02*
X152807143Y-38153259D01*
X154140476Y-39153259D02*
X153569048Y-39153259D01*
X153854762Y-39153259D02*
X153854762Y-38153259D01*
X153854762Y-38153259D02*
X153759524Y-38296116D01*
X153759524Y-38296116D02*
X153664286Y-38391354D01*
X153664286Y-38391354D02*
X153569048Y-38438973D01*
D12*
X143483333Y-47765513D02*
X143250000Y-47432180D01*
X143083333Y-47765513D02*
X143083333Y-47065513D01*
X143083333Y-47065513D02*
X143350000Y-47065513D01*
X143350000Y-47065513D02*
X143416667Y-47098846D01*
X143416667Y-47098846D02*
X143450000Y-47132180D01*
X143450000Y-47132180D02*
X143483333Y-47198846D01*
X143483333Y-47198846D02*
X143483333Y-47298846D01*
X143483333Y-47298846D02*
X143450000Y-47365513D01*
X143450000Y-47365513D02*
X143416667Y-47398846D01*
X143416667Y-47398846D02*
X143350000Y-47432180D01*
X143350000Y-47432180D02*
X143083333Y-47432180D01*
X143750000Y-47132180D02*
X143783333Y-47098846D01*
X143783333Y-47098846D02*
X143850000Y-47065513D01*
X143850000Y-47065513D02*
X144016667Y-47065513D01*
X144016667Y-47065513D02*
X144083333Y-47098846D01*
X144083333Y-47098846D02*
X144116667Y-47132180D01*
X144116667Y-47132180D02*
X144150000Y-47198846D01*
X144150000Y-47198846D02*
X144150000Y-47265513D01*
X144150000Y-47265513D02*
X144116667Y-47365513D01*
X144116667Y-47365513D02*
X143716667Y-47765513D01*
X143716667Y-47765513D02*
X144150000Y-47765513D01*
X140033333Y-34154299D02*
X139700000Y-33678108D01*
X139461905Y-34154299D02*
X139461905Y-33154299D01*
X139461905Y-33154299D02*
X139842857Y-33154299D01*
X139842857Y-33154299D02*
X139938095Y-33201918D01*
X139938095Y-33201918D02*
X139985714Y-33249537D01*
X139985714Y-33249537D02*
X140033333Y-33344775D01*
X140033333Y-33344775D02*
X140033333Y-33487632D01*
X140033333Y-33487632D02*
X139985714Y-33582870D01*
X139985714Y-33582870D02*
X139938095Y-33630489D01*
X139938095Y-33630489D02*
X139842857Y-33678108D01*
X139842857Y-33678108D02*
X139461905Y-33678108D01*
X140366667Y-33154299D02*
X140985714Y-33154299D01*
X140985714Y-33154299D02*
X140652381Y-33535251D01*
X140652381Y-33535251D02*
X140795238Y-33535251D01*
X140795238Y-33535251D02*
X140890476Y-33582870D01*
X140890476Y-33582870D02*
X140938095Y-33630489D01*
X140938095Y-33630489D02*
X140985714Y-33725727D01*
X140985714Y-33725727D02*
X140985714Y-33963822D01*
X140985714Y-33963822D02*
X140938095Y-34059060D01*
X140938095Y-34059060D02*
X140890476Y-34106680D01*
X140890476Y-34106680D02*
X140795238Y-34154299D01*
X140795238Y-34154299D02*
X140509524Y-34154299D01*
X140509524Y-34154299D02*
X140414286Y-34106680D01*
X140414286Y-34106680D02*
X140366667Y-34059060D01*
D13*
X173466666Y-38253259D02*
X173466666Y-38967544D01*
X173466666Y-38967544D02*
X173419047Y-39110401D01*
X173419047Y-39110401D02*
X173323809Y-39205640D01*
X173323809Y-39205640D02*
X173180952Y-39253259D01*
X173180952Y-39253259D02*
X173085714Y-39253259D01*
X173895238Y-38348497D02*
X173942857Y-38300878D01*
X173942857Y-38300878D02*
X174038095Y-38253259D01*
X174038095Y-38253259D02*
X174276190Y-38253259D01*
X174276190Y-38253259D02*
X174371428Y-38300878D01*
X174371428Y-38300878D02*
X174419047Y-38348497D01*
X174419047Y-38348497D02*
X174466666Y-38443735D01*
X174466666Y-38443735D02*
X174466666Y-38538973D01*
X174466666Y-38538973D02*
X174419047Y-38681830D01*
X174419047Y-38681830D02*
X173847619Y-39253259D01*
X173847619Y-39253259D02*
X174466666Y-39253259D01*
D12*
X144033333Y-41859060D02*
X143985714Y-41906680D01*
X143985714Y-41906680D02*
X143842857Y-41954299D01*
X143842857Y-41954299D02*
X143747619Y-41954299D01*
X143747619Y-41954299D02*
X143604762Y-41906680D01*
X143604762Y-41906680D02*
X143509524Y-41811441D01*
X143509524Y-41811441D02*
X143461905Y-41716203D01*
X143461905Y-41716203D02*
X143414286Y-41525727D01*
X143414286Y-41525727D02*
X143414286Y-41382870D01*
X143414286Y-41382870D02*
X143461905Y-41192394D01*
X143461905Y-41192394D02*
X143509524Y-41097156D01*
X143509524Y-41097156D02*
X143604762Y-41001918D01*
X143604762Y-41001918D02*
X143747619Y-40954299D01*
X143747619Y-40954299D02*
X143842857Y-40954299D01*
X143842857Y-40954299D02*
X143985714Y-41001918D01*
X143985714Y-41001918D02*
X144033333Y-41049537D01*
X144366667Y-40954299D02*
X144985714Y-40954299D01*
X144985714Y-40954299D02*
X144652381Y-41335251D01*
X144652381Y-41335251D02*
X144795238Y-41335251D01*
X144795238Y-41335251D02*
X144890476Y-41382870D01*
X144890476Y-41382870D02*
X144938095Y-41430489D01*
X144938095Y-41430489D02*
X144985714Y-41525727D01*
X144985714Y-41525727D02*
X144985714Y-41763822D01*
X144985714Y-41763822D02*
X144938095Y-41859060D01*
X144938095Y-41859060D02*
X144890476Y-41906680D01*
X144890476Y-41906680D02*
X144795238Y-41954299D01*
X144795238Y-41954299D02*
X144509524Y-41954299D01*
X144509524Y-41954299D02*
X144414286Y-41906680D01*
X144414286Y-41906680D02*
X144366667Y-41859060D01*
D13*
X122066666Y-38153259D02*
X122066666Y-38867544D01*
X122066666Y-38867544D02*
X122019047Y-39010401D01*
X122019047Y-39010401D02*
X121923809Y-39105640D01*
X121923809Y-39105640D02*
X121780952Y-39153259D01*
X121780952Y-39153259D02*
X121685714Y-39153259D01*
X123066666Y-39153259D02*
X122495238Y-39153259D01*
X122780952Y-39153259D02*
X122780952Y-38153259D01*
X122780952Y-38153259D02*
X122685714Y-38296116D01*
X122685714Y-38296116D02*
X122590476Y-38391354D01*
X122590476Y-38391354D02*
X122495238Y-38438973D01*
D12*
X141683333Y-47698846D02*
X141650000Y-47732180D01*
X141650000Y-47732180D02*
X141550000Y-47765513D01*
X141550000Y-47765513D02*
X141483333Y-47765513D01*
X141483333Y-47765513D02*
X141383333Y-47732180D01*
X141383333Y-47732180D02*
X141316667Y-47665513D01*
X141316667Y-47665513D02*
X141283333Y-47598846D01*
X141283333Y-47598846D02*
X141250000Y-47465513D01*
X141250000Y-47465513D02*
X141250000Y-47365513D01*
X141250000Y-47365513D02*
X141283333Y-47232180D01*
X141283333Y-47232180D02*
X141316667Y-47165513D01*
X141316667Y-47165513D02*
X141383333Y-47098846D01*
X141383333Y-47098846D02*
X141483333Y-47065513D01*
X141483333Y-47065513D02*
X141550000Y-47065513D01*
X141550000Y-47065513D02*
X141650000Y-47098846D01*
X141650000Y-47098846D02*
X141683333Y-47132180D01*
X142316667Y-47065513D02*
X141983333Y-47065513D01*
X141983333Y-47065513D02*
X141950000Y-47398846D01*
X141950000Y-47398846D02*
X141983333Y-47365513D01*
X141983333Y-47365513D02*
X142050000Y-47332180D01*
X142050000Y-47332180D02*
X142216667Y-47332180D01*
X142216667Y-47332180D02*
X142283333Y-47365513D01*
X142283333Y-47365513D02*
X142316667Y-47398846D01*
X142316667Y-47398846D02*
X142350000Y-47465513D01*
X142350000Y-47465513D02*
X142350000Y-47632180D01*
X142350000Y-47632180D02*
X142316667Y-47698846D01*
X142316667Y-47698846D02*
X142283333Y-47732180D01*
X142283333Y-47732180D02*
X142216667Y-47765513D01*
X142216667Y-47765513D02*
X142050000Y-47765513D01*
X142050000Y-47765513D02*
X141983333Y-47732180D01*
X141983333Y-47732180D02*
X141950000Y-47698846D01*
X138033333Y-42004299D02*
X137700000Y-41528108D01*
X137461905Y-42004299D02*
X137461905Y-41004299D01*
X137461905Y-41004299D02*
X137842857Y-41004299D01*
X137842857Y-41004299D02*
X137938095Y-41051918D01*
X137938095Y-41051918D02*
X137985714Y-41099537D01*
X137985714Y-41099537D02*
X138033333Y-41194775D01*
X138033333Y-41194775D02*
X138033333Y-41337632D01*
X138033333Y-41337632D02*
X137985714Y-41432870D01*
X137985714Y-41432870D02*
X137938095Y-41480489D01*
X137938095Y-41480489D02*
X137842857Y-41528108D01*
X137842857Y-41528108D02*
X137461905Y-41528108D01*
X138890476Y-41337632D02*
X138890476Y-42004299D01*
X138652381Y-40956680D02*
X138414286Y-41670965D01*
X138414286Y-41670965D02*
X139033333Y-41670965D01*
X143333333Y-33959060D02*
X143285714Y-34006680D01*
X143285714Y-34006680D02*
X143142857Y-34054299D01*
X143142857Y-34054299D02*
X143047619Y-34054299D01*
X143047619Y-34054299D02*
X142904762Y-34006680D01*
X142904762Y-34006680D02*
X142809524Y-33911441D01*
X142809524Y-33911441D02*
X142761905Y-33816203D01*
X142761905Y-33816203D02*
X142714286Y-33625727D01*
X142714286Y-33625727D02*
X142714286Y-33482870D01*
X142714286Y-33482870D02*
X142761905Y-33292394D01*
X142761905Y-33292394D02*
X142809524Y-33197156D01*
X142809524Y-33197156D02*
X142904762Y-33101918D01*
X142904762Y-33101918D02*
X143047619Y-33054299D01*
X143047619Y-33054299D02*
X143142857Y-33054299D01*
X143142857Y-33054299D02*
X143285714Y-33101918D01*
X143285714Y-33101918D02*
X143333333Y-33149537D01*
X144285714Y-34054299D02*
X143714286Y-34054299D01*
X144000000Y-34054299D02*
X144000000Y-33054299D01*
X144000000Y-33054299D02*
X143904762Y-33197156D01*
X143904762Y-33197156D02*
X143809524Y-33292394D01*
X143809524Y-33292394D02*
X143714286Y-33340013D01*
X138083333Y-47765513D02*
X137850000Y-47432180D01*
X137683333Y-47765513D02*
X137683333Y-47065513D01*
X137683333Y-47065513D02*
X137950000Y-47065513D01*
X137950000Y-47065513D02*
X138016667Y-47098846D01*
X138016667Y-47098846D02*
X138050000Y-47132180D01*
X138050000Y-47132180D02*
X138083333Y-47198846D01*
X138083333Y-47198846D02*
X138083333Y-47298846D01*
X138083333Y-47298846D02*
X138050000Y-47365513D01*
X138050000Y-47365513D02*
X138016667Y-47398846D01*
X138016667Y-47398846D02*
X137950000Y-47432180D01*
X137950000Y-47432180D02*
X137683333Y-47432180D01*
X138750000Y-47765513D02*
X138350000Y-47765513D01*
X138550000Y-47765513D02*
X138550000Y-47065513D01*
X138550000Y-47065513D02*
X138483333Y-47165513D01*
X138483333Y-47165513D02*
X138416667Y-47232180D01*
X138416667Y-47232180D02*
X138350000Y-47265513D01*
X138083333Y-131765513D02*
X137850000Y-131432180D01*
X137683333Y-131765513D02*
X137683333Y-131065513D01*
X137683333Y-131065513D02*
X137950000Y-131065513D01*
X137950000Y-131065513D02*
X138016667Y-131098846D01*
X138016667Y-131098846D02*
X138050000Y-131132180D01*
X138050000Y-131132180D02*
X138083333Y-131198846D01*
X138083333Y-131198846D02*
X138083333Y-131298846D01*
X138083333Y-131298846D02*
X138050000Y-131365513D01*
X138050000Y-131365513D02*
X138016667Y-131398846D01*
X138016667Y-131398846D02*
X137950000Y-131432180D01*
X137950000Y-131432180D02*
X137683333Y-131432180D01*
X138750000Y-131765513D02*
X138350000Y-131765513D01*
X138550000Y-131765513D02*
X138550000Y-131065513D01*
X138550000Y-131065513D02*
X138483333Y-131165513D01*
X138483333Y-131165513D02*
X138416667Y-131232180D01*
X138416667Y-131232180D02*
X138350000Y-131265513D01*
X143333333Y-117959060D02*
X143285714Y-118006680D01*
X143285714Y-118006680D02*
X143142857Y-118054299D01*
X143142857Y-118054299D02*
X143047619Y-118054299D01*
X143047619Y-118054299D02*
X142904762Y-118006680D01*
X142904762Y-118006680D02*
X142809524Y-117911441D01*
X142809524Y-117911441D02*
X142761905Y-117816203D01*
X142761905Y-117816203D02*
X142714286Y-117625727D01*
X142714286Y-117625727D02*
X142714286Y-117482870D01*
X142714286Y-117482870D02*
X142761905Y-117292394D01*
X142761905Y-117292394D02*
X142809524Y-117197156D01*
X142809524Y-117197156D02*
X142904762Y-117101918D01*
X142904762Y-117101918D02*
X143047619Y-117054299D01*
X143047619Y-117054299D02*
X143142857Y-117054299D01*
X143142857Y-117054299D02*
X143285714Y-117101918D01*
X143285714Y-117101918D02*
X143333333Y-117149537D01*
X144285714Y-118054299D02*
X143714286Y-118054299D01*
X144000000Y-118054299D02*
X144000000Y-117054299D01*
X144000000Y-117054299D02*
X143904762Y-117197156D01*
X143904762Y-117197156D02*
X143809524Y-117292394D01*
X143809524Y-117292394D02*
X143714286Y-117340013D01*
X138033333Y-126004299D02*
X137700000Y-125528108D01*
X137461905Y-126004299D02*
X137461905Y-125004299D01*
X137461905Y-125004299D02*
X137842857Y-125004299D01*
X137842857Y-125004299D02*
X137938095Y-125051918D01*
X137938095Y-125051918D02*
X137985714Y-125099537D01*
X137985714Y-125099537D02*
X138033333Y-125194775D01*
X138033333Y-125194775D02*
X138033333Y-125337632D01*
X138033333Y-125337632D02*
X137985714Y-125432870D01*
X137985714Y-125432870D02*
X137938095Y-125480489D01*
X137938095Y-125480489D02*
X137842857Y-125528108D01*
X137842857Y-125528108D02*
X137461905Y-125528108D01*
X138890476Y-125337632D02*
X138890476Y-126004299D01*
X138652381Y-124956680D02*
X138414286Y-125670965D01*
X138414286Y-125670965D02*
X139033333Y-125670965D01*
X141683333Y-131698846D02*
X141650000Y-131732180D01*
X141650000Y-131732180D02*
X141550000Y-131765513D01*
X141550000Y-131765513D02*
X141483333Y-131765513D01*
X141483333Y-131765513D02*
X141383333Y-131732180D01*
X141383333Y-131732180D02*
X141316667Y-131665513D01*
X141316667Y-131665513D02*
X141283333Y-131598846D01*
X141283333Y-131598846D02*
X141250000Y-131465513D01*
X141250000Y-131465513D02*
X141250000Y-131365513D01*
X141250000Y-131365513D02*
X141283333Y-131232180D01*
X141283333Y-131232180D02*
X141316667Y-131165513D01*
X141316667Y-131165513D02*
X141383333Y-131098846D01*
X141383333Y-131098846D02*
X141483333Y-131065513D01*
X141483333Y-131065513D02*
X141550000Y-131065513D01*
X141550000Y-131065513D02*
X141650000Y-131098846D01*
X141650000Y-131098846D02*
X141683333Y-131132180D01*
X142316667Y-131065513D02*
X141983333Y-131065513D01*
X141983333Y-131065513D02*
X141950000Y-131398846D01*
X141950000Y-131398846D02*
X141983333Y-131365513D01*
X141983333Y-131365513D02*
X142050000Y-131332180D01*
X142050000Y-131332180D02*
X142216667Y-131332180D01*
X142216667Y-131332180D02*
X142283333Y-131365513D01*
X142283333Y-131365513D02*
X142316667Y-131398846D01*
X142316667Y-131398846D02*
X142350000Y-131465513D01*
X142350000Y-131465513D02*
X142350000Y-131632180D01*
X142350000Y-131632180D02*
X142316667Y-131698846D01*
X142316667Y-131698846D02*
X142283333Y-131732180D01*
X142283333Y-131732180D02*
X142216667Y-131765513D01*
X142216667Y-131765513D02*
X142050000Y-131765513D01*
X142050000Y-131765513D02*
X141983333Y-131732180D01*
X141983333Y-131732180D02*
X141950000Y-131698846D01*
D13*
X122066666Y-122153259D02*
X122066666Y-122867544D01*
X122066666Y-122867544D02*
X122019047Y-123010401D01*
X122019047Y-123010401D02*
X121923809Y-123105640D01*
X121923809Y-123105640D02*
X121780952Y-123153259D01*
X121780952Y-123153259D02*
X121685714Y-123153259D01*
X123066666Y-123153259D02*
X122495238Y-123153259D01*
X122780952Y-123153259D02*
X122780952Y-122153259D01*
X122780952Y-122153259D02*
X122685714Y-122296116D01*
X122685714Y-122296116D02*
X122590476Y-122391354D01*
X122590476Y-122391354D02*
X122495238Y-122438973D01*
D12*
X144033333Y-125859060D02*
X143985714Y-125906680D01*
X143985714Y-125906680D02*
X143842857Y-125954299D01*
X143842857Y-125954299D02*
X143747619Y-125954299D01*
X143747619Y-125954299D02*
X143604762Y-125906680D01*
X143604762Y-125906680D02*
X143509524Y-125811441D01*
X143509524Y-125811441D02*
X143461905Y-125716203D01*
X143461905Y-125716203D02*
X143414286Y-125525727D01*
X143414286Y-125525727D02*
X143414286Y-125382870D01*
X143414286Y-125382870D02*
X143461905Y-125192394D01*
X143461905Y-125192394D02*
X143509524Y-125097156D01*
X143509524Y-125097156D02*
X143604762Y-125001918D01*
X143604762Y-125001918D02*
X143747619Y-124954299D01*
X143747619Y-124954299D02*
X143842857Y-124954299D01*
X143842857Y-124954299D02*
X143985714Y-125001918D01*
X143985714Y-125001918D02*
X144033333Y-125049537D01*
X144366667Y-124954299D02*
X144985714Y-124954299D01*
X144985714Y-124954299D02*
X144652381Y-125335251D01*
X144652381Y-125335251D02*
X144795238Y-125335251D01*
X144795238Y-125335251D02*
X144890476Y-125382870D01*
X144890476Y-125382870D02*
X144938095Y-125430489D01*
X144938095Y-125430489D02*
X144985714Y-125525727D01*
X144985714Y-125525727D02*
X144985714Y-125763822D01*
X144985714Y-125763822D02*
X144938095Y-125859060D01*
X144938095Y-125859060D02*
X144890476Y-125906680D01*
X144890476Y-125906680D02*
X144795238Y-125954299D01*
X144795238Y-125954299D02*
X144509524Y-125954299D01*
X144509524Y-125954299D02*
X144414286Y-125906680D01*
X144414286Y-125906680D02*
X144366667Y-125859060D01*
D13*
X173466666Y-122253259D02*
X173466666Y-122967544D01*
X173466666Y-122967544D02*
X173419047Y-123110401D01*
X173419047Y-123110401D02*
X173323809Y-123205640D01*
X173323809Y-123205640D02*
X173180952Y-123253259D01*
X173180952Y-123253259D02*
X173085714Y-123253259D01*
X173895238Y-122348497D02*
X173942857Y-122300878D01*
X173942857Y-122300878D02*
X174038095Y-122253259D01*
X174038095Y-122253259D02*
X174276190Y-122253259D01*
X174276190Y-122253259D02*
X174371428Y-122300878D01*
X174371428Y-122300878D02*
X174419047Y-122348497D01*
X174419047Y-122348497D02*
X174466666Y-122443735D01*
X174466666Y-122443735D02*
X174466666Y-122538973D01*
X174466666Y-122538973D02*
X174419047Y-122681830D01*
X174419047Y-122681830D02*
X173847619Y-123253259D01*
X173847619Y-123253259D02*
X174466666Y-123253259D01*
D12*
X140033333Y-118154299D02*
X139700000Y-117678108D01*
X139461905Y-118154299D02*
X139461905Y-117154299D01*
X139461905Y-117154299D02*
X139842857Y-117154299D01*
X139842857Y-117154299D02*
X139938095Y-117201918D01*
X139938095Y-117201918D02*
X139985714Y-117249537D01*
X139985714Y-117249537D02*
X140033333Y-117344775D01*
X140033333Y-117344775D02*
X140033333Y-117487632D01*
X140033333Y-117487632D02*
X139985714Y-117582870D01*
X139985714Y-117582870D02*
X139938095Y-117630489D01*
X139938095Y-117630489D02*
X139842857Y-117678108D01*
X139842857Y-117678108D02*
X139461905Y-117678108D01*
X140366667Y-117154299D02*
X140985714Y-117154299D01*
X140985714Y-117154299D02*
X140652381Y-117535251D01*
X140652381Y-117535251D02*
X140795238Y-117535251D01*
X140795238Y-117535251D02*
X140890476Y-117582870D01*
X140890476Y-117582870D02*
X140938095Y-117630489D01*
X140938095Y-117630489D02*
X140985714Y-117725727D01*
X140985714Y-117725727D02*
X140985714Y-117963822D01*
X140985714Y-117963822D02*
X140938095Y-118059060D01*
X140938095Y-118059060D02*
X140890476Y-118106680D01*
X140890476Y-118106680D02*
X140795238Y-118154299D01*
X140795238Y-118154299D02*
X140509524Y-118154299D01*
X140509524Y-118154299D02*
X140414286Y-118106680D01*
X140414286Y-118106680D02*
X140366667Y-118059060D01*
X143483333Y-131765513D02*
X143250000Y-131432180D01*
X143083333Y-131765513D02*
X143083333Y-131065513D01*
X143083333Y-131065513D02*
X143350000Y-131065513D01*
X143350000Y-131065513D02*
X143416667Y-131098846D01*
X143416667Y-131098846D02*
X143450000Y-131132180D01*
X143450000Y-131132180D02*
X143483333Y-131198846D01*
X143483333Y-131198846D02*
X143483333Y-131298846D01*
X143483333Y-131298846D02*
X143450000Y-131365513D01*
X143450000Y-131365513D02*
X143416667Y-131398846D01*
X143416667Y-131398846D02*
X143350000Y-131432180D01*
X143350000Y-131432180D02*
X143083333Y-131432180D01*
X143750000Y-131132180D02*
X143783333Y-131098846D01*
X143783333Y-131098846D02*
X143850000Y-131065513D01*
X143850000Y-131065513D02*
X144016667Y-131065513D01*
X144016667Y-131065513D02*
X144083333Y-131098846D01*
X144083333Y-131098846D02*
X144116667Y-131132180D01*
X144116667Y-131132180D02*
X144150000Y-131198846D01*
X144150000Y-131198846D02*
X144150000Y-131265513D01*
X144150000Y-131265513D02*
X144116667Y-131365513D01*
X144116667Y-131365513D02*
X143716667Y-131765513D01*
X143716667Y-131765513D02*
X144150000Y-131765513D01*
D13*
X153283333Y-123153259D02*
X152807143Y-123153259D01*
X152807143Y-123153259D02*
X152807143Y-122153259D01*
X154140476Y-123153259D02*
X153569048Y-123153259D01*
X153854762Y-123153259D02*
X153854762Y-122153259D01*
X153854762Y-122153259D02*
X153759524Y-122296116D01*
X153759524Y-122296116D02*
X153664286Y-122391354D01*
X153664286Y-122391354D02*
X153569048Y-122438973D01*
D12*
X143438095Y-122254299D02*
X143438095Y-123063822D01*
X143438095Y-123063822D02*
X143485714Y-123159060D01*
X143485714Y-123159060D02*
X143533333Y-123206680D01*
X143533333Y-123206680D02*
X143628571Y-123254299D01*
X143628571Y-123254299D02*
X143819047Y-123254299D01*
X143819047Y-123254299D02*
X143914285Y-123206680D01*
X143914285Y-123206680D02*
X143961904Y-123159060D01*
X143961904Y-123159060D02*
X144009523Y-123063822D01*
X144009523Y-123063822D02*
X144009523Y-122254299D01*
X145009523Y-123254299D02*
X144438095Y-123254299D01*
X144723809Y-123254299D02*
X144723809Y-122254299D01*
X144723809Y-122254299D02*
X144628571Y-122397156D01*
X144628571Y-122397156D02*
X144533333Y-122492394D01*
X144533333Y-122492394D02*
X144438095Y-122540013D01*
X145283333Y-131698846D02*
X145250000Y-131732180D01*
X145250000Y-131732180D02*
X145150000Y-131765513D01*
X145150000Y-131765513D02*
X145083333Y-131765513D01*
X145083333Y-131765513D02*
X144983333Y-131732180D01*
X144983333Y-131732180D02*
X144916667Y-131665513D01*
X144916667Y-131665513D02*
X144883333Y-131598846D01*
X144883333Y-131598846D02*
X144850000Y-131465513D01*
X144850000Y-131465513D02*
X144850000Y-131365513D01*
X144850000Y-131365513D02*
X144883333Y-131232180D01*
X144883333Y-131232180D02*
X144916667Y-131165513D01*
X144916667Y-131165513D02*
X144983333Y-131098846D01*
X144983333Y-131098846D02*
X145083333Y-131065513D01*
X145083333Y-131065513D02*
X145150000Y-131065513D01*
X145150000Y-131065513D02*
X145250000Y-131098846D01*
X145250000Y-131098846D02*
X145283333Y-131132180D01*
X145883333Y-131298846D02*
X145883333Y-131765513D01*
X145716667Y-131032180D02*
X145550000Y-131532180D01*
X145550000Y-131532180D02*
X145983333Y-131532180D01*
X139883333Y-131698846D02*
X139850000Y-131732180D01*
X139850000Y-131732180D02*
X139750000Y-131765513D01*
X139750000Y-131765513D02*
X139683333Y-131765513D01*
X139683333Y-131765513D02*
X139583333Y-131732180D01*
X139583333Y-131732180D02*
X139516667Y-131665513D01*
X139516667Y-131665513D02*
X139483333Y-131598846D01*
X139483333Y-131598846D02*
X139450000Y-131465513D01*
X139450000Y-131465513D02*
X139450000Y-131365513D01*
X139450000Y-131365513D02*
X139483333Y-131232180D01*
X139483333Y-131232180D02*
X139516667Y-131165513D01*
X139516667Y-131165513D02*
X139583333Y-131098846D01*
X139583333Y-131098846D02*
X139683333Y-131065513D01*
X139683333Y-131065513D02*
X139750000Y-131065513D01*
X139750000Y-131065513D02*
X139850000Y-131098846D01*
X139850000Y-131098846D02*
X139883333Y-131132180D01*
X140150000Y-131132180D02*
X140183333Y-131098846D01*
X140183333Y-131098846D02*
X140250000Y-131065513D01*
X140250000Y-131065513D02*
X140416667Y-131065513D01*
X140416667Y-131065513D02*
X140483333Y-131098846D01*
X140483333Y-131098846D02*
X140516667Y-131132180D01*
X140516667Y-131132180D02*
X140550000Y-131198846D01*
X140550000Y-131198846D02*
X140550000Y-131265513D01*
X140550000Y-131265513D02*
X140516667Y-131365513D01*
X140516667Y-131365513D02*
X140116667Y-131765513D01*
X140116667Y-131765513D02*
X140550000Y-131765513D01*
D14*
X133410000Y-105790580D02*
X133410000Y-105509420D01*
X132390000Y-105790580D02*
X132390000Y-105509420D01*
X167260000Y-106190580D02*
X167260000Y-105909420D01*
X166240000Y-106190580D02*
X166240000Y-105909420D01*
X140510000Y-108309420D02*
X140510000Y-108590580D01*
X139490000Y-108309420D02*
X139490000Y-108590580D01*
X145910000Y-108590580D02*
X145910000Y-108309420D01*
X144890000Y-108590580D02*
X144890000Y-108309420D01*
X161860000Y-99909420D02*
X161860000Y-100190580D01*
X160840000Y-99909420D02*
X160840000Y-100190580D01*
X163660000Y-106190580D02*
X163660000Y-105909420D01*
X162640000Y-106190580D02*
X162640000Y-105909420D01*
X137010000Y-105790580D02*
X137010000Y-105509420D01*
X135990000Y-105790580D02*
X135990000Y-105509420D01*
X135210000Y-99909420D02*
X135210000Y-100190580D01*
X134190000Y-99909420D02*
X134190000Y-100190580D01*
X129810000Y-105790580D02*
X129810000Y-105509420D01*
X128790000Y-105790580D02*
X128790000Y-105509420D01*
D11*
X140257715Y-99687687D02*
X140107715Y-99437687D01*
X140407715Y-99437687D01*
X140257715Y-99687687D01*
G36*
X140257715Y-99687687D02*
G01*
X140107715Y-99437687D01*
X140407715Y-99437687D01*
X140257715Y-99687687D01*
G37*
X142800000Y-103650000D02*
X142200000Y-103650000D01*
X142800000Y-103300000D02*
X142800000Y-103650000D01*
X142800000Y-100400000D02*
X142800000Y-100050000D01*
X142800000Y-100050000D02*
X142200000Y-100050000D01*
X139200000Y-103650000D02*
X139800000Y-103650000D01*
X139200000Y-103300000D02*
X139200000Y-103650000D01*
X139200000Y-100400000D02*
X139200000Y-100050000D01*
X139200000Y-100050000D02*
X139800000Y-100050000D01*
X159950000Y-95200000D02*
X159950000Y-108200000D01*
X157050000Y-108200000D02*
X159950000Y-108200000D01*
X157050000Y-95200000D02*
X159950000Y-95200000D01*
X146950000Y-108200000D02*
X149850000Y-108200000D01*
X146950000Y-108200000D02*
X146950000Y-95200000D01*
X146950000Y-95200000D02*
X149850000Y-95200000D01*
D14*
X144122500Y-108212742D02*
X144122500Y-108687258D01*
X143077500Y-108212742D02*
X143077500Y-108687258D01*
X139962742Y-98522500D02*
X140437258Y-98522500D01*
X139962742Y-97477500D02*
X140437258Y-97477500D01*
X178597500Y-104740000D02*
X177987500Y-104300000D01*
X178597500Y-103860000D01*
X178597500Y-104740000D01*
G36*
X178597500Y-104740000D02*
G01*
X177987500Y-104300000D01*
X178597500Y-103860000D01*
X178597500Y-104740000D01*
G37*
X177987500Y-106920000D02*
X177987500Y-104600000D01*
X177987500Y-104000000D02*
X177987500Y-96680000D01*
X177267500Y-106920000D02*
X177267500Y-96680000D01*
X176667500Y-106920000D02*
X176667500Y-96680000D01*
X171767500Y-106920000D02*
X171767500Y-96680000D01*
X170767500Y-105550000D02*
X170767500Y-103050000D01*
X170767500Y-100550000D02*
X170767500Y-98050000D01*
X169767500Y-105550000D02*
X170767500Y-105550000D01*
X169767500Y-105550000D02*
X169767500Y-103050000D01*
X169767500Y-103050000D02*
X170767500Y-103050000D01*
X169767500Y-100550000D02*
X170767500Y-100550000D01*
X169767500Y-100550000D02*
X169767500Y-98050000D01*
X169767500Y-98050000D02*
X170767500Y-98050000D01*
X169647500Y-106920000D02*
X177987500Y-106920000D01*
X169647500Y-106920000D02*
X169647500Y-96680000D01*
X169647500Y-96680000D02*
X177987500Y-96680000D01*
X135210000Y-105790580D02*
X135210000Y-105509420D01*
X134190000Y-105790580D02*
X134190000Y-105509420D01*
X131610000Y-105790580D02*
X131610000Y-105509420D01*
X130590000Y-105790580D02*
X130590000Y-105509420D01*
X137010000Y-99909420D02*
X137010000Y-100190580D01*
X135990000Y-99909420D02*
X135990000Y-100190580D01*
X163660000Y-99909420D02*
X163660000Y-100190580D01*
X162640000Y-99909420D02*
X162640000Y-100190580D01*
X142409420Y-106410000D02*
X142690580Y-106410000D01*
X142409420Y-105390000D02*
X142690580Y-105390000D01*
X133410000Y-99909420D02*
X133410000Y-100190580D01*
X132390000Y-99909420D02*
X132390000Y-100190580D01*
X118262500Y-99300000D02*
X117652500Y-99740000D01*
X117652500Y-98860000D01*
X118262500Y-99300000D01*
G36*
X118262500Y-99300000D02*
G01*
X117652500Y-99740000D01*
X117652500Y-98860000D01*
X118262500Y-99300000D01*
G37*
X126602500Y-106920000D02*
X118262500Y-106920000D01*
X126602500Y-96680000D02*
X126602500Y-106920000D01*
X126602500Y-96680000D02*
X118262500Y-96680000D01*
X126482500Y-105550000D02*
X125482500Y-105550000D01*
X126482500Y-103050000D02*
X126482500Y-105550000D01*
X126482500Y-103050000D02*
X125482500Y-103050000D01*
X126482500Y-100550000D02*
X125482500Y-100550000D01*
X126482500Y-98050000D02*
X126482500Y-100550000D01*
X126482500Y-98050000D02*
X125482500Y-98050000D01*
X125482500Y-103050000D02*
X125482500Y-105550000D01*
X125482500Y-98050000D02*
X125482500Y-100550000D01*
X124482500Y-96680000D02*
X124482500Y-106920000D01*
X119582500Y-96680000D02*
X119582500Y-106920000D01*
X118982500Y-96680000D02*
X118982500Y-106920000D01*
X118262500Y-99600000D02*
X118262500Y-106920000D01*
X118262500Y-96680000D02*
X118262500Y-99000000D01*
X165460000Y-99909420D02*
X165460000Y-100190580D01*
X164440000Y-99909420D02*
X164440000Y-100190580D01*
X142310000Y-108309420D02*
X142310000Y-108590580D01*
X141290000Y-108309420D02*
X141290000Y-108590580D01*
X139012742Y-106422500D02*
X139487258Y-106422500D01*
X139012742Y-105377500D02*
X139487258Y-105377500D01*
X165460000Y-106190580D02*
X165460000Y-105909420D01*
X164440000Y-106190580D02*
X164440000Y-105909420D01*
X167260000Y-99909420D02*
X167260000Y-100190580D01*
X166240000Y-99909420D02*
X166240000Y-100190580D01*
X131610000Y-99909420D02*
X131610000Y-100190580D01*
X130590000Y-99909420D02*
X130590000Y-100190580D01*
X129810000Y-99909420D02*
X129810000Y-100190580D01*
X128790000Y-99909420D02*
X128790000Y-100190580D01*
X143359420Y-98510000D02*
X143640580Y-98510000D01*
X143359420Y-97490000D02*
X143640580Y-97490000D01*
X138722500Y-108687258D02*
X138722500Y-108212742D01*
X137677500Y-108687258D02*
X137677500Y-108212742D01*
X133410000Y-84790580D02*
X133410000Y-84509420D01*
X132390000Y-84790580D02*
X132390000Y-84509420D01*
X167260000Y-85190580D02*
X167260000Y-84909420D01*
X166240000Y-85190580D02*
X166240000Y-84909420D01*
X140510000Y-87309420D02*
X140510000Y-87590580D01*
X139490000Y-87309420D02*
X139490000Y-87590580D01*
X145910000Y-87590580D02*
X145910000Y-87309420D01*
X144890000Y-87590580D02*
X144890000Y-87309420D01*
X161860000Y-78909420D02*
X161860000Y-79190580D01*
X160840000Y-78909420D02*
X160840000Y-79190580D01*
X163660000Y-85190580D02*
X163660000Y-84909420D01*
X162640000Y-85190580D02*
X162640000Y-84909420D01*
X137010000Y-84790580D02*
X137010000Y-84509420D01*
X135990000Y-84790580D02*
X135990000Y-84509420D01*
X135210000Y-78909420D02*
X135210000Y-79190580D01*
X134190000Y-78909420D02*
X134190000Y-79190580D01*
X129810000Y-84790580D02*
X129810000Y-84509420D01*
X128790000Y-84790580D02*
X128790000Y-84509420D01*
D11*
X140257715Y-78687687D02*
X140107715Y-78437687D01*
X140407715Y-78437687D01*
X140257715Y-78687687D01*
G36*
X140257715Y-78687687D02*
G01*
X140107715Y-78437687D01*
X140407715Y-78437687D01*
X140257715Y-78687687D01*
G37*
X142800000Y-82650000D02*
X142200000Y-82650000D01*
X142800000Y-82300000D02*
X142800000Y-82650000D01*
X142800000Y-79400000D02*
X142800000Y-79050000D01*
X142800000Y-79050000D02*
X142200000Y-79050000D01*
X139200000Y-82650000D02*
X139800000Y-82650000D01*
X139200000Y-82300000D02*
X139200000Y-82650000D01*
X139200000Y-79400000D02*
X139200000Y-79050000D01*
X139200000Y-79050000D02*
X139800000Y-79050000D01*
X159950000Y-74200000D02*
X159950000Y-87200000D01*
X157050000Y-87200000D02*
X159950000Y-87200000D01*
X157050000Y-74200000D02*
X159950000Y-74200000D01*
X146950000Y-87200000D02*
X149850000Y-87200000D01*
X146950000Y-87200000D02*
X146950000Y-74200000D01*
X146950000Y-74200000D02*
X149850000Y-74200000D01*
D14*
X144122500Y-87212742D02*
X144122500Y-87687258D01*
X143077500Y-87212742D02*
X143077500Y-87687258D01*
X139962742Y-77522500D02*
X140437258Y-77522500D01*
X139962742Y-76477500D02*
X140437258Y-76477500D01*
X178597500Y-83740000D02*
X177987500Y-83300000D01*
X178597500Y-82860000D01*
X178597500Y-83740000D01*
G36*
X178597500Y-83740000D02*
G01*
X177987500Y-83300000D01*
X178597500Y-82860000D01*
X178597500Y-83740000D01*
G37*
X177987500Y-85920000D02*
X177987500Y-83600000D01*
X177987500Y-83000000D02*
X177987500Y-75680000D01*
X177267500Y-85920000D02*
X177267500Y-75680000D01*
X176667500Y-85920000D02*
X176667500Y-75680000D01*
X171767500Y-85920000D02*
X171767500Y-75680000D01*
X170767500Y-84550000D02*
X170767500Y-82050000D01*
X170767500Y-79550000D02*
X170767500Y-77050000D01*
X169767500Y-84550000D02*
X170767500Y-84550000D01*
X169767500Y-84550000D02*
X169767500Y-82050000D01*
X169767500Y-82050000D02*
X170767500Y-82050000D01*
X169767500Y-79550000D02*
X170767500Y-79550000D01*
X169767500Y-79550000D02*
X169767500Y-77050000D01*
X169767500Y-77050000D02*
X170767500Y-77050000D01*
X169647500Y-85920000D02*
X177987500Y-85920000D01*
X169647500Y-85920000D02*
X169647500Y-75680000D01*
X169647500Y-75680000D02*
X177987500Y-75680000D01*
X135210000Y-84790580D02*
X135210000Y-84509420D01*
X134190000Y-84790580D02*
X134190000Y-84509420D01*
X131610000Y-84790580D02*
X131610000Y-84509420D01*
X130590000Y-84790580D02*
X130590000Y-84509420D01*
X137010000Y-78909420D02*
X137010000Y-79190580D01*
X135990000Y-78909420D02*
X135990000Y-79190580D01*
X163660000Y-78909420D02*
X163660000Y-79190580D01*
X162640000Y-78909420D02*
X162640000Y-79190580D01*
X142409420Y-85410000D02*
X142690580Y-85410000D01*
X142409420Y-84390000D02*
X142690580Y-84390000D01*
X133410000Y-78909420D02*
X133410000Y-79190580D01*
X132390000Y-78909420D02*
X132390000Y-79190580D01*
X118262500Y-78300000D02*
X117652500Y-78740000D01*
X117652500Y-77860000D01*
X118262500Y-78300000D01*
G36*
X118262500Y-78300000D02*
G01*
X117652500Y-78740000D01*
X117652500Y-77860000D01*
X118262500Y-78300000D01*
G37*
X126602500Y-85920000D02*
X118262500Y-85920000D01*
X126602500Y-75680000D02*
X126602500Y-85920000D01*
X126602500Y-75680000D02*
X118262500Y-75680000D01*
X126482500Y-84550000D02*
X125482500Y-84550000D01*
X126482500Y-82050000D02*
X126482500Y-84550000D01*
X126482500Y-82050000D02*
X125482500Y-82050000D01*
X126482500Y-79550000D02*
X125482500Y-79550000D01*
X126482500Y-77050000D02*
X126482500Y-79550000D01*
X126482500Y-77050000D02*
X125482500Y-77050000D01*
X125482500Y-82050000D02*
X125482500Y-84550000D01*
X125482500Y-77050000D02*
X125482500Y-79550000D01*
X124482500Y-75680000D02*
X124482500Y-85920000D01*
X119582500Y-75680000D02*
X119582500Y-85920000D01*
X118982500Y-75680000D02*
X118982500Y-85920000D01*
X118262500Y-78600000D02*
X118262500Y-85920000D01*
X118262500Y-75680000D02*
X118262500Y-78000000D01*
X165460000Y-78909420D02*
X165460000Y-79190580D01*
X164440000Y-78909420D02*
X164440000Y-79190580D01*
X142310000Y-87309420D02*
X142310000Y-87590580D01*
X141290000Y-87309420D02*
X141290000Y-87590580D01*
X139012742Y-85422500D02*
X139487258Y-85422500D01*
X139012742Y-84377500D02*
X139487258Y-84377500D01*
X165460000Y-85190580D02*
X165460000Y-84909420D01*
X164440000Y-85190580D02*
X164440000Y-84909420D01*
X167260000Y-78909420D02*
X167260000Y-79190580D01*
X166240000Y-78909420D02*
X166240000Y-79190580D01*
X131610000Y-78909420D02*
X131610000Y-79190580D01*
X130590000Y-78909420D02*
X130590000Y-79190580D01*
X129810000Y-78909420D02*
X129810000Y-79190580D01*
X128790000Y-78909420D02*
X128790000Y-79190580D01*
X143359420Y-77510000D02*
X143640580Y-77510000D01*
X143359420Y-76490000D02*
X143640580Y-76490000D01*
X138722500Y-87687258D02*
X138722500Y-87212742D01*
X137677500Y-87687258D02*
X137677500Y-87212742D01*
X133410000Y-63790580D02*
X133410000Y-63509420D01*
X132390000Y-63790580D02*
X132390000Y-63509420D01*
X167260000Y-64190580D02*
X167260000Y-63909420D01*
X166240000Y-64190580D02*
X166240000Y-63909420D01*
X140510000Y-66309420D02*
X140510000Y-66590580D01*
X139490000Y-66309420D02*
X139490000Y-66590580D01*
X145910000Y-66590580D02*
X145910000Y-66309420D01*
X144890000Y-66590580D02*
X144890000Y-66309420D01*
X161860000Y-57909420D02*
X161860000Y-58190580D01*
X160840000Y-57909420D02*
X160840000Y-58190580D01*
X163660000Y-64190580D02*
X163660000Y-63909420D01*
X162640000Y-64190580D02*
X162640000Y-63909420D01*
X137010000Y-63790580D02*
X137010000Y-63509420D01*
X135990000Y-63790580D02*
X135990000Y-63509420D01*
X135210000Y-57909420D02*
X135210000Y-58190580D01*
X134190000Y-57909420D02*
X134190000Y-58190580D01*
X129810000Y-63790580D02*
X129810000Y-63509420D01*
X128790000Y-63790580D02*
X128790000Y-63509420D01*
D11*
X140257715Y-57687687D02*
X140107715Y-57437687D01*
X140407715Y-57437687D01*
X140257715Y-57687687D01*
G36*
X140257715Y-57687687D02*
G01*
X140107715Y-57437687D01*
X140407715Y-57437687D01*
X140257715Y-57687687D01*
G37*
X142800000Y-61650000D02*
X142200000Y-61650000D01*
X142800000Y-61300000D02*
X142800000Y-61650000D01*
X142800000Y-58400000D02*
X142800000Y-58050000D01*
X142800000Y-58050000D02*
X142200000Y-58050000D01*
X139200000Y-61650000D02*
X139800000Y-61650000D01*
X139200000Y-61300000D02*
X139200000Y-61650000D01*
X139200000Y-58400000D02*
X139200000Y-58050000D01*
X139200000Y-58050000D02*
X139800000Y-58050000D01*
X159950000Y-53200000D02*
X159950000Y-66200000D01*
X157050000Y-66200000D02*
X159950000Y-66200000D01*
X157050000Y-53200000D02*
X159950000Y-53200000D01*
X146950000Y-66200000D02*
X149850000Y-66200000D01*
X146950000Y-66200000D02*
X146950000Y-53200000D01*
X146950000Y-53200000D02*
X149850000Y-53200000D01*
D14*
X144122500Y-66212742D02*
X144122500Y-66687258D01*
X143077500Y-66212742D02*
X143077500Y-66687258D01*
X139962742Y-56522500D02*
X140437258Y-56522500D01*
X139962742Y-55477500D02*
X140437258Y-55477500D01*
X178597500Y-62740000D02*
X177987500Y-62300000D01*
X178597500Y-61860000D01*
X178597500Y-62740000D01*
G36*
X178597500Y-62740000D02*
G01*
X177987500Y-62300000D01*
X178597500Y-61860000D01*
X178597500Y-62740000D01*
G37*
X177987500Y-64920000D02*
X177987500Y-62600000D01*
X177987500Y-62000000D02*
X177987500Y-54680000D01*
X177267500Y-64920000D02*
X177267500Y-54680000D01*
X176667500Y-64920000D02*
X176667500Y-54680000D01*
X171767500Y-64920000D02*
X171767500Y-54680000D01*
X170767500Y-63550000D02*
X170767500Y-61050000D01*
X170767500Y-58550000D02*
X170767500Y-56050000D01*
X169767500Y-63550000D02*
X170767500Y-63550000D01*
X169767500Y-63550000D02*
X169767500Y-61050000D01*
X169767500Y-61050000D02*
X170767500Y-61050000D01*
X169767500Y-58550000D02*
X170767500Y-58550000D01*
X169767500Y-58550000D02*
X169767500Y-56050000D01*
X169767500Y-56050000D02*
X170767500Y-56050000D01*
X169647500Y-64920000D02*
X177987500Y-64920000D01*
X169647500Y-64920000D02*
X169647500Y-54680000D01*
X169647500Y-54680000D02*
X177987500Y-54680000D01*
X135210000Y-63790580D02*
X135210000Y-63509420D01*
X134190000Y-63790580D02*
X134190000Y-63509420D01*
X131610000Y-63790580D02*
X131610000Y-63509420D01*
X130590000Y-63790580D02*
X130590000Y-63509420D01*
X137010000Y-57909420D02*
X137010000Y-58190580D01*
X135990000Y-57909420D02*
X135990000Y-58190580D01*
X163660000Y-57909420D02*
X163660000Y-58190580D01*
X162640000Y-57909420D02*
X162640000Y-58190580D01*
X142409420Y-64410000D02*
X142690580Y-64410000D01*
X142409420Y-63390000D02*
X142690580Y-63390000D01*
X133410000Y-57909420D02*
X133410000Y-58190580D01*
X132390000Y-57909420D02*
X132390000Y-58190580D01*
X118262500Y-57300000D02*
X117652500Y-57740000D01*
X117652500Y-56860000D01*
X118262500Y-57300000D01*
G36*
X118262500Y-57300000D02*
G01*
X117652500Y-57740000D01*
X117652500Y-56860000D01*
X118262500Y-57300000D01*
G37*
X126602500Y-64920000D02*
X118262500Y-64920000D01*
X126602500Y-54680000D02*
X126602500Y-64920000D01*
X126602500Y-54680000D02*
X118262500Y-54680000D01*
X126482500Y-63550000D02*
X125482500Y-63550000D01*
X126482500Y-61050000D02*
X126482500Y-63550000D01*
X126482500Y-61050000D02*
X125482500Y-61050000D01*
X126482500Y-58550000D02*
X125482500Y-58550000D01*
X126482500Y-56050000D02*
X126482500Y-58550000D01*
X126482500Y-56050000D02*
X125482500Y-56050000D01*
X125482500Y-61050000D02*
X125482500Y-63550000D01*
X125482500Y-56050000D02*
X125482500Y-58550000D01*
X124482500Y-54680000D02*
X124482500Y-64920000D01*
X119582500Y-54680000D02*
X119582500Y-64920000D01*
X118982500Y-54680000D02*
X118982500Y-64920000D01*
X118262500Y-57600000D02*
X118262500Y-64920000D01*
X118262500Y-54680000D02*
X118262500Y-57000000D01*
X165460000Y-57909420D02*
X165460000Y-58190580D01*
X164440000Y-57909420D02*
X164440000Y-58190580D01*
X142310000Y-66309420D02*
X142310000Y-66590580D01*
X141290000Y-66309420D02*
X141290000Y-66590580D01*
X139012742Y-64422500D02*
X139487258Y-64422500D01*
X139012742Y-63377500D02*
X139487258Y-63377500D01*
X165460000Y-64190580D02*
X165460000Y-63909420D01*
X164440000Y-64190580D02*
X164440000Y-63909420D01*
X167260000Y-57909420D02*
X167260000Y-58190580D01*
X166240000Y-57909420D02*
X166240000Y-58190580D01*
X131610000Y-57909420D02*
X131610000Y-58190580D01*
X130590000Y-57909420D02*
X130590000Y-58190580D01*
X129810000Y-57909420D02*
X129810000Y-58190580D01*
X128790000Y-57909420D02*
X128790000Y-58190580D01*
X143359420Y-56510000D02*
X143640580Y-56510000D01*
X143359420Y-55490000D02*
X143640580Y-55490000D01*
X138722500Y-66687258D02*
X138722500Y-66212742D01*
X137677500Y-66687258D02*
X137677500Y-66212742D01*
X133410000Y-42790580D02*
X133410000Y-42509420D01*
X132390000Y-42790580D02*
X132390000Y-42509420D01*
X167260000Y-43190580D02*
X167260000Y-42909420D01*
X166240000Y-43190580D02*
X166240000Y-42909420D01*
X140510000Y-45309420D02*
X140510000Y-45590580D01*
X139490000Y-45309420D02*
X139490000Y-45590580D01*
X145910000Y-45590580D02*
X145910000Y-45309420D01*
X144890000Y-45590580D02*
X144890000Y-45309420D01*
X161860000Y-36909420D02*
X161860000Y-37190580D01*
X160840000Y-36909420D02*
X160840000Y-37190580D01*
X163660000Y-43190580D02*
X163660000Y-42909420D01*
X162640000Y-43190580D02*
X162640000Y-42909420D01*
X137010000Y-42790580D02*
X137010000Y-42509420D01*
X135990000Y-42790580D02*
X135990000Y-42509420D01*
X135210000Y-36909420D02*
X135210000Y-37190580D01*
X134190000Y-36909420D02*
X134190000Y-37190580D01*
X129810000Y-42790580D02*
X129810000Y-42509420D01*
X128790000Y-42790580D02*
X128790000Y-42509420D01*
D11*
X140257715Y-36687687D02*
X140107715Y-36437687D01*
X140407715Y-36437687D01*
X140257715Y-36687687D01*
G36*
X140257715Y-36687687D02*
G01*
X140107715Y-36437687D01*
X140407715Y-36437687D01*
X140257715Y-36687687D01*
G37*
X142800000Y-40650000D02*
X142200000Y-40650000D01*
X142800000Y-40300000D02*
X142800000Y-40650000D01*
X142800000Y-37400000D02*
X142800000Y-37050000D01*
X142800000Y-37050000D02*
X142200000Y-37050000D01*
X139200000Y-40650000D02*
X139800000Y-40650000D01*
X139200000Y-40300000D02*
X139200000Y-40650000D01*
X139200000Y-37400000D02*
X139200000Y-37050000D01*
X139200000Y-37050000D02*
X139800000Y-37050000D01*
X159950000Y-32200000D02*
X159950000Y-45200000D01*
X157050000Y-45200000D02*
X159950000Y-45200000D01*
X157050000Y-32200000D02*
X159950000Y-32200000D01*
X146950000Y-45200000D02*
X149850000Y-45200000D01*
X146950000Y-45200000D02*
X146950000Y-32200000D01*
X146950000Y-32200000D02*
X149850000Y-32200000D01*
D14*
X144122500Y-45212742D02*
X144122500Y-45687258D01*
X143077500Y-45212742D02*
X143077500Y-45687258D01*
X139962742Y-35522500D02*
X140437258Y-35522500D01*
X139962742Y-34477500D02*
X140437258Y-34477500D01*
X178597500Y-41740000D02*
X177987500Y-41300000D01*
X178597500Y-40860000D01*
X178597500Y-41740000D01*
G36*
X178597500Y-41740000D02*
G01*
X177987500Y-41300000D01*
X178597500Y-40860000D01*
X178597500Y-41740000D01*
G37*
X177987500Y-43920000D02*
X177987500Y-41600000D01*
X177987500Y-41000000D02*
X177987500Y-33680000D01*
X177267500Y-43920000D02*
X177267500Y-33680000D01*
X176667500Y-43920000D02*
X176667500Y-33680000D01*
X171767500Y-43920000D02*
X171767500Y-33680000D01*
X170767500Y-42550000D02*
X170767500Y-40050000D01*
X170767500Y-37550000D02*
X170767500Y-35050000D01*
X169767500Y-42550000D02*
X170767500Y-42550000D01*
X169767500Y-42550000D02*
X169767500Y-40050000D01*
X169767500Y-40050000D02*
X170767500Y-40050000D01*
X169767500Y-37550000D02*
X170767500Y-37550000D01*
X169767500Y-37550000D02*
X169767500Y-35050000D01*
X169767500Y-35050000D02*
X170767500Y-35050000D01*
X169647500Y-43920000D02*
X177987500Y-43920000D01*
X169647500Y-43920000D02*
X169647500Y-33680000D01*
X169647500Y-33680000D02*
X177987500Y-33680000D01*
X135210000Y-42790580D02*
X135210000Y-42509420D01*
X134190000Y-42790580D02*
X134190000Y-42509420D01*
X131610000Y-42790580D02*
X131610000Y-42509420D01*
X130590000Y-42790580D02*
X130590000Y-42509420D01*
X137010000Y-36909420D02*
X137010000Y-37190580D01*
X135990000Y-36909420D02*
X135990000Y-37190580D01*
X163660000Y-36909420D02*
X163660000Y-37190580D01*
X162640000Y-36909420D02*
X162640000Y-37190580D01*
X142409420Y-43410000D02*
X142690580Y-43410000D01*
X142409420Y-42390000D02*
X142690580Y-42390000D01*
X133410000Y-36909420D02*
X133410000Y-37190580D01*
X132390000Y-36909420D02*
X132390000Y-37190580D01*
X118262500Y-36300000D02*
X117652500Y-36740000D01*
X117652500Y-35860000D01*
X118262500Y-36300000D01*
G36*
X118262500Y-36300000D02*
G01*
X117652500Y-36740000D01*
X117652500Y-35860000D01*
X118262500Y-36300000D01*
G37*
X126602500Y-43920000D02*
X118262500Y-43920000D01*
X126602500Y-33680000D02*
X126602500Y-43920000D01*
X126602500Y-33680000D02*
X118262500Y-33680000D01*
X126482500Y-42550000D02*
X125482500Y-42550000D01*
X126482500Y-40050000D02*
X126482500Y-42550000D01*
X126482500Y-40050000D02*
X125482500Y-40050000D01*
X126482500Y-37550000D02*
X125482500Y-37550000D01*
X126482500Y-35050000D02*
X126482500Y-37550000D01*
X126482500Y-35050000D02*
X125482500Y-35050000D01*
X125482500Y-40050000D02*
X125482500Y-42550000D01*
X125482500Y-35050000D02*
X125482500Y-37550000D01*
X124482500Y-33680000D02*
X124482500Y-43920000D01*
X119582500Y-33680000D02*
X119582500Y-43920000D01*
X118982500Y-33680000D02*
X118982500Y-43920000D01*
X118262500Y-36600000D02*
X118262500Y-43920000D01*
X118262500Y-33680000D02*
X118262500Y-36000000D01*
X165460000Y-36909420D02*
X165460000Y-37190580D01*
X164440000Y-36909420D02*
X164440000Y-37190580D01*
X142310000Y-45309420D02*
X142310000Y-45590580D01*
X141290000Y-45309420D02*
X141290000Y-45590580D01*
X139012742Y-43422500D02*
X139487258Y-43422500D01*
X139012742Y-42377500D02*
X139487258Y-42377500D01*
X165460000Y-43190580D02*
X165460000Y-42909420D01*
X164440000Y-43190580D02*
X164440000Y-42909420D01*
X167260000Y-36909420D02*
X167260000Y-37190580D01*
X166240000Y-36909420D02*
X166240000Y-37190580D01*
X131610000Y-36909420D02*
X131610000Y-37190580D01*
X130590000Y-36909420D02*
X130590000Y-37190580D01*
X129810000Y-36909420D02*
X129810000Y-37190580D01*
X128790000Y-36909420D02*
X128790000Y-37190580D01*
X143359420Y-35510000D02*
X143640580Y-35510000D01*
X143359420Y-34490000D02*
X143640580Y-34490000D01*
X138722500Y-45687258D02*
X138722500Y-45212742D01*
X137677500Y-45687258D02*
X137677500Y-45212742D01*
X138722500Y-129687258D02*
X138722500Y-129212742D01*
X137677500Y-129687258D02*
X137677500Y-129212742D01*
X143359420Y-119510000D02*
X143640580Y-119510000D01*
X143359420Y-118490000D02*
X143640580Y-118490000D01*
X129810000Y-120909420D02*
X129810000Y-121190580D01*
X128790000Y-120909420D02*
X128790000Y-121190580D01*
X131610000Y-120909420D02*
X131610000Y-121190580D01*
X130590000Y-120909420D02*
X130590000Y-121190580D01*
X167260000Y-120909420D02*
X167260000Y-121190580D01*
X166240000Y-120909420D02*
X166240000Y-121190580D01*
X165460000Y-127190580D02*
X165460000Y-126909420D01*
X164440000Y-127190580D02*
X164440000Y-126909420D01*
X139012742Y-127422500D02*
X139487258Y-127422500D01*
X139012742Y-126377500D02*
X139487258Y-126377500D01*
X142310000Y-129309420D02*
X142310000Y-129590580D01*
X141290000Y-129309420D02*
X141290000Y-129590580D01*
X165460000Y-120909420D02*
X165460000Y-121190580D01*
X164440000Y-120909420D02*
X164440000Y-121190580D01*
X118262500Y-120300000D02*
X117652500Y-120740000D01*
X117652500Y-119860000D01*
X118262500Y-120300000D01*
G36*
X118262500Y-120300000D02*
G01*
X117652500Y-120740000D01*
X117652500Y-119860000D01*
X118262500Y-120300000D01*
G37*
X126602500Y-127920000D02*
X118262500Y-127920000D01*
X126602500Y-117680000D02*
X126602500Y-127920000D01*
X126602500Y-117680000D02*
X118262500Y-117680000D01*
X126482500Y-126550000D02*
X125482500Y-126550000D01*
X126482500Y-124050000D02*
X126482500Y-126550000D01*
X126482500Y-124050000D02*
X125482500Y-124050000D01*
X126482500Y-121550000D02*
X125482500Y-121550000D01*
X126482500Y-119050000D02*
X126482500Y-121550000D01*
X126482500Y-119050000D02*
X125482500Y-119050000D01*
X125482500Y-124050000D02*
X125482500Y-126550000D01*
X125482500Y-119050000D02*
X125482500Y-121550000D01*
X124482500Y-117680000D02*
X124482500Y-127920000D01*
X119582500Y-117680000D02*
X119582500Y-127920000D01*
X118982500Y-117680000D02*
X118982500Y-127920000D01*
X118262500Y-120600000D02*
X118262500Y-127920000D01*
X118262500Y-117680000D02*
X118262500Y-120000000D01*
X133410000Y-120909420D02*
X133410000Y-121190580D01*
X132390000Y-120909420D02*
X132390000Y-121190580D01*
X142409420Y-127410000D02*
X142690580Y-127410000D01*
X142409420Y-126390000D02*
X142690580Y-126390000D01*
X163660000Y-120909420D02*
X163660000Y-121190580D01*
X162640000Y-120909420D02*
X162640000Y-121190580D01*
X137010000Y-120909420D02*
X137010000Y-121190580D01*
X135990000Y-120909420D02*
X135990000Y-121190580D01*
X131610000Y-126790580D02*
X131610000Y-126509420D01*
X130590000Y-126790580D02*
X130590000Y-126509420D01*
X135210000Y-126790580D02*
X135210000Y-126509420D01*
X134190000Y-126790580D02*
X134190000Y-126509420D01*
X178597500Y-125740000D02*
X177987500Y-125300000D01*
X178597500Y-124860000D01*
X178597500Y-125740000D01*
G36*
X178597500Y-125740000D02*
G01*
X177987500Y-125300000D01*
X178597500Y-124860000D01*
X178597500Y-125740000D01*
G37*
X177987500Y-127920000D02*
X177987500Y-125600000D01*
X177987500Y-125000000D02*
X177987500Y-117680000D01*
X177267500Y-127920000D02*
X177267500Y-117680000D01*
X176667500Y-127920000D02*
X176667500Y-117680000D01*
X171767500Y-127920000D02*
X171767500Y-117680000D01*
X170767500Y-126550000D02*
X170767500Y-124050000D01*
X170767500Y-121550000D02*
X170767500Y-119050000D01*
X169767500Y-126550000D02*
X170767500Y-126550000D01*
X169767500Y-126550000D02*
X169767500Y-124050000D01*
X169767500Y-124050000D02*
X170767500Y-124050000D01*
X169767500Y-121550000D02*
X170767500Y-121550000D01*
X169767500Y-121550000D02*
X169767500Y-119050000D01*
X169767500Y-119050000D02*
X170767500Y-119050000D01*
X169647500Y-127920000D02*
X177987500Y-127920000D01*
X169647500Y-127920000D02*
X169647500Y-117680000D01*
X169647500Y-117680000D02*
X177987500Y-117680000D01*
X139962742Y-119522500D02*
X140437258Y-119522500D01*
X139962742Y-118477500D02*
X140437258Y-118477500D01*
X144122500Y-129212742D02*
X144122500Y-129687258D01*
X143077500Y-129212742D02*
X143077500Y-129687258D01*
D11*
X159950000Y-116200000D02*
X159950000Y-129200000D01*
X157050000Y-129200000D02*
X159950000Y-129200000D01*
X157050000Y-116200000D02*
X159950000Y-116200000D01*
X146950000Y-129200000D02*
X149850000Y-129200000D01*
X146950000Y-129200000D02*
X146950000Y-116200000D01*
X146950000Y-116200000D02*
X149850000Y-116200000D01*
X140257715Y-120687687D02*
X140107715Y-120437687D01*
X140407715Y-120437687D01*
X140257715Y-120687687D01*
G36*
X140257715Y-120687687D02*
G01*
X140107715Y-120437687D01*
X140407715Y-120437687D01*
X140257715Y-120687687D01*
G37*
X142800000Y-124650000D02*
X142200000Y-124650000D01*
X142800000Y-124300000D02*
X142800000Y-124650000D01*
X142800000Y-121400000D02*
X142800000Y-121050000D01*
X142800000Y-121050000D02*
X142200000Y-121050000D01*
X139200000Y-124650000D02*
X139800000Y-124650000D01*
X139200000Y-124300000D02*
X139200000Y-124650000D01*
X139200000Y-121400000D02*
X139200000Y-121050000D01*
X139200000Y-121050000D02*
X139800000Y-121050000D01*
D14*
X129810000Y-126790580D02*
X129810000Y-126509420D01*
X128790000Y-126790580D02*
X128790000Y-126509420D01*
X135210000Y-120909420D02*
X135210000Y-121190580D01*
X134190000Y-120909420D02*
X134190000Y-121190580D01*
X137010000Y-126790580D02*
X137010000Y-126509420D01*
X135990000Y-126790580D02*
X135990000Y-126509420D01*
X163660000Y-127190580D02*
X163660000Y-126909420D01*
X162640000Y-127190580D02*
X162640000Y-126909420D01*
X161860000Y-120909420D02*
X161860000Y-121190580D01*
X160840000Y-120909420D02*
X160840000Y-121190580D01*
X145910000Y-129590580D02*
X145910000Y-129309420D01*
X144890000Y-129590580D02*
X144890000Y-129309420D01*
X140510000Y-129309420D02*
X140510000Y-129590580D01*
X139490000Y-129309420D02*
X139490000Y-129590580D01*
X167260000Y-127190580D02*
X167260000Y-126909420D01*
X166240000Y-127190580D02*
X166240000Y-126909420D01*
X133410000Y-126790580D02*
X133410000Y-126509420D01*
X132390000Y-126790580D02*
X132390000Y-126509420D01*
%LPC*%
D11*
X116725000Y-93299742D02*
X129075000Y-93299742D01*
X129075000Y-96050000D01*
X116725000Y-96050000D01*
X116725000Y-93299742D01*
G36*
X116725000Y-93299742D02*
G01*
X129075000Y-93299742D01*
X129075000Y-96050000D01*
X116725000Y-96050000D01*
X116725000Y-93299742D01*
G37*
X161250000Y-93199870D02*
X169150000Y-93199870D01*
X169150000Y-98000130D01*
X161250000Y-98000130D01*
X161250000Y-93199870D01*
G36*
X161250000Y-93199870D02*
G01*
X169150000Y-93199870D01*
X169150000Y-98000130D01*
X161250000Y-98000130D01*
X161250000Y-93199870D01*
G37*
X116725000Y-107549742D02*
X128125000Y-107549742D01*
X128125000Y-112000000D01*
X116725000Y-112000000D01*
X116725000Y-107549742D01*
G36*
X116725000Y-107549742D02*
G01*
X128125000Y-107549742D01*
X128125000Y-112000000D01*
X116725000Y-112000000D01*
X116725000Y-107549742D01*
G37*
X128400000Y-93299740D02*
X136300000Y-93299740D01*
X136300000Y-98100000D01*
X128400000Y-98100000D01*
X128400000Y-93299740D01*
G36*
X128400000Y-93299740D02*
G01*
X136300000Y-93299740D01*
X136300000Y-98100000D01*
X128400000Y-98100000D01*
X128400000Y-93299740D01*
G37*
X168170937Y-93199740D02*
X180070937Y-93199740D01*
X180070937Y-95949998D01*
X168170937Y-95949998D01*
X168170937Y-93199740D01*
G36*
X168170937Y-93199740D02*
G01*
X180070937Y-93199740D01*
X180070937Y-95949998D01*
X168170937Y-95949998D01*
X168170937Y-93199740D01*
G37*
X167875000Y-107649742D02*
X179875000Y-107649742D01*
X179875000Y-111700000D01*
X167875000Y-111700000D01*
X167875000Y-107649742D01*
G36*
X167875000Y-107649742D02*
G01*
X179875000Y-107649742D01*
X179875000Y-111700000D01*
X167875000Y-111700000D01*
X167875000Y-107649742D01*
G37*
X116725000Y-72299742D02*
X129075000Y-72299742D01*
X129075000Y-75050000D01*
X116725000Y-75050000D01*
X116725000Y-72299742D01*
G36*
X116725000Y-72299742D02*
G01*
X129075000Y-72299742D01*
X129075000Y-75050000D01*
X116725000Y-75050000D01*
X116725000Y-72299742D01*
G37*
X161250000Y-72199870D02*
X169150000Y-72199870D01*
X169150000Y-77000130D01*
X161250000Y-77000130D01*
X161250000Y-72199870D01*
G36*
X161250000Y-72199870D02*
G01*
X169150000Y-72199870D01*
X169150000Y-77000130D01*
X161250000Y-77000130D01*
X161250000Y-72199870D01*
G37*
X116725000Y-86549742D02*
X128125000Y-86549742D01*
X128125000Y-91000000D01*
X116725000Y-91000000D01*
X116725000Y-86549742D01*
G36*
X116725000Y-86549742D02*
G01*
X128125000Y-86549742D01*
X128125000Y-91000000D01*
X116725000Y-91000000D01*
X116725000Y-86549742D01*
G37*
X128400000Y-72299740D02*
X136300000Y-72299740D01*
X136300000Y-77100000D01*
X128400000Y-77100000D01*
X128400000Y-72299740D01*
G36*
X128400000Y-72299740D02*
G01*
X136300000Y-72299740D01*
X136300000Y-77100000D01*
X128400000Y-77100000D01*
X128400000Y-72299740D01*
G37*
X168170937Y-72199740D02*
X180070937Y-72199740D01*
X180070937Y-74949998D01*
X168170937Y-74949998D01*
X168170937Y-72199740D01*
G36*
X168170937Y-72199740D02*
G01*
X180070937Y-72199740D01*
X180070937Y-74949998D01*
X168170937Y-74949998D01*
X168170937Y-72199740D01*
G37*
X167875000Y-86649742D02*
X179875000Y-86649742D01*
X179875000Y-90700000D01*
X167875000Y-90700000D01*
X167875000Y-86649742D01*
G36*
X167875000Y-86649742D02*
G01*
X179875000Y-86649742D01*
X179875000Y-90700000D01*
X167875000Y-90700000D01*
X167875000Y-86649742D01*
G37*
X116725000Y-51299742D02*
X129075000Y-51299742D01*
X129075000Y-54050000D01*
X116725000Y-54050000D01*
X116725000Y-51299742D01*
G36*
X116725000Y-51299742D02*
G01*
X129075000Y-51299742D01*
X129075000Y-54050000D01*
X116725000Y-54050000D01*
X116725000Y-51299742D01*
G37*
X161250000Y-51199870D02*
X169150000Y-51199870D01*
X169150000Y-56000130D01*
X161250000Y-56000130D01*
X161250000Y-51199870D01*
G36*
X161250000Y-51199870D02*
G01*
X169150000Y-51199870D01*
X169150000Y-56000130D01*
X161250000Y-56000130D01*
X161250000Y-51199870D01*
G37*
X116725000Y-65549742D02*
X128125000Y-65549742D01*
X128125000Y-70000000D01*
X116725000Y-70000000D01*
X116725000Y-65549742D01*
G36*
X116725000Y-65549742D02*
G01*
X128125000Y-65549742D01*
X128125000Y-70000000D01*
X116725000Y-70000000D01*
X116725000Y-65549742D01*
G37*
X128400000Y-51299740D02*
X136300000Y-51299740D01*
X136300000Y-56100000D01*
X128400000Y-56100000D01*
X128400000Y-51299740D01*
G36*
X128400000Y-51299740D02*
G01*
X136300000Y-51299740D01*
X136300000Y-56100000D01*
X128400000Y-56100000D01*
X128400000Y-51299740D01*
G37*
X168170937Y-51199740D02*
X180070937Y-51199740D01*
X180070937Y-53949998D01*
X168170937Y-53949998D01*
X168170937Y-51199740D01*
G36*
X168170937Y-51199740D02*
G01*
X180070937Y-51199740D01*
X180070937Y-53949998D01*
X168170937Y-53949998D01*
X168170937Y-51199740D01*
G37*
X167875000Y-65649742D02*
X179875000Y-65649742D01*
X179875000Y-69700000D01*
X167875000Y-69700000D01*
X167875000Y-65649742D01*
G36*
X167875000Y-65649742D02*
G01*
X179875000Y-65649742D01*
X179875000Y-69700000D01*
X167875000Y-69700000D01*
X167875000Y-65649742D01*
G37*
X116725000Y-30299742D02*
X129075000Y-30299742D01*
X129075000Y-33050000D01*
X116725000Y-33050000D01*
X116725000Y-30299742D01*
G36*
X116725000Y-30299742D02*
G01*
X129075000Y-30299742D01*
X129075000Y-33050000D01*
X116725000Y-33050000D01*
X116725000Y-30299742D01*
G37*
X161250000Y-30199870D02*
X169150000Y-30199870D01*
X169150000Y-35000130D01*
X161250000Y-35000130D01*
X161250000Y-30199870D01*
G36*
X161250000Y-30199870D02*
G01*
X169150000Y-30199870D01*
X169150000Y-35000130D01*
X161250000Y-35000130D01*
X161250000Y-30199870D01*
G37*
X116725000Y-44549742D02*
X128125000Y-44549742D01*
X128125000Y-49000000D01*
X116725000Y-49000000D01*
X116725000Y-44549742D01*
G36*
X116725000Y-44549742D02*
G01*
X128125000Y-44549742D01*
X128125000Y-49000000D01*
X116725000Y-49000000D01*
X116725000Y-44549742D01*
G37*
X128400000Y-30299740D02*
X136300000Y-30299740D01*
X136300000Y-35100000D01*
X128400000Y-35100000D01*
X128400000Y-30299740D01*
G36*
X128400000Y-30299740D02*
G01*
X136300000Y-30299740D01*
X136300000Y-35100000D01*
X128400000Y-35100000D01*
X128400000Y-30299740D01*
G37*
X168170937Y-30199740D02*
X180070937Y-30199740D01*
X180070937Y-32949998D01*
X168170937Y-32949998D01*
X168170937Y-30199740D01*
G36*
X168170937Y-30199740D02*
G01*
X180070937Y-30199740D01*
X180070937Y-32949998D01*
X168170937Y-32949998D01*
X168170937Y-30199740D01*
G37*
X167875000Y-44649742D02*
X179875000Y-44649742D01*
X179875000Y-48700000D01*
X167875000Y-48700000D01*
X167875000Y-44649742D01*
G36*
X167875000Y-44649742D02*
G01*
X179875000Y-44649742D01*
X179875000Y-48700000D01*
X167875000Y-48700000D01*
X167875000Y-44649742D01*
G37*
X167875000Y-128649742D02*
X179875000Y-128649742D01*
X179875000Y-132700000D01*
X167875000Y-132700000D01*
X167875000Y-128649742D01*
G36*
X167875000Y-128649742D02*
G01*
X179875000Y-128649742D01*
X179875000Y-132700000D01*
X167875000Y-132700000D01*
X167875000Y-128649742D01*
G37*
X168170937Y-114199740D02*
X180070937Y-114199740D01*
X180070937Y-116949998D01*
X168170937Y-116949998D01*
X168170937Y-114199740D01*
G36*
X168170937Y-114199740D02*
G01*
X180070937Y-114199740D01*
X180070937Y-116949998D01*
X168170937Y-116949998D01*
X168170937Y-114199740D01*
G37*
X128400000Y-114299740D02*
X136300000Y-114299740D01*
X136300000Y-119100000D01*
X128400000Y-119100000D01*
X128400000Y-114299740D01*
G36*
X128400000Y-114299740D02*
G01*
X136300000Y-114299740D01*
X136300000Y-119100000D01*
X128400000Y-119100000D01*
X128400000Y-114299740D01*
G37*
X116725000Y-128549742D02*
X128125000Y-128549742D01*
X128125000Y-133000000D01*
X116725000Y-133000000D01*
X116725000Y-128549742D01*
G36*
X116725000Y-128549742D02*
G01*
X128125000Y-128549742D01*
X128125000Y-133000000D01*
X116725000Y-133000000D01*
X116725000Y-128549742D01*
G37*
X161250000Y-114199870D02*
X169150000Y-114199870D01*
X169150000Y-119000130D01*
X161250000Y-119000130D01*
X161250000Y-114199870D01*
G36*
X161250000Y-114199870D02*
G01*
X169150000Y-114199870D01*
X169150000Y-119000130D01*
X161250000Y-119000130D01*
X161250000Y-114199870D01*
G37*
X116725000Y-114299742D02*
X129075000Y-114299742D01*
X129075000Y-117050000D01*
X116725000Y-117050000D01*
X116725000Y-114299742D01*
G36*
X116725000Y-114299742D02*
G01*
X129075000Y-114299742D01*
X129075000Y-117050000D01*
X116725000Y-117050000D01*
X116725000Y-114299742D01*
G37*
D15*
X132900000Y-104875000D03*
X132900000Y-106425000D03*
X166750000Y-105275000D03*
X166750000Y-106825000D03*
D16*
X140000000Y-109225000D03*
X140000000Y-107675000D03*
D15*
X145400000Y-107675000D03*
X145400000Y-109225000D03*
D16*
X161350000Y-100825000D03*
X161350000Y-99275000D03*
D15*
X163150000Y-105275000D03*
X163150000Y-106825000D03*
X136500000Y-104875000D03*
X136500000Y-106425000D03*
D16*
X134700000Y-100825000D03*
X134700000Y-99275000D03*
D15*
X129300000Y-104875000D03*
X129300000Y-106425000D03*
D17*
X141512500Y-102362500D03*
X141512500Y-101337500D03*
D18*
X141275000Y-101850000D03*
D19*
X141000000Y-103053800D03*
D20*
X141000000Y-101850000D03*
D19*
X141000000Y-100646200D03*
D18*
X140725000Y-101850000D03*
D17*
X140487500Y-102362500D03*
X140487500Y-101337500D03*
D21*
X141750000Y-100200000D03*
D22*
X142650000Y-100850000D03*
X142650000Y-101350000D03*
X142650000Y-101850000D03*
X142650000Y-102350000D03*
X142650000Y-102850000D03*
D23*
X141750000Y-103500000D03*
X140250000Y-103500000D03*
D22*
X139350000Y-102850000D03*
X139350000Y-102350000D03*
X139350000Y-101850000D03*
X139350000Y-101350000D03*
X139350000Y-100850000D03*
D21*
X140250000Y-100200000D03*
D24*
X153450000Y-107453000D03*
X153450000Y-95947000D03*
D25*
X143600000Y-109275000D03*
X143600000Y-107625000D03*
D26*
X141025000Y-98000000D03*
X139375000Y-98000000D03*
D27*
X173817500Y-99300000D03*
D28*
X173817500Y-104300000D03*
D15*
X134700000Y-104875000D03*
X134700000Y-106425000D03*
X131100000Y-104875000D03*
X131100000Y-106425000D03*
D16*
X136500000Y-100825000D03*
X136500000Y-99275000D03*
X163150000Y-100825000D03*
X163150000Y-99275000D03*
D29*
X143325000Y-105900000D03*
X141775000Y-105900000D03*
D16*
X132900000Y-100825000D03*
X132900000Y-99275000D03*
D27*
X122432500Y-104300000D03*
D30*
X122432500Y-99300000D03*
D16*
X164950000Y-100825000D03*
X164950000Y-99275000D03*
X141800000Y-109225000D03*
X141800000Y-107675000D03*
D26*
X140075000Y-105900000D03*
X138425000Y-105900000D03*
D15*
X164950000Y-105275000D03*
X164950000Y-106825000D03*
D16*
X166750000Y-100825000D03*
X166750000Y-99275000D03*
X131100000Y-100825000D03*
X131100000Y-99275000D03*
X129300000Y-100825000D03*
X129300000Y-99275000D03*
D29*
X144275000Y-98000000D03*
X142725000Y-98000000D03*
D31*
X138200000Y-107625000D03*
X138200000Y-109275000D03*
D15*
X132900000Y-83875000D03*
X132900000Y-85425000D03*
X166750000Y-84275000D03*
X166750000Y-85825000D03*
D16*
X140000000Y-88225000D03*
X140000000Y-86675000D03*
D15*
X145400000Y-86675000D03*
X145400000Y-88225000D03*
D16*
X161350000Y-79825000D03*
X161350000Y-78275000D03*
D15*
X163150000Y-84275000D03*
X163150000Y-85825000D03*
X136500000Y-83875000D03*
X136500000Y-85425000D03*
D16*
X134700000Y-79825000D03*
X134700000Y-78275000D03*
D15*
X129300000Y-83875000D03*
X129300000Y-85425000D03*
D17*
X141512500Y-81362500D03*
X141512500Y-80337500D03*
D18*
X141275000Y-80850000D03*
D19*
X141000000Y-82053800D03*
D20*
X141000000Y-80850000D03*
D19*
X141000000Y-79646200D03*
D18*
X140725000Y-80850000D03*
D17*
X140487500Y-81362500D03*
X140487500Y-80337500D03*
D21*
X141750000Y-79200000D03*
D22*
X142650000Y-79850000D03*
X142650000Y-80350000D03*
X142650000Y-80850000D03*
X142650000Y-81350000D03*
X142650000Y-81850000D03*
D23*
X141750000Y-82500000D03*
X140250000Y-82500000D03*
D22*
X139350000Y-81850000D03*
X139350000Y-81350000D03*
X139350000Y-80850000D03*
X139350000Y-80350000D03*
X139350000Y-79850000D03*
D21*
X140250000Y-79200000D03*
D24*
X153450000Y-86453000D03*
X153450000Y-74947000D03*
D25*
X143600000Y-88275000D03*
X143600000Y-86625000D03*
D26*
X141025000Y-77000000D03*
X139375000Y-77000000D03*
D27*
X173817500Y-78300000D03*
D28*
X173817500Y-83300000D03*
D15*
X134700000Y-83875000D03*
X134700000Y-85425000D03*
X131100000Y-83875000D03*
X131100000Y-85425000D03*
D16*
X136500000Y-79825000D03*
X136500000Y-78275000D03*
X163150000Y-79825000D03*
X163150000Y-78275000D03*
D29*
X143325000Y-84900000D03*
X141775000Y-84900000D03*
D16*
X132900000Y-79825000D03*
X132900000Y-78275000D03*
D27*
X122432500Y-83300000D03*
D30*
X122432500Y-78300000D03*
D16*
X164950000Y-79825000D03*
X164950000Y-78275000D03*
X141800000Y-88225000D03*
X141800000Y-86675000D03*
D26*
X140075000Y-84900000D03*
X138425000Y-84900000D03*
D15*
X164950000Y-84275000D03*
X164950000Y-85825000D03*
D16*
X166750000Y-79825000D03*
X166750000Y-78275000D03*
X131100000Y-79825000D03*
X131100000Y-78275000D03*
X129300000Y-79825000D03*
X129300000Y-78275000D03*
D29*
X144275000Y-77000000D03*
X142725000Y-77000000D03*
D31*
X138200000Y-86625000D03*
X138200000Y-88275000D03*
D15*
X132900000Y-62875000D03*
X132900000Y-64425000D03*
X166750000Y-63275000D03*
X166750000Y-64825000D03*
D16*
X140000000Y-67225000D03*
X140000000Y-65675000D03*
D15*
X145400000Y-65675000D03*
X145400000Y-67225000D03*
D16*
X161350000Y-58825000D03*
X161350000Y-57275000D03*
D15*
X163150000Y-63275000D03*
X163150000Y-64825000D03*
X136500000Y-62875000D03*
X136500000Y-64425000D03*
D16*
X134700000Y-58825000D03*
X134700000Y-57275000D03*
D15*
X129300000Y-62875000D03*
X129300000Y-64425000D03*
D17*
X141512500Y-60362500D03*
X141512500Y-59337500D03*
D18*
X141275000Y-59850000D03*
D19*
X141000000Y-61053800D03*
D20*
X141000000Y-59850000D03*
D19*
X141000000Y-58646200D03*
D18*
X140725000Y-59850000D03*
D17*
X140487500Y-60362500D03*
X140487500Y-59337500D03*
D21*
X141750000Y-58200000D03*
D22*
X142650000Y-58850000D03*
X142650000Y-59350000D03*
X142650000Y-59850000D03*
X142650000Y-60350000D03*
X142650000Y-60850000D03*
D23*
X141750000Y-61500000D03*
X140250000Y-61500000D03*
D22*
X139350000Y-60850000D03*
X139350000Y-60350000D03*
X139350000Y-59850000D03*
X139350000Y-59350000D03*
X139350000Y-58850000D03*
D21*
X140250000Y-58200000D03*
D24*
X153450000Y-65453000D03*
X153450000Y-53947000D03*
D25*
X143600000Y-67275000D03*
X143600000Y-65625000D03*
D26*
X141025000Y-56000000D03*
X139375000Y-56000000D03*
D27*
X173817500Y-57300000D03*
D28*
X173817500Y-62300000D03*
D15*
X134700000Y-62875000D03*
X134700000Y-64425000D03*
X131100000Y-62875000D03*
X131100000Y-64425000D03*
D16*
X136500000Y-58825000D03*
X136500000Y-57275000D03*
X163150000Y-58825000D03*
X163150000Y-57275000D03*
D29*
X143325000Y-63900000D03*
X141775000Y-63900000D03*
D16*
X132900000Y-58825000D03*
X132900000Y-57275000D03*
D27*
X122432500Y-62300000D03*
D30*
X122432500Y-57300000D03*
D16*
X164950000Y-58825000D03*
X164950000Y-57275000D03*
X141800000Y-67225000D03*
X141800000Y-65675000D03*
D26*
X140075000Y-63900000D03*
X138425000Y-63900000D03*
D15*
X164950000Y-63275000D03*
X164950000Y-64825000D03*
D16*
X166750000Y-58825000D03*
X166750000Y-57275000D03*
X131100000Y-58825000D03*
X131100000Y-57275000D03*
X129300000Y-58825000D03*
X129300000Y-57275000D03*
D29*
X144275000Y-56000000D03*
X142725000Y-56000000D03*
D31*
X138200000Y-65625000D03*
X138200000Y-67275000D03*
D15*
X132900000Y-41875000D03*
X132900000Y-43425000D03*
X166750000Y-42275000D03*
X166750000Y-43825000D03*
D16*
X140000000Y-46225000D03*
X140000000Y-44675000D03*
D15*
X145400000Y-44675000D03*
X145400000Y-46225000D03*
D16*
X161350000Y-37825000D03*
X161350000Y-36275000D03*
D15*
X163150000Y-42275000D03*
X163150000Y-43825000D03*
X136500000Y-41875000D03*
X136500000Y-43425000D03*
D16*
X134700000Y-37825000D03*
X134700000Y-36275000D03*
D15*
X129300000Y-41875000D03*
X129300000Y-43425000D03*
D17*
X141512500Y-39362500D03*
X141512500Y-38337500D03*
D18*
X141275000Y-38850000D03*
D19*
X141000000Y-40053800D03*
D20*
X141000000Y-38850000D03*
D19*
X141000000Y-37646200D03*
D18*
X140725000Y-38850000D03*
D17*
X140487500Y-39362500D03*
X140487500Y-38337500D03*
D21*
X141750000Y-37200000D03*
D22*
X142650000Y-37850000D03*
X142650000Y-38350000D03*
X142650000Y-38850000D03*
X142650000Y-39350000D03*
X142650000Y-39850000D03*
D23*
X141750000Y-40500000D03*
X140250000Y-40500000D03*
D22*
X139350000Y-39850000D03*
X139350000Y-39350000D03*
X139350000Y-38850000D03*
X139350000Y-38350000D03*
X139350000Y-37850000D03*
D21*
X140250000Y-37200000D03*
D24*
X153450000Y-44453000D03*
X153450000Y-32947000D03*
D25*
X143600000Y-46275000D03*
X143600000Y-44625000D03*
D26*
X141025000Y-35000000D03*
X139375000Y-35000000D03*
D27*
X173817500Y-36300000D03*
D28*
X173817500Y-41300000D03*
D15*
X134700000Y-41875000D03*
X134700000Y-43425000D03*
X131100000Y-41875000D03*
X131100000Y-43425000D03*
D16*
X136500000Y-37825000D03*
X136500000Y-36275000D03*
X163150000Y-37825000D03*
X163150000Y-36275000D03*
D29*
X143325000Y-42900000D03*
X141775000Y-42900000D03*
D16*
X132900000Y-37825000D03*
X132900000Y-36275000D03*
D27*
X122432500Y-41300000D03*
D30*
X122432500Y-36300000D03*
D16*
X164950000Y-37825000D03*
X164950000Y-36275000D03*
X141800000Y-46225000D03*
X141800000Y-44675000D03*
D26*
X140075000Y-42900000D03*
X138425000Y-42900000D03*
D15*
X164950000Y-42275000D03*
X164950000Y-43825000D03*
D16*
X166750000Y-37825000D03*
X166750000Y-36275000D03*
X131100000Y-37825000D03*
X131100000Y-36275000D03*
X129300000Y-37825000D03*
X129300000Y-36275000D03*
D29*
X144275000Y-35000000D03*
X142725000Y-35000000D03*
D31*
X138200000Y-44625000D03*
X138200000Y-46275000D03*
X138200000Y-128625000D03*
X138200000Y-130275000D03*
D29*
X144275000Y-119000000D03*
X142725000Y-119000000D03*
D16*
X129300000Y-121825000D03*
X129300000Y-120275000D03*
X131100000Y-121825000D03*
X131100000Y-120275000D03*
X166750000Y-121825000D03*
X166750000Y-120275000D03*
D15*
X164950000Y-126275000D03*
X164950000Y-127825000D03*
D26*
X140075000Y-126900000D03*
X138425000Y-126900000D03*
D16*
X141800000Y-130225000D03*
X141800000Y-128675000D03*
X164950000Y-121825000D03*
X164950000Y-120275000D03*
D27*
X122432500Y-125300000D03*
D30*
X122432500Y-120300000D03*
D16*
X132900000Y-121825000D03*
X132900000Y-120275000D03*
D29*
X143325000Y-126900000D03*
X141775000Y-126900000D03*
D16*
X163150000Y-121825000D03*
X163150000Y-120275000D03*
X136500000Y-121825000D03*
X136500000Y-120275000D03*
D15*
X131100000Y-125875000D03*
X131100000Y-127425000D03*
X134700000Y-125875000D03*
X134700000Y-127425000D03*
D27*
X173817500Y-120300000D03*
D28*
X173817500Y-125300000D03*
D26*
X141025000Y-119000000D03*
X139375000Y-119000000D03*
D25*
X143600000Y-130275000D03*
X143600000Y-128625000D03*
D24*
X153450000Y-128453000D03*
X153450000Y-116947000D03*
D17*
X141512500Y-123362500D03*
X141512500Y-122337500D03*
D18*
X141275000Y-122850000D03*
D19*
X141000000Y-124053800D03*
D20*
X141000000Y-122850000D03*
D19*
X141000000Y-121646200D03*
D18*
X140725000Y-122850000D03*
D17*
X140487500Y-123362500D03*
X140487500Y-122337500D03*
D21*
X141750000Y-121200000D03*
D22*
X142650000Y-121850000D03*
X142650000Y-122350000D03*
X142650000Y-122850000D03*
X142650000Y-123350000D03*
X142650000Y-123850000D03*
D23*
X141750000Y-124500000D03*
X140250000Y-124500000D03*
D22*
X139350000Y-123850000D03*
X139350000Y-123350000D03*
X139350000Y-122850000D03*
X139350000Y-122350000D03*
X139350000Y-121850000D03*
D21*
X140250000Y-121200000D03*
D15*
X129300000Y-125875000D03*
X129300000Y-127425000D03*
D16*
X134700000Y-121825000D03*
X134700000Y-120275000D03*
D15*
X136500000Y-125875000D03*
X136500000Y-127425000D03*
X163150000Y-126275000D03*
X163150000Y-127825000D03*
D16*
X161350000Y-121825000D03*
X161350000Y-120275000D03*
D15*
X145400000Y-128675000D03*
X145400000Y-130225000D03*
D16*
X140000000Y-130225000D03*
X140000000Y-128675000D03*
D15*
X166750000Y-126275000D03*
X166750000Y-127825000D03*
X132900000Y-125875000D03*
X132900000Y-127425000D03*
%LPD*%
D32*
X117000000Y-30300000D02*
X179200000Y-30300000D01*
X179200000Y-132300000D01*
X117000000Y-132300000D01*
X117000000Y-30300000D01*
M02*
