G04 #@! TF.GenerationSoftware,KiCad,Pcbnew,9.0.4*
G04 #@! TF.CreationDate,2025-09-21T01:50:15+05:30*
G04 #@! TF.ProjectId,panel,70616e65-6c2e-46b6-9963-61645f706362,rev?*
G04 #@! TF.SameCoordinates,Original*
G04 #@! TF.FileFunction,Copper,L2,Bot*
G04 #@! TF.FilePolarity,Positive*
%FSLAX46Y46*%
G04 Gerber Fmt 4.6, Leading zero omitted, Abs format (unit mm)*
G04 Created by KiCad (PCBNEW 9.0.4) date 2025-09-21 01:50:15*
%MOMM*%
%LPD*%
G01*
G04 APERTURE LIST*
G04 Aperture macros list*
%AMRoundRect*
0 Rectangle with rounded corners*
0 $1 Rounding radius*
0 $2 $3 $4 $5 $6 $7 $8 $9 X,Y pos of 4 corners*
0 Add a 4 corners polygon primitive as box body*
4,1,4,$2,$3,$4,$5,$6,$7,$8,$9,$2,$3,0*
0 Add four circle primitives for the rounded corners*
1,1,$1+$1,$2,$3*
1,1,$1+$1,$4,$5*
1,1,$1+$1,$6,$7*
1,1,$1+$1,$8,$9*
0 Add four rect primitives between the rounded corners*
20,1,$1+$1,$2,$3,$4,$5,0*
20,1,$1+$1,$4,$5,$6,$7,0*
20,1,$1+$1,$6,$7,$8,$9,0*
20,1,$1+$1,$8,$9,$2,$3,0*%
G04 Aperture macros list end*
G04 #@! TA.AperFunction,ComponentPad*
%ADD10C,0.700000*%
G04 #@! TD*
G04 #@! TA.AperFunction,ComponentPad*
%ADD11C,2.100000*%
G04 #@! TD*
G04 #@! TA.AperFunction,ComponentPad*
%ADD12RoundRect,0.250001X0.799999X-0.799999X0.799999X0.799999X-0.799999X0.799999X-0.799999X-0.799999X0*%
G04 #@! TD*
G04 #@! TA.AperFunction,ComponentPad*
%ADD13RoundRect,0.250001X-0.799999X0.799999X-0.799999X-0.799999X0.799999X-0.799999X0.799999X0.799999X0*%
G04 #@! TD*
G04 #@! TA.AperFunction,ViaPad*
%ADD14C,0.700000*%
G04 #@! TD*
G04 #@! TA.AperFunction,Profile*
%ADD15C,0.050000*%
G04 #@! TD*
G04 APERTURE END LIST*
D10*
X141512500Y-102362500D03*
X141512500Y-101337500D03*
X140487500Y-102362500D03*
X140487500Y-101337500D03*
D11*
X173817500Y-99300000D03*
D12*
X173817500Y-104300000D03*
D11*
X122432500Y-104300000D03*
D13*
X122432500Y-99300000D03*
D10*
X141512500Y-81362500D03*
X141512500Y-80337500D03*
X140487500Y-81362500D03*
X140487500Y-80337500D03*
D11*
X173817500Y-78300000D03*
D12*
X173817500Y-83300000D03*
D11*
X122432500Y-83300000D03*
D13*
X122432500Y-78300000D03*
D10*
X141512500Y-60362500D03*
X141512500Y-59337500D03*
X140487500Y-60362500D03*
X140487500Y-59337500D03*
D11*
X173817500Y-57300000D03*
D12*
X173817500Y-62300000D03*
D11*
X122432500Y-62300000D03*
D13*
X122432500Y-57300000D03*
D10*
X141512500Y-39362500D03*
X141512500Y-38337500D03*
X140487500Y-39362500D03*
X140487500Y-38337500D03*
D11*
X173817500Y-36300000D03*
D12*
X173817500Y-41300000D03*
D11*
X122432500Y-41300000D03*
D13*
X122432500Y-36300000D03*
D11*
X122432500Y-125300000D03*
D13*
X122432500Y-120300000D03*
D11*
X173817500Y-120300000D03*
D12*
X173817500Y-125300000D03*
D10*
X141512500Y-123362500D03*
X141512500Y-122337500D03*
X140487500Y-123362500D03*
X140487500Y-122337500D03*
D14*
X163700000Y-94750000D03*
X161700000Y-94750000D03*
X163700000Y-96426750D03*
X137700000Y-98426750D03*
X145350000Y-103800000D03*
X169700000Y-98426750D03*
X159700000Y-98426750D03*
X133700000Y-94800000D03*
X165700000Y-96426750D03*
X147700000Y-106426750D03*
X123700000Y-94800000D03*
X165700000Y-94750000D03*
X129700000Y-94800000D03*
X173700000Y-96426750D03*
X161700000Y-96426750D03*
X175700000Y-100426750D03*
X173700000Y-94750000D03*
X146350000Y-105400000D03*
X166900000Y-108150000D03*
X175700000Y-94650000D03*
X127700000Y-94800000D03*
X162900000Y-108150000D03*
X177700000Y-98426750D03*
X137700000Y-96426750D03*
X140900000Y-105200000D03*
X164900000Y-108150000D03*
X139700000Y-96426750D03*
X171700000Y-94750000D03*
X141700000Y-96426750D03*
X135700000Y-109900000D03*
X125700000Y-96426750D03*
X161700000Y-97850000D03*
X135700000Y-96426750D03*
X119700000Y-98426750D03*
X152150000Y-102550000D03*
X131700000Y-109900000D03*
X131700000Y-97800000D03*
X167700000Y-94750000D03*
X121700000Y-94800000D03*
X171700000Y-96426750D03*
X160900000Y-109550000D03*
X125700000Y-94800000D03*
X164900000Y-109550000D03*
X157900000Y-94750000D03*
X154900000Y-101500000D03*
X137700000Y-94750000D03*
X131700000Y-94800000D03*
X127700000Y-96426750D03*
X157900000Y-96450000D03*
X129700000Y-96426750D03*
X127700000Y-98426750D03*
X123700000Y-96426750D03*
X147700000Y-108426750D03*
X177700000Y-96426750D03*
X177700000Y-94650000D03*
X140900000Y-106800000D03*
X141850000Y-98750000D03*
X153850000Y-102550000D03*
X133700000Y-109900000D03*
X133700000Y-97800000D03*
X119700000Y-96426750D03*
X171700000Y-98426750D03*
X142700000Y-106850000D03*
X133700000Y-108426750D03*
X135700000Y-108426750D03*
X131700000Y-108426750D03*
X157900000Y-98550000D03*
X175700000Y-98426750D03*
X135700000Y-94750000D03*
X141700000Y-94750000D03*
X144500000Y-108450000D03*
X125700000Y-98426750D03*
X167700000Y-97850000D03*
X119700000Y-94800000D03*
X140900000Y-108450000D03*
X149300000Y-103700000D03*
X138500000Y-99800000D03*
X169700000Y-96426750D03*
X147700000Y-104426750D03*
X177700000Y-100426750D03*
X129700000Y-97800000D03*
X129700000Y-109900000D03*
X160900000Y-108150000D03*
X156950000Y-99550000D03*
X175700000Y-96426750D03*
X167700000Y-96426750D03*
X165700000Y-97850000D03*
X142700000Y-108450000D03*
X169700000Y-94750000D03*
X129700000Y-108426750D03*
X166900000Y-109550000D03*
X159700000Y-96426750D03*
X150500000Y-102550000D03*
X121700000Y-96426750D03*
X135700000Y-97800000D03*
X133700000Y-96426750D03*
X131700000Y-96426750D03*
X163700000Y-97850000D03*
X139700000Y-94750000D03*
X146700000Y-109700000D03*
X162900000Y-109550000D03*
X159700000Y-94750000D03*
X155950000Y-100500000D03*
X163700000Y-73750000D03*
X161700000Y-73750000D03*
X163700000Y-75426750D03*
X137700000Y-77426750D03*
X145350000Y-82800000D03*
X169700000Y-77426750D03*
X159700000Y-77426750D03*
X133700000Y-73800000D03*
X165700000Y-75426750D03*
X147700000Y-85426750D03*
X123700000Y-73800000D03*
X165700000Y-73750000D03*
X129700000Y-73800000D03*
X173700000Y-75426750D03*
X161700000Y-75426750D03*
X175700000Y-79426750D03*
X173700000Y-73750000D03*
X146350000Y-84400000D03*
X166900000Y-87150000D03*
X175700000Y-73650000D03*
X127700000Y-73800000D03*
X162900000Y-87150000D03*
X177700000Y-77426750D03*
X137700000Y-75426750D03*
X140900000Y-84200000D03*
X164900000Y-87150000D03*
X139700000Y-75426750D03*
X171700000Y-73750000D03*
X141700000Y-75426750D03*
X135700000Y-88900000D03*
X125700000Y-75426750D03*
X161700000Y-76850000D03*
X135700000Y-75426750D03*
X119700000Y-77426750D03*
X152150000Y-81550000D03*
X131700000Y-88900000D03*
X131700000Y-76800000D03*
X167700000Y-73750000D03*
X121700000Y-73800000D03*
X171700000Y-75426750D03*
X160900000Y-88550000D03*
X125700000Y-73800000D03*
X164900000Y-88550000D03*
X157900000Y-73750000D03*
X154900000Y-80500000D03*
X137700000Y-73750000D03*
X131700000Y-73800000D03*
X127700000Y-75426750D03*
X157900000Y-75450000D03*
X129700000Y-75426750D03*
X127700000Y-77426750D03*
X123700000Y-75426750D03*
X147700000Y-87426750D03*
X177700000Y-75426750D03*
X177700000Y-73650000D03*
X140900000Y-85800000D03*
X141850000Y-77750000D03*
X153850000Y-81550000D03*
X133700000Y-88900000D03*
X133700000Y-76800000D03*
X119700000Y-75426750D03*
X171700000Y-77426750D03*
X142700000Y-85850000D03*
X133700000Y-87426750D03*
X135700000Y-87426750D03*
X131700000Y-87426750D03*
X157900000Y-77550000D03*
X175700000Y-77426750D03*
X135700000Y-73750000D03*
X141700000Y-73750000D03*
X144500000Y-87450000D03*
X125700000Y-77426750D03*
X167700000Y-76850000D03*
X119700000Y-73800000D03*
X140900000Y-87450000D03*
X149300000Y-82700000D03*
X138500000Y-78800000D03*
X169700000Y-75426750D03*
X147700000Y-83426750D03*
X177700000Y-79426750D03*
X129700000Y-76800000D03*
X129700000Y-88900000D03*
X160900000Y-87150000D03*
X156950000Y-78550000D03*
X175700000Y-75426750D03*
X167700000Y-75426750D03*
X165700000Y-76850000D03*
X142700000Y-87450000D03*
X169700000Y-73750000D03*
X129700000Y-87426750D03*
X166900000Y-88550000D03*
X159700000Y-75426750D03*
X150500000Y-81550000D03*
X121700000Y-75426750D03*
X135700000Y-76800000D03*
X133700000Y-75426750D03*
X131700000Y-75426750D03*
X163700000Y-76850000D03*
X139700000Y-73750000D03*
X146700000Y-88700000D03*
X162900000Y-88550000D03*
X159700000Y-73750000D03*
X155950000Y-79500000D03*
X163700000Y-52750000D03*
X161700000Y-52750000D03*
X163700000Y-54426750D03*
X137700000Y-56426750D03*
X145350000Y-61800000D03*
X169700000Y-56426750D03*
X159700000Y-56426750D03*
X133700000Y-52800000D03*
X165700000Y-54426750D03*
X147700000Y-64426750D03*
X123700000Y-52800000D03*
X165700000Y-52750000D03*
X129700000Y-52800000D03*
X173700000Y-54426750D03*
X161700000Y-54426750D03*
X175700000Y-58426750D03*
X173700000Y-52750000D03*
X146350000Y-63400000D03*
X166900000Y-66150000D03*
X175700000Y-52650000D03*
X127700000Y-52800000D03*
X162900000Y-66150000D03*
X177700000Y-56426750D03*
X137700000Y-54426750D03*
X140900000Y-63200000D03*
X164900000Y-66150000D03*
X139700000Y-54426750D03*
X171700000Y-52750000D03*
X141700000Y-54426750D03*
X135700000Y-67900000D03*
X125700000Y-54426750D03*
X161700000Y-55850000D03*
X135700000Y-54426750D03*
X119700000Y-56426750D03*
X152150000Y-60550000D03*
X131700000Y-67900000D03*
X131700000Y-55800000D03*
X167700000Y-52750000D03*
X121700000Y-52800000D03*
X171700000Y-54426750D03*
X160900000Y-67550000D03*
X125700000Y-52800000D03*
X164900000Y-67550000D03*
X157900000Y-52750000D03*
X154900000Y-59500000D03*
X137700000Y-52750000D03*
X131700000Y-52800000D03*
X127700000Y-54426750D03*
X157900000Y-54450000D03*
X129700000Y-54426750D03*
X127700000Y-56426750D03*
X123700000Y-54426750D03*
X147700000Y-66426750D03*
X177700000Y-54426750D03*
X177700000Y-52650000D03*
X140900000Y-64800000D03*
X141850000Y-56750000D03*
X153850000Y-60550000D03*
X133700000Y-67900000D03*
X133700000Y-55800000D03*
X119700000Y-54426750D03*
X171700000Y-56426750D03*
X142700000Y-64850000D03*
X133700000Y-66426750D03*
X135700000Y-66426750D03*
X131700000Y-66426750D03*
X157900000Y-56550000D03*
X175700000Y-56426750D03*
X135700000Y-52750000D03*
X141700000Y-52750000D03*
X144500000Y-66450000D03*
X125700000Y-56426750D03*
X167700000Y-55850000D03*
X119700000Y-52800000D03*
X140900000Y-66450000D03*
X149300000Y-61700000D03*
X138500000Y-57800000D03*
X169700000Y-54426750D03*
X147700000Y-62426750D03*
X177700000Y-58426750D03*
X129700000Y-55800000D03*
X129700000Y-67900000D03*
X160900000Y-66150000D03*
X156950000Y-57550000D03*
X175700000Y-54426750D03*
X167700000Y-54426750D03*
X165700000Y-55850000D03*
X142700000Y-66450000D03*
X169700000Y-52750000D03*
X129700000Y-66426750D03*
X166900000Y-67550000D03*
X159700000Y-54426750D03*
X150500000Y-60550000D03*
X121700000Y-54426750D03*
X135700000Y-55800000D03*
X133700000Y-54426750D03*
X131700000Y-54426750D03*
X163700000Y-55850000D03*
X139700000Y-52750000D03*
X146700000Y-67700000D03*
X162900000Y-67550000D03*
X159700000Y-52750000D03*
X155950000Y-58500000D03*
X163700000Y-31750000D03*
X161700000Y-31750000D03*
X163700000Y-33426750D03*
X137700000Y-35426750D03*
X145350000Y-40800000D03*
X169700000Y-35426750D03*
X159700000Y-35426750D03*
X133700000Y-31800000D03*
X165700000Y-33426750D03*
X147700000Y-43426750D03*
X123700000Y-31800000D03*
X165700000Y-31750000D03*
X129700000Y-31800000D03*
X173700000Y-33426750D03*
X161700000Y-33426750D03*
X175700000Y-37426750D03*
X173700000Y-31750000D03*
X146350000Y-42400000D03*
X166900000Y-45150000D03*
X175700000Y-31650000D03*
X127700000Y-31800000D03*
X162900000Y-45150000D03*
X177700000Y-35426750D03*
X137700000Y-33426750D03*
X140900000Y-42200000D03*
X164900000Y-45150000D03*
X139700000Y-33426750D03*
X171700000Y-31750000D03*
X141700000Y-33426750D03*
X135700000Y-46900000D03*
X125700000Y-33426750D03*
X161700000Y-34850000D03*
X135700000Y-33426750D03*
X119700000Y-35426750D03*
X152150000Y-39550000D03*
X131700000Y-46900000D03*
X131700000Y-34800000D03*
X167700000Y-31750000D03*
X121700000Y-31800000D03*
X171700000Y-33426750D03*
X160900000Y-46550000D03*
X125700000Y-31800000D03*
X164900000Y-46550000D03*
X157900000Y-31750000D03*
X154900000Y-38500000D03*
X137700000Y-31750000D03*
X131700000Y-31800000D03*
X127700000Y-33426750D03*
X157900000Y-33450000D03*
X129700000Y-33426750D03*
X127700000Y-35426750D03*
X123700000Y-33426750D03*
X147700000Y-45426750D03*
X177700000Y-33426750D03*
X177700000Y-31650000D03*
X140900000Y-43800000D03*
X141850000Y-35750000D03*
X153850000Y-39550000D03*
X133700000Y-46900000D03*
X133700000Y-34800000D03*
X119700000Y-33426750D03*
X171700000Y-35426750D03*
X142700000Y-43850000D03*
X133700000Y-45426750D03*
X135700000Y-45426750D03*
X131700000Y-45426750D03*
X157900000Y-35550000D03*
X175700000Y-35426750D03*
X135700000Y-31750000D03*
X141700000Y-31750000D03*
X144500000Y-45450000D03*
X125700000Y-35426750D03*
X167700000Y-34850000D03*
X119700000Y-31800000D03*
X140900000Y-45450000D03*
X149300000Y-40700000D03*
X138500000Y-36800000D03*
X169700000Y-33426750D03*
X147700000Y-41426750D03*
X177700000Y-37426750D03*
X129700000Y-34800000D03*
X129700000Y-46900000D03*
X160900000Y-45150000D03*
X156950000Y-36550000D03*
X175700000Y-33426750D03*
X167700000Y-33426750D03*
X165700000Y-34850000D03*
X142700000Y-45450000D03*
X169700000Y-31750000D03*
X129700000Y-45426750D03*
X166900000Y-46550000D03*
X159700000Y-33426750D03*
X150500000Y-39550000D03*
X121700000Y-33426750D03*
X135700000Y-34800000D03*
X133700000Y-33426750D03*
X131700000Y-33426750D03*
X163700000Y-34850000D03*
X139700000Y-31750000D03*
X146700000Y-46700000D03*
X162900000Y-46550000D03*
X159700000Y-31750000D03*
X155950000Y-37500000D03*
X155950000Y-121500000D03*
X159700000Y-115750000D03*
X162900000Y-130550000D03*
X146700000Y-130700000D03*
X139700000Y-115750000D03*
X163700000Y-118850000D03*
X131700000Y-117426750D03*
X133700000Y-117426750D03*
X135700000Y-118800000D03*
X121700000Y-117426750D03*
X150500000Y-123550000D03*
X159700000Y-117426750D03*
X166900000Y-130550000D03*
X129700000Y-129426750D03*
X169700000Y-115750000D03*
X142700000Y-129450000D03*
X165700000Y-118850000D03*
X167700000Y-117426750D03*
X175700000Y-117426750D03*
X156950000Y-120550000D03*
X160900000Y-129150000D03*
X129700000Y-130900000D03*
X129700000Y-118800000D03*
X177700000Y-121426750D03*
X147700000Y-125426750D03*
X169700000Y-117426750D03*
X138500000Y-120800000D03*
X149300000Y-124700000D03*
X140900000Y-129450000D03*
X119700000Y-115800000D03*
X167700000Y-118850000D03*
X125700000Y-119426750D03*
X144500000Y-129450000D03*
X141700000Y-115750000D03*
X135700000Y-115750000D03*
X175700000Y-119426750D03*
X157900000Y-119550000D03*
X131700000Y-129426750D03*
X135700000Y-129426750D03*
X133700000Y-129426750D03*
X142700000Y-127850000D03*
X171700000Y-119426750D03*
X119700000Y-117426750D03*
X133700000Y-118800000D03*
X133700000Y-130900000D03*
X153850000Y-123550000D03*
X141850000Y-119750000D03*
X140900000Y-127800000D03*
X177700000Y-115650000D03*
X177700000Y-117426750D03*
X147700000Y-129426750D03*
X123700000Y-117426750D03*
X127700000Y-119426750D03*
X129700000Y-117426750D03*
X157900000Y-117450000D03*
X127700000Y-117426750D03*
X131700000Y-115800000D03*
X137700000Y-115750000D03*
X154900000Y-122500000D03*
X157900000Y-115750000D03*
X164900000Y-130550000D03*
X125700000Y-115800000D03*
X160900000Y-130550000D03*
X171700000Y-117426750D03*
X121700000Y-115800000D03*
X167700000Y-115750000D03*
X131700000Y-118800000D03*
X131700000Y-130900000D03*
X152150000Y-123550000D03*
X119700000Y-119426750D03*
X135700000Y-117426750D03*
X161700000Y-118850000D03*
X125700000Y-117426750D03*
X135700000Y-130900000D03*
X141700000Y-117426750D03*
X171700000Y-115750000D03*
X139700000Y-117426750D03*
X164900000Y-129150000D03*
X140900000Y-126200000D03*
X137700000Y-117426750D03*
X177700000Y-119426750D03*
X162900000Y-129150000D03*
X127700000Y-115800000D03*
X175700000Y-115650000D03*
X166900000Y-129150000D03*
X146350000Y-126400000D03*
X173700000Y-115750000D03*
X175700000Y-121426750D03*
X161700000Y-117426750D03*
X173700000Y-117426750D03*
X129700000Y-115800000D03*
X165700000Y-115750000D03*
X123700000Y-115800000D03*
X147700000Y-127426750D03*
X165700000Y-117426750D03*
X133700000Y-115800000D03*
X159700000Y-119426750D03*
X169700000Y-119426750D03*
X145350000Y-124800000D03*
X137700000Y-119426750D03*
X163700000Y-117426750D03*
X161700000Y-115750000D03*
X163700000Y-115750000D03*
G04 #@! TA.AperFunction,Conductor*
G36*
X178108315Y-114801436D02*
G01*
X178194465Y-114811144D01*
X178226993Y-114818568D01*
X178300878Y-114844421D01*
X178330939Y-114858898D01*
X178397217Y-114900543D01*
X178423304Y-114921346D01*
X178478653Y-114976695D01*
X178499456Y-115002782D01*
X178541101Y-115069060D01*
X178555578Y-115099121D01*
X178581431Y-115173006D01*
X178588855Y-115205532D01*
X178598563Y-115291682D01*
X178599500Y-115308367D01*
X178599500Y-131291632D01*
X178598563Y-131308315D01*
X178598563Y-131308317D01*
X178588855Y-131394467D01*
X178581431Y-131426993D01*
X178555578Y-131500878D01*
X178541101Y-131530939D01*
X178499456Y-131597217D01*
X178478653Y-131623304D01*
X178423304Y-131678653D01*
X178397217Y-131699456D01*
X178330939Y-131741101D01*
X178300878Y-131755578D01*
X178226993Y-131781431D01*
X178194467Y-131788855D01*
X178131435Y-131795957D01*
X178108313Y-131798563D01*
X178091633Y-131799500D01*
X118108367Y-131799500D01*
X118091686Y-131798563D01*
X118065413Y-131795602D01*
X118005532Y-131788855D01*
X117973006Y-131781431D01*
X117899121Y-131755578D01*
X117869060Y-131741101D01*
X117802782Y-131699456D01*
X117776695Y-131678653D01*
X117721346Y-131623304D01*
X117700543Y-131597217D01*
X117658898Y-131530939D01*
X117644421Y-131500878D01*
X117618568Y-131426993D01*
X117611144Y-131394465D01*
X117601437Y-131308315D01*
X117600500Y-131291632D01*
X117600500Y-125201583D01*
X121182000Y-125201583D01*
X121182000Y-125398417D01*
X121212791Y-125592826D01*
X121273616Y-125780025D01*
X121273619Y-125780030D01*
X121273621Y-125780036D01*
X121357679Y-125945010D01*
X121362976Y-125955405D01*
X121478672Y-126114646D01*
X121617854Y-126253828D01*
X121777095Y-126369524D01*
X121952475Y-126458884D01*
X122139674Y-126519709D01*
X122334083Y-126550500D01*
X122334088Y-126550500D01*
X122530912Y-126550500D01*
X122530917Y-126550500D01*
X122725326Y-126519709D01*
X122912525Y-126458884D01*
X123087905Y-126369524D01*
X123247146Y-126253828D01*
X123386328Y-126114646D01*
X123502024Y-125955405D01*
X123591384Y-125780025D01*
X123652209Y-125592826D01*
X123683000Y-125398417D01*
X123683000Y-125201583D01*
X123652209Y-125007174D01*
X123591384Y-124819975D01*
X123502024Y-124644595D01*
X123502022Y-124644592D01*
X123418645Y-124529833D01*
X123418643Y-124529832D01*
X123386328Y-124485354D01*
X123346699Y-124445725D01*
X172567000Y-124445725D01*
X172567000Y-126154262D01*
X172567001Y-126154281D01*
X172569853Y-126184697D01*
X172614707Y-126312883D01*
X172695348Y-126422148D01*
X172695351Y-126422151D01*
X172804616Y-126502792D01*
X172804617Y-126502792D01*
X172804618Y-126502793D01*
X172932802Y-126547646D01*
X172963235Y-126550500D01*
X174671764Y-126550499D01*
X174671766Y-126550498D01*
X174671781Y-126550498D01*
X174698048Y-126548034D01*
X174702198Y-126547646D01*
X174830382Y-126502793D01*
X174939650Y-126422150D01*
X175020293Y-126312882D01*
X175065146Y-126184698D01*
X175068000Y-126154265D01*
X175067999Y-124445736D01*
X175067998Y-124445725D01*
X175067998Y-124445718D01*
X175065146Y-124415302D01*
X175040957Y-124346174D01*
X175020293Y-124287118D01*
X174978490Y-124230477D01*
X174939651Y-124177851D01*
X174939648Y-124177848D01*
X174830383Y-124097207D01*
X174770541Y-124076268D01*
X174702198Y-124052354D01*
X174702196Y-124052353D01*
X174702194Y-124052353D01*
X174671766Y-124049500D01*
X172963237Y-124049500D01*
X172963218Y-124049501D01*
X172932802Y-124052353D01*
X172804616Y-124097207D01*
X172695351Y-124177848D01*
X172695348Y-124177851D01*
X172614707Y-124287116D01*
X172569853Y-124415305D01*
X172567000Y-124445725D01*
X123346699Y-124445725D01*
X123247146Y-124346172D01*
X123087905Y-124230476D01*
X123077510Y-124225179D01*
X122912536Y-124141121D01*
X122912530Y-124141119D01*
X122912525Y-124141116D01*
X122725326Y-124080291D01*
X122530917Y-124049500D01*
X122334083Y-124049500D01*
X122139674Y-124080291D01*
X121952475Y-124141116D01*
X121952472Y-124141117D01*
X121952463Y-124141121D01*
X121777098Y-124230474D01*
X121777093Y-124230477D01*
X121617863Y-124346165D01*
X121617852Y-124346174D01*
X121478674Y-124485352D01*
X121478665Y-124485363D01*
X121362977Y-124644593D01*
X121362974Y-124644598D01*
X121273621Y-124819963D01*
X121273617Y-124819972D01*
X121273616Y-124819975D01*
X121212791Y-125007174D01*
X121182000Y-125201583D01*
X117600500Y-125201583D01*
X117600500Y-115308367D01*
X117601437Y-115291684D01*
X117601437Y-115291682D01*
X117611144Y-115205532D01*
X117618568Y-115173006D01*
X117644421Y-115099121D01*
X117658898Y-115069060D01*
X117700543Y-115002782D01*
X117721342Y-114976699D01*
X117776699Y-114921342D01*
X117802782Y-114900543D01*
X117869060Y-114858898D01*
X117899118Y-114844422D01*
X117973008Y-114818567D01*
X118005532Y-114811144D01*
X118091684Y-114801436D01*
X118108367Y-114800500D01*
X118165892Y-114800500D01*
X178034108Y-114800500D01*
X178091633Y-114800500D01*
X178108315Y-114801436D01*
G37*
G04 #@! TD.AperFunction*
G04 #@! TA.AperFunction,Conductor*
G36*
X178108315Y-30801436D02*
G01*
X178194465Y-30811144D01*
X178226993Y-30818568D01*
X178300878Y-30844421D01*
X178330939Y-30858898D01*
X178397217Y-30900543D01*
X178423304Y-30921346D01*
X178478653Y-30976695D01*
X178499456Y-31002782D01*
X178541101Y-31069060D01*
X178555578Y-31099121D01*
X178581431Y-31173006D01*
X178588855Y-31205532D01*
X178598563Y-31291682D01*
X178599500Y-31308367D01*
X178599500Y-47291632D01*
X178598563Y-47308315D01*
X178598563Y-47308317D01*
X178588855Y-47394467D01*
X178581431Y-47426993D01*
X178555578Y-47500878D01*
X178541101Y-47530939D01*
X178499456Y-47597217D01*
X178478653Y-47623304D01*
X178423304Y-47678653D01*
X178397217Y-47699456D01*
X178330939Y-47741101D01*
X178300878Y-47755578D01*
X178226993Y-47781431D01*
X178194467Y-47788855D01*
X178131435Y-47795957D01*
X178108313Y-47798563D01*
X178091633Y-47799500D01*
X118108367Y-47799500D01*
X118091686Y-47798563D01*
X118065413Y-47795602D01*
X118005532Y-47788855D01*
X117973006Y-47781431D01*
X117899121Y-47755578D01*
X117869060Y-47741101D01*
X117802782Y-47699456D01*
X117776695Y-47678653D01*
X117721346Y-47623304D01*
X117700543Y-47597217D01*
X117658898Y-47530939D01*
X117644421Y-47500878D01*
X117618568Y-47426993D01*
X117611144Y-47394465D01*
X117601437Y-47308315D01*
X117600500Y-47291632D01*
X117600500Y-41201583D01*
X121182000Y-41201583D01*
X121182000Y-41398417D01*
X121212791Y-41592826D01*
X121273616Y-41780025D01*
X121273619Y-41780030D01*
X121273621Y-41780036D01*
X121357679Y-41945010D01*
X121362976Y-41955405D01*
X121478672Y-42114646D01*
X121617854Y-42253828D01*
X121777095Y-42369524D01*
X121952475Y-42458884D01*
X122139674Y-42519709D01*
X122334083Y-42550500D01*
X122334088Y-42550500D01*
X122530912Y-42550500D01*
X122530917Y-42550500D01*
X122725326Y-42519709D01*
X122912525Y-42458884D01*
X123087905Y-42369524D01*
X123247146Y-42253828D01*
X123386328Y-42114646D01*
X123502024Y-41955405D01*
X123591384Y-41780025D01*
X123652209Y-41592826D01*
X123683000Y-41398417D01*
X123683000Y-41201583D01*
X123652209Y-41007174D01*
X123591384Y-40819975D01*
X123502024Y-40644595D01*
X123502022Y-40644592D01*
X123418645Y-40529833D01*
X123418643Y-40529832D01*
X123386328Y-40485354D01*
X123346699Y-40445725D01*
X172567000Y-40445725D01*
X172567000Y-42154262D01*
X172567001Y-42154281D01*
X172569853Y-42184697D01*
X172614707Y-42312883D01*
X172695348Y-42422148D01*
X172695351Y-42422151D01*
X172804616Y-42502792D01*
X172804617Y-42502792D01*
X172804618Y-42502793D01*
X172932802Y-42547646D01*
X172963235Y-42550500D01*
X174671764Y-42550499D01*
X174671766Y-42550498D01*
X174671781Y-42550498D01*
X174698048Y-42548034D01*
X174702198Y-42547646D01*
X174830382Y-42502793D01*
X174939650Y-42422150D01*
X175020293Y-42312882D01*
X175065146Y-42184698D01*
X175068000Y-42154265D01*
X175067999Y-40445736D01*
X175067998Y-40445725D01*
X175067998Y-40445718D01*
X175065146Y-40415302D01*
X175040957Y-40346174D01*
X175020293Y-40287118D01*
X174978490Y-40230477D01*
X174939651Y-40177851D01*
X174939648Y-40177848D01*
X174830383Y-40097207D01*
X174770541Y-40076268D01*
X174702198Y-40052354D01*
X174702196Y-40052353D01*
X174702194Y-40052353D01*
X174671766Y-40049500D01*
X172963237Y-40049500D01*
X172963218Y-40049501D01*
X172932802Y-40052353D01*
X172804616Y-40097207D01*
X172695351Y-40177848D01*
X172695348Y-40177851D01*
X172614707Y-40287116D01*
X172569853Y-40415305D01*
X172567000Y-40445725D01*
X123346699Y-40445725D01*
X123247146Y-40346172D01*
X123087905Y-40230476D01*
X123077510Y-40225179D01*
X122912536Y-40141121D01*
X122912530Y-40141119D01*
X122912525Y-40141116D01*
X122725326Y-40080291D01*
X122530917Y-40049500D01*
X122334083Y-40049500D01*
X122139674Y-40080291D01*
X121952475Y-40141116D01*
X121952472Y-40141117D01*
X121952463Y-40141121D01*
X121777098Y-40230474D01*
X121777093Y-40230477D01*
X121617863Y-40346165D01*
X121617852Y-40346174D01*
X121478674Y-40485352D01*
X121478665Y-40485363D01*
X121362977Y-40644593D01*
X121362974Y-40644598D01*
X121273621Y-40819963D01*
X121273617Y-40819972D01*
X121273616Y-40819975D01*
X121212791Y-41007174D01*
X121182000Y-41201583D01*
X117600500Y-41201583D01*
X117600500Y-31308367D01*
X117601437Y-31291684D01*
X117601437Y-31291682D01*
X117611144Y-31205532D01*
X117618568Y-31173006D01*
X117644421Y-31099121D01*
X117658898Y-31069060D01*
X117700543Y-31002782D01*
X117721342Y-30976699D01*
X117776699Y-30921342D01*
X117802782Y-30900543D01*
X117869060Y-30858898D01*
X117899118Y-30844422D01*
X117973008Y-30818567D01*
X118005532Y-30811144D01*
X118091684Y-30801436D01*
X118108367Y-30800500D01*
X118165892Y-30800500D01*
X178034108Y-30800500D01*
X178091633Y-30800500D01*
X178108315Y-30801436D01*
G37*
G04 #@! TD.AperFunction*
G04 #@! TA.AperFunction,Conductor*
G36*
X178108315Y-51801436D02*
G01*
X178194465Y-51811144D01*
X178226993Y-51818568D01*
X178300878Y-51844421D01*
X178330939Y-51858898D01*
X178397217Y-51900543D01*
X178423304Y-51921346D01*
X178478653Y-51976695D01*
X178499456Y-52002782D01*
X178541101Y-52069060D01*
X178555578Y-52099121D01*
X178581431Y-52173006D01*
X178588855Y-52205532D01*
X178598563Y-52291682D01*
X178599500Y-52308367D01*
X178599500Y-68291632D01*
X178598563Y-68308315D01*
X178598563Y-68308317D01*
X178588855Y-68394467D01*
X178581431Y-68426993D01*
X178555578Y-68500878D01*
X178541101Y-68530939D01*
X178499456Y-68597217D01*
X178478653Y-68623304D01*
X178423304Y-68678653D01*
X178397217Y-68699456D01*
X178330939Y-68741101D01*
X178300878Y-68755578D01*
X178226993Y-68781431D01*
X178194467Y-68788855D01*
X178131435Y-68795957D01*
X178108313Y-68798563D01*
X178091633Y-68799500D01*
X118108367Y-68799500D01*
X118091686Y-68798563D01*
X118065413Y-68795602D01*
X118005532Y-68788855D01*
X117973006Y-68781431D01*
X117899121Y-68755578D01*
X117869060Y-68741101D01*
X117802782Y-68699456D01*
X117776695Y-68678653D01*
X117721346Y-68623304D01*
X117700543Y-68597217D01*
X117658898Y-68530939D01*
X117644421Y-68500878D01*
X117618568Y-68426993D01*
X117611144Y-68394465D01*
X117601437Y-68308315D01*
X117600500Y-68291632D01*
X117600500Y-62201583D01*
X121182000Y-62201583D01*
X121182000Y-62398417D01*
X121212791Y-62592826D01*
X121273616Y-62780025D01*
X121273619Y-62780030D01*
X121273621Y-62780036D01*
X121357679Y-62945010D01*
X121362976Y-62955405D01*
X121478672Y-63114646D01*
X121617854Y-63253828D01*
X121777095Y-63369524D01*
X121952475Y-63458884D01*
X122139674Y-63519709D01*
X122334083Y-63550500D01*
X122334088Y-63550500D01*
X122530912Y-63550500D01*
X122530917Y-63550500D01*
X122725326Y-63519709D01*
X122912525Y-63458884D01*
X123087905Y-63369524D01*
X123247146Y-63253828D01*
X123386328Y-63114646D01*
X123502024Y-62955405D01*
X123591384Y-62780025D01*
X123652209Y-62592826D01*
X123683000Y-62398417D01*
X123683000Y-62201583D01*
X123652209Y-62007174D01*
X123591384Y-61819975D01*
X123502024Y-61644595D01*
X123502022Y-61644592D01*
X123418645Y-61529833D01*
X123418643Y-61529832D01*
X123386328Y-61485354D01*
X123346699Y-61445725D01*
X172567000Y-61445725D01*
X172567000Y-63154262D01*
X172567001Y-63154281D01*
X172569853Y-63184697D01*
X172614707Y-63312883D01*
X172695348Y-63422148D01*
X172695351Y-63422151D01*
X172804616Y-63502792D01*
X172804617Y-63502792D01*
X172804618Y-63502793D01*
X172932802Y-63547646D01*
X172963235Y-63550500D01*
X174671764Y-63550499D01*
X174671766Y-63550498D01*
X174671781Y-63550498D01*
X174698048Y-63548034D01*
X174702198Y-63547646D01*
X174830382Y-63502793D01*
X174939650Y-63422150D01*
X175020293Y-63312882D01*
X175065146Y-63184698D01*
X175068000Y-63154265D01*
X175067999Y-61445736D01*
X175067998Y-61445725D01*
X175067998Y-61445718D01*
X175065146Y-61415302D01*
X175040957Y-61346174D01*
X175020293Y-61287118D01*
X174978490Y-61230477D01*
X174939651Y-61177851D01*
X174939648Y-61177848D01*
X174830383Y-61097207D01*
X174770541Y-61076268D01*
X174702198Y-61052354D01*
X174702196Y-61052353D01*
X174702194Y-61052353D01*
X174671766Y-61049500D01*
X172963237Y-61049500D01*
X172963218Y-61049501D01*
X172932802Y-61052353D01*
X172804616Y-61097207D01*
X172695351Y-61177848D01*
X172695348Y-61177851D01*
X172614707Y-61287116D01*
X172569853Y-61415305D01*
X172567000Y-61445725D01*
X123346699Y-61445725D01*
X123247146Y-61346172D01*
X123087905Y-61230476D01*
X123077510Y-61225179D01*
X122912536Y-61141121D01*
X122912530Y-61141119D01*
X122912525Y-61141116D01*
X122725326Y-61080291D01*
X122530917Y-61049500D01*
X122334083Y-61049500D01*
X122139674Y-61080291D01*
X121952475Y-61141116D01*
X121952472Y-61141117D01*
X121952463Y-61141121D01*
X121777098Y-61230474D01*
X121777093Y-61230477D01*
X121617863Y-61346165D01*
X121617852Y-61346174D01*
X121478674Y-61485352D01*
X121478665Y-61485363D01*
X121362977Y-61644593D01*
X121362974Y-61644598D01*
X121273621Y-61819963D01*
X121273617Y-61819972D01*
X121273616Y-61819975D01*
X121212791Y-62007174D01*
X121182000Y-62201583D01*
X117600500Y-62201583D01*
X117600500Y-52308367D01*
X117601437Y-52291684D01*
X117601437Y-52291682D01*
X117611144Y-52205532D01*
X117618568Y-52173006D01*
X117644421Y-52099121D01*
X117658898Y-52069060D01*
X117700543Y-52002782D01*
X117721342Y-51976699D01*
X117776699Y-51921342D01*
X117802782Y-51900543D01*
X117869060Y-51858898D01*
X117899118Y-51844422D01*
X117973008Y-51818567D01*
X118005532Y-51811144D01*
X118091684Y-51801436D01*
X118108367Y-51800500D01*
X118165892Y-51800500D01*
X178034108Y-51800500D01*
X178091633Y-51800500D01*
X178108315Y-51801436D01*
G37*
G04 #@! TD.AperFunction*
G04 #@! TA.AperFunction,Conductor*
G36*
X178108315Y-72801436D02*
G01*
X178194465Y-72811144D01*
X178226993Y-72818568D01*
X178300878Y-72844421D01*
X178330939Y-72858898D01*
X178397217Y-72900543D01*
X178423304Y-72921346D01*
X178478653Y-72976695D01*
X178499456Y-73002782D01*
X178541101Y-73069060D01*
X178555578Y-73099121D01*
X178581431Y-73173006D01*
X178588855Y-73205532D01*
X178598563Y-73291682D01*
X178599500Y-73308367D01*
X178599500Y-89291632D01*
X178598563Y-89308315D01*
X178598563Y-89308317D01*
X178588855Y-89394467D01*
X178581431Y-89426993D01*
X178555578Y-89500878D01*
X178541101Y-89530939D01*
X178499456Y-89597217D01*
X178478653Y-89623304D01*
X178423304Y-89678653D01*
X178397217Y-89699456D01*
X178330939Y-89741101D01*
X178300878Y-89755578D01*
X178226993Y-89781431D01*
X178194467Y-89788855D01*
X178131435Y-89795957D01*
X178108313Y-89798563D01*
X178091633Y-89799500D01*
X118108367Y-89799500D01*
X118091686Y-89798563D01*
X118065413Y-89795602D01*
X118005532Y-89788855D01*
X117973006Y-89781431D01*
X117899121Y-89755578D01*
X117869060Y-89741101D01*
X117802782Y-89699456D01*
X117776695Y-89678653D01*
X117721346Y-89623304D01*
X117700543Y-89597217D01*
X117658898Y-89530939D01*
X117644421Y-89500878D01*
X117618568Y-89426993D01*
X117611144Y-89394465D01*
X117601437Y-89308315D01*
X117600500Y-89291632D01*
X117600500Y-83201583D01*
X121182000Y-83201583D01*
X121182000Y-83398417D01*
X121212791Y-83592826D01*
X121273616Y-83780025D01*
X121273619Y-83780030D01*
X121273621Y-83780036D01*
X121357679Y-83945010D01*
X121362976Y-83955405D01*
X121478672Y-84114646D01*
X121617854Y-84253828D01*
X121777095Y-84369524D01*
X121952475Y-84458884D01*
X122139674Y-84519709D01*
X122334083Y-84550500D01*
X122334088Y-84550500D01*
X122530912Y-84550500D01*
X122530917Y-84550500D01*
X122725326Y-84519709D01*
X122912525Y-84458884D01*
X123087905Y-84369524D01*
X123247146Y-84253828D01*
X123386328Y-84114646D01*
X123502024Y-83955405D01*
X123591384Y-83780025D01*
X123652209Y-83592826D01*
X123683000Y-83398417D01*
X123683000Y-83201583D01*
X123652209Y-83007174D01*
X123591384Y-82819975D01*
X123502024Y-82644595D01*
X123502022Y-82644592D01*
X123418645Y-82529833D01*
X123418643Y-82529832D01*
X123386328Y-82485354D01*
X123346699Y-82445725D01*
X172567000Y-82445725D01*
X172567000Y-84154262D01*
X172567001Y-84154281D01*
X172569853Y-84184697D01*
X172614707Y-84312883D01*
X172695348Y-84422148D01*
X172695351Y-84422151D01*
X172804616Y-84502792D01*
X172804617Y-84502792D01*
X172804618Y-84502793D01*
X172932802Y-84547646D01*
X172963235Y-84550500D01*
X174671764Y-84550499D01*
X174671766Y-84550498D01*
X174671781Y-84550498D01*
X174698048Y-84548034D01*
X174702198Y-84547646D01*
X174830382Y-84502793D01*
X174939650Y-84422150D01*
X175020293Y-84312882D01*
X175065146Y-84184698D01*
X175068000Y-84154265D01*
X175067999Y-82445736D01*
X175067998Y-82445725D01*
X175067998Y-82445718D01*
X175065146Y-82415302D01*
X175040957Y-82346174D01*
X175020293Y-82287118D01*
X174978490Y-82230477D01*
X174939651Y-82177851D01*
X174939648Y-82177848D01*
X174830383Y-82097207D01*
X174770541Y-82076268D01*
X174702198Y-82052354D01*
X174702196Y-82052353D01*
X174702194Y-82052353D01*
X174671766Y-82049500D01*
X172963237Y-82049500D01*
X172963218Y-82049501D01*
X172932802Y-82052353D01*
X172804616Y-82097207D01*
X172695351Y-82177848D01*
X172695348Y-82177851D01*
X172614707Y-82287116D01*
X172569853Y-82415305D01*
X172567000Y-82445725D01*
X123346699Y-82445725D01*
X123247146Y-82346172D01*
X123087905Y-82230476D01*
X123077510Y-82225179D01*
X122912536Y-82141121D01*
X122912530Y-82141119D01*
X122912525Y-82141116D01*
X122725326Y-82080291D01*
X122530917Y-82049500D01*
X122334083Y-82049500D01*
X122139674Y-82080291D01*
X121952475Y-82141116D01*
X121952472Y-82141117D01*
X121952463Y-82141121D01*
X121777098Y-82230474D01*
X121777093Y-82230477D01*
X121617863Y-82346165D01*
X121617852Y-82346174D01*
X121478674Y-82485352D01*
X121478665Y-82485363D01*
X121362977Y-82644593D01*
X121362974Y-82644598D01*
X121273621Y-82819963D01*
X121273617Y-82819972D01*
X121273616Y-82819975D01*
X121212791Y-83007174D01*
X121182000Y-83201583D01*
X117600500Y-83201583D01*
X117600500Y-73308367D01*
X117601437Y-73291684D01*
X117601437Y-73291682D01*
X117611144Y-73205532D01*
X117618568Y-73173006D01*
X117644421Y-73099121D01*
X117658898Y-73069060D01*
X117700543Y-73002782D01*
X117721342Y-72976699D01*
X117776699Y-72921342D01*
X117802782Y-72900543D01*
X117869060Y-72858898D01*
X117899118Y-72844422D01*
X117973008Y-72818567D01*
X118005532Y-72811144D01*
X118091684Y-72801436D01*
X118108367Y-72800500D01*
X118165892Y-72800500D01*
X178034108Y-72800500D01*
X178091633Y-72800500D01*
X178108315Y-72801436D01*
G37*
G04 #@! TD.AperFunction*
G04 #@! TA.AperFunction,Conductor*
G36*
X178108315Y-93801436D02*
G01*
X178194465Y-93811144D01*
X178226993Y-93818568D01*
X178300878Y-93844421D01*
X178330939Y-93858898D01*
X178397217Y-93900543D01*
X178423304Y-93921346D01*
X178478653Y-93976695D01*
X178499456Y-94002782D01*
X178541101Y-94069060D01*
X178555578Y-94099121D01*
X178581431Y-94173006D01*
X178588855Y-94205532D01*
X178598563Y-94291682D01*
X178599500Y-94308367D01*
X178599500Y-110291632D01*
X178598563Y-110308315D01*
X178598563Y-110308317D01*
X178588855Y-110394467D01*
X178581431Y-110426993D01*
X178555578Y-110500878D01*
X178541101Y-110530939D01*
X178499456Y-110597217D01*
X178478653Y-110623304D01*
X178423304Y-110678653D01*
X178397217Y-110699456D01*
X178330939Y-110741101D01*
X178300878Y-110755578D01*
X178226993Y-110781431D01*
X178194467Y-110788855D01*
X178131435Y-110795957D01*
X178108313Y-110798563D01*
X178091633Y-110799500D01*
X118108367Y-110799500D01*
X118091686Y-110798563D01*
X118065413Y-110795602D01*
X118005532Y-110788855D01*
X117973006Y-110781431D01*
X117899121Y-110755578D01*
X117869060Y-110741101D01*
X117802782Y-110699456D01*
X117776695Y-110678653D01*
X117721346Y-110623304D01*
X117700543Y-110597217D01*
X117658898Y-110530939D01*
X117644421Y-110500878D01*
X117618568Y-110426993D01*
X117611144Y-110394465D01*
X117601437Y-110308315D01*
X117600500Y-110291632D01*
X117600500Y-104201583D01*
X121182000Y-104201583D01*
X121182000Y-104398417D01*
X121212791Y-104592826D01*
X121273616Y-104780025D01*
X121273619Y-104780030D01*
X121273621Y-104780036D01*
X121357679Y-104945010D01*
X121362976Y-104955405D01*
X121478672Y-105114646D01*
X121617854Y-105253828D01*
X121777095Y-105369524D01*
X121952475Y-105458884D01*
X122139674Y-105519709D01*
X122334083Y-105550500D01*
X122334088Y-105550500D01*
X122530912Y-105550500D01*
X122530917Y-105550500D01*
X122725326Y-105519709D01*
X122912525Y-105458884D01*
X123087905Y-105369524D01*
X123247146Y-105253828D01*
X123386328Y-105114646D01*
X123502024Y-104955405D01*
X123591384Y-104780025D01*
X123652209Y-104592826D01*
X123683000Y-104398417D01*
X123683000Y-104201583D01*
X123652209Y-104007174D01*
X123591384Y-103819975D01*
X123502024Y-103644595D01*
X123502022Y-103644592D01*
X123418645Y-103529833D01*
X123418643Y-103529832D01*
X123386328Y-103485354D01*
X123346699Y-103445725D01*
X172567000Y-103445725D01*
X172567000Y-105154262D01*
X172567001Y-105154281D01*
X172569853Y-105184697D01*
X172614707Y-105312883D01*
X172695348Y-105422148D01*
X172695351Y-105422151D01*
X172804616Y-105502792D01*
X172804617Y-105502792D01*
X172804618Y-105502793D01*
X172932802Y-105547646D01*
X172963235Y-105550500D01*
X174671764Y-105550499D01*
X174671766Y-105550498D01*
X174671781Y-105550498D01*
X174698048Y-105548034D01*
X174702198Y-105547646D01*
X174830382Y-105502793D01*
X174939650Y-105422150D01*
X175020293Y-105312882D01*
X175065146Y-105184698D01*
X175068000Y-105154265D01*
X175067999Y-103445736D01*
X175067998Y-103445725D01*
X175067998Y-103445718D01*
X175065146Y-103415302D01*
X175040957Y-103346174D01*
X175020293Y-103287118D01*
X174978490Y-103230477D01*
X174939651Y-103177851D01*
X174939648Y-103177848D01*
X174830383Y-103097207D01*
X174770541Y-103076268D01*
X174702198Y-103052354D01*
X174702196Y-103052353D01*
X174702194Y-103052353D01*
X174671766Y-103049500D01*
X172963237Y-103049500D01*
X172963218Y-103049501D01*
X172932802Y-103052353D01*
X172804616Y-103097207D01*
X172695351Y-103177848D01*
X172695348Y-103177851D01*
X172614707Y-103287116D01*
X172569853Y-103415305D01*
X172567000Y-103445725D01*
X123346699Y-103445725D01*
X123247146Y-103346172D01*
X123087905Y-103230476D01*
X123077510Y-103225179D01*
X122912536Y-103141121D01*
X122912530Y-103141119D01*
X122912525Y-103141116D01*
X122725326Y-103080291D01*
X122530917Y-103049500D01*
X122334083Y-103049500D01*
X122139674Y-103080291D01*
X121952475Y-103141116D01*
X121952472Y-103141117D01*
X121952463Y-103141121D01*
X121777098Y-103230474D01*
X121777093Y-103230477D01*
X121617863Y-103346165D01*
X121617852Y-103346174D01*
X121478674Y-103485352D01*
X121478665Y-103485363D01*
X121362977Y-103644593D01*
X121362974Y-103644598D01*
X121273621Y-103819963D01*
X121273617Y-103819972D01*
X121273616Y-103819975D01*
X121212791Y-104007174D01*
X121182000Y-104201583D01*
X117600500Y-104201583D01*
X117600500Y-94308367D01*
X117601437Y-94291684D01*
X117601437Y-94291682D01*
X117611144Y-94205532D01*
X117618568Y-94173006D01*
X117644421Y-94099121D01*
X117658898Y-94069060D01*
X117700543Y-94002782D01*
X117721342Y-93976699D01*
X117776699Y-93921342D01*
X117802782Y-93900543D01*
X117869060Y-93858898D01*
X117899118Y-93844422D01*
X117973008Y-93818567D01*
X118005532Y-93811144D01*
X118091684Y-93801436D01*
X118108367Y-93800500D01*
X118165892Y-93800500D01*
X178034108Y-93800500D01*
X178091633Y-93800500D01*
X178108315Y-93801436D01*
G37*
G04 #@! TD.AperFunction*
D15*
X117000000Y-30300000D02*
X179200000Y-30300000D01*
X179200000Y-132300000D01*
X117000000Y-132300000D01*
X117000000Y-30300000D01*
M02*
