G04 #@! TF.GenerationSoftware,KiCad,Pcbnew,9.0.4*
G04 #@! TF.CreationDate,2025-09-21T01:50:15+05:30*
G04 #@! TF.ProjectId,panel,70616e65-6c2e-46b6-9963-61645f706362,rev?*
G04 #@! TF.SameCoordinates,Original*
G04 #@! TF.FileFunction,Soldermask,Bot*
G04 #@! TF.FilePolarity,Negative*
%FSLAX46Y46*%
G04 Gerber Fmt 4.6, Leading zero omitted, Abs format (unit mm)*
G04 Created by KiCad (PCBNEW 9.0.4) date 2025-09-21 01:50:15*
%MOMM*%
%LPD*%
G01*
G04 APERTURE LIST*
G04 Aperture macros list*
%AMRoundRect*
0 Rectangle with rounded corners*
0 $1 Rounding radius*
0 $2 $3 $4 $5 $6 $7 $8 $9 X,Y pos of 4 corners*
0 Add a 4 corners polygon primitive as box body*
4,1,4,$2,$3,$4,$5,$6,$7,$8,$9,$2,$3,0*
0 Add four circle primitives for the rounded corners*
1,1,$1+$1,$2,$3*
1,1,$1+$1,$4,$5*
1,1,$1+$1,$6,$7*
1,1,$1+$1,$8,$9*
0 Add four rect primitives between the rounded corners*
20,1,$1+$1,$2,$3,$4,$5,0*
20,1,$1+$1,$4,$5,$6,$7,0*
20,1,$1+$1,$6,$7,$8,$9,0*
20,1,$1+$1,$8,$9,$2,$3,0*%
G04 Aperture macros list end*
%ADD10C,0.700000*%
%ADD11C,2.100000*%
%ADD12RoundRect,0.250001X0.799999X-0.799999X0.799999X0.799999X-0.799999X0.799999X-0.799999X-0.799999X0*%
%ADD13RoundRect,0.250001X-0.799999X0.799999X-0.799999X-0.799999X0.799999X-0.799999X0.799999X0.799999X0*%
G04 #@! TA.AperFunction,Profile*
%ADD14C,0.050000*%
G04 #@! TD*
G04 APERTURE END LIST*
D10*
X141512500Y-102362500D03*
X141512500Y-101337500D03*
X140487500Y-102362500D03*
X140487500Y-101337500D03*
D11*
X173817500Y-99300000D03*
D12*
X173817500Y-104300000D03*
D11*
X122432500Y-104300000D03*
D13*
X122432500Y-99300000D03*
D10*
X141512500Y-81362500D03*
X141512500Y-80337500D03*
X140487500Y-81362500D03*
X140487500Y-80337500D03*
D11*
X173817500Y-78300000D03*
D12*
X173817500Y-83300000D03*
D11*
X122432500Y-83300000D03*
D13*
X122432500Y-78300000D03*
D10*
X141512500Y-60362500D03*
X141512500Y-59337500D03*
X140487500Y-60362500D03*
X140487500Y-59337500D03*
D11*
X173817500Y-57300000D03*
D12*
X173817500Y-62300000D03*
D11*
X122432500Y-62300000D03*
D13*
X122432500Y-57300000D03*
D10*
X141512500Y-39362500D03*
X141512500Y-38337500D03*
X140487500Y-39362500D03*
X140487500Y-38337500D03*
D11*
X173817500Y-36300000D03*
D12*
X173817500Y-41300000D03*
D11*
X122432500Y-41300000D03*
D13*
X122432500Y-36300000D03*
D11*
X122432500Y-125300000D03*
D13*
X122432500Y-120300000D03*
D11*
X173817500Y-120300000D03*
D12*
X173817500Y-125300000D03*
D10*
X141512500Y-123362500D03*
X141512500Y-122337500D03*
X140487500Y-123362500D03*
X140487500Y-122337500D03*
D14*
X117000000Y-30300000D02*
X179200000Y-30300000D01*
X179200000Y-132300000D01*
X117000000Y-132300000D01*
X117000000Y-30300000D01*
M02*
